<svg xmlns="http://www.w3.org/2000/svg" width="960" height="540" viewBox="0 0 960 540">
<rect width="100%" height="100%" fill="#f7f3e8"/>
<text x="480.0" y="28" text-anchor="middle" font-family="Helvetica, Arial, sans-serif" font-size="22" fill="#1f2933">Minimal Cover Size vs Number of Attributes</text>
<line x1="80" y1="470" x2="920" y2="470" stroke="#334e68" stroke-width="2"/>
<line x1="80" y1="50" x2="80" y2="470" stroke="#334e68" stroke-width="2"/>
<text x="480.0" y="520" text-anchor="middle" font-family="Helvetica, Arial, sans-serif" font-size="16" fill="#1f2933">Number of Attributes</text>
<text x="24" y="270.0" text-anchor="middle" transform="rotate(-90 24 270.0)" font-family="Helvetica, Arial, sans-serif" font-size="16" fill="#1f2933">Minimal Cover Size</text>
<line x1="80" y1="470.00" x2="920" y2="470.00" stroke="#d9e2ec" stroke-width="1"/>
<text x="70" y="475.00" text-anchor="end" font-family="Helvetica, Arial, sans-serif" font-size="12" fill="#486581">0.000</text>
<line x1="80" y1="386.00" x2="920" y2="386.00" stroke="#d9e2ec" stroke-width="1"/>
<text x="70" y="391.00" text-anchor="end" font-family="Helvetica, Arial, sans-serif" font-size="12" fill="#486581">3.733</text>
<line x1="80" y1="302.00" x2="920" y2="302.00" stroke="#d9e2ec" stroke-width="1"/>
<text x="70" y="307.00" text-anchor="end" font-family="Helvetica, Arial, sans-serif" font-size="12" fill="#486581">7.467</text>
<line x1="80" y1="218.00" x2="920" y2="218.00" stroke="#d9e2ec" stroke-width="1"/>
<text x="70" y="223.00" text-anchor="end" font-family="Helvetica, Arial, sans-serif" font-size="12" fill="#486581">11.200</text>
<line x1="80" y1="134.00" x2="920" y2="134.00" stroke="#d9e2ec" stroke-width="1"/>
<text x="70" y="139.00" text-anchor="end" font-family="Helvetica, Arial, sans-serif" font-size="12" fill="#486581">14.933</text>
<line x1="80" y1="50.00" x2="920" y2="50.00" stroke="#d9e2ec" stroke-width="1"/>
<text x="70" y="55.00" text-anchor="end" font-family="Helvetica, Arial, sans-serif" font-size="12" fill="#486581">18.666</text>
<line x1="80.00" y1="50" x2="80.00" y2="470" stroke="#eef2f6" stroke-width="1"/>
<text x="80.00" y="492" text-anchor="middle" font-family="Helvetica, Arial, sans-serif" font-size="12" fill="#486581">4</text>
<line x1="173.33" y1="50" x2="173.33" y2="470" stroke="#eef2f6" stroke-width="1"/>
<text x="173.33" y="492" text-anchor="middle" font-family="Helvetica, Arial, sans-serif" font-size="12" fill="#486581">5</text>
<line x1="266.67" y1="50" x2="266.67" y2="470" stroke="#eef2f6" stroke-width="1"/>
<text x="266.67" y="492" text-anchor="middle" font-family="Helvetica, Arial, sans-serif" font-size="12" fill="#486581">6</text>
<line x1="360.00" y1="50" x2="360.00" y2="470" stroke="#eef2f6" stroke-width="1"/>
<text x="360.00" y="492" text-anchor="middle" font-family="Helvetica, Arial, sans-serif" font-size="12" fill="#486581">7</text>
<line x1="453.33" y1="50" x2="453.33" y2="470" stroke="#eef2f6" stroke-width="1"/>
<text x="453.33" y="492" text-anchor="middle" font-family="Helvetica, Arial, sans-serif" font-size="12" fill="#486581">8</text>
<line x1="546.67" y1="50" x2="546.67" y2="470" stroke="#eef2f6" stroke-width="1"/>
<text x="546.67" y="492" text-anchor="middle" font-family="Helvetica, Arial, sans-serif" font-size="12" fill="#486581">9</text>
<line x1="640.00" y1="50" x2="640.00" y2="470" stroke="#eef2f6" stroke-width="1"/>
<text x="640.00" y="492" text-anchor="middle" font-family="Helvetica, Arial, sans-serif" font-size="12" fill="#486581">10</text>
<line x1="733.33" y1="50" x2="733.33" y2="470" stroke="#eef2f6" stroke-width="1"/>
<text x="733.33" y="492" text-anchor="middle" font-family="Helvetica, Arial, sans-serif" font-size="12" fill="#486581">11</text>
<line x1="826.67" y1="50" x2="826.67" y2="470" stroke="#eef2f6" stroke-width="1"/>
<text x="826.67" y="492" text-anchor="middle" font-family="Helvetica, Arial, sans-serif" font-size="12" fill="#486581">12</text>
<line x1="920.00" y1="50" x2="920.00" y2="470" stroke="#eef2f6" stroke-width="1"/>
<text x="920.00" y="492" text-anchor="middle" font-family="Helvetica, Arial, sans-serif" font-size="12" fill="#486581">13</text>
<polyline fill="none" stroke="#00798c" stroke-width="3" points="80.00,371.43 173.33,340.47 266.67,299.94 360.00,249.25 453.33,196.64 546.67,149.97 640.00,112.59 733.33,84.32 826.67,63.90 920.00,50.00"/>
<circle cx="80.00" cy="371.43" r="4" fill="#00798c"/>
<circle cx="173.33" cy="340.47" r="4" fill="#00798c"/>
<circle cx="266.67" cy="299.94" r="4" fill="#00798c"/>
<circle cx="360.00" cy="249.25" r="4" fill="#00798c"/>
<circle cx="453.33" cy="196.64" r="4" fill="#00798c"/>
<circle cx="546.67" cy="149.97" r="4" fill="#00798c"/>
<circle cx="640.00" cy="112.59" r="4" fill="#00798c"/>
<circle cx="733.33" cy="84.32" r="4" fill="#00798c"/>
<circle cx="826.67" cy="63.90" r="4" fill="#00798c"/>
<circle cx="920.00" cy="50.00" r="4" fill="#00798c"/>
<rect x="90" y="58" width="14" height="14" fill="#00798c"/>
<text x="112" y="70" font-family="Helvetica, Arial, sans-serif" font-size="13" fill="#1f2933">sample size = 20</text>
</svg>
