<?xml version="1.0" encoding="utf-8" standalone="no"?>
<!DOCTYPE svg PUBLIC "-//W3C//DTD SVG 1.1//EN"
  "http://www.w3.org/Graphics/SVG/1.1/DTD/svg11.dtd">
<svg xmlns:xlink="http://www.w3.org/1999/xlink" width="842.033125pt" height="452.673906pt" viewBox="0 0 842.033125 452.673906" xmlns="http://www.w3.org/2000/svg" version="1.1">
 <metadata>
  <rdf:RDF xmlns:dc="http://purl.org/dc/elements/1.1/" xmlns:cc="http://creativecommons.org/ns#" xmlns:rdf="http://www.w3.org/1999/02/22-rdf-syntax-ns#">
   <cc:Work>
    <dc:type rdf:resource="http://purl.org/dc/dcmitype/StillImage"/>
    <dc:date>2026-04-11T00:09:11.400100</dc:date>
    <dc:format>image/svg+xml</dc:format>
    <dc:creator>
     <cc:Agent>
      <dc:title>Matplotlib v3.10.1, https://matplotlib.org/</dc:title>
     </cc:Agent>
    </dc:creator>
   </cc:Work>
  </rdf:RDF>
 </metadata>
 <defs>
  <style type="text/css">*{stroke-linejoin: round; stroke-linecap: butt}</style>
 </defs>
 <g id="figure_1">
  <g id="patch_1">
   <path d="M 0 452.673906 
L 842.033125 452.673906 
L 842.033125 0 
L 0 0 
z
" style="fill: #ffffff"/>
  </g>
  <g id="axes_1">
   <g id="patch_2">
    <path d="M 40.603125 415.117656 
L 834.833125 415.117656 
L 834.833125 32.597656 
L 40.603125 32.597656 
z
" style="fill: #ffffff"/>
   </g>
   <g id="matplotlib.axis_1">
    <g id="xtick_1">
     <g id="line2d_1">
      <path d="M 40.603125 415.117656 
L 40.603125 32.597656 
" clip-path="url(#p6bdb8d9037)" style="fill: none; stroke-dasharray: 2.22,0.96; stroke-dashoffset: 0; stroke: #b0b0b0; stroke-opacity: 0.35; stroke-width: 0.6"/>
     </g>
     <g id="line2d_2">
      <defs>
       <path id="me41f80e80b" d="M 0 0 
L 0 3.5 
" style="stroke: #000000; stroke-width: 0.8"/>
      </defs>
      <g>
       <use xlink:href="#me41f80e80b" x="40.603125" y="415.117656" style="stroke: #000000; stroke-width: 0.8"/>
      </g>
     </g>
     <g id="text_1">
      <!-- 0.0 -->
      <g transform="translate(32.651563 429.716094) scale(0.1 -0.1)">
       <defs>
        <path id="DejaVuSans-30" d="M 2034 4250 
Q 1547 4250 1301 3770 
Q 1056 3291 1056 2328 
Q 1056 1369 1301 889 
Q 1547 409 2034 409 
Q 2525 409 2770 889 
Q 3016 1369 3016 2328 
Q 3016 3291 2770 3770 
Q 2525 4250 2034 4250 
z
M 2034 4750 
Q 2819 4750 3233 4129 
Q 3647 3509 3647 2328 
Q 3647 1150 3233 529 
Q 2819 -91 2034 -91 
Q 1250 -91 836 529 
Q 422 1150 422 2328 
Q 422 3509 836 4129 
Q 1250 4750 2034 4750 
z
" transform="scale(0.015625)"/>
        <path id="DejaVuSans-2e" d="M 684 794 
L 1344 794 
L 1344 0 
L 684 0 
L 684 794 
z
" transform="scale(0.015625)"/>
       </defs>
       <use xlink:href="#DejaVuSans-30"/>
       <use xlink:href="#DejaVuSans-2e" transform="translate(63.623047 0)"/>
       <use xlink:href="#DejaVuSans-30" transform="translate(95.410156 0)"/>
      </g>
     </g>
    </g>
    <g id="xtick_2">
     <g id="line2d_3">
      <path d="M 194.822542 415.117656 
L 194.822542 32.597656 
" clip-path="url(#p6bdb8d9037)" style="fill: none; stroke-dasharray: 2.22,0.96; stroke-dashoffset: 0; stroke: #b0b0b0; stroke-opacity: 0.35; stroke-width: 0.6"/>
     </g>
     <g id="line2d_4">
      <g>
       <use xlink:href="#me41f80e80b" x="194.822542" y="415.117656" style="stroke: #000000; stroke-width: 0.8"/>
      </g>
     </g>
     <g id="text_2">
      <!-- 0.2 -->
      <g transform="translate(186.87098 429.716094) scale(0.1 -0.1)">
       <defs>
        <path id="DejaVuSans-32" d="M 1228 531 
L 3431 531 
L 3431 0 
L 469 0 
L 469 531 
Q 828 903 1448 1529 
Q 2069 2156 2228 2338 
Q 2531 2678 2651 2914 
Q 2772 3150 2772 3378 
Q 2772 3750 2511 3984 
Q 2250 4219 1831 4219 
Q 1534 4219 1204 4116 
Q 875 4013 500 3803 
L 500 4441 
Q 881 4594 1212 4672 
Q 1544 4750 1819 4750 
Q 2544 4750 2975 4387 
Q 3406 4025 3406 3419 
Q 3406 3131 3298 2873 
Q 3191 2616 2906 2266 
Q 2828 2175 2409 1742 
Q 1991 1309 1228 531 
z
" transform="scale(0.015625)"/>
       </defs>
       <use xlink:href="#DejaVuSans-30"/>
       <use xlink:href="#DejaVuSans-2e" transform="translate(63.623047 0)"/>
       <use xlink:href="#DejaVuSans-32" transform="translate(95.410156 0)"/>
      </g>
     </g>
    </g>
    <g id="xtick_3">
     <g id="line2d_5">
      <path d="M 349.04196 415.117656 
L 349.04196 32.597656 
" clip-path="url(#p6bdb8d9037)" style="fill: none; stroke-dasharray: 2.22,0.96; stroke-dashoffset: 0; stroke: #b0b0b0; stroke-opacity: 0.35; stroke-width: 0.6"/>
     </g>
     <g id="line2d_6">
      <g>
       <use xlink:href="#me41f80e80b" x="349.04196" y="415.117656" style="stroke: #000000; stroke-width: 0.8"/>
      </g>
     </g>
     <g id="text_3">
      <!-- 0.4 -->
      <g transform="translate(341.090397 429.716094) scale(0.1 -0.1)">
       <defs>
        <path id="DejaVuSans-34" d="M 2419 4116 
L 825 1625 
L 2419 1625 
L 2419 4116 
z
M 2253 4666 
L 3047 4666 
L 3047 1625 
L 3713 1625 
L 3713 1100 
L 3047 1100 
L 3047 0 
L 2419 0 
L 2419 1100 
L 313 1100 
L 313 1709 
L 2253 4666 
z
" transform="scale(0.015625)"/>
       </defs>
       <use xlink:href="#DejaVuSans-30"/>
       <use xlink:href="#DejaVuSans-2e" transform="translate(63.623047 0)"/>
       <use xlink:href="#DejaVuSans-34" transform="translate(95.410156 0)"/>
      </g>
     </g>
    </g>
    <g id="xtick_4">
     <g id="line2d_7">
      <path d="M 503.261377 415.117656 
L 503.261377 32.597656 
" clip-path="url(#p6bdb8d9037)" style="fill: none; stroke-dasharray: 2.22,0.96; stroke-dashoffset: 0; stroke: #b0b0b0; stroke-opacity: 0.35; stroke-width: 0.6"/>
     </g>
     <g id="line2d_8">
      <g>
       <use xlink:href="#me41f80e80b" x="503.261377" y="415.117656" style="stroke: #000000; stroke-width: 0.8"/>
      </g>
     </g>
     <g id="text_4">
      <!-- 0.6 -->
      <g transform="translate(495.309815 429.716094) scale(0.1 -0.1)">
       <defs>
        <path id="DejaVuSans-36" d="M 2113 2584 
Q 1688 2584 1439 2293 
Q 1191 2003 1191 1497 
Q 1191 994 1439 701 
Q 1688 409 2113 409 
Q 2538 409 2786 701 
Q 3034 994 3034 1497 
Q 3034 2003 2786 2293 
Q 2538 2584 2113 2584 
z
M 3366 4563 
L 3366 3988 
Q 3128 4100 2886 4159 
Q 2644 4219 2406 4219 
Q 1781 4219 1451 3797 
Q 1122 3375 1075 2522 
Q 1259 2794 1537 2939 
Q 1816 3084 2150 3084 
Q 2853 3084 3261 2657 
Q 3669 2231 3669 1497 
Q 3669 778 3244 343 
Q 2819 -91 2113 -91 
Q 1303 -91 875 529 
Q 447 1150 447 2328 
Q 447 3434 972 4092 
Q 1497 4750 2381 4750 
Q 2619 4750 2861 4703 
Q 3103 4656 3366 4563 
z
" transform="scale(0.015625)"/>
       </defs>
       <use xlink:href="#DejaVuSans-30"/>
       <use xlink:href="#DejaVuSans-2e" transform="translate(63.623047 0)"/>
       <use xlink:href="#DejaVuSans-36" transform="translate(95.410156 0)"/>
      </g>
     </g>
    </g>
    <g id="xtick_5">
     <g id="line2d_9">
      <path d="M 657.480795 415.117656 
L 657.480795 32.597656 
" clip-path="url(#p6bdb8d9037)" style="fill: none; stroke-dasharray: 2.22,0.96; stroke-dashoffset: 0; stroke: #b0b0b0; stroke-opacity: 0.35; stroke-width: 0.6"/>
     </g>
     <g id="line2d_10">
      <g>
       <use xlink:href="#me41f80e80b" x="657.480795" y="415.117656" style="stroke: #000000; stroke-width: 0.8"/>
      </g>
     </g>
     <g id="text_5">
      <!-- 0.8 -->
      <g transform="translate(649.529232 429.716094) scale(0.1 -0.1)">
       <defs>
        <path id="DejaVuSans-38" d="M 2034 2216 
Q 1584 2216 1326 1975 
Q 1069 1734 1069 1313 
Q 1069 891 1326 650 
Q 1584 409 2034 409 
Q 2484 409 2743 651 
Q 3003 894 3003 1313 
Q 3003 1734 2745 1975 
Q 2488 2216 2034 2216 
z
M 1403 2484 
Q 997 2584 770 2862 
Q 544 3141 544 3541 
Q 544 4100 942 4425 
Q 1341 4750 2034 4750 
Q 2731 4750 3128 4425 
Q 3525 4100 3525 3541 
Q 3525 3141 3298 2862 
Q 3072 2584 2669 2484 
Q 3125 2378 3379 2068 
Q 3634 1759 3634 1313 
Q 3634 634 3220 271 
Q 2806 -91 2034 -91 
Q 1263 -91 848 271 
Q 434 634 434 1313 
Q 434 1759 690 2068 
Q 947 2378 1403 2484 
z
M 1172 3481 
Q 1172 3119 1398 2916 
Q 1625 2713 2034 2713 
Q 2441 2713 2670 2916 
Q 2900 3119 2900 3481 
Q 2900 3844 2670 4047 
Q 2441 4250 2034 4250 
Q 1625 4250 1398 4047 
Q 1172 3844 1172 3481 
z
" transform="scale(0.015625)"/>
       </defs>
       <use xlink:href="#DejaVuSans-30"/>
       <use xlink:href="#DejaVuSans-2e" transform="translate(63.623047 0)"/>
       <use xlink:href="#DejaVuSans-38" transform="translate(95.410156 0)"/>
      </g>
     </g>
    </g>
    <g id="xtick_6">
     <g id="line2d_11">
      <path d="M 811.700212 415.117656 
L 811.700212 32.597656 
" clip-path="url(#p6bdb8d9037)" style="fill: none; stroke-dasharray: 2.22,0.96; stroke-dashoffset: 0; stroke: #b0b0b0; stroke-opacity: 0.35; stroke-width: 0.6"/>
     </g>
     <g id="line2d_12">
      <g>
       <use xlink:href="#me41f80e80b" x="811.700212" y="415.117656" style="stroke: #000000; stroke-width: 0.8"/>
      </g>
     </g>
     <g id="text_6">
      <!-- 1.0 -->
      <g transform="translate(803.74865 429.716094) scale(0.1 -0.1)">
       <defs>
        <path id="DejaVuSans-31" d="M 794 531 
L 1825 531 
L 1825 4091 
L 703 3866 
L 703 4441 
L 1819 4666 
L 2450 4666 
L 2450 531 
L 3481 531 
L 3481 0 
L 794 0 
L 794 531 
z
" transform="scale(0.015625)"/>
       </defs>
       <use xlink:href="#DejaVuSans-31"/>
       <use xlink:href="#DejaVuSans-2e" transform="translate(63.623047 0)"/>
       <use xlink:href="#DejaVuSans-30" transform="translate(95.410156 0)"/>
      </g>
     </g>
    </g>
    <g id="text_7">
     <!-- FD Density -->
     <g transform="translate(410.394688 443.394219) scale(0.1 -0.1)">
      <defs>
       <path id="DejaVuSans-46" d="M 628 4666 
L 3309 4666 
L 3309 4134 
L 1259 4134 
L 1259 2759 
L 3109 2759 
L 3109 2228 
L 1259 2228 
L 1259 0 
L 628 0 
L 628 4666 
z
" transform="scale(0.015625)"/>
       <path id="DejaVuSans-44" d="M 1259 4147 
L 1259 519 
L 2022 519 
Q 2988 519 3436 956 
Q 3884 1394 3884 2338 
Q 3884 3275 3436 3711 
Q 2988 4147 2022 4147 
L 1259 4147 
z
M 628 4666 
L 1925 4666 
Q 3281 4666 3915 4102 
Q 4550 3538 4550 2338 
Q 4550 1131 3912 565 
Q 3275 0 1925 0 
L 628 0 
L 628 4666 
z
" transform="scale(0.015625)"/>
       <path id="DejaVuSans-20" transform="scale(0.015625)"/>
       <path id="DejaVuSans-65" d="M 3597 1894 
L 3597 1613 
L 953 1613 
Q 991 1019 1311 708 
Q 1631 397 2203 397 
Q 2534 397 2845 478 
Q 3156 559 3463 722 
L 3463 178 
Q 3153 47 2828 -22 
Q 2503 -91 2169 -91 
Q 1331 -91 842 396 
Q 353 884 353 1716 
Q 353 2575 817 3079 
Q 1281 3584 2069 3584 
Q 2775 3584 3186 3129 
Q 3597 2675 3597 1894 
z
M 3022 2063 
Q 3016 2534 2758 2815 
Q 2500 3097 2075 3097 
Q 1594 3097 1305 2825 
Q 1016 2553 972 2059 
L 3022 2063 
z
" transform="scale(0.015625)"/>
       <path id="DejaVuSans-6e" d="M 3513 2113 
L 3513 0 
L 2938 0 
L 2938 2094 
Q 2938 2591 2744 2837 
Q 2550 3084 2163 3084 
Q 1697 3084 1428 2787 
Q 1159 2491 1159 1978 
L 1159 0 
L 581 0 
L 581 3500 
L 1159 3500 
L 1159 2956 
Q 1366 3272 1645 3428 
Q 1925 3584 2291 3584 
Q 2894 3584 3203 3211 
Q 3513 2838 3513 2113 
z
" transform="scale(0.015625)"/>
       <path id="DejaVuSans-73" d="M 2834 3397 
L 2834 2853 
Q 2591 2978 2328 3040 
Q 2066 3103 1784 3103 
Q 1356 3103 1142 2972 
Q 928 2841 928 2578 
Q 928 2378 1081 2264 
Q 1234 2150 1697 2047 
L 1894 2003 
Q 2506 1872 2764 1633 
Q 3022 1394 3022 966 
Q 3022 478 2636 193 
Q 2250 -91 1575 -91 
Q 1294 -91 989 -36 
Q 684 19 347 128 
L 347 722 
Q 666 556 975 473 
Q 1284 391 1588 391 
Q 1994 391 2212 530 
Q 2431 669 2431 922 
Q 2431 1156 2273 1281 
Q 2116 1406 1581 1522 
L 1381 1569 
Q 847 1681 609 1914 
Q 372 2147 372 2553 
Q 372 3047 722 3315 
Q 1072 3584 1716 3584 
Q 2034 3584 2315 3537 
Q 2597 3491 2834 3397 
z
" transform="scale(0.015625)"/>
       <path id="DejaVuSans-69" d="M 603 3500 
L 1178 3500 
L 1178 0 
L 603 0 
L 603 3500 
z
M 603 4863 
L 1178 4863 
L 1178 4134 
L 603 4134 
L 603 4863 
z
" transform="scale(0.015625)"/>
       <path id="DejaVuSans-74" d="M 1172 4494 
L 1172 3500 
L 2356 3500 
L 2356 3053 
L 1172 3053 
L 1172 1153 
Q 1172 725 1289 603 
Q 1406 481 1766 481 
L 2356 481 
L 2356 0 
L 1766 0 
Q 1100 0 847 248 
Q 594 497 594 1153 
L 594 3053 
L 172 3053 
L 172 3500 
L 594 3500 
L 594 4494 
L 1172 4494 
z
" transform="scale(0.015625)"/>
       <path id="DejaVuSans-79" d="M 2059 -325 
Q 1816 -950 1584 -1140 
Q 1353 -1331 966 -1331 
L 506 -1331 
L 506 -850 
L 844 -850 
Q 1081 -850 1212 -737 
Q 1344 -625 1503 -206 
L 1606 56 
L 191 3500 
L 800 3500 
L 1894 763 
L 2988 3500 
L 3597 3500 
L 2059 -325 
z
" transform="scale(0.015625)"/>
      </defs>
      <use xlink:href="#DejaVuSans-46"/>
      <use xlink:href="#DejaVuSans-44" transform="translate(57.519531 0)"/>
      <use xlink:href="#DejaVuSans-20" transform="translate(134.521484 0)"/>
      <use xlink:href="#DejaVuSans-44" transform="translate(166.308594 0)"/>
      <use xlink:href="#DejaVuSans-65" transform="translate(243.310547 0)"/>
      <use xlink:href="#DejaVuSans-6e" transform="translate(304.833984 0)"/>
      <use xlink:href="#DejaVuSans-73" transform="translate(368.212891 0)"/>
      <use xlink:href="#DejaVuSans-69" transform="translate(420.3125 0)"/>
      <use xlink:href="#DejaVuSans-74" transform="translate(448.095703 0)"/>
      <use xlink:href="#DejaVuSans-79" transform="translate(487.304688 0)"/>
     </g>
    </g>
   </g>
   <g id="matplotlib.axis_2">
    <g id="ytick_1">
     <g id="line2d_13">
      <path d="M 40.603125 369.02108 
L 834.833125 369.02108 
" clip-path="url(#p6bdb8d9037)" style="fill: none; stroke-dasharray: 2.22,0.96; stroke-dashoffset: 0; stroke: #b0b0b0; stroke-opacity: 0.35; stroke-width: 0.6"/>
     </g>
     <g id="line2d_14">
      <defs>
       <path id="m1826457215" d="M 0 0 
L -3.5 0 
" style="stroke: #000000; stroke-width: 0.8"/>
      </defs>
      <g>
       <use xlink:href="#m1826457215" x="40.603125" y="369.02108" style="stroke: #000000; stroke-width: 0.8"/>
      </g>
     </g>
     <g id="text_8">
      <!-- 2 -->
      <g transform="translate(27.240625 372.820299) scale(0.1 -0.1)">
       <use xlink:href="#DejaVuSans-32"/>
      </g>
     </g>
    </g>
    <g id="ytick_2">
     <g id="line2d_15">
      <path d="M 40.603125 315.445604 
L 834.833125 315.445604 
" clip-path="url(#p6bdb8d9037)" style="fill: none; stroke-dasharray: 2.22,0.96; stroke-dashoffset: 0; stroke: #b0b0b0; stroke-opacity: 0.35; stroke-width: 0.6"/>
     </g>
     <g id="line2d_16">
      <g>
       <use xlink:href="#m1826457215" x="40.603125" y="315.445604" style="stroke: #000000; stroke-width: 0.8"/>
      </g>
     </g>
     <g id="text_9">
      <!-- 4 -->
      <g transform="translate(27.240625 319.244822) scale(0.1 -0.1)">
       <use xlink:href="#DejaVuSans-34"/>
      </g>
     </g>
    </g>
    <g id="ytick_3">
     <g id="line2d_17">
      <path d="M 40.603125 261.870127 
L 834.833125 261.870127 
" clip-path="url(#p6bdb8d9037)" style="fill: none; stroke-dasharray: 2.22,0.96; stroke-dashoffset: 0; stroke: #b0b0b0; stroke-opacity: 0.35; stroke-width: 0.6"/>
     </g>
     <g id="line2d_18">
      <g>
       <use xlink:href="#m1826457215" x="40.603125" y="261.870127" style="stroke: #000000; stroke-width: 0.8"/>
      </g>
     </g>
     <g id="text_10">
      <!-- 6 -->
      <g transform="translate(27.240625 265.669345) scale(0.1 -0.1)">
       <use xlink:href="#DejaVuSans-36"/>
      </g>
     </g>
    </g>
    <g id="ytick_4">
     <g id="line2d_19">
      <path d="M 40.603125 208.29465 
L 834.833125 208.29465 
" clip-path="url(#p6bdb8d9037)" style="fill: none; stroke-dasharray: 2.22,0.96; stroke-dashoffset: 0; stroke: #b0b0b0; stroke-opacity: 0.35; stroke-width: 0.6"/>
     </g>
     <g id="line2d_20">
      <g>
       <use xlink:href="#m1826457215" x="40.603125" y="208.29465" style="stroke: #000000; stroke-width: 0.8"/>
      </g>
     </g>
     <g id="text_11">
      <!-- 8 -->
      <g transform="translate(27.240625 212.093869) scale(0.1 -0.1)">
       <use xlink:href="#DejaVuSans-38"/>
      </g>
     </g>
    </g>
    <g id="ytick_5">
     <g id="line2d_21">
      <path d="M 40.603125 154.719173 
L 834.833125 154.719173 
" clip-path="url(#p6bdb8d9037)" style="fill: none; stroke-dasharray: 2.22,0.96; stroke-dashoffset: 0; stroke: #b0b0b0; stroke-opacity: 0.35; stroke-width: 0.6"/>
     </g>
     <g id="line2d_22">
      <g>
       <use xlink:href="#m1826457215" x="40.603125" y="154.719173" style="stroke: #000000; stroke-width: 0.8"/>
      </g>
     </g>
     <g id="text_12">
      <!-- 10 -->
      <g transform="translate(20.878125 158.518392) scale(0.1 -0.1)">
       <use xlink:href="#DejaVuSans-31"/>
       <use xlink:href="#DejaVuSans-30" transform="translate(63.623047 0)"/>
      </g>
     </g>
    </g>
    <g id="ytick_6">
     <g id="line2d_23">
      <path d="M 40.603125 101.143696 
L 834.833125 101.143696 
" clip-path="url(#p6bdb8d9037)" style="fill: none; stroke-dasharray: 2.22,0.96; stroke-dashoffset: 0; stroke: #b0b0b0; stroke-opacity: 0.35; stroke-width: 0.6"/>
     </g>
     <g id="line2d_24">
      <g>
       <use xlink:href="#m1826457215" x="40.603125" y="101.143696" style="stroke: #000000; stroke-width: 0.8"/>
      </g>
     </g>
     <g id="text_13">
      <!-- 12 -->
      <g transform="translate(20.878125 104.942915) scale(0.1 -0.1)">
       <use xlink:href="#DejaVuSans-31"/>
       <use xlink:href="#DejaVuSans-32" transform="translate(63.623047 0)"/>
      </g>
     </g>
    </g>
    <g id="ytick_7">
     <g id="line2d_25">
      <path d="M 40.603125 47.56822 
L 834.833125 47.56822 
" clip-path="url(#p6bdb8d9037)" style="fill: none; stroke-dasharray: 2.22,0.96; stroke-dashoffset: 0; stroke: #b0b0b0; stroke-opacity: 0.35; stroke-width: 0.6"/>
     </g>
     <g id="line2d_26">
      <g>
       <use xlink:href="#m1826457215" x="40.603125" y="47.56822" style="stroke: #000000; stroke-width: 0.8"/>
      </g>
     </g>
     <g id="text_14">
      <!-- 14 -->
      <g transform="translate(20.878125 51.367438) scale(0.1 -0.1)">
       <use xlink:href="#DejaVuSans-31"/>
       <use xlink:href="#DejaVuSans-34" transform="translate(63.623047 0)"/>
      </g>
     </g>
    </g>
    <g id="text_15">
     <!-- Minimal Cover Size -->
     <g transform="translate(14.798438 271.526406) rotate(-90) scale(0.1 -0.1)">
      <defs>
       <path id="DejaVuSans-4d" d="M 628 4666 
L 1569 4666 
L 2759 1491 
L 3956 4666 
L 4897 4666 
L 4897 0 
L 4281 0 
L 4281 4097 
L 3078 897 
L 2444 897 
L 1241 4097 
L 1241 0 
L 628 0 
L 628 4666 
z
" transform="scale(0.015625)"/>
       <path id="DejaVuSans-6d" d="M 3328 2828 
Q 3544 3216 3844 3400 
Q 4144 3584 4550 3584 
Q 5097 3584 5394 3201 
Q 5691 2819 5691 2113 
L 5691 0 
L 5113 0 
L 5113 2094 
Q 5113 2597 4934 2840 
Q 4756 3084 4391 3084 
Q 3944 3084 3684 2787 
Q 3425 2491 3425 1978 
L 3425 0 
L 2847 0 
L 2847 2094 
Q 2847 2600 2669 2842 
Q 2491 3084 2119 3084 
Q 1678 3084 1418 2786 
Q 1159 2488 1159 1978 
L 1159 0 
L 581 0 
L 581 3500 
L 1159 3500 
L 1159 2956 
Q 1356 3278 1631 3431 
Q 1906 3584 2284 3584 
Q 2666 3584 2933 3390 
Q 3200 3197 3328 2828 
z
" transform="scale(0.015625)"/>
       <path id="DejaVuSans-61" d="M 2194 1759 
Q 1497 1759 1228 1600 
Q 959 1441 959 1056 
Q 959 750 1161 570 
Q 1363 391 1709 391 
Q 2188 391 2477 730 
Q 2766 1069 2766 1631 
L 2766 1759 
L 2194 1759 
z
M 3341 1997 
L 3341 0 
L 2766 0 
L 2766 531 
Q 2569 213 2275 61 
Q 1981 -91 1556 -91 
Q 1019 -91 701 211 
Q 384 513 384 1019 
Q 384 1609 779 1909 
Q 1175 2209 1959 2209 
L 2766 2209 
L 2766 2266 
Q 2766 2663 2505 2880 
Q 2244 3097 1772 3097 
Q 1472 3097 1187 3025 
Q 903 2953 641 2809 
L 641 3341 
Q 956 3463 1253 3523 
Q 1550 3584 1831 3584 
Q 2591 3584 2966 3190 
Q 3341 2797 3341 1997 
z
" transform="scale(0.015625)"/>
       <path id="DejaVuSans-6c" d="M 603 4863 
L 1178 4863 
L 1178 0 
L 603 0 
L 603 4863 
z
" transform="scale(0.015625)"/>
       <path id="DejaVuSans-43" d="M 4122 4306 
L 4122 3641 
Q 3803 3938 3442 4084 
Q 3081 4231 2675 4231 
Q 1875 4231 1450 3742 
Q 1025 3253 1025 2328 
Q 1025 1406 1450 917 
Q 1875 428 2675 428 
Q 3081 428 3442 575 
Q 3803 722 4122 1019 
L 4122 359 
Q 3791 134 3420 21 
Q 3050 -91 2638 -91 
Q 1578 -91 968 557 
Q 359 1206 359 2328 
Q 359 3453 968 4101 
Q 1578 4750 2638 4750 
Q 3056 4750 3426 4639 
Q 3797 4528 4122 4306 
z
" transform="scale(0.015625)"/>
       <path id="DejaVuSans-6f" d="M 1959 3097 
Q 1497 3097 1228 2736 
Q 959 2375 959 1747 
Q 959 1119 1226 758 
Q 1494 397 1959 397 
Q 2419 397 2687 759 
Q 2956 1122 2956 1747 
Q 2956 2369 2687 2733 
Q 2419 3097 1959 3097 
z
M 1959 3584 
Q 2709 3584 3137 3096 
Q 3566 2609 3566 1747 
Q 3566 888 3137 398 
Q 2709 -91 1959 -91 
Q 1206 -91 779 398 
Q 353 888 353 1747 
Q 353 2609 779 3096 
Q 1206 3584 1959 3584 
z
" transform="scale(0.015625)"/>
       <path id="DejaVuSans-76" d="M 191 3500 
L 800 3500 
L 1894 563 
L 2988 3500 
L 3597 3500 
L 2284 0 
L 1503 0 
L 191 3500 
z
" transform="scale(0.015625)"/>
       <path id="DejaVuSans-72" d="M 2631 2963 
Q 2534 3019 2420 3045 
Q 2306 3072 2169 3072 
Q 1681 3072 1420 2755 
Q 1159 2438 1159 1844 
L 1159 0 
L 581 0 
L 581 3500 
L 1159 3500 
L 1159 2956 
Q 1341 3275 1631 3429 
Q 1922 3584 2338 3584 
Q 2397 3584 2469 3576 
Q 2541 3569 2628 3553 
L 2631 2963 
z
" transform="scale(0.015625)"/>
       <path id="DejaVuSans-53" d="M 3425 4513 
L 3425 3897 
Q 3066 4069 2747 4153 
Q 2428 4238 2131 4238 
Q 1616 4238 1336 4038 
Q 1056 3838 1056 3469 
Q 1056 3159 1242 3001 
Q 1428 2844 1947 2747 
L 2328 2669 
Q 3034 2534 3370 2195 
Q 3706 1856 3706 1288 
Q 3706 609 3251 259 
Q 2797 -91 1919 -91 
Q 1588 -91 1214 -16 
Q 841 59 441 206 
L 441 856 
Q 825 641 1194 531 
Q 1563 422 1919 422 
Q 2459 422 2753 634 
Q 3047 847 3047 1241 
Q 3047 1584 2836 1778 
Q 2625 1972 2144 2069 
L 1759 2144 
Q 1053 2284 737 2584 
Q 422 2884 422 3419 
Q 422 4038 858 4394 
Q 1294 4750 2059 4750 
Q 2388 4750 2728 4690 
Q 3069 4631 3425 4513 
z
" transform="scale(0.015625)"/>
       <path id="DejaVuSans-7a" d="M 353 3500 
L 3084 3500 
L 3084 2975 
L 922 459 
L 3084 459 
L 3084 0 
L 275 0 
L 275 525 
L 2438 3041 
L 353 3041 
L 353 3500 
z
" transform="scale(0.015625)"/>
      </defs>
      <use xlink:href="#DejaVuSans-4d"/>
      <use xlink:href="#DejaVuSans-69" transform="translate(86.279297 0)"/>
      <use xlink:href="#DejaVuSans-6e" transform="translate(114.0625 0)"/>
      <use xlink:href="#DejaVuSans-69" transform="translate(177.441406 0)"/>
      <use xlink:href="#DejaVuSans-6d" transform="translate(205.224609 0)"/>
      <use xlink:href="#DejaVuSans-61" transform="translate(302.636719 0)"/>
      <use xlink:href="#DejaVuSans-6c" transform="translate(363.916016 0)"/>
      <use xlink:href="#DejaVuSans-20" transform="translate(391.699219 0)"/>
      <use xlink:href="#DejaVuSans-43" transform="translate(423.486328 0)"/>
      <use xlink:href="#DejaVuSans-6f" transform="translate(493.310547 0)"/>
      <use xlink:href="#DejaVuSans-76" transform="translate(554.492188 0)"/>
      <use xlink:href="#DejaVuSans-65" transform="translate(613.671875 0)"/>
      <use xlink:href="#DejaVuSans-72" transform="translate(675.195312 0)"/>
      <use xlink:href="#DejaVuSans-20" transform="translate(716.308594 0)"/>
      <use xlink:href="#DejaVuSans-53" transform="translate(748.095703 0)"/>
      <use xlink:href="#DejaVuSans-69" transform="translate(811.572266 0)"/>
      <use xlink:href="#DejaVuSans-7a" transform="translate(839.355469 0)"/>
      <use xlink:href="#DejaVuSans-65" transform="translate(891.845703 0)"/>
     </g>
    </g>
   </g>
   <g id="line2d_27">
    <path d="M 68.142307 397.730384 
L 123.22067 358.806032 
L 150.759852 344.836226 
L 205.838215 325.310644 
L 233.377397 318.728896 
L 260.916579 313.745466 
L 315.994942 306.963722 
L 343.534124 304.542994 
L 398.612487 300.974867 
L 426.151669 299.781018 
L 453.69085 298.419317 
L 481.230032 296.796864 
L 508.769214 296.294165 
L 536.308395 295.262837 
L 591.386759 305.248395 
L 618.925941 292.271531 
L 646.465122 291.398251 
L 701.543486 289.121293 
L 729.082667 289.334711 
L 784.161031 288.645355 
L 811.700212 288.657865 
" clip-path="url(#p6bdb8d9037)" style="fill: none; stroke: #e41a1c; stroke-width: 2; stroke-linecap: square"/>
    <defs>
     <path id="m54b81090a6" d="M 0 2 
C 0.530406 2 1.03916 1.789267 1.414214 1.414214 
C 1.789267 1.03916 2 0.530406 2 0 
C 2 -0.530406 1.789267 -1.03916 1.414214 -1.414214 
C 1.03916 -1.789267 0.530406 -2 0 -2 
C -0.530406 -2 -1.03916 -1.789267 -1.414214 -1.414214 
C -1.789267 -1.03916 -2 -0.530406 -2 0 
C -2 0.530406 -1.789267 1.03916 -1.414214 1.414214 
C -1.03916 1.789267 -0.530406 2 0 2 
z
" style="stroke: #e41a1c"/>
    </defs>
    <g clip-path="url(#p6bdb8d9037)">
     <use xlink:href="#m54b81090a6" x="68.142307" y="397.730384" style="fill: #e41a1c; stroke: #e41a1c"/>
     <use xlink:href="#m54b81090a6" x="123.22067" y="358.806032" style="fill: #e41a1c; stroke: #e41a1c"/>
     <use xlink:href="#m54b81090a6" x="150.759852" y="344.836226" style="fill: #e41a1c; stroke: #e41a1c"/>
     <use xlink:href="#m54b81090a6" x="205.838215" y="325.310644" style="fill: #e41a1c; stroke: #e41a1c"/>
     <use xlink:href="#m54b81090a6" x="233.377397" y="318.728896" style="fill: #e41a1c; stroke: #e41a1c"/>
     <use xlink:href="#m54b81090a6" x="260.916579" y="313.745466" style="fill: #e41a1c; stroke: #e41a1c"/>
     <use xlink:href="#m54b81090a6" x="315.994942" y="306.963722" style="fill: #e41a1c; stroke: #e41a1c"/>
     <use xlink:href="#m54b81090a6" x="343.534124" y="304.542994" style="fill: #e41a1c; stroke: #e41a1c"/>
     <use xlink:href="#m54b81090a6" x="398.612487" y="300.974867" style="fill: #e41a1c; stroke: #e41a1c"/>
     <use xlink:href="#m54b81090a6" x="426.151669" y="299.781018" style="fill: #e41a1c; stroke: #e41a1c"/>
     <use xlink:href="#m54b81090a6" x="453.69085" y="298.419317" style="fill: #e41a1c; stroke: #e41a1c"/>
     <use xlink:href="#m54b81090a6" x="481.230032" y="296.796864" style="fill: #e41a1c; stroke: #e41a1c"/>
     <use xlink:href="#m54b81090a6" x="508.769214" y="296.294165" style="fill: #e41a1c; stroke: #e41a1c"/>
     <use xlink:href="#m54b81090a6" x="536.308395" y="295.262837" style="fill: #e41a1c; stroke: #e41a1c"/>
     <use xlink:href="#m54b81090a6" x="591.386759" y="305.248395" style="fill: #e41a1c; stroke: #e41a1c"/>
     <use xlink:href="#m54b81090a6" x="618.925941" y="292.271531" style="fill: #e41a1c; stroke: #e41a1c"/>
     <use xlink:href="#m54b81090a6" x="646.465122" y="291.398251" style="fill: #e41a1c; stroke: #e41a1c"/>
     <use xlink:href="#m54b81090a6" x="701.543486" y="289.121293" style="fill: #e41a1c; stroke: #e41a1c"/>
     <use xlink:href="#m54b81090a6" x="729.082667" y="289.334711" style="fill: #e41a1c; stroke: #e41a1c"/>
     <use xlink:href="#m54b81090a6" x="784.161031" y="288.645355" style="fill: #e41a1c; stroke: #e41a1c"/>
     <use xlink:href="#m54b81090a6" x="811.700212" y="288.657865" style="fill: #e41a1c; stroke: #e41a1c"/>
    </g>
   </g>
   <g id="line2d_28">
    <path d="M 50.884419 396.95086 
L 81.728303 336.937406 
L 122.853481 293.064448 
L 153.697364 278.083861 
L 194.822542 269.316234 
L 235.94772 267.498231 
L 246.229015 268.384021 
L 277.072898 266.930331 
L 307.916782 266.764247 
L 349.04196 261.920139 
L 390.167138 266.846405 
L 431.292316 267.20536 
L 462.136199 267.516982 
L 503.261377 268.013439 
L 544.386555 268.327766 
L 585.511733 268.195596 
L 616.355617 267.758956 
L 657.480795 269.767822 
L 698.605973 265.782931 
L 739.731151 264.339956 
L 770.575034 263.309512 
L 811.700212 261.870127 
" clip-path="url(#p6bdb8d9037)" style="fill: none; stroke: #4daf4a; stroke-width: 2; stroke-linecap: square"/>
    <defs>
     <path id="mef92b48764" d="M 0 2 
C 0.530406 2 1.03916 1.789267 1.414214 1.414214 
C 1.789267 1.03916 2 0.530406 2 0 
C 2 -0.530406 1.789267 -1.03916 1.414214 -1.414214 
C 1.03916 -1.789267 0.530406 -2 0 -2 
C -0.530406 -2 -1.03916 -1.789267 -1.414214 -1.414214 
C -1.789267 -1.03916 -2 -0.530406 -2 0 
C -2 0.530406 -1.789267 1.03916 -1.414214 1.414214 
C -1.03916 1.789267 -0.530406 2 0 2 
z
" style="stroke: #4daf4a"/>
    </defs>
    <g clip-path="url(#p6bdb8d9037)">
     <use xlink:href="#mef92b48764" x="50.884419" y="396.95086" style="fill: #4daf4a; stroke: #4daf4a"/>
     <use xlink:href="#mef92b48764" x="81.728303" y="336.937406" style="fill: #4daf4a; stroke: #4daf4a"/>
     <use xlink:href="#mef92b48764" x="122.853481" y="293.064448" style="fill: #4daf4a; stroke: #4daf4a"/>
     <use xlink:href="#mef92b48764" x="153.697364" y="278.083861" style="fill: #4daf4a; stroke: #4daf4a"/>
     <use xlink:href="#mef92b48764" x="194.822542" y="269.316234" style="fill: #4daf4a; stroke: #4daf4a"/>
     <use xlink:href="#mef92b48764" x="235.94772" y="267.498231" style="fill: #4daf4a; stroke: #4daf4a"/>
     <use xlink:href="#mef92b48764" x="246.229015" y="268.384021" style="fill: #4daf4a; stroke: #4daf4a"/>
     <use xlink:href="#mef92b48764" x="277.072898" y="266.930331" style="fill: #4daf4a; stroke: #4daf4a"/>
     <use xlink:href="#mef92b48764" x="307.916782" y="266.764247" style="fill: #4daf4a; stroke: #4daf4a"/>
     <use xlink:href="#mef92b48764" x="349.04196" y="261.920139" style="fill: #4daf4a; stroke: #4daf4a"/>
     <use xlink:href="#mef92b48764" x="390.167138" y="266.846405" style="fill: #4daf4a; stroke: #4daf4a"/>
     <use xlink:href="#mef92b48764" x="431.292316" y="267.20536" style="fill: #4daf4a; stroke: #4daf4a"/>
     <use xlink:href="#mef92b48764" x="462.136199" y="267.516982" style="fill: #4daf4a; stroke: #4daf4a"/>
     <use xlink:href="#mef92b48764" x="503.261377" y="268.013439" style="fill: #4daf4a; stroke: #4daf4a"/>
     <use xlink:href="#mef92b48764" x="544.386555" y="268.327766" style="fill: #4daf4a; stroke: #4daf4a"/>
     <use xlink:href="#mef92b48764" x="585.511733" y="268.195596" style="fill: #4daf4a; stroke: #4daf4a"/>
     <use xlink:href="#mef92b48764" x="616.355617" y="267.758956" style="fill: #4daf4a; stroke: #4daf4a"/>
     <use xlink:href="#mef92b48764" x="657.480795" y="269.767822" style="fill: #4daf4a; stroke: #4daf4a"/>
     <use xlink:href="#mef92b48764" x="698.605973" y="265.782931" style="fill: #4daf4a; stroke: #4daf4a"/>
     <use xlink:href="#mef92b48764" x="739.731151" y="264.339956" style="fill: #4daf4a; stroke: #4daf4a"/>
     <use xlink:href="#mef92b48764" x="770.575034" y="263.309512" style="fill: #4daf4a; stroke: #4daf4a"/>
     <use xlink:href="#mef92b48764" x="811.700212" y="261.870127" style="fill: #4daf4a; stroke: #4daf4a"/>
    </g>
   </g>
   <g id="line2d_29">
    <path d="M 44.748808 396.841031 
L 77.914274 261.565631 
L 94.497007 235.045769 
L 98.642691 230.64366 
L 102.788374 227.30055 
L 106.934057 224.873581 
L 111.079741 222.703774 
L 115.225424 221.403685 
L 119.371107 220.405386 
L 123.51679 220.130357 
L 127.662474 219.342797 
L 131.808157 219.248156 
L 135.95384 219.146363 
L 140.099523 219.012424 
L 144.245207 219.473173 
L 148.39089 220.158939 
L 152.536573 220.506296 
L 156.682256 220.813015 
L 160.82794 221.238485 
L 164.973623 222.268018 
L 169.119306 223.124342 
L 173.264989 223.211857 
L 177.410673 224.169064 
L 181.556356 224.994126 
L 185.702039 225.611128 
L 189.847723 226.080824 
L 193.993406 225.878121 
L 198.139089 227.374672 
L 202.284772 227.927383 
L 206.430456 228.401526 
L 210.576139 228.807816 
L 214.721822 229.109607 
L 218.867505 229.69449 
L 223.013189 230.24988 
L 227.158872 230.778483 
L 231.304555 227.035807 
L 235.450238 231.384796 
L 239.595922 231.749994 
L 243.741605 231.824115 
L 247.887288 232.44827 
L 252.032972 232.449154 
L 256.178655 232.625953 
L 260.324338 233.089381 
L 264.470021 233.10098 
L 268.615705 233.267974 
L 272.761388 227.063934 
L 276.907071 233.450131 
L 281.052754 233.500117 
L 285.198438 233.261706 
L 289.344121 232.839719 
L 293.489804 233.417986 
L 297.635487 233.349222 
L 301.781171 233.283136 
L 305.926854 233.326907 
L 310.072537 225.960708 
L 314.218221 232.937574 
L 318.363904 232.860801 
L 322.509587 232.774169 
L 326.65527 232.842049 
L 330.800954 232.756329 
L 334.946637 232.377711 
L 339.09232 232.437555 
L 343.238003 232.566136 
L 347.383687 228.641437 
L 351.52937 232.53308 
L 355.675053 232.859006 
L 359.820736 232.853648 
L 363.96642 233.013491 
L 368.112103 233.202773 
L 372.257786 233.492081 
L 376.40347 233.713535 
L 380.549153 233.939436 
L 384.694836 234.086768 
L 388.840519 233.62093 
L 392.986203 234.514488 
L 397.131886 234.602004 
L 401.277569 234.637712 
L 405.423252 234.745747 
L 409.568936 234.853809 
L 413.714619 234.931493 
L 417.860302 235.057395 
L 422.005985 234.843093 
L 426.151669 232.085724 
L 430.297352 235.006499 
L 434.443035 234.710039 
L 438.588718 234.607361 
L 442.734402 234.710923 
L 446.880085 234.560027 
L 451.025768 234.247495 
L 455.171452 234.132308 
L 459.317135 233.785862 
L 463.462818 230.616872 
L 467.608501 233.12241 
L 471.754185 232.96972 
L 475.899868 232.475057 
L 480.045551 232.370585 
L 484.191234 231.835714 
L 488.336918 231.485679 
L 492.482601 231.547291 
L 496.628284 231.082979 
L 500.773967 230.973149 
L 504.919651 230.868302 
L 509.065334 230.476692 
L 513.211017 230.15256 
L 517.356701 230.121299 
L 521.502384 229.933785 
L 525.648067 229.706089 
L 529.79375 229.493582 
L 533.939434 229.356054 
L 538.085117 229.334624 
L 542.2308 230.817111 
L 579.54195 229.635102 
L 620.998782 227.690982 
L 658.309932 231.49551 
L 695.621081 223.713136 
L 732.93223 204.790278 
L 774.389063 224.087093 
L 811.700212 235.082388 
" clip-path="url(#p6bdb8d9037)" style="fill: none; stroke: #ff7f00; stroke-width: 2; stroke-linecap: square"/>
    <defs>
     <path id="mb70f1d738e" d="M 0 2 
C 0.530406 2 1.03916 1.789267 1.414214 1.414214 
C 1.789267 1.03916 2 0.530406 2 0 
C 2 -0.530406 1.789267 -1.03916 1.414214 -1.414214 
C 1.03916 -1.789267 0.530406 -2 0 -2 
C -0.530406 -2 -1.03916 -1.789267 -1.414214 -1.414214 
C -1.789267 -1.03916 -2 -0.530406 -2 0 
C -2 0.530406 -1.789267 1.03916 -1.414214 1.414214 
C -1.03916 1.789267 -0.530406 2 0 2 
z
" style="stroke: #ff7f00"/>
    </defs>
    <g clip-path="url(#p6bdb8d9037)">
     <use xlink:href="#mb70f1d738e" x="44.748808" y="396.841031" style="fill: #ff7f00; stroke: #ff7f00"/>
     <use xlink:href="#mb70f1d738e" x="77.914274" y="261.565631" style="fill: #ff7f00; stroke: #ff7f00"/>
     <use xlink:href="#mb70f1d738e" x="94.497007" y="235.045769" style="fill: #ff7f00; stroke: #ff7f00"/>
     <use xlink:href="#mb70f1d738e" x="98.642691" y="230.64366" style="fill: #ff7f00; stroke: #ff7f00"/>
     <use xlink:href="#mb70f1d738e" x="102.788374" y="227.30055" style="fill: #ff7f00; stroke: #ff7f00"/>
     <use xlink:href="#mb70f1d738e" x="106.934057" y="224.873581" style="fill: #ff7f00; stroke: #ff7f00"/>
     <use xlink:href="#mb70f1d738e" x="111.079741" y="222.703774" style="fill: #ff7f00; stroke: #ff7f00"/>
     <use xlink:href="#mb70f1d738e" x="115.225424" y="221.403685" style="fill: #ff7f00; stroke: #ff7f00"/>
     <use xlink:href="#mb70f1d738e" x="119.371107" y="220.405386" style="fill: #ff7f00; stroke: #ff7f00"/>
     <use xlink:href="#mb70f1d738e" x="123.51679" y="220.130357" style="fill: #ff7f00; stroke: #ff7f00"/>
     <use xlink:href="#mb70f1d738e" x="127.662474" y="219.342797" style="fill: #ff7f00; stroke: #ff7f00"/>
     <use xlink:href="#mb70f1d738e" x="131.808157" y="219.248156" style="fill: #ff7f00; stroke: #ff7f00"/>
     <use xlink:href="#mb70f1d738e" x="135.95384" y="219.146363" style="fill: #ff7f00; stroke: #ff7f00"/>
     <use xlink:href="#mb70f1d738e" x="140.099523" y="219.012424" style="fill: #ff7f00; stroke: #ff7f00"/>
     <use xlink:href="#mb70f1d738e" x="144.245207" y="219.473173" style="fill: #ff7f00; stroke: #ff7f00"/>
     <use xlink:href="#mb70f1d738e" x="148.39089" y="220.158939" style="fill: #ff7f00; stroke: #ff7f00"/>
     <use xlink:href="#mb70f1d738e" x="152.536573" y="220.506296" style="fill: #ff7f00; stroke: #ff7f00"/>
     <use xlink:href="#mb70f1d738e" x="156.682256" y="220.813015" style="fill: #ff7f00; stroke: #ff7f00"/>
     <use xlink:href="#mb70f1d738e" x="160.82794" y="221.238485" style="fill: #ff7f00; stroke: #ff7f00"/>
     <use xlink:href="#mb70f1d738e" x="164.973623" y="222.268018" style="fill: #ff7f00; stroke: #ff7f00"/>
     <use xlink:href="#mb70f1d738e" x="169.119306" y="223.124342" style="fill: #ff7f00; stroke: #ff7f00"/>
     <use xlink:href="#mb70f1d738e" x="173.264989" y="223.211857" style="fill: #ff7f00; stroke: #ff7f00"/>
     <use xlink:href="#mb70f1d738e" x="177.410673" y="224.169064" style="fill: #ff7f00; stroke: #ff7f00"/>
     <use xlink:href="#mb70f1d738e" x="181.556356" y="224.994126" style="fill: #ff7f00; stroke: #ff7f00"/>
     <use xlink:href="#mb70f1d738e" x="185.702039" y="225.611128" style="fill: #ff7f00; stroke: #ff7f00"/>
     <use xlink:href="#mb70f1d738e" x="189.847723" y="226.080824" style="fill: #ff7f00; stroke: #ff7f00"/>
     <use xlink:href="#mb70f1d738e" x="193.993406" y="225.878121" style="fill: #ff7f00; stroke: #ff7f00"/>
     <use xlink:href="#mb70f1d738e" x="198.139089" y="227.374672" style="fill: #ff7f00; stroke: #ff7f00"/>
     <use xlink:href="#mb70f1d738e" x="202.284772" y="227.927383" style="fill: #ff7f00; stroke: #ff7f00"/>
     <use xlink:href="#mb70f1d738e" x="206.430456" y="228.401526" style="fill: #ff7f00; stroke: #ff7f00"/>
     <use xlink:href="#mb70f1d738e" x="210.576139" y="228.807816" style="fill: #ff7f00; stroke: #ff7f00"/>
     <use xlink:href="#mb70f1d738e" x="214.721822" y="229.109607" style="fill: #ff7f00; stroke: #ff7f00"/>
     <use xlink:href="#mb70f1d738e" x="218.867505" y="229.69449" style="fill: #ff7f00; stroke: #ff7f00"/>
     <use xlink:href="#mb70f1d738e" x="223.013189" y="230.24988" style="fill: #ff7f00; stroke: #ff7f00"/>
     <use xlink:href="#mb70f1d738e" x="227.158872" y="230.778483" style="fill: #ff7f00; stroke: #ff7f00"/>
     <use xlink:href="#mb70f1d738e" x="231.304555" y="227.035807" style="fill: #ff7f00; stroke: #ff7f00"/>
     <use xlink:href="#mb70f1d738e" x="235.450238" y="231.384796" style="fill: #ff7f00; stroke: #ff7f00"/>
     <use xlink:href="#mb70f1d738e" x="239.595922" y="231.749994" style="fill: #ff7f00; stroke: #ff7f00"/>
     <use xlink:href="#mb70f1d738e" x="243.741605" y="231.824115" style="fill: #ff7f00; stroke: #ff7f00"/>
     <use xlink:href="#mb70f1d738e" x="247.887288" y="232.44827" style="fill: #ff7f00; stroke: #ff7f00"/>
     <use xlink:href="#mb70f1d738e" x="252.032972" y="232.449154" style="fill: #ff7f00; stroke: #ff7f00"/>
     <use xlink:href="#mb70f1d738e" x="256.178655" y="232.625953" style="fill: #ff7f00; stroke: #ff7f00"/>
     <use xlink:href="#mb70f1d738e" x="260.324338" y="233.089381" style="fill: #ff7f00; stroke: #ff7f00"/>
     <use xlink:href="#mb70f1d738e" x="264.470021" y="233.10098" style="fill: #ff7f00; stroke: #ff7f00"/>
     <use xlink:href="#mb70f1d738e" x="268.615705" y="233.267974" style="fill: #ff7f00; stroke: #ff7f00"/>
     <use xlink:href="#mb70f1d738e" x="272.761388" y="227.063934" style="fill: #ff7f00; stroke: #ff7f00"/>
     <use xlink:href="#mb70f1d738e" x="276.907071" y="233.450131" style="fill: #ff7f00; stroke: #ff7f00"/>
     <use xlink:href="#mb70f1d738e" x="281.052754" y="233.500117" style="fill: #ff7f00; stroke: #ff7f00"/>
     <use xlink:href="#mb70f1d738e" x="285.198438" y="233.261706" style="fill: #ff7f00; stroke: #ff7f00"/>
     <use xlink:href="#mb70f1d738e" x="289.344121" y="232.839719" style="fill: #ff7f00; stroke: #ff7f00"/>
     <use xlink:href="#mb70f1d738e" x="293.489804" y="233.417986" style="fill: #ff7f00; stroke: #ff7f00"/>
     <use xlink:href="#mb70f1d738e" x="297.635487" y="233.349222" style="fill: #ff7f00; stroke: #ff7f00"/>
     <use xlink:href="#mb70f1d738e" x="301.781171" y="233.283136" style="fill: #ff7f00; stroke: #ff7f00"/>
     <use xlink:href="#mb70f1d738e" x="305.926854" y="233.326907" style="fill: #ff7f00; stroke: #ff7f00"/>
     <use xlink:href="#mb70f1d738e" x="310.072537" y="225.960708" style="fill: #ff7f00; stroke: #ff7f00"/>
     <use xlink:href="#mb70f1d738e" x="314.218221" y="232.937574" style="fill: #ff7f00; stroke: #ff7f00"/>
     <use xlink:href="#mb70f1d738e" x="318.363904" y="232.860801" style="fill: #ff7f00; stroke: #ff7f00"/>
     <use xlink:href="#mb70f1d738e" x="322.509587" y="232.774169" style="fill: #ff7f00; stroke: #ff7f00"/>
     <use xlink:href="#mb70f1d738e" x="326.65527" y="232.842049" style="fill: #ff7f00; stroke: #ff7f00"/>
     <use xlink:href="#mb70f1d738e" x="330.800954" y="232.756329" style="fill: #ff7f00; stroke: #ff7f00"/>
     <use xlink:href="#mb70f1d738e" x="334.946637" y="232.377711" style="fill: #ff7f00; stroke: #ff7f00"/>
     <use xlink:href="#mb70f1d738e" x="339.09232" y="232.437555" style="fill: #ff7f00; stroke: #ff7f00"/>
     <use xlink:href="#mb70f1d738e" x="343.238003" y="232.566136" style="fill: #ff7f00; stroke: #ff7f00"/>
     <use xlink:href="#mb70f1d738e" x="347.383687" y="228.641437" style="fill: #ff7f00; stroke: #ff7f00"/>
     <use xlink:href="#mb70f1d738e" x="351.52937" y="232.53308" style="fill: #ff7f00; stroke: #ff7f00"/>
     <use xlink:href="#mb70f1d738e" x="355.675053" y="232.859006" style="fill: #ff7f00; stroke: #ff7f00"/>
     <use xlink:href="#mb70f1d738e" x="359.820736" y="232.853648" style="fill: #ff7f00; stroke: #ff7f00"/>
     <use xlink:href="#mb70f1d738e" x="363.96642" y="233.013491" style="fill: #ff7f00; stroke: #ff7f00"/>
     <use xlink:href="#mb70f1d738e" x="368.112103" y="233.202773" style="fill: #ff7f00; stroke: #ff7f00"/>
     <use xlink:href="#mb70f1d738e" x="372.257786" y="233.492081" style="fill: #ff7f00; stroke: #ff7f00"/>
     <use xlink:href="#mb70f1d738e" x="376.40347" y="233.713535" style="fill: #ff7f00; stroke: #ff7f00"/>
     <use xlink:href="#mb70f1d738e" x="380.549153" y="233.939436" style="fill: #ff7f00; stroke: #ff7f00"/>
     <use xlink:href="#mb70f1d738e" x="384.694836" y="234.086768" style="fill: #ff7f00; stroke: #ff7f00"/>
     <use xlink:href="#mb70f1d738e" x="388.840519" y="233.62093" style="fill: #ff7f00; stroke: #ff7f00"/>
     <use xlink:href="#mb70f1d738e" x="392.986203" y="234.514488" style="fill: #ff7f00; stroke: #ff7f00"/>
     <use xlink:href="#mb70f1d738e" x="397.131886" y="234.602004" style="fill: #ff7f00; stroke: #ff7f00"/>
     <use xlink:href="#mb70f1d738e" x="401.277569" y="234.637712" style="fill: #ff7f00; stroke: #ff7f00"/>
     <use xlink:href="#mb70f1d738e" x="405.423252" y="234.745747" style="fill: #ff7f00; stroke: #ff7f00"/>
     <use xlink:href="#mb70f1d738e" x="409.568936" y="234.853809" style="fill: #ff7f00; stroke: #ff7f00"/>
     <use xlink:href="#mb70f1d738e" x="413.714619" y="234.931493" style="fill: #ff7f00; stroke: #ff7f00"/>
     <use xlink:href="#mb70f1d738e" x="417.860302" y="235.057395" style="fill: #ff7f00; stroke: #ff7f00"/>
     <use xlink:href="#mb70f1d738e" x="422.005985" y="234.843093" style="fill: #ff7f00; stroke: #ff7f00"/>
     <use xlink:href="#mb70f1d738e" x="426.151669" y="232.085724" style="fill: #ff7f00; stroke: #ff7f00"/>
     <use xlink:href="#mb70f1d738e" x="430.297352" y="235.006499" style="fill: #ff7f00; stroke: #ff7f00"/>
     <use xlink:href="#mb70f1d738e" x="434.443035" y="234.710039" style="fill: #ff7f00; stroke: #ff7f00"/>
     <use xlink:href="#mb70f1d738e" x="438.588718" y="234.607361" style="fill: #ff7f00; stroke: #ff7f00"/>
     <use xlink:href="#mb70f1d738e" x="442.734402" y="234.710923" style="fill: #ff7f00; stroke: #ff7f00"/>
     <use xlink:href="#mb70f1d738e" x="446.880085" y="234.560027" style="fill: #ff7f00; stroke: #ff7f00"/>
     <use xlink:href="#mb70f1d738e" x="451.025768" y="234.247495" style="fill: #ff7f00; stroke: #ff7f00"/>
     <use xlink:href="#mb70f1d738e" x="455.171452" y="234.132308" style="fill: #ff7f00; stroke: #ff7f00"/>
     <use xlink:href="#mb70f1d738e" x="459.317135" y="233.785862" style="fill: #ff7f00; stroke: #ff7f00"/>
     <use xlink:href="#mb70f1d738e" x="463.462818" y="230.616872" style="fill: #ff7f00; stroke: #ff7f00"/>
     <use xlink:href="#mb70f1d738e" x="467.608501" y="233.12241" style="fill: #ff7f00; stroke: #ff7f00"/>
     <use xlink:href="#mb70f1d738e" x="471.754185" y="232.96972" style="fill: #ff7f00; stroke: #ff7f00"/>
     <use xlink:href="#mb70f1d738e" x="475.899868" y="232.475057" style="fill: #ff7f00; stroke: #ff7f00"/>
     <use xlink:href="#mb70f1d738e" x="480.045551" y="232.370585" style="fill: #ff7f00; stroke: #ff7f00"/>
     <use xlink:href="#mb70f1d738e" x="484.191234" y="231.835714" style="fill: #ff7f00; stroke: #ff7f00"/>
     <use xlink:href="#mb70f1d738e" x="488.336918" y="231.485679" style="fill: #ff7f00; stroke: #ff7f00"/>
     <use xlink:href="#mb70f1d738e" x="492.482601" y="231.547291" style="fill: #ff7f00; stroke: #ff7f00"/>
     <use xlink:href="#mb70f1d738e" x="496.628284" y="231.082979" style="fill: #ff7f00; stroke: #ff7f00"/>
     <use xlink:href="#mb70f1d738e" x="500.773967" y="230.973149" style="fill: #ff7f00; stroke: #ff7f00"/>
     <use xlink:href="#mb70f1d738e" x="504.919651" y="230.868302" style="fill: #ff7f00; stroke: #ff7f00"/>
     <use xlink:href="#mb70f1d738e" x="509.065334" y="230.476692" style="fill: #ff7f00; stroke: #ff7f00"/>
     <use xlink:href="#mb70f1d738e" x="513.211017" y="230.15256" style="fill: #ff7f00; stroke: #ff7f00"/>
     <use xlink:href="#mb70f1d738e" x="517.356701" y="230.121299" style="fill: #ff7f00; stroke: #ff7f00"/>
     <use xlink:href="#mb70f1d738e" x="521.502384" y="229.933785" style="fill: #ff7f00; stroke: #ff7f00"/>
     <use xlink:href="#mb70f1d738e" x="525.648067" y="229.706089" style="fill: #ff7f00; stroke: #ff7f00"/>
     <use xlink:href="#mb70f1d738e" x="529.79375" y="229.493582" style="fill: #ff7f00; stroke: #ff7f00"/>
     <use xlink:href="#mb70f1d738e" x="533.939434" y="229.356054" style="fill: #ff7f00; stroke: #ff7f00"/>
     <use xlink:href="#mb70f1d738e" x="538.085117" y="229.334624" style="fill: #ff7f00; stroke: #ff7f00"/>
     <use xlink:href="#mb70f1d738e" x="542.2308" y="230.817111" style="fill: #ff7f00; stroke: #ff7f00"/>
     <use xlink:href="#mb70f1d738e" x="579.54195" y="229.635102" style="fill: #ff7f00; stroke: #ff7f00"/>
     <use xlink:href="#mb70f1d738e" x="620.998782" y="227.690982" style="fill: #ff7f00; stroke: #ff7f00"/>
     <use xlink:href="#mb70f1d738e" x="658.309932" y="231.49551" style="fill: #ff7f00; stroke: #ff7f00"/>
     <use xlink:href="#mb70f1d738e" x="695.621081" y="223.713136" style="fill: #ff7f00; stroke: #ff7f00"/>
     <use xlink:href="#mb70f1d738e" x="732.93223" y="204.790278" style="fill: #ff7f00; stroke: #ff7f00"/>
     <use xlink:href="#mb70f1d738e" x="774.389063" y="224.087093" style="fill: #ff7f00; stroke: #ff7f00"/>
     <use xlink:href="#mb70f1d738e" x="811.700212" y="235.082388" style="fill: #ff7f00; stroke: #ff7f00"/>
    </g>
   </g>
   <g id="line2d_30">
    <path d="M 42.351644 396.343689 
L 49.345722 305.850236 
L 58.08832 227.132672 
L 63.333878 196.476784 
L 65.082398 188.678873 
L 66.830917 182.089089 
L 70.327956 170.436423 
L 72.076476 166.527208 
L 73.824995 162.909069 
L 77.322034 156.83361 
L 79.070553 154.907571 
L 80.819073 153.269957 
L 82.567592 151.309978 
L 84.316112 150.044713 
L 86.064631 149.93041 
L 89.56167 149.208935 
L 91.31019 148.940174 
L 93.058709 149.095543 
L 94.807229 149.455383 
L 96.555748 149.471455 
L 100.052787 150.385801 
L 101.801307 151.812704 
L 103.549826 151.638583 
L 105.298345 152.70294 
L 107.046865 153.004758 
L 108.795384 153.963759 
L 110.543904 155.712114 
L 112.292423 155.846053 
L 114.040943 156.789865 
L 115.789462 157.468479 
L 117.537982 160.932134 
L 119.286501 159.718649 
L 121.035021 160.708911 
L 122.78354 161.185733 
L 126.280579 163.116245 
L 128.029099 164.632431 
L 129.777618 164.747618 
L 133.274657 167.084393 
L 135.023177 167.875515 
L 136.771696 168.516653 
L 138.520215 169.316696 
L 142.017254 171.476698 
L 143.765774 171.438285 
L 145.514293 173.124144 
L 147.262813 173.384869 
L 149.011332 174.159035 
L 150.759852 175.103758 
L 154.256891 176.596719 
L 156.00541 176.401624 
L 157.75393 177.982529 
L 159.502449 178.970113 
L 161.250969 179.155832 
L 162.999488 180.046096 
L 164.748008 180.7122 
L 166.496527 180.919376 
L 169.993566 182.921304 
L 171.742085 183.00882 
L 175.239124 184.206232 
L 178.736163 184.915196 
L 180.484683 191.239781 
L 182.233202 185.842962 
L 187.478761 187.402893 
L 189.22728 187.699353 
L 190.9758 188.532451 
L 192.724319 188.701214 
L 194.472839 192.334515 
L 196.221358 189.246773 
L 197.969878 189.918261 
L 199.718397 190.078104 
L 201.466916 190.635289 
L 203.215436 191.029069 
L 204.963955 191.172812 
L 206.712475 191.795198 
L 208.460994 191.956808 
L 210.209514 192.31129 
L 211.958033 193.028318 
L 213.706553 193.009566 
L 215.455072 187.833291 
L 217.203592 193.523007 
L 218.952111 194.241802 
L 220.700631 193.978399 
L 222.44915 193.970362 
L 224.19767 194.457899 
L 225.946189 194.725776 
L 227.694709 195.229386 
L 231.191748 195.761551 
L 232.940267 195.681081 
L 234.688786 196.180351 
L 236.437306 196.145527 
L 238.185825 196.606276 
L 239.934345 196.794674 
L 241.682864 197.127726 
L 243.431384 197.176855 
L 245.179903 197.629567 
L 246.928423 197.831359 
L 248.676942 197.822439 
L 250.425462 198.061734 
L 271.407695 196.62859 
L 302.881046 201.451267 
L 309.875124 195.767364 
L 348.342552 199.575911 
L 386.809981 200.615275 
L 390.30702 203.852359 
L 425.277409 200.544957 
L 465.493357 196.988215 
L 542.428214 197.00027 
L 580.895642 194.884038 
L 619.36307 194.579328 
L 657.830499 198.736785 
L 696.297927 185.540261 
L 734.765356 220.228587 
L 773.232784 190.836197 
L 811.700212 190.436149 
L 811.700212 190.436149 
" clip-path="url(#p6bdb8d9037)" style="fill: none; stroke: #a65628; stroke-width: 2; stroke-linecap: square"/>
    <defs>
     <path id="m6edf3d2b01" d="M 0 2 
C 0.530406 2 1.03916 1.789267 1.414214 1.414214 
C 1.789267 1.03916 2 0.530406 2 0 
C 2 -0.530406 1.789267 -1.03916 1.414214 -1.414214 
C 1.03916 -1.789267 0.530406 -2 0 -2 
C -0.530406 -2 -1.03916 -1.789267 -1.414214 -1.414214 
C -1.789267 -1.03916 -2 -0.530406 -2 0 
C -2 0.530406 -1.789267 1.03916 -1.414214 1.414214 
C -1.03916 1.789267 -0.530406 2 0 2 
z
" style="stroke: #a65628"/>
    </defs>
    <g clip-path="url(#p6bdb8d9037)">
     <use xlink:href="#m6edf3d2b01" x="42.351644" y="396.343689" style="fill: #a65628; stroke: #a65628"/>
     <use xlink:href="#m6edf3d2b01" x="49.345722" y="305.850236" style="fill: #a65628; stroke: #a65628"/>
     <use xlink:href="#m6edf3d2b01" x="58.08832" y="227.132672" style="fill: #a65628; stroke: #a65628"/>
     <use xlink:href="#m6edf3d2b01" x="63.333878" y="196.476784" style="fill: #a65628; stroke: #a65628"/>
     <use xlink:href="#m6edf3d2b01" x="65.082398" y="188.678873" style="fill: #a65628; stroke: #a65628"/>
     <use xlink:href="#m6edf3d2b01" x="66.830917" y="182.089089" style="fill: #a65628; stroke: #a65628"/>
     <use xlink:href="#m6edf3d2b01" x="68.579437" y="176.223486" style="fill: #a65628; stroke: #a65628"/>
     <use xlink:href="#m6edf3d2b01" x="70.327956" y="170.436423" style="fill: #a65628; stroke: #a65628"/>
     <use xlink:href="#m6edf3d2b01" x="72.076476" y="166.527208" style="fill: #a65628; stroke: #a65628"/>
     <use xlink:href="#m6edf3d2b01" x="73.824995" y="162.909069" style="fill: #a65628; stroke: #a65628"/>
     <use xlink:href="#m6edf3d2b01" x="75.573514" y="159.777582" style="fill: #a65628; stroke: #a65628"/>
     <use xlink:href="#m6edf3d2b01" x="77.322034" y="156.83361" style="fill: #a65628; stroke: #a65628"/>
     <use xlink:href="#m6edf3d2b01" x="79.070553" y="154.907571" style="fill: #a65628; stroke: #a65628"/>
     <use xlink:href="#m6edf3d2b01" x="80.819073" y="153.269957" style="fill: #a65628; stroke: #a65628"/>
     <use xlink:href="#m6edf3d2b01" x="82.567592" y="151.309978" style="fill: #a65628; stroke: #a65628"/>
     <use xlink:href="#m6edf3d2b01" x="84.316112" y="150.044713" style="fill: #a65628; stroke: #a65628"/>
     <use xlink:href="#m6edf3d2b01" x="86.064631" y="149.93041" style="fill: #a65628; stroke: #a65628"/>
     <use xlink:href="#m6edf3d2b01" x="87.813151" y="149.557176" style="fill: #a65628; stroke: #a65628"/>
     <use xlink:href="#m6edf3d2b01" x="89.56167" y="149.208935" style="fill: #a65628; stroke: #a65628"/>
     <use xlink:href="#m6edf3d2b01" x="91.31019" y="148.940174" style="fill: #a65628; stroke: #a65628"/>
     <use xlink:href="#m6edf3d2b01" x="93.058709" y="149.095543" style="fill: #a65628; stroke: #a65628"/>
     <use xlink:href="#m6edf3d2b01" x="94.807229" y="149.455383" style="fill: #a65628; stroke: #a65628"/>
     <use xlink:href="#m6edf3d2b01" x="96.555748" y="149.471455" style="fill: #a65628; stroke: #a65628"/>
     <use xlink:href="#m6edf3d2b01" x="98.304268" y="149.947393" style="fill: #a65628; stroke: #a65628"/>
     <use xlink:href="#m6edf3d2b01" x="100.052787" y="150.385801" style="fill: #a65628; stroke: #a65628"/>
     <use xlink:href="#m6edf3d2b01" x="101.801307" y="151.812704" style="fill: #a65628; stroke: #a65628"/>
     <use xlink:href="#m6edf3d2b01" x="103.549826" y="151.638583" style="fill: #a65628; stroke: #a65628"/>
     <use xlink:href="#m6edf3d2b01" x="105.298345" y="152.70294" style="fill: #a65628; stroke: #a65628"/>
     <use xlink:href="#m6edf3d2b01" x="107.046865" y="153.004758" style="fill: #a65628; stroke: #a65628"/>
     <use xlink:href="#m6edf3d2b01" x="108.795384" y="153.963759" style="fill: #a65628; stroke: #a65628"/>
     <use xlink:href="#m6edf3d2b01" x="110.543904" y="155.712114" style="fill: #a65628; stroke: #a65628"/>
     <use xlink:href="#m6edf3d2b01" x="112.292423" y="155.846053" style="fill: #a65628; stroke: #a65628"/>
     <use xlink:href="#m6edf3d2b01" x="114.040943" y="156.789865" style="fill: #a65628; stroke: #a65628"/>
     <use xlink:href="#m6edf3d2b01" x="115.789462" y="157.468479" style="fill: #a65628; stroke: #a65628"/>
     <use xlink:href="#m6edf3d2b01" x="117.537982" y="160.932134" style="fill: #a65628; stroke: #a65628"/>
     <use xlink:href="#m6edf3d2b01" x="119.286501" y="159.718649" style="fill: #a65628; stroke: #a65628"/>
     <use xlink:href="#m6edf3d2b01" x="121.035021" y="160.708911" style="fill: #a65628; stroke: #a65628"/>
     <use xlink:href="#m6edf3d2b01" x="122.78354" y="161.185733" style="fill: #a65628; stroke: #a65628"/>
     <use xlink:href="#m6edf3d2b01" x="124.53206" y="162.138493" style="fill: #a65628; stroke: #a65628"/>
     <use xlink:href="#m6edf3d2b01" x="126.280579" y="163.116245" style="fill: #a65628; stroke: #a65628"/>
     <use xlink:href="#m6edf3d2b01" x="128.029099" y="164.632431" style="fill: #a65628; stroke: #a65628"/>
     <use xlink:href="#m6edf3d2b01" x="129.777618" y="164.747618" style="fill: #a65628; stroke: #a65628"/>
     <use xlink:href="#m6edf3d2b01" x="131.526138" y="165.970023" style="fill: #a65628; stroke: #a65628"/>
     <use xlink:href="#m6edf3d2b01" x="133.274657" y="167.084393" style="fill: #a65628; stroke: #a65628"/>
     <use xlink:href="#m6edf3d2b01" x="135.023177" y="167.875515" style="fill: #a65628; stroke: #a65628"/>
     <use xlink:href="#m6edf3d2b01" x="136.771696" y="168.516653" style="fill: #a65628; stroke: #a65628"/>
     <use xlink:href="#m6edf3d2b01" x="138.520215" y="169.316696" style="fill: #a65628; stroke: #a65628"/>
     <use xlink:href="#m6edf3d2b01" x="140.268735" y="170.406957" style="fill: #a65628; stroke: #a65628"/>
     <use xlink:href="#m6edf3d2b01" x="142.017254" y="171.476698" style="fill: #a65628; stroke: #a65628"/>
     <use xlink:href="#m6edf3d2b01" x="143.765774" y="171.438285" style="fill: #a65628; stroke: #a65628"/>
     <use xlink:href="#m6edf3d2b01" x="145.514293" y="173.124144" style="fill: #a65628; stroke: #a65628"/>
     <use xlink:href="#m6edf3d2b01" x="147.262813" y="173.384869" style="fill: #a65628; stroke: #a65628"/>
     <use xlink:href="#m6edf3d2b01" x="149.011332" y="174.159035" style="fill: #a65628; stroke: #a65628"/>
     <use xlink:href="#m6edf3d2b01" x="150.759852" y="175.103758" style="fill: #a65628; stroke: #a65628"/>
     <use xlink:href="#m6edf3d2b01" x="152.508371" y="175.80916" style="fill: #a65628; stroke: #a65628"/>
     <use xlink:href="#m6edf3d2b01" x="154.256891" y="176.596719" style="fill: #a65628; stroke: #a65628"/>
     <use xlink:href="#m6edf3d2b01" x="156.00541" y="176.401624" style="fill: #a65628; stroke: #a65628"/>
     <use xlink:href="#m6edf3d2b01" x="157.75393" y="177.982529" style="fill: #a65628; stroke: #a65628"/>
     <use xlink:href="#m6edf3d2b01" x="159.502449" y="178.970113" style="fill: #a65628; stroke: #a65628"/>
     <use xlink:href="#m6edf3d2b01" x="161.250969" y="179.155832" style="fill: #a65628; stroke: #a65628"/>
     <use xlink:href="#m6edf3d2b01" x="162.999488" y="180.046096" style="fill: #a65628; stroke: #a65628"/>
     <use xlink:href="#m6edf3d2b01" x="164.748008" y="180.7122" style="fill: #a65628; stroke: #a65628"/>
     <use xlink:href="#m6edf3d2b01" x="166.496527" y="180.919376" style="fill: #a65628; stroke: #a65628"/>
     <use xlink:href="#m6edf3d2b01" x="168.245046" y="181.926595" style="fill: #a65628; stroke: #a65628"/>
     <use xlink:href="#m6edf3d2b01" x="169.993566" y="182.921304" style="fill: #a65628; stroke: #a65628"/>
     <use xlink:href="#m6edf3d2b01" x="171.742085" y="183.00882" style="fill: #a65628; stroke: #a65628"/>
     <use xlink:href="#m6edf3d2b01" x="173.490605" y="183.599034" style="fill: #a65628; stroke: #a65628"/>
     <use xlink:href="#m6edf3d2b01" x="175.239124" y="184.206232" style="fill: #a65628; stroke: #a65628"/>
     <use xlink:href="#m6edf3d2b01" x="176.987644" y="184.506254" style="fill: #a65628; stroke: #a65628"/>
     <use xlink:href="#m6edf3d2b01" x="178.736163" y="184.915196" style="fill: #a65628; stroke: #a65628"/>
     <use xlink:href="#m6edf3d2b01" x="180.484683" y="191.239781" style="fill: #a65628; stroke: #a65628"/>
     <use xlink:href="#m6edf3d2b01" x="182.233202" y="185.842962" style="fill: #a65628; stroke: #a65628"/>
     <use xlink:href="#m6edf3d2b01" x="183.981722" y="186.363529" style="fill: #a65628; stroke: #a65628"/>
     <use xlink:href="#m6edf3d2b01" x="185.730241" y="186.81892" style="fill: #a65628; stroke: #a65628"/>
     <use xlink:href="#m6edf3d2b01" x="187.478761" y="187.402893" style="fill: #a65628; stroke: #a65628"/>
     <use xlink:href="#m6edf3d2b01" x="189.22728" y="187.699353" style="fill: #a65628; stroke: #a65628"/>
     <use xlink:href="#m6edf3d2b01" x="190.9758" y="188.532451" style="fill: #a65628; stroke: #a65628"/>
     <use xlink:href="#m6edf3d2b01" x="192.724319" y="188.701214" style="fill: #a65628; stroke: #a65628"/>
     <use xlink:href="#m6edf3d2b01" x="194.472839" y="192.334515" style="fill: #a65628; stroke: #a65628"/>
     <use xlink:href="#m6edf3d2b01" x="196.221358" y="189.246773" style="fill: #a65628; stroke: #a65628"/>
     <use xlink:href="#m6edf3d2b01" x="197.969878" y="189.918261" style="fill: #a65628; stroke: #a65628"/>
     <use xlink:href="#m6edf3d2b01" x="199.718397" y="190.078104" style="fill: #a65628; stroke: #a65628"/>
     <use xlink:href="#m6edf3d2b01" x="201.466916" y="190.635289" style="fill: #a65628; stroke: #a65628"/>
     <use xlink:href="#m6edf3d2b01" x="203.215436" y="191.029069" style="fill: #a65628; stroke: #a65628"/>
     <use xlink:href="#m6edf3d2b01" x="204.963955" y="191.172812" style="fill: #a65628; stroke: #a65628"/>
     <use xlink:href="#m6edf3d2b01" x="206.712475" y="191.795198" style="fill: #a65628; stroke: #a65628"/>
     <use xlink:href="#m6edf3d2b01" x="208.460994" y="191.956808" style="fill: #a65628; stroke: #a65628"/>
     <use xlink:href="#m6edf3d2b01" x="210.209514" y="192.31129" style="fill: #a65628; stroke: #a65628"/>
     <use xlink:href="#m6edf3d2b01" x="211.958033" y="193.028318" style="fill: #a65628; stroke: #a65628"/>
     <use xlink:href="#m6edf3d2b01" x="213.706553" y="193.009566" style="fill: #a65628; stroke: #a65628"/>
     <use xlink:href="#m6edf3d2b01" x="215.455072" y="187.833291" style="fill: #a65628; stroke: #a65628"/>
     <use xlink:href="#m6edf3d2b01" x="217.203592" y="193.523007" style="fill: #a65628; stroke: #a65628"/>
     <use xlink:href="#m6edf3d2b01" x="218.952111" y="194.241802" style="fill: #a65628; stroke: #a65628"/>
     <use xlink:href="#m6edf3d2b01" x="220.700631" y="193.978399" style="fill: #a65628; stroke: #a65628"/>
     <use xlink:href="#m6edf3d2b01" x="222.44915" y="193.970362" style="fill: #a65628; stroke: #a65628"/>
     <use xlink:href="#m6edf3d2b01" x="224.19767" y="194.457899" style="fill: #a65628; stroke: #a65628"/>
     <use xlink:href="#m6edf3d2b01" x="225.946189" y="194.725776" style="fill: #a65628; stroke: #a65628"/>
     <use xlink:href="#m6edf3d2b01" x="227.694709" y="195.229386" style="fill: #a65628; stroke: #a65628"/>
     <use xlink:href="#m6edf3d2b01" x="229.443228" y="195.442777" style="fill: #a65628; stroke: #a65628"/>
     <use xlink:href="#m6edf3d2b01" x="231.191748" y="195.761551" style="fill: #a65628; stroke: #a65628"/>
     <use xlink:href="#m6edf3d2b01" x="232.940267" y="195.681081" style="fill: #a65628; stroke: #a65628"/>
     <use xlink:href="#m6edf3d2b01" x="234.688786" y="196.180351" style="fill: #a65628; stroke: #a65628"/>
     <use xlink:href="#m6edf3d2b01" x="236.437306" y="196.145527" style="fill: #a65628; stroke: #a65628"/>
     <use xlink:href="#m6edf3d2b01" x="238.185825" y="196.606276" style="fill: #a65628; stroke: #a65628"/>
     <use xlink:href="#m6edf3d2b01" x="239.934345" y="196.794674" style="fill: #a65628; stroke: #a65628"/>
     <use xlink:href="#m6edf3d2b01" x="241.682864" y="197.127726" style="fill: #a65628; stroke: #a65628"/>
     <use xlink:href="#m6edf3d2b01" x="243.431384" y="197.176855" style="fill: #a65628; stroke: #a65628"/>
     <use xlink:href="#m6edf3d2b01" x="245.179903" y="197.629567" style="fill: #a65628; stroke: #a65628"/>
     <use xlink:href="#m6edf3d2b01" x="246.928423" y="197.831359" style="fill: #a65628; stroke: #a65628"/>
     <use xlink:href="#m6edf3d2b01" x="248.676942" y="197.822439" style="fill: #a65628; stroke: #a65628"/>
     <use xlink:href="#m6edf3d2b01" x="250.425462" y="198.061734" style="fill: #a65628; stroke: #a65628"/>
     <use xlink:href="#m6edf3d2b01" x="271.407695" y="196.62859" style="fill: #a65628; stroke: #a65628"/>
     <use xlink:href="#m6edf3d2b01" x="302.881046" y="201.451267" style="fill: #a65628; stroke: #a65628"/>
     <use xlink:href="#m6edf3d2b01" x="309.875124" y="195.767364" style="fill: #a65628; stroke: #a65628"/>
     <use xlink:href="#m6edf3d2b01" x="348.342552" y="199.575911" style="fill: #a65628; stroke: #a65628"/>
     <use xlink:href="#m6edf3d2b01" x="386.809981" y="200.615275" style="fill: #a65628; stroke: #a65628"/>
     <use xlink:href="#m6edf3d2b01" x="390.30702" y="203.852359" style="fill: #a65628; stroke: #a65628"/>
     <use xlink:href="#m6edf3d2b01" x="425.277409" y="200.544957" style="fill: #a65628; stroke: #a65628"/>
     <use xlink:href="#m6edf3d2b01" x="465.493357" y="196.988215" style="fill: #a65628; stroke: #a65628"/>
     <use xlink:href="#m6edf3d2b01" x="503.960785" y="196.9996" style="fill: #a65628; stroke: #a65628"/>
     <use xlink:href="#m6edf3d2b01" x="542.428214" y="197.00027" style="fill: #a65628; stroke: #a65628"/>
     <use xlink:href="#m6edf3d2b01" x="580.895642" y="194.884038" style="fill: #a65628; stroke: #a65628"/>
     <use xlink:href="#m6edf3d2b01" x="619.36307" y="194.579328" style="fill: #a65628; stroke: #a65628"/>
     <use xlink:href="#m6edf3d2b01" x="657.830499" y="198.736785" style="fill: #a65628; stroke: #a65628"/>
     <use xlink:href="#m6edf3d2b01" x="696.297927" y="185.540261" style="fill: #a65628; stroke: #a65628"/>
     <use xlink:href="#m6edf3d2b01" x="734.765356" y="220.228587" style="fill: #a65628; stroke: #a65628"/>
     <use xlink:href="#m6edf3d2b01" x="773.232784" y="190.836197" style="fill: #a65628; stroke: #a65628"/>
     <use xlink:href="#m6edf3d2b01" x="811.700212" y="190.436149" style="fill: #a65628; stroke: #a65628"/>
    </g>
   </g>
   <g id="line2d_31">
    <path d="M 41.362079 396.312428 
L 55.782202 97.141608 
L 70.961278 49.984929 
L 79.30977 57.184134 
L 86.140355 65.696822 
L 116.498508 108.813026 
L 118.016415 106.661086 
L 155.964107 140.3067 
L 194.670752 162.620672 
L 233.377397 169.59352 
L 272.084042 171.21975 
L 310.790687 174.580942 
L 348.738378 151.912702 
L 387.445024 149.229482 
L 426.151669 166.074495 
L 464.858314 162.595652 
L 503.564959 165.180669 
L 541.51265 194.779352 
L 580.219295 169.535471 
L 618.925941 155.844258 
L 657.632586 179.456766 
L 696.339231 176.597603 
L 734.286922 157.631 
L 772.993567 154.719173 
L 811.700212 154.719173 
" clip-path="url(#p6bdb8d9037)" style="fill: none; stroke: #999999; stroke-width: 2; stroke-linecap: square"/>
    <defs>
     <path id="m73fc61dbca" d="M 0 2 
C 0.530406 2 1.03916 1.789267 1.414214 1.414214 
C 1.789267 1.03916 2 0.530406 2 0 
C 2 -0.530406 1.789267 -1.03916 1.414214 -1.414214 
C 1.03916 -1.789267 0.530406 -2 0 -2 
C -0.530406 -2 -1.03916 -1.789267 -1.414214 -1.414214 
C -1.789267 -1.03916 -2 -0.530406 -2 0 
C -2 0.530406 -1.789267 1.03916 -1.414214 1.414214 
C -1.03916 1.789267 -0.530406 2 0 2 
z
" style="stroke: #999999"/>
    </defs>
    <g clip-path="url(#p6bdb8d9037)">
     <use xlink:href="#m73fc61dbca" x="41.362079" y="396.312428" style="fill: #999999; stroke: #999999"/>
     <use xlink:href="#m73fc61dbca" x="55.782202" y="97.141608" style="fill: #999999; stroke: #999999"/>
     <use xlink:href="#m73fc61dbca" x="70.961278" y="49.984929" style="fill: #999999; stroke: #999999"/>
     <use xlink:href="#m73fc61dbca" x="79.30977" y="57.184134" style="fill: #999999; stroke: #999999"/>
     <use xlink:href="#m73fc61dbca" x="86.140355" y="65.696822" style="fill: #999999; stroke: #999999"/>
     <use xlink:href="#m73fc61dbca" x="116.498508" y="108.813026" style="fill: #999999; stroke: #999999"/>
     <use xlink:href="#m73fc61dbca" x="118.016415" y="106.661086" style="fill: #999999; stroke: #999999"/>
     <use xlink:href="#m73fc61dbca" x="155.964107" y="140.3067" style="fill: #999999; stroke: #999999"/>
     <use xlink:href="#m73fc61dbca" x="194.670752" y="162.620672" style="fill: #999999; stroke: #999999"/>
     <use xlink:href="#m73fc61dbca" x="233.377397" y="169.59352" style="fill: #999999; stroke: #999999"/>
     <use xlink:href="#m73fc61dbca" x="272.084042" y="171.21975" style="fill: #999999; stroke: #999999"/>
     <use xlink:href="#m73fc61dbca" x="310.790687" y="174.580942" style="fill: #999999; stroke: #999999"/>
     <use xlink:href="#m73fc61dbca" x="348.738378" y="151.912702" style="fill: #999999; stroke: #999999"/>
     <use xlink:href="#m73fc61dbca" x="387.445024" y="149.229482" style="fill: #999999; stroke: #999999"/>
     <use xlink:href="#m73fc61dbca" x="426.151669" y="166.074495" style="fill: #999999; stroke: #999999"/>
     <use xlink:href="#m73fc61dbca" x="464.858314" y="162.595652" style="fill: #999999; stroke: #999999"/>
     <use xlink:href="#m73fc61dbca" x="503.564959" y="165.180669" style="fill: #999999; stroke: #999999"/>
     <use xlink:href="#m73fc61dbca" x="541.51265" y="194.779352" style="fill: #999999; stroke: #999999"/>
     <use xlink:href="#m73fc61dbca" x="580.219295" y="169.535471" style="fill: #999999; stroke: #999999"/>
     <use xlink:href="#m73fc61dbca" x="618.925941" y="155.844258" style="fill: #999999; stroke: #999999"/>
     <use xlink:href="#m73fc61dbca" x="657.632586" y="179.456766" style="fill: #999999; stroke: #999999"/>
     <use xlink:href="#m73fc61dbca" x="696.339231" y="176.597603" style="fill: #999999; stroke: #999999"/>
     <use xlink:href="#m73fc61dbca" x="734.286922" y="157.631" style="fill: #999999; stroke: #999999"/>
     <use xlink:href="#m73fc61dbca" x="772.993567" y="154.719173" style="fill: #999999; stroke: #999999"/>
     <use xlink:href="#m73fc61dbca" x="811.700212" y="154.719173" style="fill: #999999; stroke: #999999"/>
    </g>
   </g>
   <g id="patch_3">
    <path d="M 40.603125 415.117656 
L 40.603125 32.597656 
" style="fill: none; stroke: #000000; stroke-width: 0.8; stroke-linejoin: miter; stroke-linecap: square"/>
   </g>
   <g id="patch_4">
    <path d="M 40.603125 415.117656 
L 834.833125 415.117656 
" style="fill: none; stroke: #000000; stroke-width: 0.8; stroke-linejoin: miter; stroke-linecap: square"/>
   </g>
   <g id="text_16">
    <!-- Minimal Cover Size vs FD Density -->
    <g transform="translate(296.651328 18.597656) scale(0.15 -0.15)">
     <defs>
      <path id="DejaVuSans-Bold-4d" d="M 588 4666 
L 2119 4666 
L 3181 2169 
L 4250 4666 
L 5778 4666 
L 5778 0 
L 4641 0 
L 4641 3413 
L 3566 897 
L 2803 897 
L 1728 3413 
L 1728 0 
L 588 0 
L 588 4666 
z
" transform="scale(0.015625)"/>
      <path id="DejaVuSans-Bold-69" d="M 538 3500 
L 1656 3500 
L 1656 0 
L 538 0 
L 538 3500 
z
M 538 4863 
L 1656 4863 
L 1656 3950 
L 538 3950 
L 538 4863 
z
" transform="scale(0.015625)"/>
      <path id="DejaVuSans-Bold-6e" d="M 4056 2131 
L 4056 0 
L 2931 0 
L 2931 347 
L 2931 1631 
Q 2931 2084 2911 2256 
Q 2891 2428 2841 2509 
Q 2775 2619 2662 2680 
Q 2550 2741 2406 2741 
Q 2056 2741 1856 2470 
Q 1656 2200 1656 1722 
L 1656 0 
L 538 0 
L 538 3500 
L 1656 3500 
L 1656 2988 
Q 1909 3294 2193 3439 
Q 2478 3584 2822 3584 
Q 3428 3584 3742 3212 
Q 4056 2841 4056 2131 
z
" transform="scale(0.015625)"/>
      <path id="DejaVuSans-Bold-6d" d="M 3781 2919 
Q 3994 3244 4286 3414 
Q 4578 3584 4928 3584 
Q 5531 3584 5847 3212 
Q 6163 2841 6163 2131 
L 6163 0 
L 5038 0 
L 5038 1825 
Q 5041 1866 5042 1909 
Q 5044 1953 5044 2034 
Q 5044 2406 4934 2573 
Q 4825 2741 4581 2741 
Q 4263 2741 4089 2478 
Q 3916 2216 3909 1719 
L 3909 0 
L 2784 0 
L 2784 1825 
Q 2784 2406 2684 2573 
Q 2584 2741 2328 2741 
Q 2006 2741 1831 2477 
Q 1656 2213 1656 1722 
L 1656 0 
L 531 0 
L 531 3500 
L 1656 3500 
L 1656 2988 
Q 1863 3284 2130 3434 
Q 2397 3584 2719 3584 
Q 3081 3584 3359 3409 
Q 3638 3234 3781 2919 
z
" transform="scale(0.015625)"/>
      <path id="DejaVuSans-Bold-61" d="M 2106 1575 
Q 1756 1575 1579 1456 
Q 1403 1338 1403 1106 
Q 1403 894 1545 773 
Q 1688 653 1941 653 
Q 2256 653 2472 879 
Q 2688 1106 2688 1447 
L 2688 1575 
L 2106 1575 
z
M 3816 1997 
L 3816 0 
L 2688 0 
L 2688 519 
Q 2463 200 2181 54 
Q 1900 -91 1497 -91 
Q 953 -91 614 226 
Q 275 544 275 1050 
Q 275 1666 698 1953 
Q 1122 2241 2028 2241 
L 2688 2241 
L 2688 2328 
Q 2688 2594 2478 2717 
Q 2269 2841 1825 2841 
Q 1466 2841 1156 2769 
Q 847 2697 581 2553 
L 581 3406 
Q 941 3494 1303 3539 
Q 1666 3584 2028 3584 
Q 2975 3584 3395 3211 
Q 3816 2838 3816 1997 
z
" transform="scale(0.015625)"/>
      <path id="DejaVuSans-Bold-6c" d="M 538 4863 
L 1656 4863 
L 1656 0 
L 538 0 
L 538 4863 
z
" transform="scale(0.015625)"/>
      <path id="DejaVuSans-Bold-20" transform="scale(0.015625)"/>
      <path id="DejaVuSans-Bold-43" d="M 4288 256 
Q 3956 84 3597 -3 
Q 3238 -91 2847 -91 
Q 1681 -91 1000 561 
Q 319 1213 319 2328 
Q 319 3447 1000 4098 
Q 1681 4750 2847 4750 
Q 3238 4750 3597 4662 
Q 3956 4575 4288 4403 
L 4288 3438 
Q 3953 3666 3628 3772 
Q 3303 3878 2944 3878 
Q 2300 3878 1931 3465 
Q 1563 3053 1563 2328 
Q 1563 1606 1931 1193 
Q 2300 781 2944 781 
Q 3303 781 3628 887 
Q 3953 994 4288 1222 
L 4288 256 
z
" transform="scale(0.015625)"/>
      <path id="DejaVuSans-Bold-6f" d="M 2203 2784 
Q 1831 2784 1636 2517 
Q 1441 2250 1441 1747 
Q 1441 1244 1636 976 
Q 1831 709 2203 709 
Q 2569 709 2762 976 
Q 2956 1244 2956 1747 
Q 2956 2250 2762 2517 
Q 2569 2784 2203 2784 
z
M 2203 3584 
Q 3106 3584 3614 3096 
Q 4122 2609 4122 1747 
Q 4122 884 3614 396 
Q 3106 -91 2203 -91 
Q 1297 -91 786 396 
Q 275 884 275 1747 
Q 275 2609 786 3096 
Q 1297 3584 2203 3584 
z
" transform="scale(0.015625)"/>
      <path id="DejaVuSans-Bold-76" d="M 97 3500 
L 1216 3500 
L 2088 1081 
L 2956 3500 
L 4078 3500 
L 2700 0 
L 1472 0 
L 97 3500 
z
" transform="scale(0.015625)"/>
      <path id="DejaVuSans-Bold-65" d="M 4031 1759 
L 4031 1441 
L 1416 1441 
Q 1456 1047 1700 850 
Q 1944 653 2381 653 
Q 2734 653 3104 758 
Q 3475 863 3866 1075 
L 3866 213 
Q 3469 63 3072 -14 
Q 2675 -91 2278 -91 
Q 1328 -91 801 392 
Q 275 875 275 1747 
Q 275 2603 792 3093 
Q 1309 3584 2216 3584 
Q 3041 3584 3536 3087 
Q 4031 2591 4031 1759 
z
M 2881 2131 
Q 2881 2450 2695 2645 
Q 2509 2841 2209 2841 
Q 1884 2841 1681 2658 
Q 1478 2475 1428 2131 
L 2881 2131 
z
" transform="scale(0.015625)"/>
      <path id="DejaVuSans-Bold-72" d="M 3138 2547 
Q 2991 2616 2845 2648 
Q 2700 2681 2553 2681 
Q 2122 2681 1889 2404 
Q 1656 2128 1656 1613 
L 1656 0 
L 538 0 
L 538 3500 
L 1656 3500 
L 1656 2925 
Q 1872 3269 2151 3426 
Q 2431 3584 2822 3584 
Q 2878 3584 2943 3579 
Q 3009 3575 3134 3559 
L 3138 2547 
z
" transform="scale(0.015625)"/>
      <path id="DejaVuSans-Bold-53" d="M 3834 4519 
L 3834 3531 
Q 3450 3703 3084 3790 
Q 2719 3878 2394 3878 
Q 1963 3878 1756 3759 
Q 1550 3641 1550 3391 
Q 1550 3203 1689 3098 
Q 1828 2994 2194 2919 
L 2706 2816 
Q 3484 2659 3812 2340 
Q 4141 2022 4141 1434 
Q 4141 663 3683 286 
Q 3225 -91 2284 -91 
Q 1841 -91 1394 -6 
Q 947 78 500 244 
L 500 1259 
Q 947 1022 1364 901 
Q 1781 781 2169 781 
Q 2563 781 2772 912 
Q 2981 1044 2981 1288 
Q 2981 1506 2839 1625 
Q 2697 1744 2272 1838 
L 1806 1941 
Q 1106 2091 782 2419 
Q 459 2747 459 3303 
Q 459 4000 909 4375 
Q 1359 4750 2203 4750 
Q 2588 4750 2994 4692 
Q 3400 4634 3834 4519 
z
" transform="scale(0.015625)"/>
      <path id="DejaVuSans-Bold-7a" d="M 366 3500 
L 3419 3500 
L 3419 2719 
L 1575 800 
L 3419 800 
L 3419 0 
L 288 0 
L 288 781 
L 2131 2700 
L 366 2700 
L 366 3500 
z
" transform="scale(0.015625)"/>
      <path id="DejaVuSans-Bold-73" d="M 3272 3391 
L 3272 2541 
Q 2913 2691 2578 2766 
Q 2244 2841 1947 2841 
Q 1628 2841 1473 2761 
Q 1319 2681 1319 2516 
Q 1319 2381 1436 2309 
Q 1553 2238 1856 2203 
L 2053 2175 
Q 2913 2066 3209 1816 
Q 3506 1566 3506 1031 
Q 3506 472 3093 190 
Q 2681 -91 1863 -91 
Q 1516 -91 1145 -36 
Q 775 19 384 128 
L 384 978 
Q 719 816 1070 734 
Q 1422 653 1784 653 
Q 2113 653 2278 743 
Q 2444 834 2444 1013 
Q 2444 1163 2330 1236 
Q 2216 1309 1875 1350 
L 1678 1375 
Q 931 1469 631 1722 
Q 331 1975 331 2491 
Q 331 3047 712 3315 
Q 1094 3584 1881 3584 
Q 2191 3584 2531 3537 
Q 2872 3491 3272 3391 
z
" transform="scale(0.015625)"/>
      <path id="DejaVuSans-Bold-46" d="M 588 4666 
L 3834 4666 
L 3834 3756 
L 1791 3756 
L 1791 2888 
L 3713 2888 
L 3713 1978 
L 1791 1978 
L 1791 0 
L 588 0 
L 588 4666 
z
" transform="scale(0.015625)"/>
      <path id="DejaVuSans-Bold-44" d="M 1791 3756 
L 1791 909 
L 2222 909 
Q 2959 909 3348 1275 
Q 3738 1641 3738 2338 
Q 3738 3031 3350 3393 
Q 2963 3756 2222 3756 
L 1791 3756 
z
M 588 4666 
L 1856 4666 
Q 2919 4666 3439 4514 
Q 3959 4363 4331 4000 
Q 4659 3684 4818 3271 
Q 4978 2859 4978 2338 
Q 4978 1809 4818 1395 
Q 4659 981 4331 666 
Q 3956 303 3431 151 
Q 2906 0 1856 0 
L 588 0 
L 588 4666 
z
" transform="scale(0.015625)"/>
      <path id="DejaVuSans-Bold-74" d="M 1759 4494 
L 1759 3500 
L 2913 3500 
L 2913 2700 
L 1759 2700 
L 1759 1216 
Q 1759 972 1856 886 
Q 1953 800 2241 800 
L 2816 800 
L 2816 0 
L 1856 0 
Q 1194 0 917 276 
Q 641 553 641 1216 
L 641 2700 
L 84 2700 
L 84 3500 
L 641 3500 
L 641 4494 
L 1759 4494 
z
" transform="scale(0.015625)"/>
      <path id="DejaVuSans-Bold-79" d="M 78 3500 
L 1197 3500 
L 2138 1125 
L 2938 3500 
L 4056 3500 
L 2584 -331 
Q 2363 -916 2067 -1148 
Q 1772 -1381 1288 -1381 
L 641 -1381 
L 641 -647 
L 991 -647 
Q 1275 -647 1404 -556 
Q 1534 -466 1606 -231 
L 1638 -134 
L 78 3500 
z
" transform="scale(0.015625)"/>
     </defs>
     <use xlink:href="#DejaVuSans-Bold-4d"/>
     <use xlink:href="#DejaVuSans-Bold-69" transform="translate(99.511719 0)"/>
     <use xlink:href="#DejaVuSans-Bold-6e" transform="translate(133.789062 0)"/>
     <use xlink:href="#DejaVuSans-Bold-69" transform="translate(204.980469 0)"/>
     <use xlink:href="#DejaVuSans-Bold-6d" transform="translate(239.257812 0)"/>
     <use xlink:href="#DejaVuSans-Bold-61" transform="translate(343.457031 0)"/>
     <use xlink:href="#DejaVuSans-Bold-6c" transform="translate(410.9375 0)"/>
     <use xlink:href="#DejaVuSans-Bold-20" transform="translate(445.214844 0)"/>
     <use xlink:href="#DejaVuSans-Bold-43" transform="translate(480.029297 0)"/>
     <use xlink:href="#DejaVuSans-Bold-6f" transform="translate(553.417969 0)"/>
     <use xlink:href="#DejaVuSans-Bold-76" transform="translate(622.119141 0)"/>
     <use xlink:href="#DejaVuSans-Bold-65" transform="translate(687.304688 0)"/>
     <use xlink:href="#DejaVuSans-Bold-72" transform="translate(755.126953 0)"/>
     <use xlink:href="#DejaVuSans-Bold-20" transform="translate(804.443359 0)"/>
     <use xlink:href="#DejaVuSans-Bold-53" transform="translate(839.257812 0)"/>
     <use xlink:href="#DejaVuSans-Bold-69" transform="translate(911.279297 0)"/>
     <use xlink:href="#DejaVuSans-Bold-7a" transform="translate(945.556641 0)"/>
     <use xlink:href="#DejaVuSans-Bold-65" transform="translate(1003.759766 0)"/>
     <use xlink:href="#DejaVuSans-Bold-20" transform="translate(1071.582031 0)"/>
     <use xlink:href="#DejaVuSans-Bold-76" transform="translate(1106.396484 0)"/>
     <use xlink:href="#DejaVuSans-Bold-73" transform="translate(1171.582031 0)"/>
     <use xlink:href="#DejaVuSans-Bold-20" transform="translate(1231.103516 0)"/>
     <use xlink:href="#DejaVuSans-Bold-46" transform="translate(1265.917969 0)"/>
     <use xlink:href="#DejaVuSans-Bold-44" transform="translate(1334.228516 0)"/>
     <use xlink:href="#DejaVuSans-Bold-20" transform="translate(1417.236328 0)"/>
     <use xlink:href="#DejaVuSans-Bold-44" transform="translate(1452.050781 0)"/>
     <use xlink:href="#DejaVuSans-Bold-65" transform="translate(1535.058594 0)"/>
     <use xlink:href="#DejaVuSans-Bold-6e" transform="translate(1602.880859 0)"/>
     <use xlink:href="#DejaVuSans-Bold-73" transform="translate(1674.072266 0)"/>
     <use xlink:href="#DejaVuSans-Bold-69" transform="translate(1733.59375 0)"/>
     <use xlink:href="#DejaVuSans-Bold-74" transform="translate(1767.871094 0)"/>
     <use xlink:href="#DejaVuSans-Bold-79" transform="translate(1815.673828 0)"/>
    </g>
   </g>
   <g id="legend_1">
    <g id="text_17">
     <!-- Attributes -->
     <g transform="translate(84.000781 49.196094) scale(0.1 -0.1)">
      <defs>
       <path id="DejaVuSans-41" d="M 2188 4044 
L 1331 1722 
L 3047 1722 
L 2188 4044 
z
M 1831 4666 
L 2547 4666 
L 4325 0 
L 3669 0 
L 3244 1197 
L 1141 1197 
L 716 0 
L 50 0 
L 1831 4666 
z
" transform="scale(0.015625)"/>
       <path id="DejaVuSans-62" d="M 3116 1747 
Q 3116 2381 2855 2742 
Q 2594 3103 2138 3103 
Q 1681 3103 1420 2742 
Q 1159 2381 1159 1747 
Q 1159 1113 1420 752 
Q 1681 391 2138 391 
Q 2594 391 2855 752 
Q 3116 1113 3116 1747 
z
M 1159 2969 
Q 1341 3281 1617 3432 
Q 1894 3584 2278 3584 
Q 2916 3584 3314 3078 
Q 3713 2572 3713 1747 
Q 3713 922 3314 415 
Q 2916 -91 2278 -91 
Q 1894 -91 1617 61 
Q 1341 213 1159 525 
L 1159 0 
L 581 0 
L 581 4863 
L 1159 4863 
L 1159 2969 
z
" transform="scale(0.015625)"/>
       <path id="DejaVuSans-75" d="M 544 1381 
L 544 3500 
L 1119 3500 
L 1119 1403 
Q 1119 906 1312 657 
Q 1506 409 1894 409 
Q 2359 409 2629 706 
Q 2900 1003 2900 1516 
L 2900 3500 
L 3475 3500 
L 3475 0 
L 2900 0 
L 2900 538 
Q 2691 219 2414 64 
Q 2138 -91 1772 -91 
Q 1169 -91 856 284 
Q 544 659 544 1381 
z
M 1991 3584 
L 1991 3584 
z
" transform="scale(0.015625)"/>
      </defs>
      <use xlink:href="#DejaVuSans-41"/>
      <use xlink:href="#DejaVuSans-74" transform="translate(66.658203 0)"/>
      <use xlink:href="#DejaVuSans-74" transform="translate(105.867188 0)"/>
      <use xlink:href="#DejaVuSans-72" transform="translate(145.076172 0)"/>
      <use xlink:href="#DejaVuSans-69" transform="translate(186.189453 0)"/>
      <use xlink:href="#DejaVuSans-62" transform="translate(213.972656 0)"/>
      <use xlink:href="#DejaVuSans-75" transform="translate(277.449219 0)"/>
      <use xlink:href="#DejaVuSans-74" transform="translate(340.828125 0)"/>
      <use xlink:href="#DejaVuSans-65" transform="translate(380.037109 0)"/>
      <use xlink:href="#DejaVuSans-73" transform="translate(441.560547 0)"/>
     </g>
    </g>
    <g id="line2d_32">
     <path d="M 49.603125 60.374219 
L 59.603125 60.374219 
L 69.603125 60.374219 
" style="fill: none; stroke: #e41a1c; stroke-width: 2; stroke-linecap: square"/>
     <g>
      <use xlink:href="#m54b81090a6" x="59.603125" y="60.374219" style="fill: #e41a1c; stroke: #e41a1c"/>
     </g>
    </g>
    <g id="text_18">
     <!-- n=4 -->
     <g transform="translate(77.603125 63.874219) scale(0.1 -0.1)">
      <defs>
       <path id="DejaVuSans-3d" d="M 678 2906 
L 4684 2906 
L 4684 2381 
L 678 2381 
L 678 2906 
z
M 678 1631 
L 4684 1631 
L 4684 1100 
L 678 1100 
L 678 1631 
z
" transform="scale(0.015625)"/>
      </defs>
      <use xlink:href="#DejaVuSans-6e"/>
      <use xlink:href="#DejaVuSans-3d" transform="translate(63.378906 0)"/>
      <use xlink:href="#DejaVuSans-34" transform="translate(147.167969 0)"/>
     </g>
    </g>
    <g id="line2d_33">
     <path d="M 49.603125 75.052344 
L 59.603125 75.052344 
L 69.603125 75.052344 
" style="fill: none; stroke: #4daf4a; stroke-width: 2; stroke-linecap: square"/>
     <g>
      <use xlink:href="#mef92b48764" x="59.603125" y="75.052344" style="fill: #4daf4a; stroke: #4daf4a"/>
     </g>
    </g>
    <g id="text_19">
     <!-- n=5 -->
     <g transform="translate(77.603125 78.552344) scale(0.1 -0.1)">
      <defs>
       <path id="DejaVuSans-35" d="M 691 4666 
L 3169 4666 
L 3169 4134 
L 1269 4134 
L 1269 2991 
Q 1406 3038 1543 3061 
Q 1681 3084 1819 3084 
Q 2600 3084 3056 2656 
Q 3513 2228 3513 1497 
Q 3513 744 3044 326 
Q 2575 -91 1722 -91 
Q 1428 -91 1123 -41 
Q 819 9 494 109 
L 494 744 
Q 775 591 1075 516 
Q 1375 441 1709 441 
Q 2250 441 2565 725 
Q 2881 1009 2881 1497 
Q 2881 1984 2565 2268 
Q 2250 2553 1709 2553 
Q 1456 2553 1204 2497 
Q 953 2441 691 2322 
L 691 4666 
z
" transform="scale(0.015625)"/>
      </defs>
      <use xlink:href="#DejaVuSans-6e"/>
      <use xlink:href="#DejaVuSans-3d" transform="translate(63.378906 0)"/>
      <use xlink:href="#DejaVuSans-35" transform="translate(147.167969 0)"/>
     </g>
    </g>
    <g id="line2d_34">
     <path d="M 49.603125 89.730469 
L 59.603125 89.730469 
L 69.603125 89.730469 
" style="fill: none; stroke: #ff7f00; stroke-width: 2; stroke-linecap: square"/>
     <g>
      <use xlink:href="#mb70f1d738e" x="59.603125" y="89.730469" style="fill: #ff7f00; stroke: #ff7f00"/>
     </g>
    </g>
    <g id="text_20">
     <!-- n=6 -->
     <g transform="translate(77.603125 93.230469) scale(0.1 -0.1)">
      <use xlink:href="#DejaVuSans-6e"/>
      <use xlink:href="#DejaVuSans-3d" transform="translate(63.378906 0)"/>
      <use xlink:href="#DejaVuSans-36" transform="translate(147.167969 0)"/>
     </g>
    </g>
    <g id="line2d_35">
     <path d="M 118.682813 60.374219 
L 128.682813 60.374219 
L 138.682813 60.374219 
" style="fill: none; stroke: #a65628; stroke-width: 2; stroke-linecap: square"/>
     <g>
      <use xlink:href="#m6edf3d2b01" x="128.682813" y="60.374219" style="fill: #a65628; stroke: #a65628"/>
     </g>
    </g>
    <g id="text_21">
     <!-- n=7 -->
     <g transform="translate(146.682813 63.874219) scale(0.1 -0.1)">
      <defs>
       <path id="DejaVuSans-37" d="M 525 4666 
L 3525 4666 
L 3525 4397 
L 1831 0 
L 1172 0 
L 2766 4134 
L 525 4134 
L 525 4666 
z
" transform="scale(0.015625)"/>
      </defs>
      <use xlink:href="#DejaVuSans-6e"/>
      <use xlink:href="#DejaVuSans-3d" transform="translate(63.378906 0)"/>
      <use xlink:href="#DejaVuSans-37" transform="translate(147.167969 0)"/>
     </g>
    </g>
    <g id="line2d_36">
     <path d="M 118.682813 75.052344 
L 128.682813 75.052344 
L 138.682813 75.052344 
" style="fill: none; stroke: #999999; stroke-width: 2; stroke-linecap: square"/>
     <g>
      <use xlink:href="#m73fc61dbca" x="128.682813" y="75.052344" style="fill: #999999; stroke: #999999"/>
     </g>
    </g>
    <g id="text_22">
     <!-- n=8 -->
     <g transform="translate(146.682813 78.552344) scale(0.1 -0.1)">
      <use xlink:href="#DejaVuSans-6e"/>
      <use xlink:href="#DejaVuSans-3d" transform="translate(63.378906 0)"/>
      <use xlink:href="#DejaVuSans-38" transform="translate(147.167969 0)"/>
     </g>
    </g>
   </g>
  </g>
 </g>
 <defs>
  <clipPath id="p6bdb8d9037">
   <rect x="40.603125" y="32.597656" width="794.23" height="382.52"/>
  </clipPath>
 </defs>
</svg>
