<?xml version="1.0" encoding="utf-8" standalone="no"?>
<!DOCTYPE svg PUBLIC "-//W3C//DTD SVG 1.1//EN"
  "http://www.w3.org/Graphics/SVG/1.1/DTD/svg11.dtd">
<svg xmlns:xlink="http://www.w3.org/1999/xlink" width="842.033125pt" height="452.673906pt" viewBox="0 0 842.033125 452.673906" xmlns="http://www.w3.org/2000/svg" version="1.1">
 <metadata>
  <rdf:RDF xmlns:dc="http://purl.org/dc/elements/1.1/" xmlns:cc="http://creativecommons.org/ns#" xmlns:rdf="http://www.w3.org/1999/02/22-rdf-syntax-ns#">
   <cc:Work>
    <dc:type rdf:resource="http://purl.org/dc/dcmitype/StillImage"/>
    <dc:date>2026-04-10T18:29:18.464555</dc:date>
    <dc:format>image/svg+xml</dc:format>
    <dc:creator>
     <cc:Agent>
      <dc:title>Matplotlib v3.10.1, https://matplotlib.org/</dc:title>
     </cc:Agent>
    </dc:creator>
   </cc:Work>
  </rdf:RDF>
 </metadata>
 <defs>
  <style type="text/css">*{stroke-linejoin: round; stroke-linecap: butt}</style>
 </defs>
 <g id="figure_1">
  <g id="patch_1">
   <path d="M 0 452.673906 
L 842.033125 452.673906 
L 842.033125 0 
L 0 0 
z
" style="fill: #ffffff"/>
  </g>
  <g id="axes_1">
   <g id="patch_2">
    <path d="M 40.603125 415.117656 
L 834.833125 415.117656 
L 834.833125 32.597656 
L 40.603125 32.597656 
z
" style="fill: #ffffff"/>
   </g>
   <g id="matplotlib.axis_1">
    <g id="xtick_1">
     <g id="line2d_1">
      <path d="M 40.603125 415.117656 
L 40.603125 32.597656 
" clip-path="url(#p5718e6134c)" style="fill: none; stroke-dasharray: 2.22,0.96; stroke-dashoffset: 0; stroke: #b0b0b0; stroke-opacity: 0.35; stroke-width: 0.6"/>
     </g>
     <g id="line2d_2">
      <defs>
       <path id="m6836dea711" d="M 0 0 
L 0 3.5 
" style="stroke: #000000; stroke-width: 0.8"/>
      </defs>
      <g>
       <use xlink:href="#m6836dea711" x="40.603125" y="415.117656" style="stroke: #000000; stroke-width: 0.8"/>
      </g>
     </g>
     <g id="text_1">
      <!-- 0.0 -->
      <g transform="translate(32.651563 429.716094) scale(0.1 -0.1)">
       <defs>
        <path id="DejaVuSans-30" d="M 2034 4250 
Q 1547 4250 1301 3770 
Q 1056 3291 1056 2328 
Q 1056 1369 1301 889 
Q 1547 409 2034 409 
Q 2525 409 2770 889 
Q 3016 1369 3016 2328 
Q 3016 3291 2770 3770 
Q 2525 4250 2034 4250 
z
M 2034 4750 
Q 2819 4750 3233 4129 
Q 3647 3509 3647 2328 
Q 3647 1150 3233 529 
Q 2819 -91 2034 -91 
Q 1250 -91 836 529 
Q 422 1150 422 2328 
Q 422 3509 836 4129 
Q 1250 4750 2034 4750 
z
" transform="scale(0.015625)"/>
        <path id="DejaVuSans-2e" d="M 684 794 
L 1344 794 
L 1344 0 
L 684 0 
L 684 794 
z
" transform="scale(0.015625)"/>
       </defs>
       <use xlink:href="#DejaVuSans-30"/>
       <use xlink:href="#DejaVuSans-2e" transform="translate(63.623047 0)"/>
       <use xlink:href="#DejaVuSans-30" transform="translate(95.410156 0)"/>
      </g>
     </g>
    </g>
    <g id="xtick_2">
     <g id="line2d_3">
      <path d="M 194.822542 415.117656 
L 194.822542 32.597656 
" clip-path="url(#p5718e6134c)" style="fill: none; stroke-dasharray: 2.22,0.96; stroke-dashoffset: 0; stroke: #b0b0b0; stroke-opacity: 0.35; stroke-width: 0.6"/>
     </g>
     <g id="line2d_4">
      <g>
       <use xlink:href="#m6836dea711" x="194.822542" y="415.117656" style="stroke: #000000; stroke-width: 0.8"/>
      </g>
     </g>
     <g id="text_2">
      <!-- 0.2 -->
      <g transform="translate(186.87098 429.716094) scale(0.1 -0.1)">
       <defs>
        <path id="DejaVuSans-32" d="M 1228 531 
L 3431 531 
L 3431 0 
L 469 0 
L 469 531 
Q 828 903 1448 1529 
Q 2069 2156 2228 2338 
Q 2531 2678 2651 2914 
Q 2772 3150 2772 3378 
Q 2772 3750 2511 3984 
Q 2250 4219 1831 4219 
Q 1534 4219 1204 4116 
Q 875 4013 500 3803 
L 500 4441 
Q 881 4594 1212 4672 
Q 1544 4750 1819 4750 
Q 2544 4750 2975 4387 
Q 3406 4025 3406 3419 
Q 3406 3131 3298 2873 
Q 3191 2616 2906 2266 
Q 2828 2175 2409 1742 
Q 1991 1309 1228 531 
z
" transform="scale(0.015625)"/>
       </defs>
       <use xlink:href="#DejaVuSans-30"/>
       <use xlink:href="#DejaVuSans-2e" transform="translate(63.623047 0)"/>
       <use xlink:href="#DejaVuSans-32" transform="translate(95.410156 0)"/>
      </g>
     </g>
    </g>
    <g id="xtick_3">
     <g id="line2d_5">
      <path d="M 349.04196 415.117656 
L 349.04196 32.597656 
" clip-path="url(#p5718e6134c)" style="fill: none; stroke-dasharray: 2.22,0.96; stroke-dashoffset: 0; stroke: #b0b0b0; stroke-opacity: 0.35; stroke-width: 0.6"/>
     </g>
     <g id="line2d_6">
      <g>
       <use xlink:href="#m6836dea711" x="349.04196" y="415.117656" style="stroke: #000000; stroke-width: 0.8"/>
      </g>
     </g>
     <g id="text_3">
      <!-- 0.4 -->
      <g transform="translate(341.090397 429.716094) scale(0.1 -0.1)">
       <defs>
        <path id="DejaVuSans-34" d="M 2419 4116 
L 825 1625 
L 2419 1625 
L 2419 4116 
z
M 2253 4666 
L 3047 4666 
L 3047 1625 
L 3713 1625 
L 3713 1100 
L 3047 1100 
L 3047 0 
L 2419 0 
L 2419 1100 
L 313 1100 
L 313 1709 
L 2253 4666 
z
" transform="scale(0.015625)"/>
       </defs>
       <use xlink:href="#DejaVuSans-30"/>
       <use xlink:href="#DejaVuSans-2e" transform="translate(63.623047 0)"/>
       <use xlink:href="#DejaVuSans-34" transform="translate(95.410156 0)"/>
      </g>
     </g>
    </g>
    <g id="xtick_4">
     <g id="line2d_7">
      <path d="M 503.261377 415.117656 
L 503.261377 32.597656 
" clip-path="url(#p5718e6134c)" style="fill: none; stroke-dasharray: 2.22,0.96; stroke-dashoffset: 0; stroke: #b0b0b0; stroke-opacity: 0.35; stroke-width: 0.6"/>
     </g>
     <g id="line2d_8">
      <g>
       <use xlink:href="#m6836dea711" x="503.261377" y="415.117656" style="stroke: #000000; stroke-width: 0.8"/>
      </g>
     </g>
     <g id="text_4">
      <!-- 0.6 -->
      <g transform="translate(495.309815 429.716094) scale(0.1 -0.1)">
       <defs>
        <path id="DejaVuSans-36" d="M 2113 2584 
Q 1688 2584 1439 2293 
Q 1191 2003 1191 1497 
Q 1191 994 1439 701 
Q 1688 409 2113 409 
Q 2538 409 2786 701 
Q 3034 994 3034 1497 
Q 3034 2003 2786 2293 
Q 2538 2584 2113 2584 
z
M 3366 4563 
L 3366 3988 
Q 3128 4100 2886 4159 
Q 2644 4219 2406 4219 
Q 1781 4219 1451 3797 
Q 1122 3375 1075 2522 
Q 1259 2794 1537 2939 
Q 1816 3084 2150 3084 
Q 2853 3084 3261 2657 
Q 3669 2231 3669 1497 
Q 3669 778 3244 343 
Q 2819 -91 2113 -91 
Q 1303 -91 875 529 
Q 447 1150 447 2328 
Q 447 3434 972 4092 
Q 1497 4750 2381 4750 
Q 2619 4750 2861 4703 
Q 3103 4656 3366 4563 
z
" transform="scale(0.015625)"/>
       </defs>
       <use xlink:href="#DejaVuSans-30"/>
       <use xlink:href="#DejaVuSans-2e" transform="translate(63.623047 0)"/>
       <use xlink:href="#DejaVuSans-36" transform="translate(95.410156 0)"/>
      </g>
     </g>
    </g>
    <g id="xtick_5">
     <g id="line2d_9">
      <path d="M 657.480795 415.117656 
L 657.480795 32.597656 
" clip-path="url(#p5718e6134c)" style="fill: none; stroke-dasharray: 2.22,0.96; stroke-dashoffset: 0; stroke: #b0b0b0; stroke-opacity: 0.35; stroke-width: 0.6"/>
     </g>
     <g id="line2d_10">
      <g>
       <use xlink:href="#m6836dea711" x="657.480795" y="415.117656" style="stroke: #000000; stroke-width: 0.8"/>
      </g>
     </g>
     <g id="text_5">
      <!-- 0.8 -->
      <g transform="translate(649.529232 429.716094) scale(0.1 -0.1)">
       <defs>
        <path id="DejaVuSans-38" d="M 2034 2216 
Q 1584 2216 1326 1975 
Q 1069 1734 1069 1313 
Q 1069 891 1326 650 
Q 1584 409 2034 409 
Q 2484 409 2743 651 
Q 3003 894 3003 1313 
Q 3003 1734 2745 1975 
Q 2488 2216 2034 2216 
z
M 1403 2484 
Q 997 2584 770 2862 
Q 544 3141 544 3541 
Q 544 4100 942 4425 
Q 1341 4750 2034 4750 
Q 2731 4750 3128 4425 
Q 3525 4100 3525 3541 
Q 3525 3141 3298 2862 
Q 3072 2584 2669 2484 
Q 3125 2378 3379 2068 
Q 3634 1759 3634 1313 
Q 3634 634 3220 271 
Q 2806 -91 2034 -91 
Q 1263 -91 848 271 
Q 434 634 434 1313 
Q 434 1759 690 2068 
Q 947 2378 1403 2484 
z
M 1172 3481 
Q 1172 3119 1398 2916 
Q 1625 2713 2034 2713 
Q 2441 2713 2670 2916 
Q 2900 3119 2900 3481 
Q 2900 3844 2670 4047 
Q 2441 4250 2034 4250 
Q 1625 4250 1398 4047 
Q 1172 3844 1172 3481 
z
" transform="scale(0.015625)"/>
       </defs>
       <use xlink:href="#DejaVuSans-30"/>
       <use xlink:href="#DejaVuSans-2e" transform="translate(63.623047 0)"/>
       <use xlink:href="#DejaVuSans-38" transform="translate(95.410156 0)"/>
      </g>
     </g>
    </g>
    <g id="xtick_6">
     <g id="line2d_11">
      <path d="M 811.700212 415.117656 
L 811.700212 32.597656 
" clip-path="url(#p5718e6134c)" style="fill: none; stroke-dasharray: 2.22,0.96; stroke-dashoffset: 0; stroke: #b0b0b0; stroke-opacity: 0.35; stroke-width: 0.6"/>
     </g>
     <g id="line2d_12">
      <g>
       <use xlink:href="#m6836dea711" x="811.700212" y="415.117656" style="stroke: #000000; stroke-width: 0.8"/>
      </g>
     </g>
     <g id="text_6">
      <!-- 1.0 -->
      <g transform="translate(803.74865 429.716094) scale(0.1 -0.1)">
       <defs>
        <path id="DejaVuSans-31" d="M 794 531 
L 1825 531 
L 1825 4091 
L 703 3866 
L 703 4441 
L 1819 4666 
L 2450 4666 
L 2450 531 
L 3481 531 
L 3481 0 
L 794 0 
L 794 531 
z
" transform="scale(0.015625)"/>
       </defs>
       <use xlink:href="#DejaVuSans-31"/>
       <use xlink:href="#DejaVuSans-2e" transform="translate(63.623047 0)"/>
       <use xlink:href="#DejaVuSans-30" transform="translate(95.410156 0)"/>
      </g>
     </g>
    </g>
    <g id="text_7">
     <!-- FD Density -->
     <g transform="translate(410.394688 443.394219) scale(0.1 -0.1)">
      <defs>
       <path id="DejaVuSans-46" d="M 628 4666 
L 3309 4666 
L 3309 4134 
L 1259 4134 
L 1259 2759 
L 3109 2759 
L 3109 2228 
L 1259 2228 
L 1259 0 
L 628 0 
L 628 4666 
z
" transform="scale(0.015625)"/>
       <path id="DejaVuSans-44" d="M 1259 4147 
L 1259 519 
L 2022 519 
Q 2988 519 3436 956 
Q 3884 1394 3884 2338 
Q 3884 3275 3436 3711 
Q 2988 4147 2022 4147 
L 1259 4147 
z
M 628 4666 
L 1925 4666 
Q 3281 4666 3915 4102 
Q 4550 3538 4550 2338 
Q 4550 1131 3912 565 
Q 3275 0 1925 0 
L 628 0 
L 628 4666 
z
" transform="scale(0.015625)"/>
       <path id="DejaVuSans-20" transform="scale(0.015625)"/>
       <path id="DejaVuSans-65" d="M 3597 1894 
L 3597 1613 
L 953 1613 
Q 991 1019 1311 708 
Q 1631 397 2203 397 
Q 2534 397 2845 478 
Q 3156 559 3463 722 
L 3463 178 
Q 3153 47 2828 -22 
Q 2503 -91 2169 -91 
Q 1331 -91 842 396 
Q 353 884 353 1716 
Q 353 2575 817 3079 
Q 1281 3584 2069 3584 
Q 2775 3584 3186 3129 
Q 3597 2675 3597 1894 
z
M 3022 2063 
Q 3016 2534 2758 2815 
Q 2500 3097 2075 3097 
Q 1594 3097 1305 2825 
Q 1016 2553 972 2059 
L 3022 2063 
z
" transform="scale(0.015625)"/>
       <path id="DejaVuSans-6e" d="M 3513 2113 
L 3513 0 
L 2938 0 
L 2938 2094 
Q 2938 2591 2744 2837 
Q 2550 3084 2163 3084 
Q 1697 3084 1428 2787 
Q 1159 2491 1159 1978 
L 1159 0 
L 581 0 
L 581 3500 
L 1159 3500 
L 1159 2956 
Q 1366 3272 1645 3428 
Q 1925 3584 2291 3584 
Q 2894 3584 3203 3211 
Q 3513 2838 3513 2113 
z
" transform="scale(0.015625)"/>
       <path id="DejaVuSans-73" d="M 2834 3397 
L 2834 2853 
Q 2591 2978 2328 3040 
Q 2066 3103 1784 3103 
Q 1356 3103 1142 2972 
Q 928 2841 928 2578 
Q 928 2378 1081 2264 
Q 1234 2150 1697 2047 
L 1894 2003 
Q 2506 1872 2764 1633 
Q 3022 1394 3022 966 
Q 3022 478 2636 193 
Q 2250 -91 1575 -91 
Q 1294 -91 989 -36 
Q 684 19 347 128 
L 347 722 
Q 666 556 975 473 
Q 1284 391 1588 391 
Q 1994 391 2212 530 
Q 2431 669 2431 922 
Q 2431 1156 2273 1281 
Q 2116 1406 1581 1522 
L 1381 1569 
Q 847 1681 609 1914 
Q 372 2147 372 2553 
Q 372 3047 722 3315 
Q 1072 3584 1716 3584 
Q 2034 3584 2315 3537 
Q 2597 3491 2834 3397 
z
" transform="scale(0.015625)"/>
       <path id="DejaVuSans-69" d="M 603 3500 
L 1178 3500 
L 1178 0 
L 603 0 
L 603 3500 
z
M 603 4863 
L 1178 4863 
L 1178 4134 
L 603 4134 
L 603 4863 
z
" transform="scale(0.015625)"/>
       <path id="DejaVuSans-74" d="M 1172 4494 
L 1172 3500 
L 2356 3500 
L 2356 3053 
L 1172 3053 
L 1172 1153 
Q 1172 725 1289 603 
Q 1406 481 1766 481 
L 2356 481 
L 2356 0 
L 1766 0 
Q 1100 0 847 248 
Q 594 497 594 1153 
L 594 3053 
L 172 3053 
L 172 3500 
L 594 3500 
L 594 4494 
L 1172 4494 
z
" transform="scale(0.015625)"/>
       <path id="DejaVuSans-79" d="M 2059 -325 
Q 1816 -950 1584 -1140 
Q 1353 -1331 966 -1331 
L 506 -1331 
L 506 -850 
L 844 -850 
Q 1081 -850 1212 -737 
Q 1344 -625 1503 -206 
L 1606 56 
L 191 3500 
L 800 3500 
L 1894 763 
L 2988 3500 
L 3597 3500 
L 2059 -325 
z
" transform="scale(0.015625)"/>
      </defs>
      <use xlink:href="#DejaVuSans-46"/>
      <use xlink:href="#DejaVuSans-44" transform="translate(57.519531 0)"/>
      <use xlink:href="#DejaVuSans-20" transform="translate(134.521484 0)"/>
      <use xlink:href="#DejaVuSans-44" transform="translate(166.308594 0)"/>
      <use xlink:href="#DejaVuSans-65" transform="translate(243.310547 0)"/>
      <use xlink:href="#DejaVuSans-6e" transform="translate(304.833984 0)"/>
      <use xlink:href="#DejaVuSans-73" transform="translate(368.212891 0)"/>
      <use xlink:href="#DejaVuSans-69" transform="translate(420.3125 0)"/>
      <use xlink:href="#DejaVuSans-74" transform="translate(448.095703 0)"/>
      <use xlink:href="#DejaVuSans-79" transform="translate(487.304688 0)"/>
     </g>
    </g>
   </g>
   <g id="matplotlib.axis_2">
    <g id="ytick_1">
     <g id="line2d_13">
      <path d="M 40.603125 410.401439 
L 834.833125 410.401439 
" clip-path="url(#p5718e6134c)" style="fill: none; stroke-dasharray: 2.22,0.96; stroke-dashoffset: 0; stroke: #b0b0b0; stroke-opacity: 0.35; stroke-width: 0.6"/>
     </g>
     <g id="line2d_14">
      <defs>
       <path id="m3a0cbe2b56" d="M 0 0 
L -3.5 0 
" style="stroke: #000000; stroke-width: 0.8"/>
      </defs>
      <g>
       <use xlink:href="#m3a0cbe2b56" x="40.603125" y="410.401439" style="stroke: #000000; stroke-width: 0.8"/>
      </g>
     </g>
     <g id="text_8">
      <!-- 0 -->
      <g transform="translate(27.240625 414.200658) scale(0.1 -0.1)">
       <use xlink:href="#DejaVuSans-30"/>
      </g>
     </g>
    </g>
    <g id="ytick_2">
     <g id="line2d_15">
      <path d="M 40.603125 342.150302 
L 834.833125 342.150302 
" clip-path="url(#p5718e6134c)" style="fill: none; stroke-dasharray: 2.22,0.96; stroke-dashoffset: 0; stroke: #b0b0b0; stroke-opacity: 0.35; stroke-width: 0.6"/>
     </g>
     <g id="line2d_16">
      <g>
       <use xlink:href="#m3a0cbe2b56" x="40.603125" y="342.150302" style="stroke: #000000; stroke-width: 0.8"/>
      </g>
     </g>
     <g id="text_9">
      <!-- 5 -->
      <g transform="translate(27.240625 345.949521) scale(0.1 -0.1)">
       <defs>
        <path id="DejaVuSans-35" d="M 691 4666 
L 3169 4666 
L 3169 4134 
L 1269 4134 
L 1269 2991 
Q 1406 3038 1543 3061 
Q 1681 3084 1819 3084 
Q 2600 3084 3056 2656 
Q 3513 2228 3513 1497 
Q 3513 744 3044 326 
Q 2575 -91 1722 -91 
Q 1428 -91 1123 -41 
Q 819 9 494 109 
L 494 744 
Q 775 591 1075 516 
Q 1375 441 1709 441 
Q 2250 441 2565 725 
Q 2881 1009 2881 1497 
Q 2881 1984 2565 2268 
Q 2250 2553 1709 2553 
Q 1456 2553 1204 2497 
Q 953 2441 691 2322 
L 691 4666 
z
" transform="scale(0.015625)"/>
       </defs>
       <use xlink:href="#DejaVuSans-35"/>
      </g>
     </g>
    </g>
    <g id="ytick_3">
     <g id="line2d_17">
      <path d="M 40.603125 273.899165 
L 834.833125 273.899165 
" clip-path="url(#p5718e6134c)" style="fill: none; stroke-dasharray: 2.22,0.96; stroke-dashoffset: 0; stroke: #b0b0b0; stroke-opacity: 0.35; stroke-width: 0.6"/>
     </g>
     <g id="line2d_18">
      <g>
       <use xlink:href="#m3a0cbe2b56" x="40.603125" y="273.899165" style="stroke: #000000; stroke-width: 0.8"/>
      </g>
     </g>
     <g id="text_10">
      <!-- 10 -->
      <g transform="translate(20.878125 277.698384) scale(0.1 -0.1)">
       <use xlink:href="#DejaVuSans-31"/>
       <use xlink:href="#DejaVuSans-30" transform="translate(63.623047 0)"/>
      </g>
     </g>
    </g>
    <g id="ytick_4">
     <g id="line2d_19">
      <path d="M 40.603125 205.648028 
L 834.833125 205.648028 
" clip-path="url(#p5718e6134c)" style="fill: none; stroke-dasharray: 2.22,0.96; stroke-dashoffset: 0; stroke: #b0b0b0; stroke-opacity: 0.35; stroke-width: 0.6"/>
     </g>
     <g id="line2d_20">
      <g>
       <use xlink:href="#m3a0cbe2b56" x="40.603125" y="205.648028" style="stroke: #000000; stroke-width: 0.8"/>
      </g>
     </g>
     <g id="text_11">
      <!-- 15 -->
      <g transform="translate(20.878125 209.447246) scale(0.1 -0.1)">
       <use xlink:href="#DejaVuSans-31"/>
       <use xlink:href="#DejaVuSans-35" transform="translate(63.623047 0)"/>
      </g>
     </g>
    </g>
    <g id="ytick_5">
     <g id="line2d_21">
      <path d="M 40.603125 137.39689 
L 834.833125 137.39689 
" clip-path="url(#p5718e6134c)" style="fill: none; stroke-dasharray: 2.22,0.96; stroke-dashoffset: 0; stroke: #b0b0b0; stroke-opacity: 0.35; stroke-width: 0.6"/>
     </g>
     <g id="line2d_22">
      <g>
       <use xlink:href="#m3a0cbe2b56" x="40.603125" y="137.39689" style="stroke: #000000; stroke-width: 0.8"/>
      </g>
     </g>
     <g id="text_12">
      <!-- 20 -->
      <g transform="translate(20.878125 141.196109) scale(0.1 -0.1)">
       <use xlink:href="#DejaVuSans-32"/>
       <use xlink:href="#DejaVuSans-30" transform="translate(63.623047 0)"/>
      </g>
     </g>
    </g>
    <g id="ytick_6">
     <g id="line2d_23">
      <path d="M 40.603125 69.145753 
L 834.833125 69.145753 
" clip-path="url(#p5718e6134c)" style="fill: none; stroke-dasharray: 2.22,0.96; stroke-dashoffset: 0; stroke: #b0b0b0; stroke-opacity: 0.35; stroke-width: 0.6"/>
     </g>
     <g id="line2d_24">
      <g>
       <use xlink:href="#m3a0cbe2b56" x="40.603125" y="69.145753" style="stroke: #000000; stroke-width: 0.8"/>
      </g>
     </g>
     <g id="text_13">
      <!-- 25 -->
      <g transform="translate(20.878125 72.944972) scale(0.1 -0.1)">
       <use xlink:href="#DejaVuSans-32"/>
       <use xlink:href="#DejaVuSans-35" transform="translate(63.623047 0)"/>
      </g>
     </g>
    </g>
    <g id="text_14">
     <!-- Minimal Cover Size -->
     <g transform="translate(14.798438 271.526406) rotate(-90) scale(0.1 -0.1)">
      <defs>
       <path id="DejaVuSans-4d" d="M 628 4666 
L 1569 4666 
L 2759 1491 
L 3956 4666 
L 4897 4666 
L 4897 0 
L 4281 0 
L 4281 4097 
L 3078 897 
L 2444 897 
L 1241 4097 
L 1241 0 
L 628 0 
L 628 4666 
z
" transform="scale(0.015625)"/>
       <path id="DejaVuSans-6d" d="M 3328 2828 
Q 3544 3216 3844 3400 
Q 4144 3584 4550 3584 
Q 5097 3584 5394 3201 
Q 5691 2819 5691 2113 
L 5691 0 
L 5113 0 
L 5113 2094 
Q 5113 2597 4934 2840 
Q 4756 3084 4391 3084 
Q 3944 3084 3684 2787 
Q 3425 2491 3425 1978 
L 3425 0 
L 2847 0 
L 2847 2094 
Q 2847 2600 2669 2842 
Q 2491 3084 2119 3084 
Q 1678 3084 1418 2786 
Q 1159 2488 1159 1978 
L 1159 0 
L 581 0 
L 581 3500 
L 1159 3500 
L 1159 2956 
Q 1356 3278 1631 3431 
Q 1906 3584 2284 3584 
Q 2666 3584 2933 3390 
Q 3200 3197 3328 2828 
z
" transform="scale(0.015625)"/>
       <path id="DejaVuSans-61" d="M 2194 1759 
Q 1497 1759 1228 1600 
Q 959 1441 959 1056 
Q 959 750 1161 570 
Q 1363 391 1709 391 
Q 2188 391 2477 730 
Q 2766 1069 2766 1631 
L 2766 1759 
L 2194 1759 
z
M 3341 1997 
L 3341 0 
L 2766 0 
L 2766 531 
Q 2569 213 2275 61 
Q 1981 -91 1556 -91 
Q 1019 -91 701 211 
Q 384 513 384 1019 
Q 384 1609 779 1909 
Q 1175 2209 1959 2209 
L 2766 2209 
L 2766 2266 
Q 2766 2663 2505 2880 
Q 2244 3097 1772 3097 
Q 1472 3097 1187 3025 
Q 903 2953 641 2809 
L 641 3341 
Q 956 3463 1253 3523 
Q 1550 3584 1831 3584 
Q 2591 3584 2966 3190 
Q 3341 2797 3341 1997 
z
" transform="scale(0.015625)"/>
       <path id="DejaVuSans-6c" d="M 603 4863 
L 1178 4863 
L 1178 0 
L 603 0 
L 603 4863 
z
" transform="scale(0.015625)"/>
       <path id="DejaVuSans-43" d="M 4122 4306 
L 4122 3641 
Q 3803 3938 3442 4084 
Q 3081 4231 2675 4231 
Q 1875 4231 1450 3742 
Q 1025 3253 1025 2328 
Q 1025 1406 1450 917 
Q 1875 428 2675 428 
Q 3081 428 3442 575 
Q 3803 722 4122 1019 
L 4122 359 
Q 3791 134 3420 21 
Q 3050 -91 2638 -91 
Q 1578 -91 968 557 
Q 359 1206 359 2328 
Q 359 3453 968 4101 
Q 1578 4750 2638 4750 
Q 3056 4750 3426 4639 
Q 3797 4528 4122 4306 
z
" transform="scale(0.015625)"/>
       <path id="DejaVuSans-6f" d="M 1959 3097 
Q 1497 3097 1228 2736 
Q 959 2375 959 1747 
Q 959 1119 1226 758 
Q 1494 397 1959 397 
Q 2419 397 2687 759 
Q 2956 1122 2956 1747 
Q 2956 2369 2687 2733 
Q 2419 3097 1959 3097 
z
M 1959 3584 
Q 2709 3584 3137 3096 
Q 3566 2609 3566 1747 
Q 3566 888 3137 398 
Q 2709 -91 1959 -91 
Q 1206 -91 779 398 
Q 353 888 353 1747 
Q 353 2609 779 3096 
Q 1206 3584 1959 3584 
z
" transform="scale(0.015625)"/>
       <path id="DejaVuSans-76" d="M 191 3500 
L 800 3500 
L 1894 563 
L 2988 3500 
L 3597 3500 
L 2284 0 
L 1503 0 
L 191 3500 
z
" transform="scale(0.015625)"/>
       <path id="DejaVuSans-72" d="M 2631 2963 
Q 2534 3019 2420 3045 
Q 2306 3072 2169 3072 
Q 1681 3072 1420 2755 
Q 1159 2438 1159 1844 
L 1159 0 
L 581 0 
L 581 3500 
L 1159 3500 
L 1159 2956 
Q 1341 3275 1631 3429 
Q 1922 3584 2338 3584 
Q 2397 3584 2469 3576 
Q 2541 3569 2628 3553 
L 2631 2963 
z
" transform="scale(0.015625)"/>
       <path id="DejaVuSans-53" d="M 3425 4513 
L 3425 3897 
Q 3066 4069 2747 4153 
Q 2428 4238 2131 4238 
Q 1616 4238 1336 4038 
Q 1056 3838 1056 3469 
Q 1056 3159 1242 3001 
Q 1428 2844 1947 2747 
L 2328 2669 
Q 3034 2534 3370 2195 
Q 3706 1856 3706 1288 
Q 3706 609 3251 259 
Q 2797 -91 1919 -91 
Q 1588 -91 1214 -16 
Q 841 59 441 206 
L 441 856 
Q 825 641 1194 531 
Q 1563 422 1919 422 
Q 2459 422 2753 634 
Q 3047 847 3047 1241 
Q 3047 1584 2836 1778 
Q 2625 1972 2144 2069 
L 1759 2144 
Q 1053 2284 737 2584 
Q 422 2884 422 3419 
Q 422 4038 858 4394 
Q 1294 4750 2059 4750 
Q 2388 4750 2728 4690 
Q 3069 4631 3425 4513 
z
" transform="scale(0.015625)"/>
       <path id="DejaVuSans-7a" d="M 353 3500 
L 3084 3500 
L 3084 2975 
L 922 459 
L 3084 459 
L 3084 0 
L 275 0 
L 275 525 
L 2438 3041 
L 353 3041 
L 353 3500 
z
" transform="scale(0.015625)"/>
      </defs>
      <use xlink:href="#DejaVuSans-4d"/>
      <use xlink:href="#DejaVuSans-69" transform="translate(86.279297 0)"/>
      <use xlink:href="#DejaVuSans-6e" transform="translate(114.0625 0)"/>
      <use xlink:href="#DejaVuSans-69" transform="translate(177.441406 0)"/>
      <use xlink:href="#DejaVuSans-6d" transform="translate(205.224609 0)"/>
      <use xlink:href="#DejaVuSans-61" transform="translate(302.636719 0)"/>
      <use xlink:href="#DejaVuSans-6c" transform="translate(363.916016 0)"/>
      <use xlink:href="#DejaVuSans-20" transform="translate(391.699219 0)"/>
      <use xlink:href="#DejaVuSans-43" transform="translate(423.486328 0)"/>
      <use xlink:href="#DejaVuSans-6f" transform="translate(493.310547 0)"/>
      <use xlink:href="#DejaVuSans-76" transform="translate(554.492188 0)"/>
      <use xlink:href="#DejaVuSans-65" transform="translate(613.671875 0)"/>
      <use xlink:href="#DejaVuSans-72" transform="translate(675.195312 0)"/>
      <use xlink:href="#DejaVuSans-20" transform="translate(716.308594 0)"/>
      <use xlink:href="#DejaVuSans-53" transform="translate(748.095703 0)"/>
      <use xlink:href="#DejaVuSans-69" transform="translate(811.572266 0)"/>
      <use xlink:href="#DejaVuSans-7a" transform="translate(839.355469 0)"/>
      <use xlink:href="#DejaVuSans-65" transform="translate(891.845703 0)"/>
     </g>
    </g>
   </g>
   <g id="line2d_25">
    <path d="M 68.142307 397.730384 
L 123.22067 377.895702 
L 150.759852 370.777109 
L 205.838215 360.827458 
L 233.377397 357.473597 
L 260.916579 354.93419 
L 315.994942 351.478417 
L 343.534124 350.244887 
L 398.612487 348.426677 
L 426.151669 347.818327 
L 453.69085 347.124445 
L 481.230032 346.297692 
L 508.769214 346.041531 
L 536.308395 345.515998 
L 591.386759 350.604338 
L 618.925941 343.991718 
L 646.465122 343.54672 
L 701.543486 342.386451 
L 729.082667 342.495202 
L 784.161031 342.143927 
L 811.700212 342.150302 
" clip-path="url(#p5718e6134c)" style="fill: none; stroke: #1f77b4; stroke-width: 2; stroke-linecap: square"/>
    <defs>
     <path id="m640eb6e7c9" d="M 0 2 
C 0.530406 2 1.03916 1.789267 1.414214 1.414214 
C 1.789267 1.03916 2 0.530406 2 0 
C 2 -0.530406 1.789267 -1.03916 1.414214 -1.414214 
C 1.03916 -1.789267 0.530406 -2 0 -2 
C -0.530406 -2 -1.03916 -1.789267 -1.414214 -1.414214 
C -1.789267 -1.03916 -2 -0.530406 -2 0 
C -2 0.530406 -1.789267 1.03916 -1.414214 1.414214 
C -1.03916 1.789267 -0.530406 2 0 2 
z
" style="stroke: #1f77b4"/>
    </defs>
    <g clip-path="url(#p5718e6134c)">
     <use xlink:href="#m640eb6e7c9" x="68.142307" y="397.730384" style="fill: #1f77b4; stroke: #1f77b4"/>
     <use xlink:href="#m640eb6e7c9" x="123.22067" y="377.895702" style="fill: #1f77b4; stroke: #1f77b4"/>
     <use xlink:href="#m640eb6e7c9" x="150.759852" y="370.777109" style="fill: #1f77b4; stroke: #1f77b4"/>
     <use xlink:href="#m640eb6e7c9" x="205.838215" y="360.827458" style="fill: #1f77b4; stroke: #1f77b4"/>
     <use xlink:href="#m640eb6e7c9" x="233.377397" y="357.473597" style="fill: #1f77b4; stroke: #1f77b4"/>
     <use xlink:href="#m640eb6e7c9" x="260.916579" y="354.93419" style="fill: #1f77b4; stroke: #1f77b4"/>
     <use xlink:href="#m640eb6e7c9" x="315.994942" y="351.478417" style="fill: #1f77b4; stroke: #1f77b4"/>
     <use xlink:href="#m640eb6e7c9" x="343.534124" y="350.244887" style="fill: #1f77b4; stroke: #1f77b4"/>
     <use xlink:href="#m640eb6e7c9" x="398.612487" y="348.426677" style="fill: #1f77b4; stroke: #1f77b4"/>
     <use xlink:href="#m640eb6e7c9" x="426.151669" y="347.818327" style="fill: #1f77b4; stroke: #1f77b4"/>
     <use xlink:href="#m640eb6e7c9" x="453.69085" y="347.124445" style="fill: #1f77b4; stroke: #1f77b4"/>
     <use xlink:href="#m640eb6e7c9" x="481.230032" y="346.297692" style="fill: #1f77b4; stroke: #1f77b4"/>
     <use xlink:href="#m640eb6e7c9" x="508.769214" y="346.041531" style="fill: #1f77b4; stroke: #1f77b4"/>
     <use xlink:href="#m640eb6e7c9" x="536.308395" y="345.515998" style="fill: #1f77b4; stroke: #1f77b4"/>
     <use xlink:href="#m640eb6e7c9" x="591.386759" y="350.604338" style="fill: #1f77b4; stroke: #1f77b4"/>
     <use xlink:href="#m640eb6e7c9" x="618.925941" y="343.991718" style="fill: #1f77b4; stroke: #1f77b4"/>
     <use xlink:href="#m640eb6e7c9" x="646.465122" y="343.54672" style="fill: #1f77b4; stroke: #1f77b4"/>
     <use xlink:href="#m640eb6e7c9" x="701.543486" y="342.386451" style="fill: #1f77b4; stroke: #1f77b4"/>
     <use xlink:href="#m640eb6e7c9" x="729.082667" y="342.495202" style="fill: #1f77b4; stroke: #1f77b4"/>
     <use xlink:href="#m640eb6e7c9" x="784.161031" y="342.143927" style="fill: #1f77b4; stroke: #1f77b4"/>
     <use xlink:href="#m640eb6e7c9" x="811.700212" y="342.150302" style="fill: #1f77b4; stroke: #1f77b4"/>
    </g>
   </g>
   <g id="line2d_26">
    <path d="M 50.884419 397.333162 
L 81.728303 366.752107 
L 122.853481 344.395764 
L 153.697364 336.762107 
L 194.822542 332.294387 
L 235.94772 331.367987 
L 246.229015 331.819359 
L 277.072898 331.078603 
L 307.916782 330.993971 
L 349.04196 328.52556 
L 390.167138 331.035836 
L 431.292316 331.218749 
L 462.136199 331.377543 
L 503.261377 331.630522 
L 544.386555 331.790694 
L 585.511733 331.723344 
L 616.355617 331.500845 
L 657.480795 332.524503 
L 698.605973 330.493922 
L 739.731151 329.758626 
L 770.575034 329.233542 
L 811.700212 328.500075 
" clip-path="url(#p5718e6134c)" style="fill: none; stroke: #ff7f0e; stroke-width: 2; stroke-linecap: square"/>
    <defs>
     <path id="m27a6121492" d="M 0 2 
C 0.530406 2 1.03916 1.789267 1.414214 1.414214 
C 1.789267 1.03916 2 0.530406 2 0 
C 2 -0.530406 1.789267 -1.03916 1.414214 -1.414214 
C 1.03916 -1.789267 0.530406 -2 0 -2 
C -0.530406 -2 -1.03916 -1.789267 -1.414214 -1.414214 
C -1.789267 -1.03916 -2 -0.530406 -2 0 
C -2 0.530406 -1.789267 1.03916 -1.414214 1.414214 
C -1.03916 1.789267 -0.530406 2 0 2 
z
" style="stroke: #ff7f0e"/>
    </defs>
    <g clip-path="url(#p5718e6134c)">
     <use xlink:href="#m27a6121492" x="50.884419" y="397.333162" style="fill: #ff7f0e; stroke: #ff7f0e"/>
     <use xlink:href="#m27a6121492" x="81.728303" y="366.752107" style="fill: #ff7f0e; stroke: #ff7f0e"/>
     <use xlink:href="#m27a6121492" x="122.853481" y="344.395764" style="fill: #ff7f0e; stroke: #ff7f0e"/>
     <use xlink:href="#m27a6121492" x="153.697364" y="336.762107" style="fill: #ff7f0e; stroke: #ff7f0e"/>
     <use xlink:href="#m27a6121492" x="194.822542" y="332.294387" style="fill: #ff7f0e; stroke: #ff7f0e"/>
     <use xlink:href="#m27a6121492" x="235.94772" y="331.367987" style="fill: #ff7f0e; stroke: #ff7f0e"/>
     <use xlink:href="#m27a6121492" x="246.229015" y="331.819359" style="fill: #ff7f0e; stroke: #ff7f0e"/>
     <use xlink:href="#m27a6121492" x="277.072898" y="331.078603" style="fill: #ff7f0e; stroke: #ff7f0e"/>
     <use xlink:href="#m27a6121492" x="307.916782" y="330.993971" style="fill: #ff7f0e; stroke: #ff7f0e"/>
     <use xlink:href="#m27a6121492" x="349.04196" y="328.52556" style="fill: #ff7f0e; stroke: #ff7f0e"/>
     <use xlink:href="#m27a6121492" x="390.167138" y="331.035836" style="fill: #ff7f0e; stroke: #ff7f0e"/>
     <use xlink:href="#m27a6121492" x="431.292316" y="331.218749" style="fill: #ff7f0e; stroke: #ff7f0e"/>
     <use xlink:href="#m27a6121492" x="462.136199" y="331.377543" style="fill: #ff7f0e; stroke: #ff7f0e"/>
     <use xlink:href="#m27a6121492" x="503.261377" y="331.630522" style="fill: #ff7f0e; stroke: #ff7f0e"/>
     <use xlink:href="#m27a6121492" x="544.386555" y="331.790694" style="fill: #ff7f0e; stroke: #ff7f0e"/>
     <use xlink:href="#m27a6121492" x="585.511733" y="331.723344" style="fill: #ff7f0e; stroke: #ff7f0e"/>
     <use xlink:href="#m27a6121492" x="616.355617" y="331.500845" style="fill: #ff7f0e; stroke: #ff7f0e"/>
     <use xlink:href="#m27a6121492" x="657.480795" y="332.524503" style="fill: #ff7f0e; stroke: #ff7f0e"/>
     <use xlink:href="#m27a6121492" x="698.605973" y="330.493922" style="fill: #ff7f0e; stroke: #ff7f0e"/>
     <use xlink:href="#m27a6121492" x="739.731151" y="329.758626" style="fill: #ff7f0e; stroke: #ff7f0e"/>
     <use xlink:href="#m27a6121492" x="770.575034" y="329.233542" style="fill: #ff7f0e; stroke: #ff7f0e"/>
     <use xlink:href="#m27a6121492" x="811.700212" y="328.500075" style="fill: #ff7f0e; stroke: #ff7f0e"/>
    </g>
   </g>
   <g id="line2d_27">
    <path d="M 44.748808 397.277196 
L 77.914274 328.344912 
L 94.497007 314.831187 
L 98.642691 312.588004 
L 102.788374 310.884456 
L 106.934057 309.647745 
L 111.079741 308.542077 
L 115.225424 307.879591 
L 119.371107 307.370888 
L 123.51679 307.230741 
L 127.662474 306.829424 
L 131.808157 306.781198 
L 135.95384 306.729327 
L 140.099523 306.661076 
L 144.245207 306.89586 
L 148.39089 307.245305 
L 152.536573 307.422308 
L 156.682256 307.578603 
L 160.82794 307.79541 
L 164.973623 308.320029 
L 169.119306 308.756386 
L 173.264989 308.800981 
L 177.410673 309.288744 
L 181.556356 309.709171 
L 185.702039 310.023577 
L 189.847723 310.26292 
L 193.993406 310.159629 
L 198.139089 310.922226 
L 202.284772 311.203871 
L 206.430456 311.44548 
L 210.576139 311.652513 
L 214.721822 311.806297 
L 218.867505 312.104336 
L 223.013189 312.387346 
L 227.158872 312.656706 
L 231.304555 310.749551 
L 235.450238 312.965665 
L 239.595922 313.151759 
L 243.741605 313.189529 
L 247.887288 313.507579 
L 252.032972 313.50803 
L 256.178655 313.598121 
L 260.324338 313.83427 
L 264.470021 313.840181 
L 268.615705 313.925276 
L 272.761388 310.763884 
L 276.907071 314.018098 
L 281.052754 314.043569 
L 285.198438 313.922082 
L 289.344121 313.70705 
L 293.489804 314.001718 
L 297.635487 313.966677 
L 301.781171 313.933002 
L 305.926854 313.955307 
L 310.072537 310.201713 
L 314.218221 313.756914 
L 318.363904 313.717793 
L 322.509587 313.673648 
L 326.65527 313.708238 
L 330.800954 313.664557 
L 334.946637 313.471625 
L 339.09232 313.502119 
L 343.238003 313.56764 
L 347.383687 311.567732 
L 351.52937 313.550796 
L 355.675053 313.716878 
L 359.820736 313.714148 
L 363.96642 313.795599 
L 368.112103 313.892052 
L 372.257786 314.039474 
L 376.40347 314.152321 
L 380.549153 314.267433 
L 384.694836 314.342509 
L 388.840519 314.105132 
L 392.986203 314.560462 
L 397.131886 314.605058 
L 401.277569 314.623253 
L 405.423252 314.678305 
L 409.568936 314.73337 
L 413.714619 314.772955 
L 417.860302 314.837111 
L 422.005985 314.72791 
L 426.151669 313.322837 
L 430.297352 314.811176 
L 434.443035 314.660109 
L 438.588718 314.607788 
L 442.734402 314.660559 
L 446.880085 314.583668 
L 451.025768 314.42441 
L 455.171452 314.365715 
L 459.317135 314.189176 
L 463.462818 312.574354 
L 467.608501 313.851101 
L 471.754185 313.773295 
L 475.899868 313.52123 
L 480.045551 313.467994 
L 484.191234 313.19544 
L 488.336918 313.017072 
L 492.482601 313.048468 
L 496.628284 312.811868 
L 500.773967 312.755902 
L 504.919651 312.702475 
L 509.065334 312.502923 
L 513.211017 312.337755 
L 517.356701 312.321825 
L 521.502384 312.226273 
L 525.648067 312.110246 
L 529.79375 312.001959 
L 533.939434 311.931879 
L 538.085117 311.920959 
L 542.2308 312.67639 
L 579.54195 312.074073 
L 620.998782 311.083408 
L 658.309932 313.022082 
L 695.621081 309.056418 
L 732.93223 299.413897 
L 774.389063 309.246975 
L 811.700212 314.849847 
" clip-path="url(#p5718e6134c)" style="fill: none; stroke: #2ca02c; stroke-width: 2; stroke-linecap: square"/>
    <defs>
     <path id="m435c68e8af" d="M 0 2 
C 0.530406 2 1.03916 1.789267 1.414214 1.414214 
C 1.789267 1.03916 2 0.530406 2 0 
C 2 -0.530406 1.789267 -1.03916 1.414214 -1.414214 
C 1.03916 -1.789267 0.530406 -2 0 -2 
C -0.530406 -2 -1.03916 -1.789267 -1.414214 -1.414214 
C -1.789267 -1.03916 -2 -0.530406 -2 0 
C -2 0.530406 -1.789267 1.03916 -1.414214 1.414214 
C -1.03916 1.789267 -0.530406 2 0 2 
z
" style="stroke: #2ca02c"/>
    </defs>
    <g clip-path="url(#p5718e6134c)">
     <use xlink:href="#m435c68e8af" x="44.748808" y="397.277196" style="fill: #2ca02c; stroke: #2ca02c"/>
     <use xlink:href="#m435c68e8af" x="77.914274" y="328.344912" style="fill: #2ca02c; stroke: #2ca02c"/>
     <use xlink:href="#m435c68e8af" x="94.497007" y="314.831187" style="fill: #2ca02c; stroke: #2ca02c"/>
     <use xlink:href="#m435c68e8af" x="98.642691" y="312.588004" style="fill: #2ca02c; stroke: #2ca02c"/>
     <use xlink:href="#m435c68e8af" x="102.788374" y="310.884456" style="fill: #2ca02c; stroke: #2ca02c"/>
     <use xlink:href="#m435c68e8af" x="106.934057" y="309.647745" style="fill: #2ca02c; stroke: #2ca02c"/>
     <use xlink:href="#m435c68e8af" x="111.079741" y="308.542077" style="fill: #2ca02c; stroke: #2ca02c"/>
     <use xlink:href="#m435c68e8af" x="115.225424" y="307.879591" style="fill: #2ca02c; stroke: #2ca02c"/>
     <use xlink:href="#m435c68e8af" x="119.371107" y="307.370888" style="fill: #2ca02c; stroke: #2ca02c"/>
     <use xlink:href="#m435c68e8af" x="123.51679" y="307.230741" style="fill: #2ca02c; stroke: #2ca02c"/>
     <use xlink:href="#m435c68e8af" x="127.662474" y="306.829424" style="fill: #2ca02c; stroke: #2ca02c"/>
     <use xlink:href="#m435c68e8af" x="131.808157" y="306.781198" style="fill: #2ca02c; stroke: #2ca02c"/>
     <use xlink:href="#m435c68e8af" x="135.95384" y="306.729327" style="fill: #2ca02c; stroke: #2ca02c"/>
     <use xlink:href="#m435c68e8af" x="140.099523" y="306.661076" style="fill: #2ca02c; stroke: #2ca02c"/>
     <use xlink:href="#m435c68e8af" x="144.245207" y="306.89586" style="fill: #2ca02c; stroke: #2ca02c"/>
     <use xlink:href="#m435c68e8af" x="148.39089" y="307.245305" style="fill: #2ca02c; stroke: #2ca02c"/>
     <use xlink:href="#m435c68e8af" x="152.536573" y="307.422308" style="fill: #2ca02c; stroke: #2ca02c"/>
     <use xlink:href="#m435c68e8af" x="156.682256" y="307.578603" style="fill: #2ca02c; stroke: #2ca02c"/>
     <use xlink:href="#m435c68e8af" x="160.82794" y="307.79541" style="fill: #2ca02c; stroke: #2ca02c"/>
     <use xlink:href="#m435c68e8af" x="164.973623" y="308.320029" style="fill: #2ca02c; stroke: #2ca02c"/>
     <use xlink:href="#m435c68e8af" x="169.119306" y="308.756386" style="fill: #2ca02c; stroke: #2ca02c"/>
     <use xlink:href="#m435c68e8af" x="173.264989" y="308.800981" style="fill: #2ca02c; stroke: #2ca02c"/>
     <use xlink:href="#m435c68e8af" x="177.410673" y="309.288744" style="fill: #2ca02c; stroke: #2ca02c"/>
     <use xlink:href="#m435c68e8af" x="181.556356" y="309.709171" style="fill: #2ca02c; stroke: #2ca02c"/>
     <use xlink:href="#m435c68e8af" x="185.702039" y="310.023577" style="fill: #2ca02c; stroke: #2ca02c"/>
     <use xlink:href="#m435c68e8af" x="189.847723" y="310.26292" style="fill: #2ca02c; stroke: #2ca02c"/>
     <use xlink:href="#m435c68e8af" x="193.993406" y="310.159629" style="fill: #2ca02c; stroke: #2ca02c"/>
     <use xlink:href="#m435c68e8af" x="198.139089" y="310.922226" style="fill: #2ca02c; stroke: #2ca02c"/>
     <use xlink:href="#m435c68e8af" x="202.284772" y="311.203871" style="fill: #2ca02c; stroke: #2ca02c"/>
     <use xlink:href="#m435c68e8af" x="206.430456" y="311.44548" style="fill: #2ca02c; stroke: #2ca02c"/>
     <use xlink:href="#m435c68e8af" x="210.576139" y="311.652513" style="fill: #2ca02c; stroke: #2ca02c"/>
     <use xlink:href="#m435c68e8af" x="214.721822" y="311.806297" style="fill: #2ca02c; stroke: #2ca02c"/>
     <use xlink:href="#m435c68e8af" x="218.867505" y="312.104336" style="fill: #2ca02c; stroke: #2ca02c"/>
     <use xlink:href="#m435c68e8af" x="223.013189" y="312.387346" style="fill: #2ca02c; stroke: #2ca02c"/>
     <use xlink:href="#m435c68e8af" x="227.158872" y="312.656706" style="fill: #2ca02c; stroke: #2ca02c"/>
     <use xlink:href="#m435c68e8af" x="231.304555" y="310.749551" style="fill: #2ca02c; stroke: #2ca02c"/>
     <use xlink:href="#m435c68e8af" x="235.450238" y="312.965665" style="fill: #2ca02c; stroke: #2ca02c"/>
     <use xlink:href="#m435c68e8af" x="239.595922" y="313.151759" style="fill: #2ca02c; stroke: #2ca02c"/>
     <use xlink:href="#m435c68e8af" x="243.741605" y="313.189529" style="fill: #2ca02c; stroke: #2ca02c"/>
     <use xlink:href="#m435c68e8af" x="247.887288" y="313.507579" style="fill: #2ca02c; stroke: #2ca02c"/>
     <use xlink:href="#m435c68e8af" x="252.032972" y="313.50803" style="fill: #2ca02c; stroke: #2ca02c"/>
     <use xlink:href="#m435c68e8af" x="256.178655" y="313.598121" style="fill: #2ca02c; stroke: #2ca02c"/>
     <use xlink:href="#m435c68e8af" x="260.324338" y="313.83427" style="fill: #2ca02c; stroke: #2ca02c"/>
     <use xlink:href="#m435c68e8af" x="264.470021" y="313.840181" style="fill: #2ca02c; stroke: #2ca02c"/>
     <use xlink:href="#m435c68e8af" x="268.615705" y="313.925276" style="fill: #2ca02c; stroke: #2ca02c"/>
     <use xlink:href="#m435c68e8af" x="272.761388" y="310.763884" style="fill: #2ca02c; stroke: #2ca02c"/>
     <use xlink:href="#m435c68e8af" x="276.907071" y="314.018098" style="fill: #2ca02c; stroke: #2ca02c"/>
     <use xlink:href="#m435c68e8af" x="281.052754" y="314.043569" style="fill: #2ca02c; stroke: #2ca02c"/>
     <use xlink:href="#m435c68e8af" x="285.198438" y="313.922082" style="fill: #2ca02c; stroke: #2ca02c"/>
     <use xlink:href="#m435c68e8af" x="289.344121" y="313.70705" style="fill: #2ca02c; stroke: #2ca02c"/>
     <use xlink:href="#m435c68e8af" x="293.489804" y="314.001718" style="fill: #2ca02c; stroke: #2ca02c"/>
     <use xlink:href="#m435c68e8af" x="297.635487" y="313.966677" style="fill: #2ca02c; stroke: #2ca02c"/>
     <use xlink:href="#m435c68e8af" x="301.781171" y="313.933002" style="fill: #2ca02c; stroke: #2ca02c"/>
     <use xlink:href="#m435c68e8af" x="305.926854" y="313.955307" style="fill: #2ca02c; stroke: #2ca02c"/>
     <use xlink:href="#m435c68e8af" x="310.072537" y="310.201713" style="fill: #2ca02c; stroke: #2ca02c"/>
     <use xlink:href="#m435c68e8af" x="314.218221" y="313.756914" style="fill: #2ca02c; stroke: #2ca02c"/>
     <use xlink:href="#m435c68e8af" x="318.363904" y="313.717793" style="fill: #2ca02c; stroke: #2ca02c"/>
     <use xlink:href="#m435c68e8af" x="322.509587" y="313.673648" style="fill: #2ca02c; stroke: #2ca02c"/>
     <use xlink:href="#m435c68e8af" x="326.65527" y="313.708238" style="fill: #2ca02c; stroke: #2ca02c"/>
     <use xlink:href="#m435c68e8af" x="330.800954" y="313.664557" style="fill: #2ca02c; stroke: #2ca02c"/>
     <use xlink:href="#m435c68e8af" x="334.946637" y="313.471625" style="fill: #2ca02c; stroke: #2ca02c"/>
     <use xlink:href="#m435c68e8af" x="339.09232" y="313.502119" style="fill: #2ca02c; stroke: #2ca02c"/>
     <use xlink:href="#m435c68e8af" x="343.238003" y="313.56764" style="fill: #2ca02c; stroke: #2ca02c"/>
     <use xlink:href="#m435c68e8af" x="347.383687" y="311.567732" style="fill: #2ca02c; stroke: #2ca02c"/>
     <use xlink:href="#m435c68e8af" x="351.52937" y="313.550796" style="fill: #2ca02c; stroke: #2ca02c"/>
     <use xlink:href="#m435c68e8af" x="355.675053" y="313.716878" style="fill: #2ca02c; stroke: #2ca02c"/>
     <use xlink:href="#m435c68e8af" x="359.820736" y="313.714148" style="fill: #2ca02c; stroke: #2ca02c"/>
     <use xlink:href="#m435c68e8af" x="363.96642" y="313.795599" style="fill: #2ca02c; stroke: #2ca02c"/>
     <use xlink:href="#m435c68e8af" x="368.112103" y="313.892052" style="fill: #2ca02c; stroke: #2ca02c"/>
     <use xlink:href="#m435c68e8af" x="372.257786" y="314.039474" style="fill: #2ca02c; stroke: #2ca02c"/>
     <use xlink:href="#m435c68e8af" x="376.40347" y="314.152321" style="fill: #2ca02c; stroke: #2ca02c"/>
     <use xlink:href="#m435c68e8af" x="380.549153" y="314.267433" style="fill: #2ca02c; stroke: #2ca02c"/>
     <use xlink:href="#m435c68e8af" x="384.694836" y="314.342509" style="fill: #2ca02c; stroke: #2ca02c"/>
     <use xlink:href="#m435c68e8af" x="388.840519" y="314.105132" style="fill: #2ca02c; stroke: #2ca02c"/>
     <use xlink:href="#m435c68e8af" x="392.986203" y="314.560462" style="fill: #2ca02c; stroke: #2ca02c"/>
     <use xlink:href="#m435c68e8af" x="397.131886" y="314.605058" style="fill: #2ca02c; stroke: #2ca02c"/>
     <use xlink:href="#m435c68e8af" x="401.277569" y="314.623253" style="fill: #2ca02c; stroke: #2ca02c"/>
     <use xlink:href="#m435c68e8af" x="405.423252" y="314.678305" style="fill: #2ca02c; stroke: #2ca02c"/>
     <use xlink:href="#m435c68e8af" x="409.568936" y="314.73337" style="fill: #2ca02c; stroke: #2ca02c"/>
     <use xlink:href="#m435c68e8af" x="413.714619" y="314.772955" style="fill: #2ca02c; stroke: #2ca02c"/>
     <use xlink:href="#m435c68e8af" x="417.860302" y="314.837111" style="fill: #2ca02c; stroke: #2ca02c"/>
     <use xlink:href="#m435c68e8af" x="422.005985" y="314.72791" style="fill: #2ca02c; stroke: #2ca02c"/>
     <use xlink:href="#m435c68e8af" x="426.151669" y="313.322837" style="fill: #2ca02c; stroke: #2ca02c"/>
     <use xlink:href="#m435c68e8af" x="430.297352" y="314.811176" style="fill: #2ca02c; stroke: #2ca02c"/>
     <use xlink:href="#m435c68e8af" x="434.443035" y="314.660109" style="fill: #2ca02c; stroke: #2ca02c"/>
     <use xlink:href="#m435c68e8af" x="438.588718" y="314.607788" style="fill: #2ca02c; stroke: #2ca02c"/>
     <use xlink:href="#m435c68e8af" x="442.734402" y="314.660559" style="fill: #2ca02c; stroke: #2ca02c"/>
     <use xlink:href="#m435c68e8af" x="446.880085" y="314.583668" style="fill: #2ca02c; stroke: #2ca02c"/>
     <use xlink:href="#m435c68e8af" x="451.025768" y="314.42441" style="fill: #2ca02c; stroke: #2ca02c"/>
     <use xlink:href="#m435c68e8af" x="455.171452" y="314.365715" style="fill: #2ca02c; stroke: #2ca02c"/>
     <use xlink:href="#m435c68e8af" x="459.317135" y="314.189176" style="fill: #2ca02c; stroke: #2ca02c"/>
     <use xlink:href="#m435c68e8af" x="463.462818" y="312.574354" style="fill: #2ca02c; stroke: #2ca02c"/>
     <use xlink:href="#m435c68e8af" x="467.608501" y="313.851101" style="fill: #2ca02c; stroke: #2ca02c"/>
     <use xlink:href="#m435c68e8af" x="471.754185" y="313.773295" style="fill: #2ca02c; stroke: #2ca02c"/>
     <use xlink:href="#m435c68e8af" x="475.899868" y="313.52123" style="fill: #2ca02c; stroke: #2ca02c"/>
     <use xlink:href="#m435c68e8af" x="480.045551" y="313.467994" style="fill: #2ca02c; stroke: #2ca02c"/>
     <use xlink:href="#m435c68e8af" x="484.191234" y="313.19544" style="fill: #2ca02c; stroke: #2ca02c"/>
     <use xlink:href="#m435c68e8af" x="488.336918" y="313.017072" style="fill: #2ca02c; stroke: #2ca02c"/>
     <use xlink:href="#m435c68e8af" x="492.482601" y="313.048468" style="fill: #2ca02c; stroke: #2ca02c"/>
     <use xlink:href="#m435c68e8af" x="496.628284" y="312.811868" style="fill: #2ca02c; stroke: #2ca02c"/>
     <use xlink:href="#m435c68e8af" x="500.773967" y="312.755902" style="fill: #2ca02c; stroke: #2ca02c"/>
     <use xlink:href="#m435c68e8af" x="504.919651" y="312.702475" style="fill: #2ca02c; stroke: #2ca02c"/>
     <use xlink:href="#m435c68e8af" x="509.065334" y="312.502923" style="fill: #2ca02c; stroke: #2ca02c"/>
     <use xlink:href="#m435c68e8af" x="513.211017" y="312.337755" style="fill: #2ca02c; stroke: #2ca02c"/>
     <use xlink:href="#m435c68e8af" x="517.356701" y="312.321825" style="fill: #2ca02c; stroke: #2ca02c"/>
     <use xlink:href="#m435c68e8af" x="521.502384" y="312.226273" style="fill: #2ca02c; stroke: #2ca02c"/>
     <use xlink:href="#m435c68e8af" x="525.648067" y="312.110246" style="fill: #2ca02c; stroke: #2ca02c"/>
     <use xlink:href="#m435c68e8af" x="529.79375" y="312.001959" style="fill: #2ca02c; stroke: #2ca02c"/>
     <use xlink:href="#m435c68e8af" x="533.939434" y="311.931879" style="fill: #2ca02c; stroke: #2ca02c"/>
     <use xlink:href="#m435c68e8af" x="538.085117" y="311.920959" style="fill: #2ca02c; stroke: #2ca02c"/>
     <use xlink:href="#m435c68e8af" x="542.2308" y="312.67639" style="fill: #2ca02c; stroke: #2ca02c"/>
     <use xlink:href="#m435c68e8af" x="579.54195" y="312.074073" style="fill: #2ca02c; stroke: #2ca02c"/>
     <use xlink:href="#m435c68e8af" x="620.998782" y="311.083408" style="fill: #2ca02c; stroke: #2ca02c"/>
     <use xlink:href="#m435c68e8af" x="658.309932" y="313.022082" style="fill: #2ca02c; stroke: #2ca02c"/>
     <use xlink:href="#m435c68e8af" x="695.621081" y="309.056418" style="fill: #2ca02c; stroke: #2ca02c"/>
     <use xlink:href="#m435c68e8af" x="732.93223" y="299.413897" style="fill: #2ca02c; stroke: #2ca02c"/>
     <use xlink:href="#m435c68e8af" x="774.389063" y="309.246975" style="fill: #2ca02c; stroke: #2ca02c"/>
     <use xlink:href="#m435c68e8af" x="811.700212" y="314.849847" style="fill: #2ca02c; stroke: #2ca02c"/>
    </g>
   </g>
   <g id="line2d_28">
    <path d="M 42.351644 397.023766 
L 49.345722 350.911018 
L 58.08832 310.79891 
L 63.333878 295.17759 
L 65.082398 291.204009 
L 66.830917 287.846053 
L 70.327956 281.908204 
L 73.824995 278.07249 
L 77.322034 274.976618 
L 79.070553 273.995167 
L 80.819073 273.160688 
L 82.567592 272.161941 
L 84.316112 271.5172 
L 86.064631 271.458955 
L 91.31019 270.95436 
L 96.555748 271.225085 
L 100.052787 271.691008 
L 101.801307 272.418115 
L 103.549826 272.329389 
L 105.298345 272.871753 
L 107.046865 273.02555 
L 108.795384 273.514228 
L 110.543904 274.405138 
L 112.292423 274.473389 
L 114.040943 274.954327 
L 115.789462 275.300129 
L 117.537982 277.065103 
L 119.286501 276.446748 
L 121.035021 276.951356 
L 122.78354 277.19433 
L 126.280579 278.178061 
L 128.029099 278.950664 
L 129.777618 279.00936 
L 133.274657 280.20011 
L 140.268735 281.893188 
L 142.017254 282.438297 
L 143.765774 282.418722 
L 145.514293 283.277786 
L 147.262813 283.410643 
L 154.256891 285.047306 
L 156.00541 284.947891 
L 157.75393 285.753473 
L 159.502449 286.256716 
L 161.250969 286.351353 
L 164.748008 287.144431 
L 166.496527 287.250002 
L 169.993566 288.270124 
L 171.742085 288.31472 
L 175.239124 288.924885 
L 178.736163 289.286152 
L 180.484683 292.50897 
L 182.233202 289.758914 
L 187.478761 290.553807 
L 189.22728 290.704874 
L 190.9758 291.129396 
L 192.724319 291.215393 
L 194.472839 293.066814 
L 196.221358 291.493393 
L 197.969878 291.835564 
L 199.718397 291.917015 
L 203.215436 292.401598 
L 204.963955 292.474845 
L 206.712475 292.791994 
L 210.209514 293.054979 
L 211.958033 293.420355 
L 213.706553 293.4108 
L 215.455072 290.773126 
L 217.203592 293.672434 
L 218.952111 294.03871 
L 220.700631 293.904488 
L 222.44915 293.900393 
L 227.694709 294.541953 
L 243.431384 295.534325 
L 245.179903 295.765014 
L 250.425462 295.985233 
L 271.407695 295.254946 
L 302.881046 297.712437 
L 309.875124 294.816091 
L 348.342552 296.756812 
L 386.809981 297.286441 
L 390.30702 298.935962 
L 425.277409 297.250609 
L 465.493357 295.4382 
L 542.428214 295.444343 
L 580.895642 294.365975 
L 619.36307 294.210703 
L 657.830499 296.329219 
L 696.297927 289.604666 
L 734.765356 307.280796 
L 773.232784 292.303316 
L 811.700212 292.099464 
L 811.700212 292.099464 
" clip-path="url(#p5718e6134c)" style="fill: none; stroke: #d62728; stroke-width: 2; stroke-linecap: square"/>
    <defs>
     <path id="m7682035c75" d="M 0 2 
C 0.530406 2 1.03916 1.789267 1.414214 1.414214 
C 1.789267 1.03916 2 0.530406 2 0 
C 2 -0.530406 1.789267 -1.03916 1.414214 -1.414214 
C 1.03916 -1.789267 0.530406 -2 0 -2 
C -0.530406 -2 -1.03916 -1.789267 -1.414214 -1.414214 
C -1.789267 -1.03916 -2 -0.530406 -2 0 
C -2 0.530406 -1.789267 1.03916 -1.414214 1.414214 
C -1.03916 1.789267 -0.530406 2 0 2 
z
" style="stroke: #d62728"/>
    </defs>
    <g clip-path="url(#p5718e6134c)">
     <use xlink:href="#m7682035c75" x="42.351644" y="397.023766" style="fill: #d62728; stroke: #d62728"/>
     <use xlink:href="#m7682035c75" x="49.345722" y="350.911018" style="fill: #d62728; stroke: #d62728"/>
     <use xlink:href="#m7682035c75" x="58.08832" y="310.79891" style="fill: #d62728; stroke: #d62728"/>
     <use xlink:href="#m7682035c75" x="63.333878" y="295.17759" style="fill: #d62728; stroke: #d62728"/>
     <use xlink:href="#m7682035c75" x="65.082398" y="291.204009" style="fill: #d62728; stroke: #d62728"/>
     <use xlink:href="#m7682035c75" x="66.830917" y="287.846053" style="fill: #d62728; stroke: #d62728"/>
     <use xlink:href="#m7682035c75" x="68.579437" y="284.857117" style="fill: #d62728; stroke: #d62728"/>
     <use xlink:href="#m7682035c75" x="70.327956" y="281.908204" style="fill: #d62728; stroke: #d62728"/>
     <use xlink:href="#m7682035c75" x="72.076476" y="279.916185" style="fill: #d62728; stroke: #d62728"/>
     <use xlink:href="#m7682035c75" x="73.824995" y="278.07249" style="fill: #d62728; stroke: #d62728"/>
     <use xlink:href="#m7682035c75" x="75.573514" y="276.476778" style="fill: #d62728; stroke: #d62728"/>
     <use xlink:href="#m7682035c75" x="77.322034" y="274.976618" style="fill: #d62728; stroke: #d62728"/>
     <use xlink:href="#m7682035c75" x="79.070553" y="273.995167" style="fill: #d62728; stroke: #d62728"/>
     <use xlink:href="#m7682035c75" x="80.819073" y="273.160688" style="fill: #d62728; stroke: #d62728"/>
     <use xlink:href="#m7682035c75" x="82.567592" y="272.161941" style="fill: #d62728; stroke: #d62728"/>
     <use xlink:href="#m7682035c75" x="84.316112" y="271.5172" style="fill: #d62728; stroke: #d62728"/>
     <use xlink:href="#m7682035c75" x="86.064631" y="271.458955" style="fill: #d62728; stroke: #d62728"/>
     <use xlink:href="#m7682035c75" x="87.813151" y="271.268766" style="fill: #d62728; stroke: #d62728"/>
     <use xlink:href="#m7682035c75" x="89.56167" y="271.091313" style="fill: #d62728; stroke: #d62728"/>
     <use xlink:href="#m7682035c75" x="91.31019" y="270.95436" style="fill: #d62728; stroke: #d62728"/>
     <use xlink:href="#m7682035c75" x="93.058709" y="271.033532" style="fill: #d62728; stroke: #d62728"/>
     <use xlink:href="#m7682035c75" x="94.807229" y="271.216895" style="fill: #d62728; stroke: #d62728"/>
     <use xlink:href="#m7682035c75" x="96.555748" y="271.225085" style="fill: #d62728; stroke: #d62728"/>
     <use xlink:href="#m7682035c75" x="98.304268" y="271.467609" style="fill: #d62728; stroke: #d62728"/>
     <use xlink:href="#m7682035c75" x="100.052787" y="271.691008" style="fill: #d62728; stroke: #d62728"/>
     <use xlink:href="#m7682035c75" x="101.801307" y="272.418115" style="fill: #d62728; stroke: #d62728"/>
     <use xlink:href="#m7682035c75" x="103.549826" y="272.329389" style="fill: #d62728; stroke: #d62728"/>
     <use xlink:href="#m7682035c75" x="105.298345" y="272.871753" style="fill: #d62728; stroke: #d62728"/>
     <use xlink:href="#m7682035c75" x="107.046865" y="273.02555" style="fill: #d62728; stroke: #d62728"/>
     <use xlink:href="#m7682035c75" x="108.795384" y="273.514228" style="fill: #d62728; stroke: #d62728"/>
     <use xlink:href="#m7682035c75" x="110.543904" y="274.405138" style="fill: #d62728; stroke: #d62728"/>
     <use xlink:href="#m7682035c75" x="112.292423" y="274.473389" style="fill: #d62728; stroke: #d62728"/>
     <use xlink:href="#m7682035c75" x="114.040943" y="274.954327" style="fill: #d62728; stroke: #d62728"/>
     <use xlink:href="#m7682035c75" x="115.789462" y="275.300129" style="fill: #d62728; stroke: #d62728"/>
     <use xlink:href="#m7682035c75" x="117.537982" y="277.065103" style="fill: #d62728; stroke: #d62728"/>
     <use xlink:href="#m7682035c75" x="119.286501" y="276.446748" style="fill: #d62728; stroke: #d62728"/>
     <use xlink:href="#m7682035c75" x="121.035021" y="276.951356" style="fill: #d62728; stroke: #d62728"/>
     <use xlink:href="#m7682035c75" x="122.78354" y="277.19433" style="fill: #d62728; stroke: #d62728"/>
     <use xlink:href="#m7682035c75" x="124.53206" y="277.679827" style="fill: #d62728; stroke: #d62728"/>
     <use xlink:href="#m7682035c75" x="126.280579" y="278.178061" style="fill: #d62728; stroke: #d62728"/>
     <use xlink:href="#m7682035c75" x="128.029099" y="278.950664" style="fill: #d62728; stroke: #d62728"/>
     <use xlink:href="#m7682035c75" x="129.777618" y="279.00936" style="fill: #d62728; stroke: #d62728"/>
     <use xlink:href="#m7682035c75" x="131.526138" y="279.63226" style="fill: #d62728; stroke: #d62728"/>
     <use xlink:href="#m7682035c75" x="133.274657" y="280.20011" style="fill: #d62728; stroke: #d62728"/>
     <use xlink:href="#m7682035c75" x="135.023177" y="280.603242" style="fill: #d62728; stroke: #d62728"/>
     <use xlink:href="#m7682035c75" x="136.771696" y="280.929947" style="fill: #d62728; stroke: #d62728"/>
     <use xlink:href="#m7682035c75" x="138.520215" y="281.337624" style="fill: #d62728; stroke: #d62728"/>
     <use xlink:href="#m7682035c75" x="140.268735" y="281.893188" style="fill: #d62728; stroke: #d62728"/>
     <use xlink:href="#m7682035c75" x="142.017254" y="282.438297" style="fill: #d62728; stroke: #d62728"/>
     <use xlink:href="#m7682035c75" x="143.765774" y="282.418722" style="fill: #d62728; stroke: #d62728"/>
     <use xlink:href="#m7682035c75" x="145.514293" y="283.277786" style="fill: #d62728; stroke: #d62728"/>
     <use xlink:href="#m7682035c75" x="147.262813" y="283.410643" style="fill: #d62728; stroke: #d62728"/>
     <use xlink:href="#m7682035c75" x="149.011332" y="283.805135" style="fill: #d62728; stroke: #d62728"/>
     <use xlink:href="#m7682035c75" x="150.759852" y="284.286537" style="fill: #d62728; stroke: #d62728"/>
     <use xlink:href="#m7682035c75" x="152.508371" y="284.645989" style="fill: #d62728; stroke: #d62728"/>
     <use xlink:href="#m7682035c75" x="154.256891" y="285.047306" style="fill: #d62728; stroke: #d62728"/>
     <use xlink:href="#m7682035c75" x="156.00541" y="284.947891" style="fill: #d62728; stroke: #d62728"/>
     <use xlink:href="#m7682035c75" x="157.75393" y="285.753473" style="fill: #d62728; stroke: #d62728"/>
     <use xlink:href="#m7682035c75" x="159.502449" y="286.256716" style="fill: #d62728; stroke: #d62728"/>
     <use xlink:href="#m7682035c75" x="161.250969" y="286.351353" style="fill: #d62728; stroke: #d62728"/>
     <use xlink:href="#m7682035c75" x="162.999488" y="286.805004" style="fill: #d62728; stroke: #d62728"/>
     <use xlink:href="#m7682035c75" x="164.748008" y="287.144431" style="fill: #d62728; stroke: #d62728"/>
     <use xlink:href="#m7682035c75" x="166.496527" y="287.250002" style="fill: #d62728; stroke: #d62728"/>
     <use xlink:href="#m7682035c75" x="168.245046" y="287.76325" style="fill: #d62728; stroke: #d62728"/>
     <use xlink:href="#m7682035c75" x="169.993566" y="288.270124" style="fill: #d62728; stroke: #d62728"/>
     <use xlink:href="#m7682035c75" x="171.742085" y="288.31472" style="fill: #d62728; stroke: #d62728"/>
     <use xlink:href="#m7682035c75" x="173.490605" y="288.615475" style="fill: #d62728; stroke: #d62728"/>
     <use xlink:href="#m7682035c75" x="175.239124" y="288.924885" style="fill: #d62728; stroke: #d62728"/>
     <use xlink:href="#m7682035c75" x="176.987644" y="289.077767" style="fill: #d62728; stroke: #d62728"/>
     <use xlink:href="#m7682035c75" x="178.736163" y="289.286152" style="fill: #d62728; stroke: #d62728"/>
     <use xlink:href="#m7682035c75" x="180.484683" y="292.50897" style="fill: #d62728; stroke: #d62728"/>
     <use xlink:href="#m7682035c75" x="182.233202" y="289.758914" style="fill: #d62728; stroke: #d62728"/>
     <use xlink:href="#m7682035c75" x="183.981722" y="290.024178" style="fill: #d62728; stroke: #d62728"/>
     <use xlink:href="#m7682035c75" x="185.730241" y="290.256232" style="fill: #d62728; stroke: #d62728"/>
     <use xlink:href="#m7682035c75" x="187.478761" y="290.553807" style="fill: #d62728; stroke: #d62728"/>
     <use xlink:href="#m7682035c75" x="189.22728" y="290.704874" style="fill: #d62728; stroke: #d62728"/>
     <use xlink:href="#m7682035c75" x="190.9758" y="291.129396" style="fill: #d62728; stroke: #d62728"/>
     <use xlink:href="#m7682035c75" x="192.724319" y="291.215393" style="fill: #d62728; stroke: #d62728"/>
     <use xlink:href="#m7682035c75" x="194.472839" y="293.066814" style="fill: #d62728; stroke: #d62728"/>
     <use xlink:href="#m7682035c75" x="196.221358" y="291.493393" style="fill: #d62728; stroke: #d62728"/>
     <use xlink:href="#m7682035c75" x="197.969878" y="291.835564" style="fill: #d62728; stroke: #d62728"/>
     <use xlink:href="#m7682035c75" x="199.718397" y="291.917015" style="fill: #d62728; stroke: #d62728"/>
     <use xlink:href="#m7682035c75" x="201.466916" y="292.200939" style="fill: #d62728; stroke: #d62728"/>
     <use xlink:href="#m7682035c75" x="203.215436" y="292.401598" style="fill: #d62728; stroke: #d62728"/>
     <use xlink:href="#m7682035c75" x="204.963955" y="292.474845" style="fill: #d62728; stroke: #d62728"/>
     <use xlink:href="#m7682035c75" x="206.712475" y="292.791994" style="fill: #d62728; stroke: #d62728"/>
     <use xlink:href="#m7682035c75" x="208.460994" y="292.874346" style="fill: #d62728; stroke: #d62728"/>
     <use xlink:href="#m7682035c75" x="210.209514" y="293.054979" style="fill: #d62728; stroke: #d62728"/>
     <use xlink:href="#m7682035c75" x="211.958033" y="293.420355" style="fill: #d62728; stroke: #d62728"/>
     <use xlink:href="#m7682035c75" x="213.706553" y="293.4108" style="fill: #d62728; stroke: #d62728"/>
     <use xlink:href="#m7682035c75" x="215.455072" y="290.773126" style="fill: #d62728; stroke: #d62728"/>
     <use xlink:href="#m7682035c75" x="217.203592" y="293.672434" style="fill: #d62728; stroke: #d62728"/>
     <use xlink:href="#m7682035c75" x="218.952111" y="294.03871" style="fill: #d62728; stroke: #d62728"/>
     <use xlink:href="#m7682035c75" x="220.700631" y="293.904488" style="fill: #d62728; stroke: #d62728"/>
     <use xlink:href="#m7682035c75" x="222.44915" y="293.900393" style="fill: #d62728; stroke: #d62728"/>
     <use xlink:href="#m7682035c75" x="224.19767" y="294.148827" style="fill: #d62728; stroke: #d62728"/>
     <use xlink:href="#m7682035c75" x="225.946189" y="294.285329" style="fill: #d62728; stroke: #d62728"/>
     <use xlink:href="#m7682035c75" x="227.694709" y="294.541953" style="fill: #d62728; stroke: #d62728"/>
     <use xlink:href="#m7682035c75" x="229.443228" y="294.650691" style="fill: #d62728; stroke: #d62728"/>
     <use xlink:href="#m7682035c75" x="231.191748" y="294.813129" style="fill: #d62728; stroke: #d62728"/>
     <use xlink:href="#m7682035c75" x="232.940267" y="294.772123" style="fill: #d62728; stroke: #d62728"/>
     <use xlink:href="#m7682035c75" x="234.688786" y="295.026536" style="fill: #d62728; stroke: #d62728"/>
     <use xlink:href="#m7682035c75" x="236.437306" y="295.008791" style="fill: #d62728; stroke: #d62728"/>
     <use xlink:href="#m7682035c75" x="238.185825" y="295.243575" style="fill: #d62728; stroke: #d62728"/>
     <use xlink:href="#m7682035c75" x="239.934345" y="295.339577" style="fill: #d62728; stroke: #d62728"/>
     <use xlink:href="#m7682035c75" x="241.682864" y="295.50929" style="fill: #d62728; stroke: #d62728"/>
     <use xlink:href="#m7682035c75" x="243.431384" y="295.534325" style="fill: #d62728; stroke: #d62728"/>
     <use xlink:href="#m7682035c75" x="245.179903" y="295.765014" style="fill: #d62728; stroke: #d62728"/>
     <use xlink:href="#m7682035c75" x="246.928423" y="295.867841" style="fill: #d62728; stroke: #d62728"/>
     <use xlink:href="#m7682035c75" x="248.676942" y="295.863295" style="fill: #d62728; stroke: #d62728"/>
     <use xlink:href="#m7682035c75" x="250.425462" y="295.985233" style="fill: #d62728; stroke: #d62728"/>
     <use xlink:href="#m7682035c75" x="271.407695" y="295.254946" style="fill: #d62728; stroke: #d62728"/>
     <use xlink:href="#m7682035c75" x="302.881046" y="297.712437" style="fill: #d62728; stroke: #d62728"/>
     <use xlink:href="#m7682035c75" x="309.875124" y="294.816091" style="fill: #d62728; stroke: #d62728"/>
     <use xlink:href="#m7682035c75" x="348.342552" y="296.756812" style="fill: #d62728; stroke: #d62728"/>
     <use xlink:href="#m7682035c75" x="386.809981" y="297.286441" style="fill: #d62728; stroke: #d62728"/>
     <use xlink:href="#m7682035c75" x="390.30702" y="298.935962" style="fill: #d62728; stroke: #d62728"/>
     <use xlink:href="#m7682035c75" x="425.277409" y="297.250609" style="fill: #d62728; stroke: #d62728"/>
     <use xlink:href="#m7682035c75" x="465.493357" y="295.4382" style="fill: #d62728; stroke: #d62728"/>
     <use xlink:href="#m7682035c75" x="503.960785" y="295.444001" style="fill: #d62728; stroke: #d62728"/>
     <use xlink:href="#m7682035c75" x="542.428214" y="295.444343" style="fill: #d62728; stroke: #d62728"/>
     <use xlink:href="#m7682035c75" x="580.895642" y="294.365975" style="fill: #d62728; stroke: #d62728"/>
     <use xlink:href="#m7682035c75" x="619.36307" y="294.210703" style="fill: #d62728; stroke: #d62728"/>
     <use xlink:href="#m7682035c75" x="657.830499" y="296.329219" style="fill: #d62728; stroke: #d62728"/>
     <use xlink:href="#m7682035c75" x="696.297927" y="289.604666" style="fill: #d62728; stroke: #d62728"/>
     <use xlink:href="#m7682035c75" x="734.765356" y="307.280796" style="fill: #d62728; stroke: #d62728"/>
     <use xlink:href="#m7682035c75" x="773.232784" y="292.303316" style="fill: #d62728; stroke: #d62728"/>
     <use xlink:href="#m7682035c75" x="811.700212" y="292.099464" style="fill: #d62728; stroke: #d62728"/>
    </g>
   </g>
   <g id="line2d_29">
    <path d="M 41.362079 397.007836 
L 55.782202 244.559366 
L 70.961278 220.529738 
L 79.30977 224.198236 
L 86.140355 228.536046 
L 116.498508 250.50677 
L 118.016415 249.410206 
L 155.964107 266.555001 
L 194.670752 277.925531 
L 233.377397 281.478686 
L 272.084042 282.307364 
L 310.790687 284.020126 
L 348.738378 272.469071 
L 387.445024 271.101783 
L 426.151669 279.685496 
L 464.858314 277.912782 
L 503.564959 279.230029 
L 541.51265 294.312629 
L 580.219295 281.449106 
L 618.925941 274.472474 
L 657.632586 286.504699 
L 696.339231 285.047756 
L 734.286922 275.382945 
L 772.993567 273.899165 
L 811.700212 273.899165 
" clip-path="url(#p5718e6134c)" style="fill: none; stroke: #9467bd; stroke-width: 2; stroke-linecap: square"/>
    <defs>
     <path id="m2ec47a695a" d="M 0 2 
C 0.530406 2 1.03916 1.789267 1.414214 1.414214 
C 1.789267 1.03916 2 0.530406 2 0 
C 2 -0.530406 1.789267 -1.03916 1.414214 -1.414214 
C 1.03916 -1.789267 0.530406 -2 0 -2 
C -0.530406 -2 -1.03916 -1.789267 -1.414214 -1.414214 
C -1.789267 -1.03916 -2 -0.530406 -2 0 
C -2 0.530406 -1.789267 1.03916 -1.414214 1.414214 
C -1.03916 1.789267 -0.530406 2 0 2 
z
" style="stroke: #9467bd"/>
    </defs>
    <g clip-path="url(#p5718e6134c)">
     <use xlink:href="#m2ec47a695a" x="41.362079" y="397.007836" style="fill: #9467bd; stroke: #9467bd"/>
     <use xlink:href="#m2ec47a695a" x="55.782202" y="244.559366" style="fill: #9467bd; stroke: #9467bd"/>
     <use xlink:href="#m2ec47a695a" x="70.961278" y="220.529738" style="fill: #9467bd; stroke: #9467bd"/>
     <use xlink:href="#m2ec47a695a" x="79.30977" y="224.198236" style="fill: #9467bd; stroke: #9467bd"/>
     <use xlink:href="#m2ec47a695a" x="86.140355" y="228.536046" style="fill: #9467bd; stroke: #9467bd"/>
     <use xlink:href="#m2ec47a695a" x="116.498508" y="250.50677" style="fill: #9467bd; stroke: #9467bd"/>
     <use xlink:href="#m2ec47a695a" x="118.016415" y="249.410206" style="fill: #9467bd; stroke: #9467bd"/>
     <use xlink:href="#m2ec47a695a" x="155.964107" y="266.555001" style="fill: #9467bd; stroke: #9467bd"/>
     <use xlink:href="#m2ec47a695a" x="194.670752" y="277.925531" style="fill: #9467bd; stroke: #9467bd"/>
     <use xlink:href="#m2ec47a695a" x="233.377397" y="281.478686" style="fill: #9467bd; stroke: #9467bd"/>
     <use xlink:href="#m2ec47a695a" x="272.084042" y="282.307364" style="fill: #9467bd; stroke: #9467bd"/>
     <use xlink:href="#m2ec47a695a" x="310.790687" y="284.020126" style="fill: #9467bd; stroke: #9467bd"/>
     <use xlink:href="#m2ec47a695a" x="348.738378" y="272.469071" style="fill: #9467bd; stroke: #9467bd"/>
     <use xlink:href="#m2ec47a695a" x="387.445024" y="271.101783" style="fill: #9467bd; stroke: #9467bd"/>
     <use xlink:href="#m2ec47a695a" x="426.151669" y="279.685496" style="fill: #9467bd; stroke: #9467bd"/>
     <use xlink:href="#m2ec47a695a" x="464.858314" y="277.912782" style="fill: #9467bd; stroke: #9467bd"/>
     <use xlink:href="#m2ec47a695a" x="503.564959" y="279.230029" style="fill: #9467bd; stroke: #9467bd"/>
     <use xlink:href="#m2ec47a695a" x="541.51265" y="294.312629" style="fill: #9467bd; stroke: #9467bd"/>
     <use xlink:href="#m2ec47a695a" x="580.219295" y="281.449106" style="fill: #9467bd; stroke: #9467bd"/>
     <use xlink:href="#m2ec47a695a" x="618.925941" y="274.472474" style="fill: #9467bd; stroke: #9467bd"/>
     <use xlink:href="#m2ec47a695a" x="657.632586" y="286.504699" style="fill: #9467bd; stroke: #9467bd"/>
     <use xlink:href="#m2ec47a695a" x="696.339231" y="285.047756" style="fill: #9467bd; stroke: #9467bd"/>
     <use xlink:href="#m2ec47a695a" x="734.286922" y="275.382945" style="fill: #9467bd; stroke: #9467bd"/>
     <use xlink:href="#m2ec47a695a" x="772.993567" y="273.899165" style="fill: #9467bd; stroke: #9467bd"/>
     <use xlink:href="#m2ec47a695a" x="811.700212" y="273.899165" style="fill: #9467bd; stroke: #9467bd"/>
    </g>
   </g>
   <g id="line2d_30">
    <path d="M 47.322925 216.249245 
L 54.042726 156.791134 
L 60.762526 148.67221 
L 71.514206 163.80735 
L 74.202127 169.427149 
" clip-path="url(#p5718e6134c)" style="fill: none; stroke: #8c564b; stroke-width: 2; stroke-linecap: square"/>
    <defs>
     <path id="m3b98ee2534" d="M 0 2 
C 0.530406 2 1.03916 1.789267 1.414214 1.414214 
C 1.789267 1.03916 2 0.530406 2 0 
C 2 -0.530406 1.789267 -1.03916 1.414214 -1.414214 
C 1.03916 -1.789267 0.530406 -2 0 -2 
C -0.530406 -2 -1.03916 -1.789267 -1.414214 -1.414214 
C -1.789267 -1.03916 -2 -0.530406 -2 0 
C -2 0.530406 -1.789267 1.03916 -1.414214 1.414214 
C -1.03916 1.789267 -0.530406 2 0 2 
z
" style="stroke: #8c564b"/>
    </defs>
    <g clip-path="url(#p5718e6134c)">
     <use xlink:href="#m3b98ee2534" x="47.322925" y="216.249245" style="fill: #8c564b; stroke: #8c564b"/>
     <use xlink:href="#m3b98ee2534" x="54.042726" y="156.791134" style="fill: #8c564b; stroke: #8c564b"/>
     <use xlink:href="#m3b98ee2534" x="60.762526" y="148.67221" style="fill: #8c564b; stroke: #8c564b"/>
     <use xlink:href="#m3b98ee2534" x="71.514206" y="163.80735" style="fill: #8c564b; stroke: #8c564b"/>
     <use xlink:href="#m3b98ee2534" x="74.202127" y="169.427149" style="fill: #8c564b; stroke: #8c564b"/>
    </g>
   </g>
   <g id="line2d_31">
    <path d="M 43.621118 193.571221 
L 46.63911 92.714686 
L 49.657103 55.649773 
L 55.994887 49.984929 
" clip-path="url(#p5718e6134c)" style="fill: none; stroke: #e377c2; stroke-width: 2; stroke-linecap: square"/>
    <defs>
     <path id="ma9a7be8bb9" d="M 0 2 
C 0.530406 2 1.03916 1.789267 1.414214 1.414214 
C 1.789267 1.03916 2 0.530406 2 0 
C 2 -0.530406 1.789267 -1.03916 1.414214 -1.414214 
C 1.03916 -1.789267 0.530406 -2 0 -2 
C -0.530406 -2 -1.03916 -1.789267 -1.414214 -1.414214 
C -1.789267 -1.03916 -2 -0.530406 -2 0 
C -2 0.530406 -1.789267 1.03916 -1.414214 1.414214 
C -1.03916 1.789267 -0.530406 2 0 2 
z
" style="stroke: #e377c2"/>
    </defs>
    <g clip-path="url(#p5718e6134c)">
     <use xlink:href="#ma9a7be8bb9" x="43.621118" y="193.571221" style="fill: #e377c2; stroke: #e377c2"/>
     <use xlink:href="#ma9a7be8bb9" x="46.63911" y="92.714686" style="fill: #e377c2; stroke: #e377c2"/>
     <use xlink:href="#ma9a7be8bb9" x="49.657103" y="55.649773" style="fill: #e377c2; stroke: #e377c2"/>
     <use xlink:href="#ma9a7be8bb9" x="55.994887" y="49.984929" style="fill: #e377c2; stroke: #e377c2"/>
    </g>
   </g>
   <g id="line2d_32">
    <path d="M 41.973599 176.421075 
" clip-path="url(#p5718e6134c)" style="fill: none; stroke: #7f7f7f; stroke-width: 2; stroke-linecap: square"/>
    <defs>
     <path id="me64f0bee13" d="M 0 2 
C 0.530406 2 1.03916 1.789267 1.414214 1.414214 
C 1.789267 1.03916 2 0.530406 2 0 
C 2 -0.530406 1.789267 -1.03916 1.414214 -1.414214 
C 1.03916 -1.789267 0.530406 -2 0 -2 
C -0.530406 -2 -1.03916 -1.789267 -1.414214 -1.414214 
C -1.789267 -1.03916 -2 -0.530406 -2 0 
C -2 0.530406 -1.789267 1.03916 -1.414214 1.414214 
C -1.03916 1.789267 -0.530406 2 0 2 
z
" style="stroke: #7f7f7f"/>
    </defs>
    <g clip-path="url(#p5718e6134c)">
     <use xlink:href="#me64f0bee13" x="41.973599" y="176.421075" style="fill: #7f7f7f; stroke: #7f7f7f"/>
    </g>
   </g>
   <g id="line2d_33">
    <path d="M 41.230952 164.03303 
" clip-path="url(#p5718e6134c)" style="fill: none; stroke: #bcbd22; stroke-width: 2; stroke-linecap: square"/>
    <defs>
     <path id="mf62d80efd7" d="M 0 2 
C 0.530406 2 1.03916 1.789267 1.414214 1.414214 
C 1.789267 1.03916 2 0.530406 2 0 
C 2 -0.530406 1.789267 -1.03916 1.414214 -1.414214 
C 1.03916 -1.789267 0.530406 -2 0 -2 
C -0.530406 -2 -1.03916 -1.789267 -1.414214 -1.414214 
C -1.789267 -1.03916 -2 -0.530406 -2 0 
C -2 0.530406 -1.789267 1.03916 -1.414214 1.414214 
C -1.03916 1.789267 -0.530406 2 0 2 
z
" style="stroke: #bcbd22"/>
    </defs>
    <g clip-path="url(#p5718e6134c)">
     <use xlink:href="#mf62d80efd7" x="41.230952" y="164.03303" style="fill: #bcbd22; stroke: #bcbd22"/>
    </g>
   </g>
   <g id="line2d_34">
    <path d="M 40.892821 155.599469 
" clip-path="url(#p5718e6134c)" style="fill: none; stroke: #17becf; stroke-width: 2; stroke-linecap: square"/>
    <defs>
     <path id="ma844771c25" d="M 0 2 
C 0.530406 2 1.03916 1.789267 1.414214 1.414214 
C 1.789267 1.03916 2 0.530406 2 0 
C 2 -0.530406 1.789267 -1.03916 1.414214 -1.414214 
C 1.03916 -1.789267 0.530406 -2 0 -2 
C -0.530406 -2 -1.03916 -1.789267 -1.414214 -1.414214 
C -1.789267 -1.03916 -2 -0.530406 -2 0 
C -2 0.530406 -1.789267 1.03916 -1.414214 1.414214 
C -1.03916 1.789267 -0.530406 2 0 2 
z
" style="stroke: #17becf"/>
    </defs>
    <g clip-path="url(#p5718e6134c)">
     <use xlink:href="#ma844771c25" x="40.892821" y="155.599469" style="fill: #17becf; stroke: #17becf"/>
    </g>
   </g>
   <g id="patch_3">
    <path d="M 40.603125 415.117656 
L 40.603125 32.597656 
" style="fill: none; stroke: #000000; stroke-width: 0.8; stroke-linejoin: miter; stroke-linecap: square"/>
   </g>
   <g id="patch_4">
    <path d="M 40.603125 415.117656 
L 834.833125 415.117656 
" style="fill: none; stroke: #000000; stroke-width: 0.8; stroke-linejoin: miter; stroke-linecap: square"/>
   </g>
   <g id="text_15">
    <!-- Minimal Cover Size vs FD Density -->
    <g transform="translate(296.651328 18.597656) scale(0.15 -0.15)">
     <defs>
      <path id="DejaVuSans-Bold-4d" d="M 588 4666 
L 2119 4666 
L 3181 2169 
L 4250 4666 
L 5778 4666 
L 5778 0 
L 4641 0 
L 4641 3413 
L 3566 897 
L 2803 897 
L 1728 3413 
L 1728 0 
L 588 0 
L 588 4666 
z
" transform="scale(0.015625)"/>
      <path id="DejaVuSans-Bold-69" d="M 538 3500 
L 1656 3500 
L 1656 0 
L 538 0 
L 538 3500 
z
M 538 4863 
L 1656 4863 
L 1656 3950 
L 538 3950 
L 538 4863 
z
" transform="scale(0.015625)"/>
      <path id="DejaVuSans-Bold-6e" d="M 4056 2131 
L 4056 0 
L 2931 0 
L 2931 347 
L 2931 1631 
Q 2931 2084 2911 2256 
Q 2891 2428 2841 2509 
Q 2775 2619 2662 2680 
Q 2550 2741 2406 2741 
Q 2056 2741 1856 2470 
Q 1656 2200 1656 1722 
L 1656 0 
L 538 0 
L 538 3500 
L 1656 3500 
L 1656 2988 
Q 1909 3294 2193 3439 
Q 2478 3584 2822 3584 
Q 3428 3584 3742 3212 
Q 4056 2841 4056 2131 
z
" transform="scale(0.015625)"/>
      <path id="DejaVuSans-Bold-6d" d="M 3781 2919 
Q 3994 3244 4286 3414 
Q 4578 3584 4928 3584 
Q 5531 3584 5847 3212 
Q 6163 2841 6163 2131 
L 6163 0 
L 5038 0 
L 5038 1825 
Q 5041 1866 5042 1909 
Q 5044 1953 5044 2034 
Q 5044 2406 4934 2573 
Q 4825 2741 4581 2741 
Q 4263 2741 4089 2478 
Q 3916 2216 3909 1719 
L 3909 0 
L 2784 0 
L 2784 1825 
Q 2784 2406 2684 2573 
Q 2584 2741 2328 2741 
Q 2006 2741 1831 2477 
Q 1656 2213 1656 1722 
L 1656 0 
L 531 0 
L 531 3500 
L 1656 3500 
L 1656 2988 
Q 1863 3284 2130 3434 
Q 2397 3584 2719 3584 
Q 3081 3584 3359 3409 
Q 3638 3234 3781 2919 
z
" transform="scale(0.015625)"/>
      <path id="DejaVuSans-Bold-61" d="M 2106 1575 
Q 1756 1575 1579 1456 
Q 1403 1338 1403 1106 
Q 1403 894 1545 773 
Q 1688 653 1941 653 
Q 2256 653 2472 879 
Q 2688 1106 2688 1447 
L 2688 1575 
L 2106 1575 
z
M 3816 1997 
L 3816 0 
L 2688 0 
L 2688 519 
Q 2463 200 2181 54 
Q 1900 -91 1497 -91 
Q 953 -91 614 226 
Q 275 544 275 1050 
Q 275 1666 698 1953 
Q 1122 2241 2028 2241 
L 2688 2241 
L 2688 2328 
Q 2688 2594 2478 2717 
Q 2269 2841 1825 2841 
Q 1466 2841 1156 2769 
Q 847 2697 581 2553 
L 581 3406 
Q 941 3494 1303 3539 
Q 1666 3584 2028 3584 
Q 2975 3584 3395 3211 
Q 3816 2838 3816 1997 
z
" transform="scale(0.015625)"/>
      <path id="DejaVuSans-Bold-6c" d="M 538 4863 
L 1656 4863 
L 1656 0 
L 538 0 
L 538 4863 
z
" transform="scale(0.015625)"/>
      <path id="DejaVuSans-Bold-20" transform="scale(0.015625)"/>
      <path id="DejaVuSans-Bold-43" d="M 4288 256 
Q 3956 84 3597 -3 
Q 3238 -91 2847 -91 
Q 1681 -91 1000 561 
Q 319 1213 319 2328 
Q 319 3447 1000 4098 
Q 1681 4750 2847 4750 
Q 3238 4750 3597 4662 
Q 3956 4575 4288 4403 
L 4288 3438 
Q 3953 3666 3628 3772 
Q 3303 3878 2944 3878 
Q 2300 3878 1931 3465 
Q 1563 3053 1563 2328 
Q 1563 1606 1931 1193 
Q 2300 781 2944 781 
Q 3303 781 3628 887 
Q 3953 994 4288 1222 
L 4288 256 
z
" transform="scale(0.015625)"/>
      <path id="DejaVuSans-Bold-6f" d="M 2203 2784 
Q 1831 2784 1636 2517 
Q 1441 2250 1441 1747 
Q 1441 1244 1636 976 
Q 1831 709 2203 709 
Q 2569 709 2762 976 
Q 2956 1244 2956 1747 
Q 2956 2250 2762 2517 
Q 2569 2784 2203 2784 
z
M 2203 3584 
Q 3106 3584 3614 3096 
Q 4122 2609 4122 1747 
Q 4122 884 3614 396 
Q 3106 -91 2203 -91 
Q 1297 -91 786 396 
Q 275 884 275 1747 
Q 275 2609 786 3096 
Q 1297 3584 2203 3584 
z
" transform="scale(0.015625)"/>
      <path id="DejaVuSans-Bold-76" d="M 97 3500 
L 1216 3500 
L 2088 1081 
L 2956 3500 
L 4078 3500 
L 2700 0 
L 1472 0 
L 97 3500 
z
" transform="scale(0.015625)"/>
      <path id="DejaVuSans-Bold-65" d="M 4031 1759 
L 4031 1441 
L 1416 1441 
Q 1456 1047 1700 850 
Q 1944 653 2381 653 
Q 2734 653 3104 758 
Q 3475 863 3866 1075 
L 3866 213 
Q 3469 63 3072 -14 
Q 2675 -91 2278 -91 
Q 1328 -91 801 392 
Q 275 875 275 1747 
Q 275 2603 792 3093 
Q 1309 3584 2216 3584 
Q 3041 3584 3536 3087 
Q 4031 2591 4031 1759 
z
M 2881 2131 
Q 2881 2450 2695 2645 
Q 2509 2841 2209 2841 
Q 1884 2841 1681 2658 
Q 1478 2475 1428 2131 
L 2881 2131 
z
" transform="scale(0.015625)"/>
      <path id="DejaVuSans-Bold-72" d="M 3138 2547 
Q 2991 2616 2845 2648 
Q 2700 2681 2553 2681 
Q 2122 2681 1889 2404 
Q 1656 2128 1656 1613 
L 1656 0 
L 538 0 
L 538 3500 
L 1656 3500 
L 1656 2925 
Q 1872 3269 2151 3426 
Q 2431 3584 2822 3584 
Q 2878 3584 2943 3579 
Q 3009 3575 3134 3559 
L 3138 2547 
z
" transform="scale(0.015625)"/>
      <path id="DejaVuSans-Bold-53" d="M 3834 4519 
L 3834 3531 
Q 3450 3703 3084 3790 
Q 2719 3878 2394 3878 
Q 1963 3878 1756 3759 
Q 1550 3641 1550 3391 
Q 1550 3203 1689 3098 
Q 1828 2994 2194 2919 
L 2706 2816 
Q 3484 2659 3812 2340 
Q 4141 2022 4141 1434 
Q 4141 663 3683 286 
Q 3225 -91 2284 -91 
Q 1841 -91 1394 -6 
Q 947 78 500 244 
L 500 1259 
Q 947 1022 1364 901 
Q 1781 781 2169 781 
Q 2563 781 2772 912 
Q 2981 1044 2981 1288 
Q 2981 1506 2839 1625 
Q 2697 1744 2272 1838 
L 1806 1941 
Q 1106 2091 782 2419 
Q 459 2747 459 3303 
Q 459 4000 909 4375 
Q 1359 4750 2203 4750 
Q 2588 4750 2994 4692 
Q 3400 4634 3834 4519 
z
" transform="scale(0.015625)"/>
      <path id="DejaVuSans-Bold-7a" d="M 366 3500 
L 3419 3500 
L 3419 2719 
L 1575 800 
L 3419 800 
L 3419 0 
L 288 0 
L 288 781 
L 2131 2700 
L 366 2700 
L 366 3500 
z
" transform="scale(0.015625)"/>
      <path id="DejaVuSans-Bold-73" d="M 3272 3391 
L 3272 2541 
Q 2913 2691 2578 2766 
Q 2244 2841 1947 2841 
Q 1628 2841 1473 2761 
Q 1319 2681 1319 2516 
Q 1319 2381 1436 2309 
Q 1553 2238 1856 2203 
L 2053 2175 
Q 2913 2066 3209 1816 
Q 3506 1566 3506 1031 
Q 3506 472 3093 190 
Q 2681 -91 1863 -91 
Q 1516 -91 1145 -36 
Q 775 19 384 128 
L 384 978 
Q 719 816 1070 734 
Q 1422 653 1784 653 
Q 2113 653 2278 743 
Q 2444 834 2444 1013 
Q 2444 1163 2330 1236 
Q 2216 1309 1875 1350 
L 1678 1375 
Q 931 1469 631 1722 
Q 331 1975 331 2491 
Q 331 3047 712 3315 
Q 1094 3584 1881 3584 
Q 2191 3584 2531 3537 
Q 2872 3491 3272 3391 
z
" transform="scale(0.015625)"/>
      <path id="DejaVuSans-Bold-46" d="M 588 4666 
L 3834 4666 
L 3834 3756 
L 1791 3756 
L 1791 2888 
L 3713 2888 
L 3713 1978 
L 1791 1978 
L 1791 0 
L 588 0 
L 588 4666 
z
" transform="scale(0.015625)"/>
      <path id="DejaVuSans-Bold-44" d="M 1791 3756 
L 1791 909 
L 2222 909 
Q 2959 909 3348 1275 
Q 3738 1641 3738 2338 
Q 3738 3031 3350 3393 
Q 2963 3756 2222 3756 
L 1791 3756 
z
M 588 4666 
L 1856 4666 
Q 2919 4666 3439 4514 
Q 3959 4363 4331 4000 
Q 4659 3684 4818 3271 
Q 4978 2859 4978 2338 
Q 4978 1809 4818 1395 
Q 4659 981 4331 666 
Q 3956 303 3431 151 
Q 2906 0 1856 0 
L 588 0 
L 588 4666 
z
" transform="scale(0.015625)"/>
      <path id="DejaVuSans-Bold-74" d="M 1759 4494 
L 1759 3500 
L 2913 3500 
L 2913 2700 
L 1759 2700 
L 1759 1216 
Q 1759 972 1856 886 
Q 1953 800 2241 800 
L 2816 800 
L 2816 0 
L 1856 0 
Q 1194 0 917 276 
Q 641 553 641 1216 
L 641 2700 
L 84 2700 
L 84 3500 
L 641 3500 
L 641 4494 
L 1759 4494 
z
" transform="scale(0.015625)"/>
      <path id="DejaVuSans-Bold-79" d="M 78 3500 
L 1197 3500 
L 2138 1125 
L 2938 3500 
L 4056 3500 
L 2584 -331 
Q 2363 -916 2067 -1148 
Q 1772 -1381 1288 -1381 
L 641 -1381 
L 641 -647 
L 991 -647 
Q 1275 -647 1404 -556 
Q 1534 -466 1606 -231 
L 1638 -134 
L 78 3500 
z
" transform="scale(0.015625)"/>
     </defs>
     <use xlink:href="#DejaVuSans-Bold-4d"/>
     <use xlink:href="#DejaVuSans-Bold-69" transform="translate(99.511719 0)"/>
     <use xlink:href="#DejaVuSans-Bold-6e" transform="translate(133.789062 0)"/>
     <use xlink:href="#DejaVuSans-Bold-69" transform="translate(204.980469 0)"/>
     <use xlink:href="#DejaVuSans-Bold-6d" transform="translate(239.257812 0)"/>
     <use xlink:href="#DejaVuSans-Bold-61" transform="translate(343.457031 0)"/>
     <use xlink:href="#DejaVuSans-Bold-6c" transform="translate(410.9375 0)"/>
     <use xlink:href="#DejaVuSans-Bold-20" transform="translate(445.214844 0)"/>
     <use xlink:href="#DejaVuSans-Bold-43" transform="translate(480.029297 0)"/>
     <use xlink:href="#DejaVuSans-Bold-6f" transform="translate(553.417969 0)"/>
     <use xlink:href="#DejaVuSans-Bold-76" transform="translate(622.119141 0)"/>
     <use xlink:href="#DejaVuSans-Bold-65" transform="translate(687.304688 0)"/>
     <use xlink:href="#DejaVuSans-Bold-72" transform="translate(755.126953 0)"/>
     <use xlink:href="#DejaVuSans-Bold-20" transform="translate(804.443359 0)"/>
     <use xlink:href="#DejaVuSans-Bold-53" transform="translate(839.257812 0)"/>
     <use xlink:href="#DejaVuSans-Bold-69" transform="translate(911.279297 0)"/>
     <use xlink:href="#DejaVuSans-Bold-7a" transform="translate(945.556641 0)"/>
     <use xlink:href="#DejaVuSans-Bold-65" transform="translate(1003.759766 0)"/>
     <use xlink:href="#DejaVuSans-Bold-20" transform="translate(1071.582031 0)"/>
     <use xlink:href="#DejaVuSans-Bold-76" transform="translate(1106.396484 0)"/>
     <use xlink:href="#DejaVuSans-Bold-73" transform="translate(1171.582031 0)"/>
     <use xlink:href="#DejaVuSans-Bold-20" transform="translate(1231.103516 0)"/>
     <use xlink:href="#DejaVuSans-Bold-46" transform="translate(1265.917969 0)"/>
     <use xlink:href="#DejaVuSans-Bold-44" transform="translate(1334.228516 0)"/>
     <use xlink:href="#DejaVuSans-Bold-20" transform="translate(1417.236328 0)"/>
     <use xlink:href="#DejaVuSans-Bold-44" transform="translate(1452.050781 0)"/>
     <use xlink:href="#DejaVuSans-Bold-65" transform="translate(1535.058594 0)"/>
     <use xlink:href="#DejaVuSans-Bold-6e" transform="translate(1602.880859 0)"/>
     <use xlink:href="#DejaVuSans-Bold-73" transform="translate(1674.072266 0)"/>
     <use xlink:href="#DejaVuSans-Bold-69" transform="translate(1733.59375 0)"/>
     <use xlink:href="#DejaVuSans-Bold-74" transform="translate(1767.871094 0)"/>
     <use xlink:href="#DejaVuSans-Bold-79" transform="translate(1815.673828 0)"/>
    </g>
   </g>
   <g id="legend_1">
    <g id="text_16">
     <!-- Attributes -->
     <g transform="translate(87.182031 49.196094) scale(0.1 -0.1)">
      <defs>
       <path id="DejaVuSans-41" d="M 2188 4044 
L 1331 1722 
L 3047 1722 
L 2188 4044 
z
M 1831 4666 
L 2547 4666 
L 4325 0 
L 3669 0 
L 3244 1197 
L 1141 1197 
L 716 0 
L 50 0 
L 1831 4666 
z
" transform="scale(0.015625)"/>
       <path id="DejaVuSans-62" d="M 3116 1747 
Q 3116 2381 2855 2742 
Q 2594 3103 2138 3103 
Q 1681 3103 1420 2742 
Q 1159 2381 1159 1747 
Q 1159 1113 1420 752 
Q 1681 391 2138 391 
Q 2594 391 2855 752 
Q 3116 1113 3116 1747 
z
M 1159 2969 
Q 1341 3281 1617 3432 
Q 1894 3584 2278 3584 
Q 2916 3584 3314 3078 
Q 3713 2572 3713 1747 
Q 3713 922 3314 415 
Q 2916 -91 2278 -91 
Q 1894 -91 1617 61 
Q 1341 213 1159 525 
L 1159 0 
L 581 0 
L 581 4863 
L 1159 4863 
L 1159 2969 
z
" transform="scale(0.015625)"/>
       <path id="DejaVuSans-75" d="M 544 1381 
L 544 3500 
L 1119 3500 
L 1119 1403 
Q 1119 906 1312 657 
Q 1506 409 1894 409 
Q 2359 409 2629 706 
Q 2900 1003 2900 1516 
L 2900 3500 
L 3475 3500 
L 3475 0 
L 2900 0 
L 2900 538 
Q 2691 219 2414 64 
Q 2138 -91 1772 -91 
Q 1169 -91 856 284 
Q 544 659 544 1381 
z
M 1991 3584 
L 1991 3584 
z
" transform="scale(0.015625)"/>
      </defs>
      <use xlink:href="#DejaVuSans-41"/>
      <use xlink:href="#DejaVuSans-74" transform="translate(66.658203 0)"/>
      <use xlink:href="#DejaVuSans-74" transform="translate(105.867188 0)"/>
      <use xlink:href="#DejaVuSans-72" transform="translate(145.076172 0)"/>
      <use xlink:href="#DejaVuSans-69" transform="translate(186.189453 0)"/>
      <use xlink:href="#DejaVuSans-62" transform="translate(213.972656 0)"/>
      <use xlink:href="#DejaVuSans-75" transform="translate(277.449219 0)"/>
      <use xlink:href="#DejaVuSans-74" transform="translate(340.828125 0)"/>
      <use xlink:href="#DejaVuSans-65" transform="translate(380.037109 0)"/>
      <use xlink:href="#DejaVuSans-73" transform="translate(441.560547 0)"/>
     </g>
    </g>
    <g id="line2d_35">
     <path d="M 49.603125 60.374219 
L 59.603125 60.374219 
L 69.603125 60.374219 
" style="fill: none; stroke: #1f77b4; stroke-width: 2; stroke-linecap: square"/>
     <g>
      <use xlink:href="#m640eb6e7c9" x="59.603125" y="60.374219" style="fill: #1f77b4; stroke: #1f77b4"/>
     </g>
    </g>
    <g id="text_17">
     <!-- n=4 -->
     <g transform="translate(77.603125 63.874219) scale(0.1 -0.1)">
      <defs>
       <path id="DejaVuSans-3d" d="M 678 2906 
L 4684 2906 
L 4684 2381 
L 678 2381 
L 678 2906 
z
M 678 1631 
L 4684 1631 
L 4684 1100 
L 678 1100 
L 678 1631 
z
" transform="scale(0.015625)"/>
      </defs>
      <use xlink:href="#DejaVuSans-6e"/>
      <use xlink:href="#DejaVuSans-3d" transform="translate(63.378906 0)"/>
      <use xlink:href="#DejaVuSans-34" transform="translate(147.167969 0)"/>
     </g>
    </g>
    <g id="line2d_36">
     <path d="M 49.603125 75.052344 
L 59.603125 75.052344 
L 69.603125 75.052344 
" style="fill: none; stroke: #ff7f0e; stroke-width: 2; stroke-linecap: square"/>
     <g>
      <use xlink:href="#m27a6121492" x="59.603125" y="75.052344" style="fill: #ff7f0e; stroke: #ff7f0e"/>
     </g>
    </g>
    <g id="text_18">
     <!-- n=5 -->
     <g transform="translate(77.603125 78.552344) scale(0.1 -0.1)">
      <use xlink:href="#DejaVuSans-6e"/>
      <use xlink:href="#DejaVuSans-3d" transform="translate(63.378906 0)"/>
      <use xlink:href="#DejaVuSans-35" transform="translate(147.167969 0)"/>
     </g>
    </g>
    <g id="line2d_37">
     <path d="M 49.603125 89.730469 
L 59.603125 89.730469 
L 69.603125 89.730469 
" style="fill: none; stroke: #2ca02c; stroke-width: 2; stroke-linecap: square"/>
     <g>
      <use xlink:href="#m435c68e8af" x="59.603125" y="89.730469" style="fill: #2ca02c; stroke: #2ca02c"/>
     </g>
    </g>
    <g id="text_19">
     <!-- n=6 -->
     <g transform="translate(77.603125 93.230469) scale(0.1 -0.1)">
      <use xlink:href="#DejaVuSans-6e"/>
      <use xlink:href="#DejaVuSans-3d" transform="translate(63.378906 0)"/>
      <use xlink:href="#DejaVuSans-36" transform="translate(147.167969 0)"/>
     </g>
    </g>
    <g id="line2d_38">
     <path d="M 49.603125 104.408594 
L 59.603125 104.408594 
L 69.603125 104.408594 
" style="fill: none; stroke: #d62728; stroke-width: 2; stroke-linecap: square"/>
     <g>
      <use xlink:href="#m7682035c75" x="59.603125" y="104.408594" style="fill: #d62728; stroke: #d62728"/>
     </g>
    </g>
    <g id="text_20">
     <!-- n=7 -->
     <g transform="translate(77.603125 107.908594) scale(0.1 -0.1)">
      <defs>
       <path id="DejaVuSans-37" d="M 525 4666 
L 3525 4666 
L 3525 4397 
L 1831 0 
L 1172 0 
L 2766 4134 
L 525 4134 
L 525 4666 
z
" transform="scale(0.015625)"/>
      </defs>
      <use xlink:href="#DejaVuSans-6e"/>
      <use xlink:href="#DejaVuSans-3d" transform="translate(63.378906 0)"/>
      <use xlink:href="#DejaVuSans-37" transform="translate(147.167969 0)"/>
     </g>
    </g>
    <g id="line2d_39">
     <path d="M 49.603125 119.086719 
L 59.603125 119.086719 
L 69.603125 119.086719 
" style="fill: none; stroke: #9467bd; stroke-width: 2; stroke-linecap: square"/>
     <g>
      <use xlink:href="#m2ec47a695a" x="59.603125" y="119.086719" style="fill: #9467bd; stroke: #9467bd"/>
     </g>
    </g>
    <g id="text_21">
     <!-- n=8 -->
     <g transform="translate(77.603125 122.586719) scale(0.1 -0.1)">
      <use xlink:href="#DejaVuSans-6e"/>
      <use xlink:href="#DejaVuSans-3d" transform="translate(63.378906 0)"/>
      <use xlink:href="#DejaVuSans-38" transform="translate(147.167969 0)"/>
     </g>
    </g>
    <g id="line2d_40">
     <path d="M 118.682813 60.374219 
L 128.682813 60.374219 
L 138.682813 60.374219 
" style="fill: none; stroke: #8c564b; stroke-width: 2; stroke-linecap: square"/>
     <g>
      <use xlink:href="#m3b98ee2534" x="128.682813" y="60.374219" style="fill: #8c564b; stroke: #8c564b"/>
     </g>
    </g>
    <g id="text_22">
     <!-- n=9 -->
     <g transform="translate(146.682813 63.874219) scale(0.1 -0.1)">
      <defs>
       <path id="DejaVuSans-39" d="M 703 97 
L 703 672 
Q 941 559 1184 500 
Q 1428 441 1663 441 
Q 2288 441 2617 861 
Q 2947 1281 2994 2138 
Q 2813 1869 2534 1725 
Q 2256 1581 1919 1581 
Q 1219 1581 811 2004 
Q 403 2428 403 3163 
Q 403 3881 828 4315 
Q 1253 4750 1959 4750 
Q 2769 4750 3195 4129 
Q 3622 3509 3622 2328 
Q 3622 1225 3098 567 
Q 2575 -91 1691 -91 
Q 1453 -91 1209 -44 
Q 966 3 703 97 
z
M 1959 2075 
Q 2384 2075 2632 2365 
Q 2881 2656 2881 3163 
Q 2881 3666 2632 3958 
Q 2384 4250 1959 4250 
Q 1534 4250 1286 3958 
Q 1038 3666 1038 3163 
Q 1038 2656 1286 2365 
Q 1534 2075 1959 2075 
z
" transform="scale(0.015625)"/>
      </defs>
      <use xlink:href="#DejaVuSans-6e"/>
      <use xlink:href="#DejaVuSans-3d" transform="translate(63.378906 0)"/>
      <use xlink:href="#DejaVuSans-39" transform="translate(147.167969 0)"/>
     </g>
    </g>
    <g id="line2d_41">
     <path d="M 118.682813 75.052344 
L 128.682813 75.052344 
L 138.682813 75.052344 
" style="fill: none; stroke: #e377c2; stroke-width: 2; stroke-linecap: square"/>
     <g>
      <use xlink:href="#ma9a7be8bb9" x="128.682813" y="75.052344" style="fill: #e377c2; stroke: #e377c2"/>
     </g>
    </g>
    <g id="text_23">
     <!-- n=10 -->
     <g transform="translate(146.682813 78.552344) scale(0.1 -0.1)">
      <use xlink:href="#DejaVuSans-6e"/>
      <use xlink:href="#DejaVuSans-3d" transform="translate(63.378906 0)"/>
      <use xlink:href="#DejaVuSans-31" transform="translate(147.167969 0)"/>
      <use xlink:href="#DejaVuSans-30" transform="translate(210.791016 0)"/>
     </g>
    </g>
    <g id="line2d_42">
     <path d="M 118.682813 89.730469 
L 128.682813 89.730469 
L 138.682813 89.730469 
" style="fill: none; stroke: #7f7f7f; stroke-width: 2; stroke-linecap: square"/>
     <g>
      <use xlink:href="#me64f0bee13" x="128.682813" y="89.730469" style="fill: #7f7f7f; stroke: #7f7f7f"/>
     </g>
    </g>
    <g id="text_24">
     <!-- n=11 -->
     <g transform="translate(146.682813 93.230469) scale(0.1 -0.1)">
      <use xlink:href="#DejaVuSans-6e"/>
      <use xlink:href="#DejaVuSans-3d" transform="translate(63.378906 0)"/>
      <use xlink:href="#DejaVuSans-31" transform="translate(147.167969 0)"/>
      <use xlink:href="#DejaVuSans-31" transform="translate(210.791016 0)"/>
     </g>
    </g>
    <g id="line2d_43">
     <path d="M 118.682813 104.408594 
L 128.682813 104.408594 
L 138.682813 104.408594 
" style="fill: none; stroke: #bcbd22; stroke-width: 2; stroke-linecap: square"/>
     <g>
      <use xlink:href="#mf62d80efd7" x="128.682813" y="104.408594" style="fill: #bcbd22; stroke: #bcbd22"/>
     </g>
    </g>
    <g id="text_25">
     <!-- n=12 -->
     <g transform="translate(146.682813 107.908594) scale(0.1 -0.1)">
      <use xlink:href="#DejaVuSans-6e"/>
      <use xlink:href="#DejaVuSans-3d" transform="translate(63.378906 0)"/>
      <use xlink:href="#DejaVuSans-31" transform="translate(147.167969 0)"/>
      <use xlink:href="#DejaVuSans-32" transform="translate(210.791016 0)"/>
     </g>
    </g>
    <g id="line2d_44">
     <path d="M 118.682813 119.086719 
L 128.682813 119.086719 
L 138.682813 119.086719 
" style="fill: none; stroke: #17becf; stroke-width: 2; stroke-linecap: square"/>
     <g>
      <use xlink:href="#ma844771c25" x="128.682813" y="119.086719" style="fill: #17becf; stroke: #17becf"/>
     </g>
    </g>
    <g id="text_26">
     <!-- n=13 -->
     <g transform="translate(146.682813 122.586719) scale(0.1 -0.1)">
      <defs>
       <path id="DejaVuSans-33" d="M 2597 2516 
Q 3050 2419 3304 2112 
Q 3559 1806 3559 1356 
Q 3559 666 3084 287 
Q 2609 -91 1734 -91 
Q 1441 -91 1130 -33 
Q 819 25 488 141 
L 488 750 
Q 750 597 1062 519 
Q 1375 441 1716 441 
Q 2309 441 2620 675 
Q 2931 909 2931 1356 
Q 2931 1769 2642 2001 
Q 2353 2234 1838 2234 
L 1294 2234 
L 1294 2753 
L 1863 2753 
Q 2328 2753 2575 2939 
Q 2822 3125 2822 3475 
Q 2822 3834 2567 4026 
Q 2313 4219 1838 4219 
Q 1578 4219 1281 4162 
Q 984 4106 628 3988 
L 628 4550 
Q 988 4650 1302 4700 
Q 1616 4750 1894 4750 
Q 2613 4750 3031 4423 
Q 3450 4097 3450 3541 
Q 3450 3153 3228 2886 
Q 3006 2619 2597 2516 
z
" transform="scale(0.015625)"/>
      </defs>
      <use xlink:href="#DejaVuSans-6e"/>
      <use xlink:href="#DejaVuSans-3d" transform="translate(63.378906 0)"/>
      <use xlink:href="#DejaVuSans-31" transform="translate(147.167969 0)"/>
      <use xlink:href="#DejaVuSans-33" transform="translate(210.791016 0)"/>
     </g>
    </g>
   </g>
  </g>
 </g>
 <defs>
  <clipPath id="p5718e6134c">
   <rect x="40.603125" y="32.597656" width="794.23" height="382.52"/>
  </clipPath>
 </defs>
</svg>
