<?xml version="1.0" encoding="utf-8" standalone="no"?>
<!DOCTYPE svg PUBLIC "-//W3C//DTD SVG 1.1//EN"
  "http://www.w3.org/Graphics/SVG/1.1/DTD/svg11.dtd">
<svg xmlns:xlink="http://www.w3.org/1999/xlink" width="842.18625pt" height="452.673906pt" viewBox="0 0 842.18625 452.673906" xmlns="http://www.w3.org/2000/svg" version="1.1">
 <metadata>
  <rdf:RDF xmlns:dc="http://purl.org/dc/elements/1.1/" xmlns:cc="http://creativecommons.org/ns#" xmlns:rdf="http://www.w3.org/1999/02/22-rdf-syntax-ns#">
   <cc:Work>
    <dc:type rdf:resource="http://purl.org/dc/dcmitype/StillImage"/>
    <dc:date>2026-04-10T18:29:18.519013</dc:date>
    <dc:format>image/svg+xml</dc:format>
    <dc:creator>
     <cc:Agent>
      <dc:title>Matplotlib v3.10.1, https://matplotlib.org/</dc:title>
     </cc:Agent>
    </dc:creator>
   </cc:Work>
  </rdf:RDF>
 </metadata>
 <defs>
  <style type="text/css">*{stroke-linejoin: round; stroke-linecap: butt}</style>
 </defs>
 <g id="figure_1">
  <g id="patch_1">
   <path d="M 0 452.673906 
L 842.18625 452.673906 
L 842.18625 0 
L 0 0 
z
" style="fill: #ffffff"/>
  </g>
  <g id="axes_1">
   <g id="patch_2">
    <path d="M 56.50625 415.117656 
L 834.98625 415.117656 
L 834.98625 32.597656 
L 56.50625 32.597656 
z
" style="fill: #ffffff"/>
   </g>
   <g id="matplotlib.axis_1">
    <g id="xtick_1">
     <g id="line2d_1">
      <path d="M 56.50625 415.117656 
L 56.50625 32.597656 
" clip-path="url(#pa0f6b6c160)" style="fill: none; stroke-dasharray: 2.22,0.96; stroke-dashoffset: 0; stroke: #b0b0b0; stroke-opacity: 0.35; stroke-width: 0.6"/>
     </g>
     <g id="line2d_2">
      <defs>
       <path id="m748c50dfc0" d="M 0 0 
L 0 3.5 
" style="stroke: #000000; stroke-width: 0.8"/>
      </defs>
      <g>
       <use xlink:href="#m748c50dfc0" x="56.50625" y="415.117656" style="stroke: #000000; stroke-width: 0.8"/>
      </g>
     </g>
     <g id="text_1">
      <!-- 0.0 -->
      <g transform="translate(48.554688 429.716094) scale(0.1 -0.1)">
       <defs>
        <path id="DejaVuSans-30" d="M 2034 4250 
Q 1547 4250 1301 3770 
Q 1056 3291 1056 2328 
Q 1056 1369 1301 889 
Q 1547 409 2034 409 
Q 2525 409 2770 889 
Q 3016 1369 3016 2328 
Q 3016 3291 2770 3770 
Q 2525 4250 2034 4250 
z
M 2034 4750 
Q 2819 4750 3233 4129 
Q 3647 3509 3647 2328 
Q 3647 1150 3233 529 
Q 2819 -91 2034 -91 
Q 1250 -91 836 529 
Q 422 1150 422 2328 
Q 422 3509 836 4129 
Q 1250 4750 2034 4750 
z
" transform="scale(0.015625)"/>
        <path id="DejaVuSans-2e" d="M 684 794 
L 1344 794 
L 1344 0 
L 684 0 
L 684 794 
z
" transform="scale(0.015625)"/>
       </defs>
       <use xlink:href="#DejaVuSans-30"/>
       <use xlink:href="#DejaVuSans-2e" transform="translate(63.623047 0)"/>
       <use xlink:href="#DejaVuSans-30" transform="translate(95.410156 0)"/>
      </g>
     </g>
    </g>
    <g id="xtick_2">
     <g id="line2d_3">
      <path d="M 207.667415 415.117656 
L 207.667415 32.597656 
" clip-path="url(#pa0f6b6c160)" style="fill: none; stroke-dasharray: 2.22,0.96; stroke-dashoffset: 0; stroke: #b0b0b0; stroke-opacity: 0.35; stroke-width: 0.6"/>
     </g>
     <g id="line2d_4">
      <g>
       <use xlink:href="#m748c50dfc0" x="207.667415" y="415.117656" style="stroke: #000000; stroke-width: 0.8"/>
      </g>
     </g>
     <g id="text_2">
      <!-- 0.2 -->
      <g transform="translate(199.715853 429.716094) scale(0.1 -0.1)">
       <defs>
        <path id="DejaVuSans-32" d="M 1228 531 
L 3431 531 
L 3431 0 
L 469 0 
L 469 531 
Q 828 903 1448 1529 
Q 2069 2156 2228 2338 
Q 2531 2678 2651 2914 
Q 2772 3150 2772 3378 
Q 2772 3750 2511 3984 
Q 2250 4219 1831 4219 
Q 1534 4219 1204 4116 
Q 875 4013 500 3803 
L 500 4441 
Q 881 4594 1212 4672 
Q 1544 4750 1819 4750 
Q 2544 4750 2975 4387 
Q 3406 4025 3406 3419 
Q 3406 3131 3298 2873 
Q 3191 2616 2906 2266 
Q 2828 2175 2409 1742 
Q 1991 1309 1228 531 
z
" transform="scale(0.015625)"/>
       </defs>
       <use xlink:href="#DejaVuSans-30"/>
       <use xlink:href="#DejaVuSans-2e" transform="translate(63.623047 0)"/>
       <use xlink:href="#DejaVuSans-32" transform="translate(95.410156 0)"/>
      </g>
     </g>
    </g>
    <g id="xtick_3">
     <g id="line2d_5">
      <path d="M 358.82858 415.117656 
L 358.82858 32.597656 
" clip-path="url(#pa0f6b6c160)" style="fill: none; stroke-dasharray: 2.22,0.96; stroke-dashoffset: 0; stroke: #b0b0b0; stroke-opacity: 0.35; stroke-width: 0.6"/>
     </g>
     <g id="line2d_6">
      <g>
       <use xlink:href="#m748c50dfc0" x="358.82858" y="415.117656" style="stroke: #000000; stroke-width: 0.8"/>
      </g>
     </g>
     <g id="text_3">
      <!-- 0.4 -->
      <g transform="translate(350.877018 429.716094) scale(0.1 -0.1)">
       <defs>
        <path id="DejaVuSans-34" d="M 2419 4116 
L 825 1625 
L 2419 1625 
L 2419 4116 
z
M 2253 4666 
L 3047 4666 
L 3047 1625 
L 3713 1625 
L 3713 1100 
L 3047 1100 
L 3047 0 
L 2419 0 
L 2419 1100 
L 313 1100 
L 313 1709 
L 2253 4666 
z
" transform="scale(0.015625)"/>
       </defs>
       <use xlink:href="#DejaVuSans-30"/>
       <use xlink:href="#DejaVuSans-2e" transform="translate(63.623047 0)"/>
       <use xlink:href="#DejaVuSans-34" transform="translate(95.410156 0)"/>
      </g>
     </g>
    </g>
    <g id="xtick_4">
     <g id="line2d_7">
      <path d="M 509.989745 415.117656 
L 509.989745 32.597656 
" clip-path="url(#pa0f6b6c160)" style="fill: none; stroke-dasharray: 2.22,0.96; stroke-dashoffset: 0; stroke: #b0b0b0; stroke-opacity: 0.35; stroke-width: 0.6"/>
     </g>
     <g id="line2d_8">
      <g>
       <use xlink:href="#m748c50dfc0" x="509.989745" y="415.117656" style="stroke: #000000; stroke-width: 0.8"/>
      </g>
     </g>
     <g id="text_4">
      <!-- 0.6 -->
      <g transform="translate(502.038183 429.716094) scale(0.1 -0.1)">
       <defs>
        <path id="DejaVuSans-36" d="M 2113 2584 
Q 1688 2584 1439 2293 
Q 1191 2003 1191 1497 
Q 1191 994 1439 701 
Q 1688 409 2113 409 
Q 2538 409 2786 701 
Q 3034 994 3034 1497 
Q 3034 2003 2786 2293 
Q 2538 2584 2113 2584 
z
M 3366 4563 
L 3366 3988 
Q 3128 4100 2886 4159 
Q 2644 4219 2406 4219 
Q 1781 4219 1451 3797 
Q 1122 3375 1075 2522 
Q 1259 2794 1537 2939 
Q 1816 3084 2150 3084 
Q 2853 3084 3261 2657 
Q 3669 2231 3669 1497 
Q 3669 778 3244 343 
Q 2819 -91 2113 -91 
Q 1303 -91 875 529 
Q 447 1150 447 2328 
Q 447 3434 972 4092 
Q 1497 4750 2381 4750 
Q 2619 4750 2861 4703 
Q 3103 4656 3366 4563 
z
" transform="scale(0.015625)"/>
       </defs>
       <use xlink:href="#DejaVuSans-30"/>
       <use xlink:href="#DejaVuSans-2e" transform="translate(63.623047 0)"/>
       <use xlink:href="#DejaVuSans-36" transform="translate(95.410156 0)"/>
      </g>
     </g>
    </g>
    <g id="xtick_5">
     <g id="line2d_9">
      <path d="M 661.15091 415.117656 
L 661.15091 32.597656 
" clip-path="url(#pa0f6b6c160)" style="fill: none; stroke-dasharray: 2.22,0.96; stroke-dashoffset: 0; stroke: #b0b0b0; stroke-opacity: 0.35; stroke-width: 0.6"/>
     </g>
     <g id="line2d_10">
      <g>
       <use xlink:href="#m748c50dfc0" x="661.15091" y="415.117656" style="stroke: #000000; stroke-width: 0.8"/>
      </g>
     </g>
     <g id="text_5">
      <!-- 0.8 -->
      <g transform="translate(653.199348 429.716094) scale(0.1 -0.1)">
       <defs>
        <path id="DejaVuSans-38" d="M 2034 2216 
Q 1584 2216 1326 1975 
Q 1069 1734 1069 1313 
Q 1069 891 1326 650 
Q 1584 409 2034 409 
Q 2484 409 2743 651 
Q 3003 894 3003 1313 
Q 3003 1734 2745 1975 
Q 2488 2216 2034 2216 
z
M 1403 2484 
Q 997 2584 770 2862 
Q 544 3141 544 3541 
Q 544 4100 942 4425 
Q 1341 4750 2034 4750 
Q 2731 4750 3128 4425 
Q 3525 4100 3525 3541 
Q 3525 3141 3298 2862 
Q 3072 2584 2669 2484 
Q 3125 2378 3379 2068 
Q 3634 1759 3634 1313 
Q 3634 634 3220 271 
Q 2806 -91 2034 -91 
Q 1263 -91 848 271 
Q 434 634 434 1313 
Q 434 1759 690 2068 
Q 947 2378 1403 2484 
z
M 1172 3481 
Q 1172 3119 1398 2916 
Q 1625 2713 2034 2713 
Q 2441 2713 2670 2916 
Q 2900 3119 2900 3481 
Q 2900 3844 2670 4047 
Q 2441 4250 2034 4250 
Q 1625 4250 1398 4047 
Q 1172 3844 1172 3481 
z
" transform="scale(0.015625)"/>
       </defs>
       <use xlink:href="#DejaVuSans-30"/>
       <use xlink:href="#DejaVuSans-2e" transform="translate(63.623047 0)"/>
       <use xlink:href="#DejaVuSans-38" transform="translate(95.410156 0)"/>
      </g>
     </g>
    </g>
    <g id="xtick_6">
     <g id="line2d_11">
      <path d="M 812.312075 415.117656 
L 812.312075 32.597656 
" clip-path="url(#pa0f6b6c160)" style="fill: none; stroke-dasharray: 2.22,0.96; stroke-dashoffset: 0; stroke: #b0b0b0; stroke-opacity: 0.35; stroke-width: 0.6"/>
     </g>
     <g id="line2d_12">
      <g>
       <use xlink:href="#m748c50dfc0" x="812.312075" y="415.117656" style="stroke: #000000; stroke-width: 0.8"/>
      </g>
     </g>
     <g id="text_6">
      <!-- 1.0 -->
      <g transform="translate(804.360513 429.716094) scale(0.1 -0.1)">
       <defs>
        <path id="DejaVuSans-31" d="M 794 531 
L 1825 531 
L 1825 4091 
L 703 3866 
L 703 4441 
L 1819 4666 
L 2450 4666 
L 2450 531 
L 3481 531 
L 3481 0 
L 794 0 
L 794 531 
z
" transform="scale(0.015625)"/>
       </defs>
       <use xlink:href="#DejaVuSans-31"/>
       <use xlink:href="#DejaVuSans-2e" transform="translate(63.623047 0)"/>
       <use xlink:href="#DejaVuSans-30" transform="translate(95.410156 0)"/>
      </g>
     </g>
    </g>
    <g id="text_7">
     <!-- FD Density -->
     <g transform="translate(418.422813 443.394219) scale(0.1 -0.1)">
      <defs>
       <path id="DejaVuSans-46" d="M 628 4666 
L 3309 4666 
L 3309 4134 
L 1259 4134 
L 1259 2759 
L 3109 2759 
L 3109 2228 
L 1259 2228 
L 1259 0 
L 628 0 
L 628 4666 
z
" transform="scale(0.015625)"/>
       <path id="DejaVuSans-44" d="M 1259 4147 
L 1259 519 
L 2022 519 
Q 2988 519 3436 956 
Q 3884 1394 3884 2338 
Q 3884 3275 3436 3711 
Q 2988 4147 2022 4147 
L 1259 4147 
z
M 628 4666 
L 1925 4666 
Q 3281 4666 3915 4102 
Q 4550 3538 4550 2338 
Q 4550 1131 3912 565 
Q 3275 0 1925 0 
L 628 0 
L 628 4666 
z
" transform="scale(0.015625)"/>
       <path id="DejaVuSans-20" transform="scale(0.015625)"/>
       <path id="DejaVuSans-65" d="M 3597 1894 
L 3597 1613 
L 953 1613 
Q 991 1019 1311 708 
Q 1631 397 2203 397 
Q 2534 397 2845 478 
Q 3156 559 3463 722 
L 3463 178 
Q 3153 47 2828 -22 
Q 2503 -91 2169 -91 
Q 1331 -91 842 396 
Q 353 884 353 1716 
Q 353 2575 817 3079 
Q 1281 3584 2069 3584 
Q 2775 3584 3186 3129 
Q 3597 2675 3597 1894 
z
M 3022 2063 
Q 3016 2534 2758 2815 
Q 2500 3097 2075 3097 
Q 1594 3097 1305 2825 
Q 1016 2553 972 2059 
L 3022 2063 
z
" transform="scale(0.015625)"/>
       <path id="DejaVuSans-6e" d="M 3513 2113 
L 3513 0 
L 2938 0 
L 2938 2094 
Q 2938 2591 2744 2837 
Q 2550 3084 2163 3084 
Q 1697 3084 1428 2787 
Q 1159 2491 1159 1978 
L 1159 0 
L 581 0 
L 581 3500 
L 1159 3500 
L 1159 2956 
Q 1366 3272 1645 3428 
Q 1925 3584 2291 3584 
Q 2894 3584 3203 3211 
Q 3513 2838 3513 2113 
z
" transform="scale(0.015625)"/>
       <path id="DejaVuSans-73" d="M 2834 3397 
L 2834 2853 
Q 2591 2978 2328 3040 
Q 2066 3103 1784 3103 
Q 1356 3103 1142 2972 
Q 928 2841 928 2578 
Q 928 2378 1081 2264 
Q 1234 2150 1697 2047 
L 1894 2003 
Q 2506 1872 2764 1633 
Q 3022 1394 3022 966 
Q 3022 478 2636 193 
Q 2250 -91 1575 -91 
Q 1294 -91 989 -36 
Q 684 19 347 128 
L 347 722 
Q 666 556 975 473 
Q 1284 391 1588 391 
Q 1994 391 2212 530 
Q 2431 669 2431 922 
Q 2431 1156 2273 1281 
Q 2116 1406 1581 1522 
L 1381 1569 
Q 847 1681 609 1914 
Q 372 2147 372 2553 
Q 372 3047 722 3315 
Q 1072 3584 1716 3584 
Q 2034 3584 2315 3537 
Q 2597 3491 2834 3397 
z
" transform="scale(0.015625)"/>
       <path id="DejaVuSans-69" d="M 603 3500 
L 1178 3500 
L 1178 0 
L 603 0 
L 603 3500 
z
M 603 4863 
L 1178 4863 
L 1178 4134 
L 603 4134 
L 603 4863 
z
" transform="scale(0.015625)"/>
       <path id="DejaVuSans-74" d="M 1172 4494 
L 1172 3500 
L 2356 3500 
L 2356 3053 
L 1172 3053 
L 1172 1153 
Q 1172 725 1289 603 
Q 1406 481 1766 481 
L 2356 481 
L 2356 0 
L 1766 0 
Q 1100 0 847 248 
Q 594 497 594 1153 
L 594 3053 
L 172 3053 
L 172 3500 
L 594 3500 
L 594 4494 
L 1172 4494 
z
" transform="scale(0.015625)"/>
       <path id="DejaVuSans-79" d="M 2059 -325 
Q 1816 -950 1584 -1140 
Q 1353 -1331 966 -1331 
L 506 -1331 
L 506 -850 
L 844 -850 
Q 1081 -850 1212 -737 
Q 1344 -625 1503 -206 
L 1606 56 
L 191 3500 
L 800 3500 
L 1894 763 
L 2988 3500 
L 3597 3500 
L 2059 -325 
z
" transform="scale(0.015625)"/>
      </defs>
      <use xlink:href="#DejaVuSans-46"/>
      <use xlink:href="#DejaVuSans-44" transform="translate(57.519531 0)"/>
      <use xlink:href="#DejaVuSans-20" transform="translate(134.521484 0)"/>
      <use xlink:href="#DejaVuSans-44" transform="translate(166.308594 0)"/>
      <use xlink:href="#DejaVuSans-65" transform="translate(243.310547 0)"/>
      <use xlink:href="#DejaVuSans-6e" transform="translate(304.833984 0)"/>
      <use xlink:href="#DejaVuSans-73" transform="translate(368.212891 0)"/>
      <use xlink:href="#DejaVuSans-69" transform="translate(420.3125 0)"/>
      <use xlink:href="#DejaVuSans-74" transform="translate(448.095703 0)"/>
      <use xlink:href="#DejaVuSans-79" transform="translate(487.304688 0)"/>
     </g>
    </g>
   </g>
   <g id="matplotlib.axis_2">
    <g id="ytick_1">
     <g id="line2d_13">
      <path d="M 56.50625 398.414497 
L 834.98625 398.414497 
" clip-path="url(#pa0f6b6c160)" style="fill: none; stroke-dasharray: 2.22,0.96; stroke-dashoffset: 0; stroke: #b0b0b0; stroke-opacity: 0.35; stroke-width: 0.6"/>
     </g>
     <g id="line2d_14">
      <defs>
       <path id="m3b0f5cc3e1" d="M 0 0 
L -3.5 0 
" style="stroke: #000000; stroke-width: 0.8"/>
      </defs>
      <g>
       <use xlink:href="#m3b0f5cc3e1" x="56.50625" y="398.414497" style="stroke: #000000; stroke-width: 0.8"/>
      </g>
     </g>
     <g id="text_8">
      <!-- 0.000 -->
      <g transform="translate(20.878125 402.213716) scale(0.1 -0.1)">
       <use xlink:href="#DejaVuSans-30"/>
       <use xlink:href="#DejaVuSans-2e" transform="translate(63.623047 0)"/>
       <use xlink:href="#DejaVuSans-30" transform="translate(95.410156 0)"/>
       <use xlink:href="#DejaVuSans-30" transform="translate(159.033203 0)"/>
       <use xlink:href="#DejaVuSans-30" transform="translate(222.65625 0)"/>
      </g>
     </g>
    </g>
    <g id="ytick_2">
     <g id="line2d_15">
      <path d="M 56.50625 349.638913 
L 834.98625 349.638913 
" clip-path="url(#pa0f6b6c160)" style="fill: none; stroke-dasharray: 2.22,0.96; stroke-dashoffset: 0; stroke: #b0b0b0; stroke-opacity: 0.35; stroke-width: 0.6"/>
     </g>
     <g id="line2d_16">
      <g>
       <use xlink:href="#m3b0f5cc3e1" x="56.50625" y="349.638913" style="stroke: #000000; stroke-width: 0.8"/>
      </g>
     </g>
     <g id="text_9">
      <!-- 0.025 -->
      <g transform="translate(20.878125 353.438132) scale(0.1 -0.1)">
       <defs>
        <path id="DejaVuSans-35" d="M 691 4666 
L 3169 4666 
L 3169 4134 
L 1269 4134 
L 1269 2991 
Q 1406 3038 1543 3061 
Q 1681 3084 1819 3084 
Q 2600 3084 3056 2656 
Q 3513 2228 3513 1497 
Q 3513 744 3044 326 
Q 2575 -91 1722 -91 
Q 1428 -91 1123 -41 
Q 819 9 494 109 
L 494 744 
Q 775 591 1075 516 
Q 1375 441 1709 441 
Q 2250 441 2565 725 
Q 2881 1009 2881 1497 
Q 2881 1984 2565 2268 
Q 2250 2553 1709 2553 
Q 1456 2553 1204 2497 
Q 953 2441 691 2322 
L 691 4666 
z
" transform="scale(0.015625)"/>
       </defs>
       <use xlink:href="#DejaVuSans-30"/>
       <use xlink:href="#DejaVuSans-2e" transform="translate(63.623047 0)"/>
       <use xlink:href="#DejaVuSans-30" transform="translate(95.410156 0)"/>
       <use xlink:href="#DejaVuSans-32" transform="translate(159.033203 0)"/>
       <use xlink:href="#DejaVuSans-35" transform="translate(222.65625 0)"/>
      </g>
     </g>
    </g>
    <g id="ytick_3">
     <g id="line2d_17">
      <path d="M 56.50625 300.863329 
L 834.98625 300.863329 
" clip-path="url(#pa0f6b6c160)" style="fill: none; stroke-dasharray: 2.22,0.96; stroke-dashoffset: 0; stroke: #b0b0b0; stroke-opacity: 0.35; stroke-width: 0.6"/>
     </g>
     <g id="line2d_18">
      <g>
       <use xlink:href="#m3b0f5cc3e1" x="56.50625" y="300.863329" style="stroke: #000000; stroke-width: 0.8"/>
      </g>
     </g>
     <g id="text_10">
      <!-- 0.050 -->
      <g transform="translate(20.878125 304.662548) scale(0.1 -0.1)">
       <use xlink:href="#DejaVuSans-30"/>
       <use xlink:href="#DejaVuSans-2e" transform="translate(63.623047 0)"/>
       <use xlink:href="#DejaVuSans-30" transform="translate(95.410156 0)"/>
       <use xlink:href="#DejaVuSans-35" transform="translate(159.033203 0)"/>
       <use xlink:href="#DejaVuSans-30" transform="translate(222.65625 0)"/>
      </g>
     </g>
    </g>
    <g id="ytick_4">
     <g id="line2d_19">
      <path d="M 56.50625 252.087745 
L 834.98625 252.087745 
" clip-path="url(#pa0f6b6c160)" style="fill: none; stroke-dasharray: 2.22,0.96; stroke-dashoffset: 0; stroke: #b0b0b0; stroke-opacity: 0.35; stroke-width: 0.6"/>
     </g>
     <g id="line2d_20">
      <g>
       <use xlink:href="#m3b0f5cc3e1" x="56.50625" y="252.087745" style="stroke: #000000; stroke-width: 0.8"/>
      </g>
     </g>
     <g id="text_11">
      <!-- 0.075 -->
      <g transform="translate(20.878125 255.886964) scale(0.1 -0.1)">
       <defs>
        <path id="DejaVuSans-37" d="M 525 4666 
L 3525 4666 
L 3525 4397 
L 1831 0 
L 1172 0 
L 2766 4134 
L 525 4134 
L 525 4666 
z
" transform="scale(0.015625)"/>
       </defs>
       <use xlink:href="#DejaVuSans-30"/>
       <use xlink:href="#DejaVuSans-2e" transform="translate(63.623047 0)"/>
       <use xlink:href="#DejaVuSans-30" transform="translate(95.410156 0)"/>
       <use xlink:href="#DejaVuSans-37" transform="translate(159.033203 0)"/>
       <use xlink:href="#DejaVuSans-35" transform="translate(222.65625 0)"/>
      </g>
     </g>
    </g>
    <g id="ytick_5">
     <g id="line2d_21">
      <path d="M 56.50625 203.312161 
L 834.98625 203.312161 
" clip-path="url(#pa0f6b6c160)" style="fill: none; stroke-dasharray: 2.22,0.96; stroke-dashoffset: 0; stroke: #b0b0b0; stroke-opacity: 0.35; stroke-width: 0.6"/>
     </g>
     <g id="line2d_22">
      <g>
       <use xlink:href="#m3b0f5cc3e1" x="56.50625" y="203.312161" style="stroke: #000000; stroke-width: 0.8"/>
      </g>
     </g>
     <g id="text_12">
      <!-- 0.100 -->
      <g transform="translate(20.878125 207.11138) scale(0.1 -0.1)">
       <use xlink:href="#DejaVuSans-30"/>
       <use xlink:href="#DejaVuSans-2e" transform="translate(63.623047 0)"/>
       <use xlink:href="#DejaVuSans-31" transform="translate(95.410156 0)"/>
       <use xlink:href="#DejaVuSans-30" transform="translate(159.033203 0)"/>
       <use xlink:href="#DejaVuSans-30" transform="translate(222.65625 0)"/>
      </g>
     </g>
    </g>
    <g id="ytick_6">
     <g id="line2d_23">
      <path d="M 56.50625 154.536578 
L 834.98625 154.536578 
" clip-path="url(#pa0f6b6c160)" style="fill: none; stroke-dasharray: 2.22,0.96; stroke-dashoffset: 0; stroke: #b0b0b0; stroke-opacity: 0.35; stroke-width: 0.6"/>
     </g>
     <g id="line2d_24">
      <g>
       <use xlink:href="#m3b0f5cc3e1" x="56.50625" y="154.536578" style="stroke: #000000; stroke-width: 0.8"/>
      </g>
     </g>
     <g id="text_13">
      <!-- 0.125 -->
      <g transform="translate(20.878125 158.335796) scale(0.1 -0.1)">
       <use xlink:href="#DejaVuSans-30"/>
       <use xlink:href="#DejaVuSans-2e" transform="translate(63.623047 0)"/>
       <use xlink:href="#DejaVuSans-31" transform="translate(95.410156 0)"/>
       <use xlink:href="#DejaVuSans-32" transform="translate(159.033203 0)"/>
       <use xlink:href="#DejaVuSans-35" transform="translate(222.65625 0)"/>
      </g>
     </g>
    </g>
    <g id="ytick_7">
     <g id="line2d_25">
      <path d="M 56.50625 105.760994 
L 834.98625 105.760994 
" clip-path="url(#pa0f6b6c160)" style="fill: none; stroke-dasharray: 2.22,0.96; stroke-dashoffset: 0; stroke: #b0b0b0; stroke-opacity: 0.35; stroke-width: 0.6"/>
     </g>
     <g id="line2d_26">
      <g>
       <use xlink:href="#m3b0f5cc3e1" x="56.50625" y="105.760994" style="stroke: #000000; stroke-width: 0.8"/>
      </g>
     </g>
     <g id="text_14">
      <!-- 0.150 -->
      <g transform="translate(20.878125 109.560212) scale(0.1 -0.1)">
       <use xlink:href="#DejaVuSans-30"/>
       <use xlink:href="#DejaVuSans-2e" transform="translate(63.623047 0)"/>
       <use xlink:href="#DejaVuSans-31" transform="translate(95.410156 0)"/>
       <use xlink:href="#DejaVuSans-35" transform="translate(159.033203 0)"/>
       <use xlink:href="#DejaVuSans-30" transform="translate(222.65625 0)"/>
      </g>
     </g>
    </g>
    <g id="ytick_8">
     <g id="line2d_27">
      <path d="M 56.50625 56.98541 
L 834.98625 56.98541 
" clip-path="url(#pa0f6b6c160)" style="fill: none; stroke-dasharray: 2.22,0.96; stroke-dashoffset: 0; stroke: #b0b0b0; stroke-opacity: 0.35; stroke-width: 0.6"/>
     </g>
     <g id="line2d_28">
      <g>
       <use xlink:href="#m3b0f5cc3e1" x="56.50625" y="56.98541" style="stroke: #000000; stroke-width: 0.8"/>
      </g>
     </g>
     <g id="text_15">
      <!-- 0.175 -->
      <g transform="translate(20.878125 60.784629) scale(0.1 -0.1)">
       <use xlink:href="#DejaVuSans-30"/>
       <use xlink:href="#DejaVuSans-2e" transform="translate(63.623047 0)"/>
       <use xlink:href="#DejaVuSans-31" transform="translate(95.410156 0)"/>
       <use xlink:href="#DejaVuSans-37" transform="translate(159.033203 0)"/>
       <use xlink:href="#DejaVuSans-35" transform="translate(222.65625 0)"/>
      </g>
     </g>
    </g>
    <g id="text_16">
     <!-- Reduction Ratio -->
     <g transform="translate(14.798438 263.276406) rotate(-90) scale(0.1 -0.1)">
      <defs>
       <path id="DejaVuSans-52" d="M 2841 2188 
Q 3044 2119 3236 1894 
Q 3428 1669 3622 1275 
L 4263 0 
L 3584 0 
L 2988 1197 
Q 2756 1666 2539 1819 
Q 2322 1972 1947 1972 
L 1259 1972 
L 1259 0 
L 628 0 
L 628 4666 
L 2053 4666 
Q 2853 4666 3247 4331 
Q 3641 3997 3641 3322 
Q 3641 2881 3436 2590 
Q 3231 2300 2841 2188 
z
M 1259 4147 
L 1259 2491 
L 2053 2491 
Q 2509 2491 2742 2702 
Q 2975 2913 2975 3322 
Q 2975 3731 2742 3939 
Q 2509 4147 2053 4147 
L 1259 4147 
z
" transform="scale(0.015625)"/>
       <path id="DejaVuSans-64" d="M 2906 2969 
L 2906 4863 
L 3481 4863 
L 3481 0 
L 2906 0 
L 2906 525 
Q 2725 213 2448 61 
Q 2172 -91 1784 -91 
Q 1150 -91 751 415 
Q 353 922 353 1747 
Q 353 2572 751 3078 
Q 1150 3584 1784 3584 
Q 2172 3584 2448 3432 
Q 2725 3281 2906 2969 
z
M 947 1747 
Q 947 1113 1208 752 
Q 1469 391 1925 391 
Q 2381 391 2643 752 
Q 2906 1113 2906 1747 
Q 2906 2381 2643 2742 
Q 2381 3103 1925 3103 
Q 1469 3103 1208 2742 
Q 947 2381 947 1747 
z
" transform="scale(0.015625)"/>
       <path id="DejaVuSans-75" d="M 544 1381 
L 544 3500 
L 1119 3500 
L 1119 1403 
Q 1119 906 1312 657 
Q 1506 409 1894 409 
Q 2359 409 2629 706 
Q 2900 1003 2900 1516 
L 2900 3500 
L 3475 3500 
L 3475 0 
L 2900 0 
L 2900 538 
Q 2691 219 2414 64 
Q 2138 -91 1772 -91 
Q 1169 -91 856 284 
Q 544 659 544 1381 
z
M 1991 3584 
L 1991 3584 
z
" transform="scale(0.015625)"/>
       <path id="DejaVuSans-63" d="M 3122 3366 
L 3122 2828 
Q 2878 2963 2633 3030 
Q 2388 3097 2138 3097 
Q 1578 3097 1268 2742 
Q 959 2388 959 1747 
Q 959 1106 1268 751 
Q 1578 397 2138 397 
Q 2388 397 2633 464 
Q 2878 531 3122 666 
L 3122 134 
Q 2881 22 2623 -34 
Q 2366 -91 2075 -91 
Q 1284 -91 818 406 
Q 353 903 353 1747 
Q 353 2603 823 3093 
Q 1294 3584 2113 3584 
Q 2378 3584 2631 3529 
Q 2884 3475 3122 3366 
z
" transform="scale(0.015625)"/>
       <path id="DejaVuSans-6f" d="M 1959 3097 
Q 1497 3097 1228 2736 
Q 959 2375 959 1747 
Q 959 1119 1226 758 
Q 1494 397 1959 397 
Q 2419 397 2687 759 
Q 2956 1122 2956 1747 
Q 2956 2369 2687 2733 
Q 2419 3097 1959 3097 
z
M 1959 3584 
Q 2709 3584 3137 3096 
Q 3566 2609 3566 1747 
Q 3566 888 3137 398 
Q 2709 -91 1959 -91 
Q 1206 -91 779 398 
Q 353 888 353 1747 
Q 353 2609 779 3096 
Q 1206 3584 1959 3584 
z
" transform="scale(0.015625)"/>
       <path id="DejaVuSans-61" d="M 2194 1759 
Q 1497 1759 1228 1600 
Q 959 1441 959 1056 
Q 959 750 1161 570 
Q 1363 391 1709 391 
Q 2188 391 2477 730 
Q 2766 1069 2766 1631 
L 2766 1759 
L 2194 1759 
z
M 3341 1997 
L 3341 0 
L 2766 0 
L 2766 531 
Q 2569 213 2275 61 
Q 1981 -91 1556 -91 
Q 1019 -91 701 211 
Q 384 513 384 1019 
Q 384 1609 779 1909 
Q 1175 2209 1959 2209 
L 2766 2209 
L 2766 2266 
Q 2766 2663 2505 2880 
Q 2244 3097 1772 3097 
Q 1472 3097 1187 3025 
Q 903 2953 641 2809 
L 641 3341 
Q 956 3463 1253 3523 
Q 1550 3584 1831 3584 
Q 2591 3584 2966 3190 
Q 3341 2797 3341 1997 
z
" transform="scale(0.015625)"/>
      </defs>
      <use xlink:href="#DejaVuSans-52"/>
      <use xlink:href="#DejaVuSans-65" transform="translate(64.982422 0)"/>
      <use xlink:href="#DejaVuSans-64" transform="translate(126.505859 0)"/>
      <use xlink:href="#DejaVuSans-75" transform="translate(189.982422 0)"/>
      <use xlink:href="#DejaVuSans-63" transform="translate(253.361328 0)"/>
      <use xlink:href="#DejaVuSans-74" transform="translate(308.341797 0)"/>
      <use xlink:href="#DejaVuSans-69" transform="translate(347.550781 0)"/>
      <use xlink:href="#DejaVuSans-6f" transform="translate(375.333984 0)"/>
      <use xlink:href="#DejaVuSans-6e" transform="translate(436.515625 0)"/>
      <use xlink:href="#DejaVuSans-20" transform="translate(499.894531 0)"/>
      <use xlink:href="#DejaVuSans-52" transform="translate(531.681641 0)"/>
      <use xlink:href="#DejaVuSans-61" transform="translate(598.914062 0)"/>
      <use xlink:href="#DejaVuSans-74" transform="translate(660.193359 0)"/>
      <use xlink:href="#DejaVuSans-69" transform="translate(699.402344 0)"/>
      <use xlink:href="#DejaVuSans-6f" transform="translate(727.185547 0)"/>
     </g>
    </g>
   </g>
   <g id="line2d_29">
    <path d="M 83.499315 333.733404 
L 137.485446 232.484629 
L 164.478511 196.146819 
L 218.464641 145.3575 
L 245.457706 128.23727 
L 272.450771 115.274532 
L 326.436902 97.634076 
L 353.429967 91.337357 
L 407.416097 82.05606 
L 434.409163 78.950658 
L 461.402228 75.408645 
L 488.395293 71.188372 
L 515.388358 69.880768 
L 542.381423 67.198111 
L 596.367554 93.172225 
L 623.360619 59.417221 
L 650.353684 57.145672 
L 704.339814 51.222923 
L 731.33288 51.778059 
L 785.31901 49.984929 
L 812.312075 50.017469 
" clip-path="url(#pa0f6b6c160)" style="fill: none; stroke: #1f77b4; stroke-width: 2; stroke-linecap: square"/>
    <defs>
     <path id="m9a680b139e" d="M 0 2 
C 0.530406 2 1.03916 1.789267 1.414214 1.414214 
C 1.789267 1.03916 2 0.530406 2 0 
C 2 -0.530406 1.789267 -1.03916 1.414214 -1.414214 
C 1.03916 -1.789267 0.530406 -2 0 -2 
C -0.530406 -2 -1.03916 -1.789267 -1.414214 -1.414214 
C -1.789267 -1.03916 -2 -0.530406 -2 0 
C -2 0.530406 -1.789267 1.03916 -1.414214 1.414214 
C -1.03916 1.789267 -0.530406 2 0 2 
z
" style="stroke: #1f77b4"/>
    </defs>
    <g clip-path="url(#pa0f6b6c160)">
     <use xlink:href="#m9a680b139e" x="83.499315" y="333.733404" style="fill: #1f77b4; stroke: #1f77b4"/>
     <use xlink:href="#m9a680b139e" x="137.485446" y="232.484629" style="fill: #1f77b4; stroke: #1f77b4"/>
     <use xlink:href="#m9a680b139e" x="164.478511" y="196.146819" style="fill: #1f77b4; stroke: #1f77b4"/>
     <use xlink:href="#m9a680b139e" x="218.464641" y="145.3575" style="fill: #1f77b4; stroke: #1f77b4"/>
     <use xlink:href="#m9a680b139e" x="245.457706" y="128.23727" style="fill: #1f77b4; stroke: #1f77b4"/>
     <use xlink:href="#m9a680b139e" x="272.450771" y="115.274532" style="fill: #1f77b4; stroke: #1f77b4"/>
     <use xlink:href="#m9a680b139e" x="326.436902" y="97.634076" style="fill: #1f77b4; stroke: #1f77b4"/>
     <use xlink:href="#m9a680b139e" x="353.429967" y="91.337357" style="fill: #1f77b4; stroke: #1f77b4"/>
     <use xlink:href="#m9a680b139e" x="407.416097" y="82.05606" style="fill: #1f77b4; stroke: #1f77b4"/>
     <use xlink:href="#m9a680b139e" x="434.409163" y="78.950658" style="fill: #1f77b4; stroke: #1f77b4"/>
     <use xlink:href="#m9a680b139e" x="461.402228" y="75.408645" style="fill: #1f77b4; stroke: #1f77b4"/>
     <use xlink:href="#m9a680b139e" x="488.395293" y="71.188372" style="fill: #1f77b4; stroke: #1f77b4"/>
     <use xlink:href="#m9a680b139e" x="515.388358" y="69.880768" style="fill: #1f77b4; stroke: #1f77b4"/>
     <use xlink:href="#m9a680b139e" x="542.381423" y="67.198111" style="fill: #1f77b4; stroke: #1f77b4"/>
     <use xlink:href="#m9a680b139e" x="596.367554" y="93.172225" style="fill: #1f77b4; stroke: #1f77b4"/>
     <use xlink:href="#m9a680b139e" x="623.360619" y="59.417221" style="fill: #1f77b4; stroke: #1f77b4"/>
     <use xlink:href="#m9a680b139e" x="650.353684" y="57.145672" style="fill: #1f77b4; stroke: #1f77b4"/>
     <use xlink:href="#m9a680b139e" x="704.339814" y="51.222923" style="fill: #1f77b4; stroke: #1f77b4"/>
     <use xlink:href="#m9a680b139e" x="731.33288" y="51.778059" style="fill: #1f77b4; stroke: #1f77b4"/>
     <use xlink:href="#m9a680b139e" x="785.31901" y="49.984929" style="fill: #1f77b4; stroke: #1f77b4"/>
     <use xlink:href="#m9a680b139e" x="812.312075" y="50.017469" style="fill: #1f77b4; stroke: #1f77b4"/>
    </g>
   </g>
   <g id="line2d_30">
    <path d="M 66.583661 373.509892 
L 96.815894 315.230665 
L 137.125538 272.625518 
L 167.357771 258.077829 
L 207.667415 249.563563 
L 247.977059 247.798095 
L 258.05447 248.658288 
L 288.286703 247.246606 
L 318.518936 247.085321 
L 358.82858 242.381196 
L 399.138224 247.165105 
L 439.447868 247.513688 
L 469.680101 247.816305 
L 509.989745 248.298416 
L 550.299389 248.60366 
L 590.609033 248.475309 
L 620.841266 248.051286 
L 661.15091 250.002101 
L 701.460554 246.132364 
L 741.770198 244.731087 
L 772.002431 243.73042 
L 812.312075 242.332629 
" clip-path="url(#pa0f6b6c160)" style="fill: none; stroke: #ff7f0e; stroke-width: 2; stroke-linecap: square"/>
    <defs>
     <path id="mb2c9db0913" d="M 0 2 
C 0.530406 2 1.03916 1.789267 1.414214 1.414214 
C 1.789267 1.03916 2 0.530406 2 0 
C 2 -0.530406 1.789267 -1.03916 1.414214 -1.414214 
C 1.03916 -1.789267 0.530406 -2 0 -2 
C -0.530406 -2 -1.03916 -1.789267 -1.414214 -1.414214 
C -1.789267 -1.03916 -2 -0.530406 -2 0 
C -2 0.530406 -1.789267 1.03916 -1.414214 1.414214 
C -1.03916 1.789267 -0.530406 2 0 2 
z
" style="stroke: #ff7f0e"/>
    </defs>
    <g clip-path="url(#pa0f6b6c160)">
     <use xlink:href="#mb2c9db0913" x="66.583661" y="373.509892" style="fill: #ff7f0e; stroke: #ff7f0e"/>
     <use xlink:href="#mb2c9db0913" x="96.815894" y="315.230665" style="fill: #ff7f0e; stroke: #ff7f0e"/>
     <use xlink:href="#mb2c9db0913" x="137.125538" y="272.625518" style="fill: #ff7f0e; stroke: #ff7f0e"/>
     <use xlink:href="#mb2c9db0913" x="167.357771" y="258.077829" style="fill: #ff7f0e; stroke: #ff7f0e"/>
     <use xlink:href="#mb2c9db0913" x="207.667415" y="249.563563" style="fill: #ff7f0e; stroke: #ff7f0e"/>
     <use xlink:href="#mb2c9db0913" x="247.977059" y="247.798095" style="fill: #ff7f0e; stroke: #ff7f0e"/>
     <use xlink:href="#mb2c9db0913" x="258.05447" y="248.658288" style="fill: #ff7f0e; stroke: #ff7f0e"/>
     <use xlink:href="#mb2c9db0913" x="288.286703" y="247.246606" style="fill: #ff7f0e; stroke: #ff7f0e"/>
     <use xlink:href="#mb2c9db0913" x="318.518936" y="247.085321" style="fill: #ff7f0e; stroke: #ff7f0e"/>
     <use xlink:href="#mb2c9db0913" x="358.82858" y="242.381196" style="fill: #ff7f0e; stroke: #ff7f0e"/>
     <use xlink:href="#mb2c9db0913" x="399.138224" y="247.165105" style="fill: #ff7f0e; stroke: #ff7f0e"/>
     <use xlink:href="#mb2c9db0913" x="439.447868" y="247.513688" style="fill: #ff7f0e; stroke: #ff7f0e"/>
     <use xlink:href="#mb2c9db0913" x="469.680101" y="247.816305" style="fill: #ff7f0e; stroke: #ff7f0e"/>
     <use xlink:href="#mb2c9db0913" x="509.989745" y="248.298416" style="fill: #ff7f0e; stroke: #ff7f0e"/>
     <use xlink:href="#mb2c9db0913" x="550.299389" y="248.60366" style="fill: #ff7f0e; stroke: #ff7f0e"/>
     <use xlink:href="#mb2c9db0913" x="590.609033" y="248.475309" style="fill: #ff7f0e; stroke: #ff7f0e"/>
     <use xlink:href="#mb2c9db0913" x="620.841266" y="248.051286" style="fill: #ff7f0e; stroke: #ff7f0e"/>
     <use xlink:href="#mb2c9db0913" x="661.15091" y="250.002101" style="fill: #ff7f0e; stroke: #ff7f0e"/>
     <use xlink:href="#mb2c9db0913" x="701.460554" y="246.132364" style="fill: #ff7f0e; stroke: #ff7f0e"/>
     <use xlink:href="#mb2c9db0913" x="741.770198" y="244.731087" style="fill: #ff7f0e; stroke: #ff7f0e"/>
     <use xlink:href="#mb2c9db0913" x="772.002431" y="243.73042" style="fill: #ff7f0e; stroke: #ff7f0e"/>
     <use xlink:href="#mb2c9db0913" x="812.312075" y="242.332629" style="fill: #ff7f0e; stroke: #ff7f0e"/>
    </g>
   </g>
   <g id="line2d_31">
    <path d="M 60.569722 388.329311 
L 93.0775 335.359027 
L 109.331388 324.974548 
L 113.394861 323.250798 
L 117.458333 321.941724 
L 121.521805 320.991387 
L 125.585277 320.141748 
L 129.648749 319.632667 
L 133.712221 319.241759 
L 137.775694 319.134065 
L 141.839166 318.825677 
L 145.902638 318.788618 
L 149.96611 318.748759 
L 154.029582 318.696312 
L 158.093054 318.876729 
L 162.156527 319.145257 
L 166.219999 319.281273 
L 170.283471 319.401376 
L 174.346943 319.567979 
L 178.410415 319.971117 
L 182.473888 320.306431 
L 186.53736 320.3407 
L 190.600832 320.715516 
L 194.664304 321.038589 
L 198.727776 321.280191 
L 202.791248 321.464111 
L 206.854721 321.384738 
L 210.918193 321.970748 
L 214.981665 322.187175 
L 219.045137 322.372837 
L 223.108609 322.53193 
L 227.172082 322.650103 
L 231.235554 322.879128 
L 235.299026 323.096604 
L 239.362498 323.303591 
L 243.42597 321.838058 
L 247.489442 323.541007 
L 251.552915 323.684009 
L 255.616387 323.713033 
L 259.679859 323.957435 
L 263.743331 323.957781 
L 267.806803 324.027011 
L 271.870275 324.208477 
L 275.933748 324.213019 
L 279.99722 324.27841 
L 284.060692 321.849071 
L 288.124164 324.349738 
L 292.187636 324.369311 
L 296.251109 324.275956 
L 300.314581 324.110717 
L 304.378053 324.337151 
L 308.441525 324.310224 
L 312.504997 324.284347 
L 316.568469 324.301487 
L 320.631942 321.417077 
L 324.695414 324.149034 
L 328.758886 324.118972 
L 332.822358 324.085049 
L 336.88583 324.111629 
L 340.949303 324.078063 
L 345.012775 323.929806 
L 349.076247 323.95324 
L 353.139719 324.003589 
L 357.203191 322.46678 
L 361.266663 323.990645 
L 365.330136 324.118269 
L 369.393608 324.116171 
L 373.45708 324.178761 
L 377.520552 324.252879 
L 381.584024 324.366164 
L 385.647496 324.45288 
L 389.710969 324.541337 
L 393.774441 324.599028 
L 397.837913 324.416618 
L 401.901385 324.766512 
L 405.964857 324.800781 
L 410.02833 324.814763 
L 414.091802 324.857067 
L 418.155274 324.899381 
L 422.218746 324.9298 
L 426.282218 324.9791 
L 430.34569 324.895185 
L 434.409163 323.815472 
L 438.472635 324.95917 
L 442.536107 324.843085 
L 446.599579 324.802879 
L 450.663051 324.843431 
L 454.726524 324.784344 
L 458.789996 324.661965 
L 462.853468 324.61686 
L 466.91694 324.481201 
L 470.980412 323.240308 
L 475.043884 324.221411 
L 479.107357 324.161621 
L 483.170829 323.967925 
L 487.234301 323.927016 
L 491.297773 323.717575 
L 495.361245 323.58051 
L 499.424717 323.604636 
L 503.48819 323.422823 
L 507.551662 323.379817 
L 511.615134 323.338762 
L 515.678606 323.185417 
L 519.742078 323.058496 
L 523.805551 323.046255 
L 527.869023 322.972829 
L 531.932495 322.88367 
L 535.995967 322.800457 
L 540.059439 322.746605 
L 544.122911 322.738214 
L 548.186384 323.318716 
L 584.757633 322.855873 
L 625.392355 322.094607 
L 661.963605 323.58436 
L 698.534854 320.536987 
L 735.106104 313.127294 
L 775.740826 320.683419 
L 812.312075 324.988887 
" clip-path="url(#pa0f6b6c160)" style="fill: none; stroke: #2ca02c; stroke-width: 2; stroke-linecap: square"/>
    <defs>
     <path id="m7e1c01eacd" d="M 0 2 
C 0.530406 2 1.03916 1.789267 1.414214 1.414214 
C 1.789267 1.03916 2 0.530406 2 0 
C 2 -0.530406 1.789267 -1.03916 1.414214 -1.414214 
C 1.03916 -1.789267 0.530406 -2 0 -2 
C -0.530406 -2 -1.03916 -1.789267 -1.414214 -1.414214 
C -1.789267 -1.03916 -2 -0.530406 -2 0 
C -2 0.530406 -1.789267 1.03916 -1.414214 1.414214 
C -1.03916 1.789267 -0.530406 2 0 2 
z
" style="stroke: #2ca02c"/>
    </defs>
    <g clip-path="url(#pa0f6b6c160)">
     <use xlink:href="#m7e1c01eacd" x="60.569722" y="388.329311" style="fill: #2ca02c; stroke: #2ca02c"/>
     <use xlink:href="#m7e1c01eacd" x="93.0775" y="335.359027" style="fill: #2ca02c; stroke: #2ca02c"/>
     <use xlink:href="#m7e1c01eacd" x="109.331388" y="324.974548" style="fill: #2ca02c; stroke: #2ca02c"/>
     <use xlink:href="#m7e1c01eacd" x="113.394861" y="323.250798" style="fill: #2ca02c; stroke: #2ca02c"/>
     <use xlink:href="#m7e1c01eacd" x="117.458333" y="321.941724" style="fill: #2ca02c; stroke: #2ca02c"/>
     <use xlink:href="#m7e1c01eacd" x="121.521805" y="320.991387" style="fill: #2ca02c; stroke: #2ca02c"/>
     <use xlink:href="#m7e1c01eacd" x="125.585277" y="320.141748" style="fill: #2ca02c; stroke: #2ca02c"/>
     <use xlink:href="#m7e1c01eacd" x="129.648749" y="319.632667" style="fill: #2ca02c; stroke: #2ca02c"/>
     <use xlink:href="#m7e1c01eacd" x="133.712221" y="319.241759" style="fill: #2ca02c; stroke: #2ca02c"/>
     <use xlink:href="#m7e1c01eacd" x="137.775694" y="319.134065" style="fill: #2ca02c; stroke: #2ca02c"/>
     <use xlink:href="#m7e1c01eacd" x="141.839166" y="318.825677" style="fill: #2ca02c; stroke: #2ca02c"/>
     <use xlink:href="#m7e1c01eacd" x="145.902638" y="318.788618" style="fill: #2ca02c; stroke: #2ca02c"/>
     <use xlink:href="#m7e1c01eacd" x="149.96611" y="318.748759" style="fill: #2ca02c; stroke: #2ca02c"/>
     <use xlink:href="#m7e1c01eacd" x="154.029582" y="318.696312" style="fill: #2ca02c; stroke: #2ca02c"/>
     <use xlink:href="#m7e1c01eacd" x="158.093054" y="318.876729" style="fill: #2ca02c; stroke: #2ca02c"/>
     <use xlink:href="#m7e1c01eacd" x="162.156527" y="319.145257" style="fill: #2ca02c; stroke: #2ca02c"/>
     <use xlink:href="#m7e1c01eacd" x="166.219999" y="319.281273" style="fill: #2ca02c; stroke: #2ca02c"/>
     <use xlink:href="#m7e1c01eacd" x="170.283471" y="319.401376" style="fill: #2ca02c; stroke: #2ca02c"/>
     <use xlink:href="#m7e1c01eacd" x="174.346943" y="319.567979" style="fill: #2ca02c; stroke: #2ca02c"/>
     <use xlink:href="#m7e1c01eacd" x="178.410415" y="319.971117" style="fill: #2ca02c; stroke: #2ca02c"/>
     <use xlink:href="#m7e1c01eacd" x="182.473888" y="320.306431" style="fill: #2ca02c; stroke: #2ca02c"/>
     <use xlink:href="#m7e1c01eacd" x="186.53736" y="320.3407" style="fill: #2ca02c; stroke: #2ca02c"/>
     <use xlink:href="#m7e1c01eacd" x="190.600832" y="320.715516" style="fill: #2ca02c; stroke: #2ca02c"/>
     <use xlink:href="#m7e1c01eacd" x="194.664304" y="321.038589" style="fill: #2ca02c; stroke: #2ca02c"/>
     <use xlink:href="#m7e1c01eacd" x="198.727776" y="321.280191" style="fill: #2ca02c; stroke: #2ca02c"/>
     <use xlink:href="#m7e1c01eacd" x="202.791248" y="321.464111" style="fill: #2ca02c; stroke: #2ca02c"/>
     <use xlink:href="#m7e1c01eacd" x="206.854721" y="321.384738" style="fill: #2ca02c; stroke: #2ca02c"/>
     <use xlink:href="#m7e1c01eacd" x="210.918193" y="321.970748" style="fill: #2ca02c; stroke: #2ca02c"/>
     <use xlink:href="#m7e1c01eacd" x="214.981665" y="322.187175" style="fill: #2ca02c; stroke: #2ca02c"/>
     <use xlink:href="#m7e1c01eacd" x="219.045137" y="322.372837" style="fill: #2ca02c; stroke: #2ca02c"/>
     <use xlink:href="#m7e1c01eacd" x="223.108609" y="322.53193" style="fill: #2ca02c; stroke: #2ca02c"/>
     <use xlink:href="#m7e1c01eacd" x="227.172082" y="322.650103" style="fill: #2ca02c; stroke: #2ca02c"/>
     <use xlink:href="#m7e1c01eacd" x="231.235554" y="322.879128" style="fill: #2ca02c; stroke: #2ca02c"/>
     <use xlink:href="#m7e1c01eacd" x="235.299026" y="323.096604" style="fill: #2ca02c; stroke: #2ca02c"/>
     <use xlink:href="#m7e1c01eacd" x="239.362498" y="323.303591" style="fill: #2ca02c; stroke: #2ca02c"/>
     <use xlink:href="#m7e1c01eacd" x="243.42597" y="321.838058" style="fill: #2ca02c; stroke: #2ca02c"/>
     <use xlink:href="#m7e1c01eacd" x="247.489442" y="323.541007" style="fill: #2ca02c; stroke: #2ca02c"/>
     <use xlink:href="#m7e1c01eacd" x="251.552915" y="323.684009" style="fill: #2ca02c; stroke: #2ca02c"/>
     <use xlink:href="#m7e1c01eacd" x="255.616387" y="323.713033" style="fill: #2ca02c; stroke: #2ca02c"/>
     <use xlink:href="#m7e1c01eacd" x="259.679859" y="323.957435" style="fill: #2ca02c; stroke: #2ca02c"/>
     <use xlink:href="#m7e1c01eacd" x="263.743331" y="323.957781" style="fill: #2ca02c; stroke: #2ca02c"/>
     <use xlink:href="#m7e1c01eacd" x="267.806803" y="324.027011" style="fill: #2ca02c; stroke: #2ca02c"/>
     <use xlink:href="#m7e1c01eacd" x="271.870275" y="324.208477" style="fill: #2ca02c; stroke: #2ca02c"/>
     <use xlink:href="#m7e1c01eacd" x="275.933748" y="324.213019" style="fill: #2ca02c; stroke: #2ca02c"/>
     <use xlink:href="#m7e1c01eacd" x="279.99722" y="324.27841" style="fill: #2ca02c; stroke: #2ca02c"/>
     <use xlink:href="#m7e1c01eacd" x="284.060692" y="321.849071" style="fill: #2ca02c; stroke: #2ca02c"/>
     <use xlink:href="#m7e1c01eacd" x="288.124164" y="324.349738" style="fill: #2ca02c; stroke: #2ca02c"/>
     <use xlink:href="#m7e1c01eacd" x="292.187636" y="324.369311" style="fill: #2ca02c; stroke: #2ca02c"/>
     <use xlink:href="#m7e1c01eacd" x="296.251109" y="324.275956" style="fill: #2ca02c; stroke: #2ca02c"/>
     <use xlink:href="#m7e1c01eacd" x="300.314581" y="324.110717" style="fill: #2ca02c; stroke: #2ca02c"/>
     <use xlink:href="#m7e1c01eacd" x="304.378053" y="324.337151" style="fill: #2ca02c; stroke: #2ca02c"/>
     <use xlink:href="#m7e1c01eacd" x="308.441525" y="324.310224" style="fill: #2ca02c; stroke: #2ca02c"/>
     <use xlink:href="#m7e1c01eacd" x="312.504997" y="324.284347" style="fill: #2ca02c; stroke: #2ca02c"/>
     <use xlink:href="#m7e1c01eacd" x="316.568469" y="324.301487" style="fill: #2ca02c; stroke: #2ca02c"/>
     <use xlink:href="#m7e1c01eacd" x="320.631942" y="321.417077" style="fill: #2ca02c; stroke: #2ca02c"/>
     <use xlink:href="#m7e1c01eacd" x="324.695414" y="324.149034" style="fill: #2ca02c; stroke: #2ca02c"/>
     <use xlink:href="#m7e1c01eacd" x="328.758886" y="324.118972" style="fill: #2ca02c; stroke: #2ca02c"/>
     <use xlink:href="#m7e1c01eacd" x="332.822358" y="324.085049" style="fill: #2ca02c; stroke: #2ca02c"/>
     <use xlink:href="#m7e1c01eacd" x="336.88583" y="324.111629" style="fill: #2ca02c; stroke: #2ca02c"/>
     <use xlink:href="#m7e1c01eacd" x="340.949303" y="324.078063" style="fill: #2ca02c; stroke: #2ca02c"/>
     <use xlink:href="#m7e1c01eacd" x="345.012775" y="323.929806" style="fill: #2ca02c; stroke: #2ca02c"/>
     <use xlink:href="#m7e1c01eacd" x="349.076247" y="323.95324" style="fill: #2ca02c; stroke: #2ca02c"/>
     <use xlink:href="#m7e1c01eacd" x="353.139719" y="324.003589" style="fill: #2ca02c; stroke: #2ca02c"/>
     <use xlink:href="#m7e1c01eacd" x="357.203191" y="322.46678" style="fill: #2ca02c; stroke: #2ca02c"/>
     <use xlink:href="#m7e1c01eacd" x="361.266663" y="323.990645" style="fill: #2ca02c; stroke: #2ca02c"/>
     <use xlink:href="#m7e1c01eacd" x="365.330136" y="324.118269" style="fill: #2ca02c; stroke: #2ca02c"/>
     <use xlink:href="#m7e1c01eacd" x="369.393608" y="324.116171" style="fill: #2ca02c; stroke: #2ca02c"/>
     <use xlink:href="#m7e1c01eacd" x="373.45708" y="324.178761" style="fill: #2ca02c; stroke: #2ca02c"/>
     <use xlink:href="#m7e1c01eacd" x="377.520552" y="324.252879" style="fill: #2ca02c; stroke: #2ca02c"/>
     <use xlink:href="#m7e1c01eacd" x="381.584024" y="324.366164" style="fill: #2ca02c; stroke: #2ca02c"/>
     <use xlink:href="#m7e1c01eacd" x="385.647496" y="324.45288" style="fill: #2ca02c; stroke: #2ca02c"/>
     <use xlink:href="#m7e1c01eacd" x="389.710969" y="324.541337" style="fill: #2ca02c; stroke: #2ca02c"/>
     <use xlink:href="#m7e1c01eacd" x="393.774441" y="324.599028" style="fill: #2ca02c; stroke: #2ca02c"/>
     <use xlink:href="#m7e1c01eacd" x="397.837913" y="324.416618" style="fill: #2ca02c; stroke: #2ca02c"/>
     <use xlink:href="#m7e1c01eacd" x="401.901385" y="324.766512" style="fill: #2ca02c; stroke: #2ca02c"/>
     <use xlink:href="#m7e1c01eacd" x="405.964857" y="324.800781" style="fill: #2ca02c; stroke: #2ca02c"/>
     <use xlink:href="#m7e1c01eacd" x="410.02833" y="324.814763" style="fill: #2ca02c; stroke: #2ca02c"/>
     <use xlink:href="#m7e1c01eacd" x="414.091802" y="324.857067" style="fill: #2ca02c; stroke: #2ca02c"/>
     <use xlink:href="#m7e1c01eacd" x="418.155274" y="324.899381" style="fill: #2ca02c; stroke: #2ca02c"/>
     <use xlink:href="#m7e1c01eacd" x="422.218746" y="324.9298" style="fill: #2ca02c; stroke: #2ca02c"/>
     <use xlink:href="#m7e1c01eacd" x="426.282218" y="324.9791" style="fill: #2ca02c; stroke: #2ca02c"/>
     <use xlink:href="#m7e1c01eacd" x="430.34569" y="324.895185" style="fill: #2ca02c; stroke: #2ca02c"/>
     <use xlink:href="#m7e1c01eacd" x="434.409163" y="323.815472" style="fill: #2ca02c; stroke: #2ca02c"/>
     <use xlink:href="#m7e1c01eacd" x="438.472635" y="324.95917" style="fill: #2ca02c; stroke: #2ca02c"/>
     <use xlink:href="#m7e1c01eacd" x="442.536107" y="324.843085" style="fill: #2ca02c; stroke: #2ca02c"/>
     <use xlink:href="#m7e1c01eacd" x="446.599579" y="324.802879" style="fill: #2ca02c; stroke: #2ca02c"/>
     <use xlink:href="#m7e1c01eacd" x="450.663051" y="324.843431" style="fill: #2ca02c; stroke: #2ca02c"/>
     <use xlink:href="#m7e1c01eacd" x="454.726524" y="324.784344" style="fill: #2ca02c; stroke: #2ca02c"/>
     <use xlink:href="#m7e1c01eacd" x="458.789996" y="324.661965" style="fill: #2ca02c; stroke: #2ca02c"/>
     <use xlink:href="#m7e1c01eacd" x="462.853468" y="324.61686" style="fill: #2ca02c; stroke: #2ca02c"/>
     <use xlink:href="#m7e1c01eacd" x="466.91694" y="324.481201" style="fill: #2ca02c; stroke: #2ca02c"/>
     <use xlink:href="#m7e1c01eacd" x="470.980412" y="323.240308" style="fill: #2ca02c; stroke: #2ca02c"/>
     <use xlink:href="#m7e1c01eacd" x="475.043884" y="324.221411" style="fill: #2ca02c; stroke: #2ca02c"/>
     <use xlink:href="#m7e1c01eacd" x="479.107357" y="324.161621" style="fill: #2ca02c; stroke: #2ca02c"/>
     <use xlink:href="#m7e1c01eacd" x="483.170829" y="323.967925" style="fill: #2ca02c; stroke: #2ca02c"/>
     <use xlink:href="#m7e1c01eacd" x="487.234301" y="323.927016" style="fill: #2ca02c; stroke: #2ca02c"/>
     <use xlink:href="#m7e1c01eacd" x="491.297773" y="323.717575" style="fill: #2ca02c; stroke: #2ca02c"/>
     <use xlink:href="#m7e1c01eacd" x="495.361245" y="323.58051" style="fill: #2ca02c; stroke: #2ca02c"/>
     <use xlink:href="#m7e1c01eacd" x="499.424717" y="323.604636" style="fill: #2ca02c; stroke: #2ca02c"/>
     <use xlink:href="#m7e1c01eacd" x="503.48819" y="323.422823" style="fill: #2ca02c; stroke: #2ca02c"/>
     <use xlink:href="#m7e1c01eacd" x="507.551662" y="323.379817" style="fill: #2ca02c; stroke: #2ca02c"/>
     <use xlink:href="#m7e1c01eacd" x="511.615134" y="323.338762" style="fill: #2ca02c; stroke: #2ca02c"/>
     <use xlink:href="#m7e1c01eacd" x="515.678606" y="323.185417" style="fill: #2ca02c; stroke: #2ca02c"/>
     <use xlink:href="#m7e1c01eacd" x="519.742078" y="323.058496" style="fill: #2ca02c; stroke: #2ca02c"/>
     <use xlink:href="#m7e1c01eacd" x="523.805551" y="323.046255" style="fill: #2ca02c; stroke: #2ca02c"/>
     <use xlink:href="#m7e1c01eacd" x="527.869023" y="322.972829" style="fill: #2ca02c; stroke: #2ca02c"/>
     <use xlink:href="#m7e1c01eacd" x="531.932495" y="322.88367" style="fill: #2ca02c; stroke: #2ca02c"/>
     <use xlink:href="#m7e1c01eacd" x="535.995967" y="322.800457" style="fill: #2ca02c; stroke: #2ca02c"/>
     <use xlink:href="#m7e1c01eacd" x="540.059439" y="322.746605" style="fill: #2ca02c; stroke: #2ca02c"/>
     <use xlink:href="#m7e1c01eacd" x="544.122911" y="322.738214" style="fill: #2ca02c; stroke: #2ca02c"/>
     <use xlink:href="#m7e1c01eacd" x="548.186384" y="323.318716" style="fill: #2ca02c; stroke: #2ca02c"/>
     <use xlink:href="#m7e1c01eacd" x="584.757633" y="322.855873" style="fill: #2ca02c; stroke: #2ca02c"/>
     <use xlink:href="#m7e1c01eacd" x="625.392355" y="322.094607" style="fill: #2ca02c; stroke: #2ca02c"/>
     <use xlink:href="#m7e1c01eacd" x="661.963605" y="323.58436" style="fill: #2ca02c; stroke: #2ca02c"/>
     <use xlink:href="#m7e1c01eacd" x="698.534854" y="320.536987" style="fill: #2ca02c; stroke: #2ca02c"/>
     <use xlink:href="#m7e1c01eacd" x="735.106104" y="313.127294" style="fill: #2ca02c; stroke: #2ca02c"/>
     <use xlink:href="#m7e1c01eacd" x="775.740826" y="320.683419" style="fill: #2ca02c; stroke: #2ca02c"/>
     <use xlink:href="#m7e1c01eacd" x="812.312075" y="324.988887" style="fill: #2ca02c; stroke: #2ca02c"/>
    </g>
   </g>
   <g id="line2d_32">
    <path d="M 58.220095 394.078743 
L 65.075477 379.133431 
L 73.644704 366.132949 
L 78.78624 361.070021 
L 80.500086 359.782168 
L 83.927777 357.725117 
L 85.641622 356.769364 
L 89.069313 355.526195 
L 92.497004 354.522811 
L 97.63854 353.610564 
L 99.352385 353.401601 
L 111.349303 353.306925 
L 114.776994 353.457933 
L 116.490839 353.693591 
L 118.204685 353.664834 
L 119.91853 353.840617 
L 123.346221 354.048845 
L 125.060066 354.337592 
L 126.773912 354.359713 
L 130.201603 354.627662 
L 131.915448 355.199697 
L 133.629293 354.999286 
L 142.19852 355.810814 
L 143.912366 355.829838 
L 149.053902 356.346421 
L 154.195438 356.764497 
L 155.909284 356.941169 
L 157.623129 356.934825 
L 159.336975 357.21325 
L 162.764665 357.384166 
L 167.906202 357.786758 
L 169.620047 357.754538 
L 173.047738 358.178733 
L 174.761583 358.209405 
L 178.189274 358.466444 
L 179.903119 358.50066 
L 183.33081 358.831286 
L 186.758501 358.943215 
L 191.900037 359.160584 
L 193.613883 360.205111 
L 195.327728 359.313808 
L 205.610801 359.785858 
L 207.324646 360.385911 
L 209.038491 359.875959 
L 214.180028 360.105277 
L 226.176945 360.497398 
L 227.890791 359.642518 
L 229.604636 360.582194 
L 231.318482 360.700906 
L 234.746173 360.656076 
L 243.3154 360.951898 
L 248.456936 361.015313 
L 253.598472 361.177526 
L 260.453854 361.292261 
L 262.167699 361.331781 
L 282.733844 361.095092 
L 313.583061 361.891574 
L 320.438443 360.952858 
L 358.143042 361.581853 
L 395.847641 361.753507 
L 399.275332 362.288123 
L 472.970684 361.154486 
L 548.379882 361.156476 
L 586.084481 360.806973 
L 623.78908 360.756649 
L 661.493679 361.443268 
L 699.198278 359.263816 
L 736.902877 364.992715 
L 774.607476 360.138458 
L 812.312075 360.072389 
L 812.312075 360.072389 
" clip-path="url(#pa0f6b6c160)" style="fill: none; stroke: #d62728; stroke-width: 2; stroke-linecap: square"/>
    <defs>
     <path id="mc57a967d63" d="M 0 2 
C 0.530406 2 1.03916 1.789267 1.414214 1.414214 
C 1.789267 1.03916 2 0.530406 2 0 
C 2 -0.530406 1.789267 -1.03916 1.414214 -1.414214 
C 1.03916 -1.789267 0.530406 -2 0 -2 
C -0.530406 -2 -1.03916 -1.789267 -1.414214 -1.414214 
C -1.789267 -1.03916 -2 -0.530406 -2 0 
C -2 0.530406 -1.789267 1.03916 -1.414214 1.414214 
C -1.03916 1.789267 -0.530406 2 0 2 
z
" style="stroke: #d62728"/>
    </defs>
    <g clip-path="url(#pa0f6b6c160)">
     <use xlink:href="#mc57a967d63" x="58.220095" y="394.078743" style="fill: #d62728; stroke: #d62728"/>
     <use xlink:href="#mc57a967d63" x="65.075477" y="379.133431" style="fill: #d62728; stroke: #d62728"/>
     <use xlink:href="#mc57a967d63" x="73.644704" y="366.132949" style="fill: #d62728; stroke: #d62728"/>
     <use xlink:href="#mc57a967d63" x="78.78624" y="361.070021" style="fill: #d62728; stroke: #d62728"/>
     <use xlink:href="#mc57a967d63" x="80.500086" y="359.782168" style="fill: #d62728; stroke: #d62728"/>
     <use xlink:href="#mc57a967d63" x="82.213931" y="358.693843" style="fill: #d62728; stroke: #d62728"/>
     <use xlink:href="#mc57a967d63" x="83.927777" y="357.725117" style="fill: #d62728; stroke: #d62728"/>
     <use xlink:href="#mc57a967d63" x="85.641622" y="356.769364" style="fill: #d62728; stroke: #d62728"/>
     <use xlink:href="#mc57a967d63" x="87.355467" y="356.123743" style="fill: #d62728; stroke: #d62728"/>
     <use xlink:href="#mc57a967d63" x="89.069313" y="355.526195" style="fill: #d62728; stroke: #d62728"/>
     <use xlink:href="#mc57a967d63" x="90.783158" y="355.009019" style="fill: #d62728; stroke: #d62728"/>
     <use xlink:href="#mc57a967d63" x="92.497004" y="354.522811" style="fill: #d62728; stroke: #d62728"/>
     <use xlink:href="#mc57a967d63" x="94.210849" y="354.204719" style="fill: #d62728; stroke: #d62728"/>
     <use xlink:href="#mc57a967d63" x="95.924694" y="353.934261" style="fill: #d62728; stroke: #d62728"/>
     <use xlink:href="#mc57a967d63" x="97.63854" y="353.610564" style="fill: #d62728; stroke: #d62728"/>
     <use xlink:href="#mc57a967d63" x="99.352385" y="353.401601" style="fill: #d62728; stroke: #d62728"/>
     <use xlink:href="#mc57a967d63" x="101.066231" y="353.382723" style="fill: #d62728; stroke: #d62728"/>
     <use xlink:href="#mc57a967d63" x="102.780076" y="353.321083" style="fill: #d62728; stroke: #d62728"/>
     <use xlink:href="#mc57a967d63" x="104.493921" y="353.263569" style="fill: #d62728; stroke: #d62728"/>
     <use xlink:href="#mc57a967d63" x="106.207767" y="353.219182" style="fill: #d62728; stroke: #d62728"/>
     <use xlink:href="#mc57a967d63" x="107.921612" y="353.244842" style="fill: #d62728; stroke: #d62728"/>
     <use xlink:href="#mc57a967d63" x="109.635458" y="353.304271" style="fill: #d62728; stroke: #d62728"/>
     <use xlink:href="#mc57a967d63" x="111.349303" y="353.306925" style="fill: #d62728; stroke: #d62728"/>
     <use xlink:href="#mc57a967d63" x="113.063148" y="353.385528" style="fill: #d62728; stroke: #d62728"/>
     <use xlink:href="#mc57a967d63" x="114.776994" y="353.457933" style="fill: #d62728; stroke: #d62728"/>
     <use xlink:href="#mc57a967d63" x="116.490839" y="353.693591" style="fill: #d62728; stroke: #d62728"/>
     <use xlink:href="#mc57a967d63" x="118.204685" y="353.664834" style="fill: #d62728; stroke: #d62728"/>
     <use xlink:href="#mc57a967d63" x="119.91853" y="353.840617" style="fill: #d62728; stroke: #d62728"/>
     <use xlink:href="#mc57a967d63" x="121.632376" y="353.890463" style="fill: #d62728; stroke: #d62728"/>
     <use xlink:href="#mc57a967d63" x="123.346221" y="354.048845" style="fill: #d62728; stroke: #d62728"/>
     <use xlink:href="#mc57a967d63" x="125.060066" y="354.337592" style="fill: #d62728; stroke: #d62728"/>
     <use xlink:href="#mc57a967d63" x="126.773912" y="354.359713" style="fill: #d62728; stroke: #d62728"/>
     <use xlink:href="#mc57a967d63" x="128.487757" y="354.515587" style="fill: #d62728; stroke: #d62728"/>
     <use xlink:href="#mc57a967d63" x="130.201603" y="354.627662" style="fill: #d62728; stroke: #d62728"/>
     <use xlink:href="#mc57a967d63" x="131.915448" y="355.199697" style="fill: #d62728; stroke: #d62728"/>
     <use xlink:href="#mc57a967d63" x="133.629293" y="354.999286" style="fill: #d62728; stroke: #d62728"/>
     <use xlink:href="#mc57a967d63" x="135.343139" y="355.162831" style="fill: #d62728; stroke: #d62728"/>
     <use xlink:href="#mc57a967d63" x="137.056984" y="355.24158" style="fill: #d62728; stroke: #d62728"/>
     <use xlink:href="#mc57a967d63" x="138.77083" y="355.398931" style="fill: #d62728; stroke: #d62728"/>
     <use xlink:href="#mc57a967d63" x="140.484675" y="355.560411" style="fill: #d62728; stroke: #d62728"/>
     <use xlink:href="#mc57a967d63" x="142.19852" y="355.810814" style="fill: #d62728; stroke: #d62728"/>
     <use xlink:href="#mc57a967d63" x="143.912366" y="355.829838" style="fill: #d62728; stroke: #d62728"/>
     <use xlink:href="#mc57a967d63" x="145.626211" y="356.031722" style="fill: #d62728; stroke: #d62728"/>
     <use xlink:href="#mc57a967d63" x="147.340057" y="356.215764" style="fill: #d62728; stroke: #d62728"/>
     <use xlink:href="#mc57a967d63" x="149.053902" y="356.346421" style="fill: #d62728; stroke: #d62728"/>
     <use xlink:href="#mc57a967d63" x="150.767747" y="356.452307" style="fill: #d62728; stroke: #d62728"/>
     <use xlink:href="#mc57a967d63" x="152.481593" y="356.584437" style="fill: #d62728; stroke: #d62728"/>
     <use xlink:href="#mc57a967d63" x="154.195438" y="356.764497" style="fill: #d62728; stroke: #d62728"/>
     <use xlink:href="#mc57a967d63" x="155.909284" y="356.941169" style="fill: #d62728; stroke: #d62728"/>
     <use xlink:href="#mc57a967d63" x="157.623129" y="356.934825" style="fill: #d62728; stroke: #d62728"/>
     <use xlink:href="#mc57a967d63" x="159.336975" y="357.21325" style="fill: #d62728; stroke: #d62728"/>
     <use xlink:href="#mc57a967d63" x="161.05082" y="357.25631" style="fill: #d62728; stroke: #d62728"/>
     <use xlink:href="#mc57a967d63" x="162.764665" y="357.384166" style="fill: #d62728; stroke: #d62728"/>
     <use xlink:href="#mc57a967d63" x="164.478511" y="357.54019" style="fill: #d62728; stroke: #d62728"/>
     <use xlink:href="#mc57a967d63" x="166.192356" y="357.65669" style="fill: #d62728; stroke: #d62728"/>
     <use xlink:href="#mc57a967d63" x="167.906202" y="357.786758" style="fill: #d62728; stroke: #d62728"/>
     <use xlink:href="#mc57a967d63" x="169.620047" y="357.754538" style="fill: #d62728; stroke: #d62728"/>
     <use xlink:href="#mc57a967d63" x="171.333892" y="358.01563" style="fill: #d62728; stroke: #d62728"/>
     <use xlink:href="#mc57a967d63" x="173.047738" y="358.178733" style="fill: #d62728; stroke: #d62728"/>
     <use xlink:href="#mc57a967d63" x="174.761583" y="358.209405" style="fill: #d62728; stroke: #d62728"/>
     <use xlink:href="#mc57a967d63" x="176.475429" y="358.356435" style="fill: #d62728; stroke: #d62728"/>
     <use xlink:href="#mc57a967d63" x="178.189274" y="358.466444" style="fill: #d62728; stroke: #d62728"/>
     <use xlink:href="#mc57a967d63" x="179.903119" y="358.50066" style="fill: #d62728; stroke: #d62728"/>
     <use xlink:href="#mc57a967d63" x="181.616965" y="358.667006" style="fill: #d62728; stroke: #d62728"/>
     <use xlink:href="#mc57a967d63" x="183.33081" y="358.831286" style="fill: #d62728; stroke: #d62728"/>
     <use xlink:href="#mc57a967d63" x="185.044656" y="358.845739" style="fill: #d62728; stroke: #d62728"/>
     <use xlink:href="#mc57a967d63" x="186.758501" y="358.943215" style="fill: #d62728; stroke: #d62728"/>
     <use xlink:href="#mc57a967d63" x="188.472346" y="359.043496" style="fill: #d62728; stroke: #d62728"/>
     <use xlink:href="#mc57a967d63" x="190.186192" y="359.093046" style="fill: #d62728; stroke: #d62728"/>
     <use xlink:href="#mc57a967d63" x="191.900037" y="359.160584" style="fill: #d62728; stroke: #d62728"/>
     <use xlink:href="#mc57a967d63" x="193.613883" y="360.205111" style="fill: #d62728; stroke: #d62728"/>
     <use xlink:href="#mc57a967d63" x="195.327728" y="359.313808" style="fill: #d62728; stroke: #d62728"/>
     <use xlink:href="#mc57a967d63" x="197.041574" y="359.399781" style="fill: #d62728; stroke: #d62728"/>
     <use xlink:href="#mc57a967d63" x="198.755419" y="359.474991" style="fill: #d62728; stroke: #d62728"/>
     <use xlink:href="#mc57a967d63" x="200.469264" y="359.571436" style="fill: #d62728; stroke: #d62728"/>
     <use xlink:href="#mc57a967d63" x="202.18311" y="359.620397" style="fill: #d62728; stroke: #d62728"/>
     <use xlink:href="#mc57a967d63" x="203.896955" y="359.757986" style="fill: #d62728; stroke: #d62728"/>
     <use xlink:href="#mc57a967d63" x="205.610801" y="359.785858" style="fill: #d62728; stroke: #d62728"/>
     <use xlink:href="#mc57a967d63" x="207.324646" y="360.385911" style="fill: #d62728; stroke: #d62728"/>
     <use xlink:href="#mc57a967d63" x="209.038491" y="359.875959" style="fill: #d62728; stroke: #d62728"/>
     <use xlink:href="#mc57a967d63" x="210.752337" y="359.986858" style="fill: #d62728; stroke: #d62728"/>
     <use xlink:href="#mc57a967d63" x="212.466182" y="360.013256" style="fill: #d62728; stroke: #d62728"/>
     <use xlink:href="#mc57a967d63" x="214.180028" y="360.105277" style="fill: #d62728; stroke: #d62728"/>
     <use xlink:href="#mc57a967d63" x="215.893873" y="360.170312" style="fill: #d62728; stroke: #d62728"/>
     <use xlink:href="#mc57a967d63" x="217.607718" y="360.194051" style="fill: #d62728; stroke: #d62728"/>
     <use xlink:href="#mc57a967d63" x="219.321564" y="360.29684" style="fill: #d62728; stroke: #d62728"/>
     <use xlink:href="#mc57a967d63" x="221.035409" y="360.323531" style="fill: #d62728; stroke: #d62728"/>
     <use xlink:href="#mc57a967d63" x="222.749255" y="360.382075" style="fill: #d62728; stroke: #d62728"/>
     <use xlink:href="#mc57a967d63" x="224.4631" y="360.500495" style="fill: #d62728; stroke: #d62728"/>
     <use xlink:href="#mc57a967d63" x="226.176945" y="360.497398" style="fill: #d62728; stroke: #d62728"/>
     <use xlink:href="#mc57a967d63" x="227.890791" y="359.642518" style="fill: #d62728; stroke: #d62728"/>
     <use xlink:href="#mc57a967d63" x="229.604636" y="360.582194" style="fill: #d62728; stroke: #d62728"/>
     <use xlink:href="#mc57a967d63" x="231.318482" y="360.700906" style="fill: #d62728; stroke: #d62728"/>
     <use xlink:href="#mc57a967d63" x="233.032327" y="360.657404" style="fill: #d62728; stroke: #d62728"/>
     <use xlink:href="#mc57a967d63" x="234.746173" y="360.656076" style="fill: #d62728; stroke: #d62728"/>
     <use xlink:href="#mc57a967d63" x="236.460018" y="360.736595" style="fill: #d62728; stroke: #d62728"/>
     <use xlink:href="#mc57a967d63" x="238.173863" y="360.780836" style="fill: #d62728; stroke: #d62728"/>
     <use xlink:href="#mc57a967d63" x="239.887709" y="360.864009" style="fill: #d62728; stroke: #d62728"/>
     <use xlink:href="#mc57a967d63" x="241.601554" y="360.899251" style="fill: #d62728; stroke: #d62728"/>
     <use xlink:href="#mc57a967d63" x="243.3154" y="360.951898" style="fill: #d62728; stroke: #d62728"/>
     <use xlink:href="#mc57a967d63" x="245.029245" y="360.938608" style="fill: #d62728; stroke: #d62728"/>
     <use xlink:href="#mc57a967d63" x="246.74309" y="361.021064" style="fill: #d62728; stroke: #d62728"/>
     <use xlink:href="#mc57a967d63" x="248.456936" y="361.015313" style="fill: #d62728; stroke: #d62728"/>
     <use xlink:href="#mc57a967d63" x="250.170781" y="361.091407" style="fill: #d62728; stroke: #d62728"/>
     <use xlink:href="#mc57a967d63" x="251.884627" y="361.122522" style="fill: #d62728; stroke: #d62728"/>
     <use xlink:href="#mc57a967d63" x="253.598472" y="361.177526" style="fill: #d62728; stroke: #d62728"/>
     <use xlink:href="#mc57a967d63" x="255.312317" y="361.18564" style="fill: #d62728; stroke: #d62728"/>
     <use xlink:href="#mc57a967d63" x="257.026163" y="361.260407" style="fill: #d62728; stroke: #d62728"/>
     <use xlink:href="#mc57a967d63" x="258.740008" y="361.293734" style="fill: #d62728; stroke: #d62728"/>
     <use xlink:href="#mc57a967d63" x="260.453854" y="361.292261" style="fill: #d62728; stroke: #d62728"/>
     <use xlink:href="#mc57a967d63" x="262.167699" y="361.331781" style="fill: #d62728; stroke: #d62728"/>
     <use xlink:href="#mc57a967d63" x="282.733844" y="361.095092" style="fill: #d62728; stroke: #d62728"/>
     <use xlink:href="#mc57a967d63" x="313.583061" y="361.891574" style="fill: #d62728; stroke: #d62728"/>
     <use xlink:href="#mc57a967d63" x="320.438443" y="360.952858" style="fill: #d62728; stroke: #d62728"/>
     <use xlink:href="#mc57a967d63" x="358.143042" y="361.581853" style="fill: #d62728; stroke: #d62728"/>
     <use xlink:href="#mc57a967d63" x="395.847641" y="361.753507" style="fill: #d62728; stroke: #d62728"/>
     <use xlink:href="#mc57a967d63" x="399.275332" y="362.288123" style="fill: #d62728; stroke: #d62728"/>
     <use xlink:href="#mc57a967d63" x="433.55224" y="361.741894" style="fill: #d62728; stroke: #d62728"/>
     <use xlink:href="#mc57a967d63" x="472.970684" y="361.154486" style="fill: #d62728; stroke: #d62728"/>
     <use xlink:href="#mc57a967d63" x="510.675283" y="361.156366" style="fill: #d62728; stroke: #d62728"/>
     <use xlink:href="#mc57a967d63" x="548.379882" y="361.156476" style="fill: #d62728; stroke: #d62728"/>
     <use xlink:href="#mc57a967d63" x="586.084481" y="360.806973" style="fill: #d62728; stroke: #d62728"/>
     <use xlink:href="#mc57a967d63" x="623.78908" y="360.756649" style="fill: #d62728; stroke: #d62728"/>
     <use xlink:href="#mc57a967d63" x="661.493679" y="361.443268" style="fill: #d62728; stroke: #d62728"/>
     <use xlink:href="#mc57a967d63" x="699.198278" y="359.263816" style="fill: #d62728; stroke: #d62728"/>
     <use xlink:href="#mc57a967d63" x="736.902877" y="364.992715" style="fill: #d62728; stroke: #d62728"/>
     <use xlink:href="#mc57a967d63" x="774.607476" y="360.138458" style="fill: #d62728; stroke: #d62728"/>
     <use xlink:href="#mc57a967d63" x="812.312075" y="360.072389" style="fill: #d62728; stroke: #d62728"/>
    </g>
   </g>
   <g id="line2d_33">
    <path d="M 57.250153 396.5303 
L 71.384317 375.084021 
L 86.262385 371.70356 
L 94.445322 372.219641 
L 101.140452 372.829879 
L 130.896587 375.920695 
L 132.384394 375.766432 
L 169.579562 378.178343 
L 207.518634 379.777936 
L 245.457706 380.27779 
L 283.396778 380.394367 
L 321.33585 380.635317 
L 358.531019 379.010327 
L 396.470091 378.817979 
L 434.409163 380.025526 
L 472.348235 379.776142 
L 510.287306 379.961451 
L 547.482475 382.083254 
L 585.421547 380.273628 
L 623.360619 379.292164 
L 661.299691 380.984844 
L 699.238763 380.779882 
L 736.433931 379.420248 
L 774.373003 379.211511 
L 812.312075 379.211511 
" clip-path="url(#pa0f6b6c160)" style="fill: none; stroke: #9467bd; stroke-width: 2; stroke-linecap: square"/>
    <defs>
     <path id="mc70c9fc56c" d="M 0 2 
C 0.530406 2 1.03916 1.789267 1.414214 1.414214 
C 1.789267 1.03916 2 0.530406 2 0 
C 2 -0.530406 1.789267 -1.03916 1.414214 -1.414214 
C 1.03916 -1.789267 0.530406 -2 0 -2 
C -0.530406 -2 -1.03916 -1.789267 -1.414214 -1.414214 
C -1.789267 -1.03916 -2 -0.530406 -2 0 
C -2 0.530406 -1.789267 1.03916 -1.414214 1.414214 
C -1.03916 1.789267 -0.530406 2 0 2 
z
" style="stroke: #9467bd"/>
    </defs>
    <g clip-path="url(#pa0f6b6c160)">
     <use xlink:href="#mc70c9fc56c" x="57.250153" y="396.5303" style="fill: #9467bd; stroke: #9467bd"/>
     <use xlink:href="#mc70c9fc56c" x="71.384317" y="375.084021" style="fill: #9467bd; stroke: #9467bd"/>
     <use xlink:href="#mc70c9fc56c" x="86.262385" y="371.70356" style="fill: #9467bd; stroke: #9467bd"/>
     <use xlink:href="#mc70c9fc56c" x="94.445322" y="372.219641" style="fill: #9467bd; stroke: #9467bd"/>
     <use xlink:href="#mc70c9fc56c" x="101.140452" y="372.829879" style="fill: #9467bd; stroke: #9467bd"/>
     <use xlink:href="#mc70c9fc56c" x="130.896587" y="375.920695" style="fill: #9467bd; stroke: #9467bd"/>
     <use xlink:href="#mc70c9fc56c" x="132.384394" y="375.766432" style="fill: #9467bd; stroke: #9467bd"/>
     <use xlink:href="#mc70c9fc56c" x="169.579562" y="378.178343" style="fill: #9467bd; stroke: #9467bd"/>
     <use xlink:href="#mc70c9fc56c" x="207.518634" y="379.777936" style="fill: #9467bd; stroke: #9467bd"/>
     <use xlink:href="#mc70c9fc56c" x="245.457706" y="380.27779" style="fill: #9467bd; stroke: #9467bd"/>
     <use xlink:href="#mc70c9fc56c" x="283.396778" y="380.394367" style="fill: #9467bd; stroke: #9467bd"/>
     <use xlink:href="#mc70c9fc56c" x="321.33585" y="380.635317" style="fill: #9467bd; stroke: #9467bd"/>
     <use xlink:href="#mc70c9fc56c" x="358.531019" y="379.010327" style="fill: #9467bd; stroke: #9467bd"/>
     <use xlink:href="#mc70c9fc56c" x="396.470091" y="378.817979" style="fill: #9467bd; stroke: #9467bd"/>
     <use xlink:href="#mc70c9fc56c" x="434.409163" y="380.025526" style="fill: #9467bd; stroke: #9467bd"/>
     <use xlink:href="#mc70c9fc56c" x="472.348235" y="379.776142" style="fill: #9467bd; stroke: #9467bd"/>
     <use xlink:href="#mc70c9fc56c" x="510.287306" y="379.961451" style="fill: #9467bd; stroke: #9467bd"/>
     <use xlink:href="#mc70c9fc56c" x="547.482475" y="382.083254" style="fill: #9467bd; stroke: #9467bd"/>
     <use xlink:href="#mc70c9fc56c" x="585.421547" y="380.273628" style="fill: #9467bd; stroke: #9467bd"/>
     <use xlink:href="#mc70c9fc56c" x="623.360619" y="379.292164" style="fill: #9467bd; stroke: #9467bd"/>
     <use xlink:href="#mc70c9fc56c" x="661.299691" y="380.984844" style="fill: #9467bd; stroke: #9467bd"/>
     <use xlink:href="#mc70c9fc56c" x="699.238763" y="380.779882" style="fill: #9467bd; stroke: #9467bd"/>
     <use xlink:href="#mc70c9fc56c" x="736.433931" y="379.420248" style="fill: #9467bd; stroke: #9467bd"/>
     <use xlink:href="#mc70c9fc56c" x="774.373003" y="379.211511" style="fill: #9467bd; stroke: #9467bd"/>
     <use xlink:href="#mc70c9fc56c" x="812.312075" y="379.211511" style="fill: #9467bd; stroke: #9467bd"/>
    </g>
   </g>
   <g id="line2d_34">
    <path d="M 63.092793 386.322941 
L 69.679336 382.619964 
L 76.265879 382.114328 
L 86.804348 383.056925 
L 89.438966 383.406919 
" clip-path="url(#pa0f6b6c160)" style="fill: none; stroke: #8c564b; stroke-width: 2; stroke-linecap: square"/>
    <defs>
     <path id="m47eb544386" d="M 0 2 
C 0.530406 2 1.03916 1.789267 1.414214 1.414214 
C 1.789267 1.03916 2 0.530406 2 0 
C 2 -0.530406 1.789267 -1.03916 1.414214 -1.414214 
C 1.03916 -1.789267 0.530406 -2 0 -2 
C -0.530406 -2 -1.03916 -1.789267 -1.414214 -1.414214 
C -1.789267 -1.03916 -2 -0.530406 -2 0 
C -2 0.530406 -1.789267 1.03916 -1.414214 1.414214 
C -1.03916 1.789267 -0.530406 2 0 2 
z
" style="stroke: #8c564b"/>
    </defs>
    <g clip-path="url(#pa0f6b6c160)">
     <use xlink:href="#m47eb544386" x="63.092793" y="386.322941" style="fill: #8c564b; stroke: #8c564b"/>
     <use xlink:href="#m47eb544386" x="69.679336" y="382.619964" style="fill: #8c564b; stroke: #8c564b"/>
     <use xlink:href="#m47eb544386" x="76.265879" y="382.114328" style="fill: #8c564b; stroke: #8c564b"/>
     <use xlink:href="#m47eb544386" x="86.804348" y="383.056925" style="fill: #8c564b; stroke: #8c564b"/>
     <use xlink:href="#m47eb544386" x="89.438966" y="383.406919" style="fill: #8c564b; stroke: #8c564b"/>
    </g>
   </g>
   <g id="line2d_35">
    <path d="M 59.464394 392.349627 
L 62.422538 389.52861 
L 65.380682 388.491882 
L 71.592785 388.333433 
" clip-path="url(#pa0f6b6c160)" style="fill: none; stroke: #e377c2; stroke-width: 2; stroke-linecap: square"/>
    <defs>
     <path id="m27a8f9a507" d="M 0 2 
C 0.530406 2 1.03916 1.789267 1.414214 1.414214 
C 1.789267 1.03916 2 0.530406 2 0 
C 2 -0.530406 1.789267 -1.03916 1.414214 -1.414214 
C 1.03916 -1.789267 0.530406 -2 0 -2 
C -0.530406 -2 -1.03916 -1.789267 -1.414214 -1.414214 
C -1.789267 -1.03916 -2 -0.530406 -2 0 
C -2 0.530406 -1.789267 1.03916 -1.414214 1.414214 
C -1.03916 1.789267 -0.530406 2 0 2 
z
" style="stroke: #e377c2"/>
    </defs>
    <g clip-path="url(#pa0f6b6c160)">
     <use xlink:href="#m27a8f9a507" x="59.464394" y="392.349627" style="fill: #e377c2; stroke: #e377c2"/>
     <use xlink:href="#m27a8f9a507" x="62.422538" y="389.52861" style="fill: #e377c2; stroke: #e377c2"/>
     <use xlink:href="#m27a8f9a507" x="65.380682" y="388.491882" style="fill: #e377c2; stroke: #e377c2"/>
     <use xlink:href="#m27a8f9a507" x="71.592785" y="388.333433" style="fill: #e377c2; stroke: #e377c2"/>
    </g>
   </g>
   <g id="line2d_36">
    <path d="M 57.849547 395.4426 
" clip-path="url(#pa0f6b6c160)" style="fill: none; stroke: #7f7f7f; stroke-width: 2; stroke-linecap: square"/>
    <defs>
     <path id="ma8edc702bf" d="M 0 2 
C 0.530406 2 1.03916 1.789267 1.414214 1.414214 
C 1.789267 1.03916 2 0.530406 2 0 
C 2 -0.530406 1.789267 -1.03916 1.414214 -1.414214 
C 1.03916 -1.789267 0.530406 -2 0 -2 
C -0.530406 -2 -1.03916 -1.789267 -1.414214 -1.414214 
C -1.789267 -1.03916 -2 -0.530406 -2 0 
C -2 0.530406 -1.789267 1.03916 -1.414214 1.414214 
C -1.03916 1.789267 -0.530406 2 0 2 
z
" style="stroke: #7f7f7f"/>
    </defs>
    <g clip-path="url(#pa0f6b6c160)">
     <use xlink:href="#ma8edc702bf" x="57.849547" y="395.4426" style="fill: #7f7f7f; stroke: #7f7f7f"/>
    </g>
   </g>
   <g id="line2d_37">
    <path d="M 57.121627 396.980961 
" clip-path="url(#pa0f6b6c160)" style="fill: none; stroke: #bcbd22; stroke-width: 2; stroke-linecap: square"/>
    <defs>
     <path id="mf9cd7147e1" d="M 0 2 
C 0.530406 2 1.03916 1.789267 1.414214 1.414214 
C 1.789267 1.03916 2 0.530406 2 0 
C 2 -0.530406 1.789267 -1.03916 1.414214 -1.414214 
C 1.03916 -1.789267 0.530406 -2 0 -2 
C -0.530406 -2 -1.03916 -1.789267 -1.414214 -1.414214 
C -1.789267 -1.03916 -2 -0.530406 -2 0 
C -2 0.530406 -1.789267 1.03916 -1.414214 1.414214 
C -1.03916 1.789267 -0.530406 2 0 2 
z
" style="stroke: #bcbd22"/>
    </defs>
    <g clip-path="url(#pa0f6b6c160)">
     <use xlink:href="#mf9cd7147e1" x="57.121627" y="396.980961" style="fill: #bcbd22; stroke: #bcbd22"/>
    </g>
   </g>
   <g id="line2d_38">
    <path d="M 56.790201 397.730384 
" clip-path="url(#pa0f6b6c160)" style="fill: none; stroke: #17becf; stroke-width: 2; stroke-linecap: square"/>
    <defs>
     <path id="m4e30d3bbd2" d="M 0 2 
C 0.530406 2 1.03916 1.789267 1.414214 1.414214 
C 1.789267 1.03916 2 0.530406 2 0 
C 2 -0.530406 1.789267 -1.03916 1.414214 -1.414214 
C 1.03916 -1.789267 0.530406 -2 0 -2 
C -0.530406 -2 -1.03916 -1.789267 -1.414214 -1.414214 
C -1.789267 -1.03916 -2 -0.530406 -2 0 
C -2 0.530406 -1.789267 1.03916 -1.414214 1.414214 
C -1.03916 1.789267 -0.530406 2 0 2 
z
" style="stroke: #17becf"/>
    </defs>
    <g clip-path="url(#pa0f6b6c160)">
     <use xlink:href="#m4e30d3bbd2" x="56.790201" y="397.730384" style="fill: #17becf; stroke: #17becf"/>
    </g>
   </g>
   <g id="patch_3">
    <path d="M 56.50625 415.117656 
L 56.50625 32.597656 
" style="fill: none; stroke: #000000; stroke-width: 0.8; stroke-linejoin: miter; stroke-linecap: square"/>
   </g>
   <g id="patch_4">
    <path d="M 56.50625 415.117656 
L 834.98625 415.117656 
" style="fill: none; stroke: #000000; stroke-width: 0.8; stroke-linejoin: miter; stroke-linecap: square"/>
   </g>
   <g id="text_17">
    <!-- Reduction Ratio vs FD Density -->
    <g transform="translate(317.631016 18.597656) scale(0.15 -0.15)">
     <defs>
      <path id="DejaVuSans-Bold-52" d="M 2297 2597 
Q 2675 2597 2839 2737 
Q 3003 2878 3003 3200 
Q 3003 3519 2839 3656 
Q 2675 3794 2297 3794 
L 1791 3794 
L 1791 2597 
L 2297 2597 
z
M 1791 1766 
L 1791 0 
L 588 0 
L 588 4666 
L 2425 4666 
Q 3347 4666 3776 4356 
Q 4206 4047 4206 3378 
Q 4206 2916 3982 2619 
Q 3759 2322 3309 2181 
Q 3556 2125 3751 1926 
Q 3947 1728 4147 1325 
L 4800 0 
L 3519 0 
L 2950 1159 
Q 2778 1509 2601 1637 
Q 2425 1766 2131 1766 
L 1791 1766 
z
" transform="scale(0.015625)"/>
      <path id="DejaVuSans-Bold-65" d="M 4031 1759 
L 4031 1441 
L 1416 1441 
Q 1456 1047 1700 850 
Q 1944 653 2381 653 
Q 2734 653 3104 758 
Q 3475 863 3866 1075 
L 3866 213 
Q 3469 63 3072 -14 
Q 2675 -91 2278 -91 
Q 1328 -91 801 392 
Q 275 875 275 1747 
Q 275 2603 792 3093 
Q 1309 3584 2216 3584 
Q 3041 3584 3536 3087 
Q 4031 2591 4031 1759 
z
M 2881 2131 
Q 2881 2450 2695 2645 
Q 2509 2841 2209 2841 
Q 1884 2841 1681 2658 
Q 1478 2475 1428 2131 
L 2881 2131 
z
" transform="scale(0.015625)"/>
      <path id="DejaVuSans-Bold-64" d="M 2919 2988 
L 2919 4863 
L 4044 4863 
L 4044 0 
L 2919 0 
L 2919 506 
Q 2688 197 2409 53 
Q 2131 -91 1766 -91 
Q 1119 -91 703 423 
Q 288 938 288 1747 
Q 288 2556 703 3070 
Q 1119 3584 1766 3584 
Q 2128 3584 2408 3439 
Q 2688 3294 2919 2988 
z
M 2181 722 
Q 2541 722 2730 984 
Q 2919 1247 2919 1747 
Q 2919 2247 2730 2509 
Q 2541 2772 2181 2772 
Q 1825 2772 1636 2509 
Q 1447 2247 1447 1747 
Q 1447 1247 1636 984 
Q 1825 722 2181 722 
z
" transform="scale(0.015625)"/>
      <path id="DejaVuSans-Bold-75" d="M 500 1363 
L 500 3500 
L 1625 3500 
L 1625 3150 
Q 1625 2866 1622 2436 
Q 1619 2006 1619 1863 
Q 1619 1441 1641 1255 
Q 1663 1069 1716 984 
Q 1784 875 1895 815 
Q 2006 756 2150 756 
Q 2500 756 2700 1025 
Q 2900 1294 2900 1772 
L 2900 3500 
L 4019 3500 
L 4019 0 
L 2900 0 
L 2900 506 
Q 2647 200 2364 54 
Q 2081 -91 1741 -91 
Q 1134 -91 817 281 
Q 500 653 500 1363 
z
" transform="scale(0.015625)"/>
      <path id="DejaVuSans-Bold-63" d="M 3366 3391 
L 3366 2478 
Q 3138 2634 2908 2709 
Q 2678 2784 2431 2784 
Q 1963 2784 1702 2511 
Q 1441 2238 1441 1747 
Q 1441 1256 1702 982 
Q 1963 709 2431 709 
Q 2694 709 2930 787 
Q 3166 866 3366 1019 
L 3366 103 
Q 3103 6 2833 -42 
Q 2563 -91 2291 -91 
Q 1344 -91 809 395 
Q 275 881 275 1747 
Q 275 2613 809 3098 
Q 1344 3584 2291 3584 
Q 2566 3584 2833 3536 
Q 3100 3488 3366 3391 
z
" transform="scale(0.015625)"/>
      <path id="DejaVuSans-Bold-74" d="M 1759 4494 
L 1759 3500 
L 2913 3500 
L 2913 2700 
L 1759 2700 
L 1759 1216 
Q 1759 972 1856 886 
Q 1953 800 2241 800 
L 2816 800 
L 2816 0 
L 1856 0 
Q 1194 0 917 276 
Q 641 553 641 1216 
L 641 2700 
L 84 2700 
L 84 3500 
L 641 3500 
L 641 4494 
L 1759 4494 
z
" transform="scale(0.015625)"/>
      <path id="DejaVuSans-Bold-69" d="M 538 3500 
L 1656 3500 
L 1656 0 
L 538 0 
L 538 3500 
z
M 538 4863 
L 1656 4863 
L 1656 3950 
L 538 3950 
L 538 4863 
z
" transform="scale(0.015625)"/>
      <path id="DejaVuSans-Bold-6f" d="M 2203 2784 
Q 1831 2784 1636 2517 
Q 1441 2250 1441 1747 
Q 1441 1244 1636 976 
Q 1831 709 2203 709 
Q 2569 709 2762 976 
Q 2956 1244 2956 1747 
Q 2956 2250 2762 2517 
Q 2569 2784 2203 2784 
z
M 2203 3584 
Q 3106 3584 3614 3096 
Q 4122 2609 4122 1747 
Q 4122 884 3614 396 
Q 3106 -91 2203 -91 
Q 1297 -91 786 396 
Q 275 884 275 1747 
Q 275 2609 786 3096 
Q 1297 3584 2203 3584 
z
" transform="scale(0.015625)"/>
      <path id="DejaVuSans-Bold-6e" d="M 4056 2131 
L 4056 0 
L 2931 0 
L 2931 347 
L 2931 1631 
Q 2931 2084 2911 2256 
Q 2891 2428 2841 2509 
Q 2775 2619 2662 2680 
Q 2550 2741 2406 2741 
Q 2056 2741 1856 2470 
Q 1656 2200 1656 1722 
L 1656 0 
L 538 0 
L 538 3500 
L 1656 3500 
L 1656 2988 
Q 1909 3294 2193 3439 
Q 2478 3584 2822 3584 
Q 3428 3584 3742 3212 
Q 4056 2841 4056 2131 
z
" transform="scale(0.015625)"/>
      <path id="DejaVuSans-Bold-20" transform="scale(0.015625)"/>
      <path id="DejaVuSans-Bold-61" d="M 2106 1575 
Q 1756 1575 1579 1456 
Q 1403 1338 1403 1106 
Q 1403 894 1545 773 
Q 1688 653 1941 653 
Q 2256 653 2472 879 
Q 2688 1106 2688 1447 
L 2688 1575 
L 2106 1575 
z
M 3816 1997 
L 3816 0 
L 2688 0 
L 2688 519 
Q 2463 200 2181 54 
Q 1900 -91 1497 -91 
Q 953 -91 614 226 
Q 275 544 275 1050 
Q 275 1666 698 1953 
Q 1122 2241 2028 2241 
L 2688 2241 
L 2688 2328 
Q 2688 2594 2478 2717 
Q 2269 2841 1825 2841 
Q 1466 2841 1156 2769 
Q 847 2697 581 2553 
L 581 3406 
Q 941 3494 1303 3539 
Q 1666 3584 2028 3584 
Q 2975 3584 3395 3211 
Q 3816 2838 3816 1997 
z
" transform="scale(0.015625)"/>
      <path id="DejaVuSans-Bold-76" d="M 97 3500 
L 1216 3500 
L 2088 1081 
L 2956 3500 
L 4078 3500 
L 2700 0 
L 1472 0 
L 97 3500 
z
" transform="scale(0.015625)"/>
      <path id="DejaVuSans-Bold-73" d="M 3272 3391 
L 3272 2541 
Q 2913 2691 2578 2766 
Q 2244 2841 1947 2841 
Q 1628 2841 1473 2761 
Q 1319 2681 1319 2516 
Q 1319 2381 1436 2309 
Q 1553 2238 1856 2203 
L 2053 2175 
Q 2913 2066 3209 1816 
Q 3506 1566 3506 1031 
Q 3506 472 3093 190 
Q 2681 -91 1863 -91 
Q 1516 -91 1145 -36 
Q 775 19 384 128 
L 384 978 
Q 719 816 1070 734 
Q 1422 653 1784 653 
Q 2113 653 2278 743 
Q 2444 834 2444 1013 
Q 2444 1163 2330 1236 
Q 2216 1309 1875 1350 
L 1678 1375 
Q 931 1469 631 1722 
Q 331 1975 331 2491 
Q 331 3047 712 3315 
Q 1094 3584 1881 3584 
Q 2191 3584 2531 3537 
Q 2872 3491 3272 3391 
z
" transform="scale(0.015625)"/>
      <path id="DejaVuSans-Bold-46" d="M 588 4666 
L 3834 4666 
L 3834 3756 
L 1791 3756 
L 1791 2888 
L 3713 2888 
L 3713 1978 
L 1791 1978 
L 1791 0 
L 588 0 
L 588 4666 
z
" transform="scale(0.015625)"/>
      <path id="DejaVuSans-Bold-44" d="M 1791 3756 
L 1791 909 
L 2222 909 
Q 2959 909 3348 1275 
Q 3738 1641 3738 2338 
Q 3738 3031 3350 3393 
Q 2963 3756 2222 3756 
L 1791 3756 
z
M 588 4666 
L 1856 4666 
Q 2919 4666 3439 4514 
Q 3959 4363 4331 4000 
Q 4659 3684 4818 3271 
Q 4978 2859 4978 2338 
Q 4978 1809 4818 1395 
Q 4659 981 4331 666 
Q 3956 303 3431 151 
Q 2906 0 1856 0 
L 588 0 
L 588 4666 
z
" transform="scale(0.015625)"/>
      <path id="DejaVuSans-Bold-79" d="M 78 3500 
L 1197 3500 
L 2138 1125 
L 2938 3500 
L 4056 3500 
L 2584 -331 
Q 2363 -916 2067 -1148 
Q 1772 -1381 1288 -1381 
L 641 -1381 
L 641 -647 
L 991 -647 
Q 1275 -647 1404 -556 
Q 1534 -466 1606 -231 
L 1638 -134 
L 78 3500 
z
" transform="scale(0.015625)"/>
     </defs>
     <use xlink:href="#DejaVuSans-Bold-52"/>
     <use xlink:href="#DejaVuSans-Bold-65" transform="translate(77.001953 0)"/>
     <use xlink:href="#DejaVuSans-Bold-64" transform="translate(144.824219 0)"/>
     <use xlink:href="#DejaVuSans-Bold-75" transform="translate(216.40625 0)"/>
     <use xlink:href="#DejaVuSans-Bold-63" transform="translate(287.597656 0)"/>
     <use xlink:href="#DejaVuSans-Bold-74" transform="translate(346.875 0)"/>
     <use xlink:href="#DejaVuSans-Bold-69" transform="translate(394.677734 0)"/>
     <use xlink:href="#DejaVuSans-Bold-6f" transform="translate(428.955078 0)"/>
     <use xlink:href="#DejaVuSans-Bold-6e" transform="translate(497.65625 0)"/>
     <use xlink:href="#DejaVuSans-Bold-20" transform="translate(568.847656 0)"/>
     <use xlink:href="#DejaVuSans-Bold-52" transform="translate(603.662109 0)"/>
     <use xlink:href="#DejaVuSans-Bold-61" transform="translate(680.664062 0)"/>
     <use xlink:href="#DejaVuSans-Bold-74" transform="translate(748.144531 0)"/>
     <use xlink:href="#DejaVuSans-Bold-69" transform="translate(795.947266 0)"/>
     <use xlink:href="#DejaVuSans-Bold-6f" transform="translate(830.224609 0)"/>
     <use xlink:href="#DejaVuSans-Bold-20" transform="translate(898.925781 0)"/>
     <use xlink:href="#DejaVuSans-Bold-76" transform="translate(933.740234 0)"/>
     <use xlink:href="#DejaVuSans-Bold-73" transform="translate(998.925781 0)"/>
     <use xlink:href="#DejaVuSans-Bold-20" transform="translate(1058.447266 0)"/>
     <use xlink:href="#DejaVuSans-Bold-46" transform="translate(1093.261719 0)"/>
     <use xlink:href="#DejaVuSans-Bold-44" transform="translate(1161.572266 0)"/>
     <use xlink:href="#DejaVuSans-Bold-20" transform="translate(1244.580078 0)"/>
     <use xlink:href="#DejaVuSans-Bold-44" transform="translate(1279.394531 0)"/>
     <use xlink:href="#DejaVuSans-Bold-65" transform="translate(1362.402344 0)"/>
     <use xlink:href="#DejaVuSans-Bold-6e" transform="translate(1430.224609 0)"/>
     <use xlink:href="#DejaVuSans-Bold-73" transform="translate(1501.416016 0)"/>
     <use xlink:href="#DejaVuSans-Bold-69" transform="translate(1560.9375 0)"/>
     <use xlink:href="#DejaVuSans-Bold-74" transform="translate(1595.214844 0)"/>
     <use xlink:href="#DejaVuSans-Bold-79" transform="translate(1643.017578 0)"/>
    </g>
   </g>
   <g id="legend_1">
    <g id="text_18">
     <!-- Attributes -->
     <g transform="translate(103.085156 49.196094) scale(0.1 -0.1)">
      <defs>
       <path id="DejaVuSans-41" d="M 2188 4044 
L 1331 1722 
L 3047 1722 
L 2188 4044 
z
M 1831 4666 
L 2547 4666 
L 4325 0 
L 3669 0 
L 3244 1197 
L 1141 1197 
L 716 0 
L 50 0 
L 1831 4666 
z
" transform="scale(0.015625)"/>
       <path id="DejaVuSans-72" d="M 2631 2963 
Q 2534 3019 2420 3045 
Q 2306 3072 2169 3072 
Q 1681 3072 1420 2755 
Q 1159 2438 1159 1844 
L 1159 0 
L 581 0 
L 581 3500 
L 1159 3500 
L 1159 2956 
Q 1341 3275 1631 3429 
Q 1922 3584 2338 3584 
Q 2397 3584 2469 3576 
Q 2541 3569 2628 3553 
L 2631 2963 
z
" transform="scale(0.015625)"/>
       <path id="DejaVuSans-62" d="M 3116 1747 
Q 3116 2381 2855 2742 
Q 2594 3103 2138 3103 
Q 1681 3103 1420 2742 
Q 1159 2381 1159 1747 
Q 1159 1113 1420 752 
Q 1681 391 2138 391 
Q 2594 391 2855 752 
Q 3116 1113 3116 1747 
z
M 1159 2969 
Q 1341 3281 1617 3432 
Q 1894 3584 2278 3584 
Q 2916 3584 3314 3078 
Q 3713 2572 3713 1747 
Q 3713 922 3314 415 
Q 2916 -91 2278 -91 
Q 1894 -91 1617 61 
Q 1341 213 1159 525 
L 1159 0 
L 581 0 
L 581 4863 
L 1159 4863 
L 1159 2969 
z
" transform="scale(0.015625)"/>
      </defs>
      <use xlink:href="#DejaVuSans-41"/>
      <use xlink:href="#DejaVuSans-74" transform="translate(66.658203 0)"/>
      <use xlink:href="#DejaVuSans-74" transform="translate(105.867188 0)"/>
      <use xlink:href="#DejaVuSans-72" transform="translate(145.076172 0)"/>
      <use xlink:href="#DejaVuSans-69" transform="translate(186.189453 0)"/>
      <use xlink:href="#DejaVuSans-62" transform="translate(213.972656 0)"/>
      <use xlink:href="#DejaVuSans-75" transform="translate(277.449219 0)"/>
      <use xlink:href="#DejaVuSans-74" transform="translate(340.828125 0)"/>
      <use xlink:href="#DejaVuSans-65" transform="translate(380.037109 0)"/>
      <use xlink:href="#DejaVuSans-73" transform="translate(441.560547 0)"/>
     </g>
    </g>
    <g id="line2d_39">
     <path d="M 65.50625 60.374219 
L 75.50625 60.374219 
L 85.50625 60.374219 
" style="fill: none; stroke: #1f77b4; stroke-width: 2; stroke-linecap: square"/>
     <g>
      <use xlink:href="#m9a680b139e" x="75.50625" y="60.374219" style="fill: #1f77b4; stroke: #1f77b4"/>
     </g>
    </g>
    <g id="text_19">
     <!-- n=4 -->
     <g transform="translate(93.50625 63.874219) scale(0.1 -0.1)">
      <defs>
       <path id="DejaVuSans-3d" d="M 678 2906 
L 4684 2906 
L 4684 2381 
L 678 2381 
L 678 2906 
z
M 678 1631 
L 4684 1631 
L 4684 1100 
L 678 1100 
L 678 1631 
z
" transform="scale(0.015625)"/>
      </defs>
      <use xlink:href="#DejaVuSans-6e"/>
      <use xlink:href="#DejaVuSans-3d" transform="translate(63.378906 0)"/>
      <use xlink:href="#DejaVuSans-34" transform="translate(147.167969 0)"/>
     </g>
    </g>
    <g id="line2d_40">
     <path d="M 65.50625 75.052344 
L 75.50625 75.052344 
L 85.50625 75.052344 
" style="fill: none; stroke: #ff7f0e; stroke-width: 2; stroke-linecap: square"/>
     <g>
      <use xlink:href="#mb2c9db0913" x="75.50625" y="75.052344" style="fill: #ff7f0e; stroke: #ff7f0e"/>
     </g>
    </g>
    <g id="text_20">
     <!-- n=5 -->
     <g transform="translate(93.50625 78.552344) scale(0.1 -0.1)">
      <use xlink:href="#DejaVuSans-6e"/>
      <use xlink:href="#DejaVuSans-3d" transform="translate(63.378906 0)"/>
      <use xlink:href="#DejaVuSans-35" transform="translate(147.167969 0)"/>
     </g>
    </g>
    <g id="line2d_41">
     <path d="M 65.50625 89.730469 
L 75.50625 89.730469 
L 85.50625 89.730469 
" style="fill: none; stroke: #2ca02c; stroke-width: 2; stroke-linecap: square"/>
     <g>
      <use xlink:href="#m7e1c01eacd" x="75.50625" y="89.730469" style="fill: #2ca02c; stroke: #2ca02c"/>
     </g>
    </g>
    <g id="text_21">
     <!-- n=6 -->
     <g transform="translate(93.50625 93.230469) scale(0.1 -0.1)">
      <use xlink:href="#DejaVuSans-6e"/>
      <use xlink:href="#DejaVuSans-3d" transform="translate(63.378906 0)"/>
      <use xlink:href="#DejaVuSans-36" transform="translate(147.167969 0)"/>
     </g>
    </g>
    <g id="line2d_42">
     <path d="M 65.50625 104.408594 
L 75.50625 104.408594 
L 85.50625 104.408594 
" style="fill: none; stroke: #d62728; stroke-width: 2; stroke-linecap: square"/>
     <g>
      <use xlink:href="#mc57a967d63" x="75.50625" y="104.408594" style="fill: #d62728; stroke: #d62728"/>
     </g>
    </g>
    <g id="text_22">
     <!-- n=7 -->
     <g transform="translate(93.50625 107.908594) scale(0.1 -0.1)">
      <use xlink:href="#DejaVuSans-6e"/>
      <use xlink:href="#DejaVuSans-3d" transform="translate(63.378906 0)"/>
      <use xlink:href="#DejaVuSans-37" transform="translate(147.167969 0)"/>
     </g>
    </g>
    <g id="line2d_43">
     <path d="M 65.50625 119.086719 
L 75.50625 119.086719 
L 85.50625 119.086719 
" style="fill: none; stroke: #9467bd; stroke-width: 2; stroke-linecap: square"/>
     <g>
      <use xlink:href="#mc70c9fc56c" x="75.50625" y="119.086719" style="fill: #9467bd; stroke: #9467bd"/>
     </g>
    </g>
    <g id="text_23">
     <!-- n=8 -->
     <g transform="translate(93.50625 122.586719) scale(0.1 -0.1)">
      <use xlink:href="#DejaVuSans-6e"/>
      <use xlink:href="#DejaVuSans-3d" transform="translate(63.378906 0)"/>
      <use xlink:href="#DejaVuSans-38" transform="translate(147.167969 0)"/>
     </g>
    </g>
    <g id="line2d_44">
     <path d="M 134.585938 60.374219 
L 144.585938 60.374219 
L 154.585938 60.374219 
" style="fill: none; stroke: #8c564b; stroke-width: 2; stroke-linecap: square"/>
     <g>
      <use xlink:href="#m47eb544386" x="144.585938" y="60.374219" style="fill: #8c564b; stroke: #8c564b"/>
     </g>
    </g>
    <g id="text_24">
     <!-- n=9 -->
     <g transform="translate(162.585938 63.874219) scale(0.1 -0.1)">
      <defs>
       <path id="DejaVuSans-39" d="M 703 97 
L 703 672 
Q 941 559 1184 500 
Q 1428 441 1663 441 
Q 2288 441 2617 861 
Q 2947 1281 2994 2138 
Q 2813 1869 2534 1725 
Q 2256 1581 1919 1581 
Q 1219 1581 811 2004 
Q 403 2428 403 3163 
Q 403 3881 828 4315 
Q 1253 4750 1959 4750 
Q 2769 4750 3195 4129 
Q 3622 3509 3622 2328 
Q 3622 1225 3098 567 
Q 2575 -91 1691 -91 
Q 1453 -91 1209 -44 
Q 966 3 703 97 
z
M 1959 2075 
Q 2384 2075 2632 2365 
Q 2881 2656 2881 3163 
Q 2881 3666 2632 3958 
Q 2384 4250 1959 4250 
Q 1534 4250 1286 3958 
Q 1038 3666 1038 3163 
Q 1038 2656 1286 2365 
Q 1534 2075 1959 2075 
z
" transform="scale(0.015625)"/>
      </defs>
      <use xlink:href="#DejaVuSans-6e"/>
      <use xlink:href="#DejaVuSans-3d" transform="translate(63.378906 0)"/>
      <use xlink:href="#DejaVuSans-39" transform="translate(147.167969 0)"/>
     </g>
    </g>
    <g id="line2d_45">
     <path d="M 134.585938 75.052344 
L 144.585938 75.052344 
L 154.585938 75.052344 
" style="fill: none; stroke: #e377c2; stroke-width: 2; stroke-linecap: square"/>
     <g>
      <use xlink:href="#m27a8f9a507" x="144.585938" y="75.052344" style="fill: #e377c2; stroke: #e377c2"/>
     </g>
    </g>
    <g id="text_25">
     <!-- n=10 -->
     <g transform="translate(162.585938 78.552344) scale(0.1 -0.1)">
      <use xlink:href="#DejaVuSans-6e"/>
      <use xlink:href="#DejaVuSans-3d" transform="translate(63.378906 0)"/>
      <use xlink:href="#DejaVuSans-31" transform="translate(147.167969 0)"/>
      <use xlink:href="#DejaVuSans-30" transform="translate(210.791016 0)"/>
     </g>
    </g>
    <g id="line2d_46">
     <path d="M 134.585938 89.730469 
L 144.585938 89.730469 
L 154.585938 89.730469 
" style="fill: none; stroke: #7f7f7f; stroke-width: 2; stroke-linecap: square"/>
     <g>
      <use xlink:href="#ma8edc702bf" x="144.585938" y="89.730469" style="fill: #7f7f7f; stroke: #7f7f7f"/>
     </g>
    </g>
    <g id="text_26">
     <!-- n=11 -->
     <g transform="translate(162.585938 93.230469) scale(0.1 -0.1)">
      <use xlink:href="#DejaVuSans-6e"/>
      <use xlink:href="#DejaVuSans-3d" transform="translate(63.378906 0)"/>
      <use xlink:href="#DejaVuSans-31" transform="translate(147.167969 0)"/>
      <use xlink:href="#DejaVuSans-31" transform="translate(210.791016 0)"/>
     </g>
    </g>
    <g id="line2d_47">
     <path d="M 134.585938 104.408594 
L 144.585938 104.408594 
L 154.585938 104.408594 
" style="fill: none; stroke: #bcbd22; stroke-width: 2; stroke-linecap: square"/>
     <g>
      <use xlink:href="#mf9cd7147e1" x="144.585938" y="104.408594" style="fill: #bcbd22; stroke: #bcbd22"/>
     </g>
    </g>
    <g id="text_27">
     <!-- n=12 -->
     <g transform="translate(162.585938 107.908594) scale(0.1 -0.1)">
      <use xlink:href="#DejaVuSans-6e"/>
      <use xlink:href="#DejaVuSans-3d" transform="translate(63.378906 0)"/>
      <use xlink:href="#DejaVuSans-31" transform="translate(147.167969 0)"/>
      <use xlink:href="#DejaVuSans-32" transform="translate(210.791016 0)"/>
     </g>
    </g>
    <g id="line2d_48">
     <path d="M 134.585938 119.086719 
L 144.585938 119.086719 
L 154.585938 119.086719 
" style="fill: none; stroke: #17becf; stroke-width: 2; stroke-linecap: square"/>
     <g>
      <use xlink:href="#m4e30d3bbd2" x="144.585938" y="119.086719" style="fill: #17becf; stroke: #17becf"/>
     </g>
    </g>
    <g id="text_28">
     <!-- n=13 -->
     <g transform="translate(162.585938 122.586719) scale(0.1 -0.1)">
      <defs>
       <path id="DejaVuSans-33" d="M 2597 2516 
Q 3050 2419 3304 2112 
Q 3559 1806 3559 1356 
Q 3559 666 3084 287 
Q 2609 -91 1734 -91 
Q 1441 -91 1130 -33 
Q 819 25 488 141 
L 488 750 
Q 750 597 1062 519 
Q 1375 441 1716 441 
Q 2309 441 2620 675 
Q 2931 909 2931 1356 
Q 2931 1769 2642 2001 
Q 2353 2234 1838 2234 
L 1294 2234 
L 1294 2753 
L 1863 2753 
Q 2328 2753 2575 2939 
Q 2822 3125 2822 3475 
Q 2822 3834 2567 4026 
Q 2313 4219 1838 4219 
Q 1578 4219 1281 4162 
Q 984 4106 628 3988 
L 628 4550 
Q 988 4650 1302 4700 
Q 1616 4750 1894 4750 
Q 2613 4750 3031 4423 
Q 3450 4097 3450 3541 
Q 3450 3153 3228 2886 
Q 3006 2619 2597 2516 
z
" transform="scale(0.015625)"/>
      </defs>
      <use xlink:href="#DejaVuSans-6e"/>
      <use xlink:href="#DejaVuSans-3d" transform="translate(63.378906 0)"/>
      <use xlink:href="#DejaVuSans-31" transform="translate(147.167969 0)"/>
      <use xlink:href="#DejaVuSans-33" transform="translate(210.791016 0)"/>
     </g>
    </g>
   </g>
  </g>
 </g>
 <defs>
  <clipPath id="pa0f6b6c160">
   <rect x="56.50625" y="32.597656" width="778.48" height="382.52"/>
  </clipPath>
 </defs>
</svg>
