<?xml version="1.0" encoding="utf-8" standalone="no"?>
<!DOCTYPE svg PUBLIC "-//W3C//DTD SVG 1.1//EN"
  "http://www.w3.org/Graphics/SVG/1.1/DTD/svg11.dtd">
<svg xmlns:xlink="http://www.w3.org/1999/xlink" width="842.18625pt" height="452.673906pt" viewBox="0 0 842.18625 452.673906" xmlns="http://www.w3.org/2000/svg" version="1.1">
 <metadata>
  <rdf:RDF xmlns:dc="http://purl.org/dc/elements/1.1/" xmlns:cc="http://creativecommons.org/ns#" xmlns:rdf="http://www.w3.org/1999/02/22-rdf-syntax-ns#">
   <cc:Work>
    <dc:type rdf:resource="http://purl.org/dc/dcmitype/StillImage"/>
    <dc:date>2026-04-11T00:09:11.447724</dc:date>
    <dc:format>image/svg+xml</dc:format>
    <dc:creator>
     <cc:Agent>
      <dc:title>Matplotlib v3.10.1, https://matplotlib.org/</dc:title>
     </cc:Agent>
    </dc:creator>
   </cc:Work>
  </rdf:RDF>
 </metadata>
 <defs>
  <style type="text/css">*{stroke-linejoin: round; stroke-linecap: butt}</style>
 </defs>
 <g id="figure_1">
  <g id="patch_1">
   <path d="M 0 452.673906 
L 842.18625 452.673906 
L 842.18625 0 
L 0 0 
z
" style="fill: #ffffff"/>
  </g>
  <g id="axes_1">
   <g id="patch_2">
    <path d="M 56.50625 415.117656 
L 834.98625 415.117656 
L 834.98625 32.597656 
L 56.50625 32.597656 
z
" style="fill: #ffffff"/>
   </g>
   <g id="matplotlib.axis_1">
    <g id="xtick_1">
     <g id="line2d_1">
      <path d="M 56.50625 415.117656 
L 56.50625 32.597656 
" clip-path="url(#p91a0edb206)" style="fill: none; stroke-dasharray: 2.22,0.96; stroke-dashoffset: 0; stroke: #b0b0b0; stroke-opacity: 0.35; stroke-width: 0.6"/>
     </g>
     <g id="line2d_2">
      <defs>
       <path id="meb213d27b7" d="M 0 0 
L 0 3.5 
" style="stroke: #000000; stroke-width: 0.8"/>
      </defs>
      <g>
       <use xlink:href="#meb213d27b7" x="56.50625" y="415.117656" style="stroke: #000000; stroke-width: 0.8"/>
      </g>
     </g>
     <g id="text_1">
      <!-- 0.0 -->
      <g transform="translate(48.554688 429.716094) scale(0.1 -0.1)">
       <defs>
        <path id="DejaVuSans-30" d="M 2034 4250 
Q 1547 4250 1301 3770 
Q 1056 3291 1056 2328 
Q 1056 1369 1301 889 
Q 1547 409 2034 409 
Q 2525 409 2770 889 
Q 3016 1369 3016 2328 
Q 3016 3291 2770 3770 
Q 2525 4250 2034 4250 
z
M 2034 4750 
Q 2819 4750 3233 4129 
Q 3647 3509 3647 2328 
Q 3647 1150 3233 529 
Q 2819 -91 2034 -91 
Q 1250 -91 836 529 
Q 422 1150 422 2328 
Q 422 3509 836 4129 
Q 1250 4750 2034 4750 
z
" transform="scale(0.015625)"/>
        <path id="DejaVuSans-2e" d="M 684 794 
L 1344 794 
L 1344 0 
L 684 0 
L 684 794 
z
" transform="scale(0.015625)"/>
       </defs>
       <use xlink:href="#DejaVuSans-30"/>
       <use xlink:href="#DejaVuSans-2e" transform="translate(63.623047 0)"/>
       <use xlink:href="#DejaVuSans-30" transform="translate(95.410156 0)"/>
      </g>
     </g>
    </g>
    <g id="xtick_2">
     <g id="line2d_3">
      <path d="M 207.667415 415.117656 
L 207.667415 32.597656 
" clip-path="url(#p91a0edb206)" style="fill: none; stroke-dasharray: 2.22,0.96; stroke-dashoffset: 0; stroke: #b0b0b0; stroke-opacity: 0.35; stroke-width: 0.6"/>
     </g>
     <g id="line2d_4">
      <g>
       <use xlink:href="#meb213d27b7" x="207.667415" y="415.117656" style="stroke: #000000; stroke-width: 0.8"/>
      </g>
     </g>
     <g id="text_2">
      <!-- 0.2 -->
      <g transform="translate(199.715853 429.716094) scale(0.1 -0.1)">
       <defs>
        <path id="DejaVuSans-32" d="M 1228 531 
L 3431 531 
L 3431 0 
L 469 0 
L 469 531 
Q 828 903 1448 1529 
Q 2069 2156 2228 2338 
Q 2531 2678 2651 2914 
Q 2772 3150 2772 3378 
Q 2772 3750 2511 3984 
Q 2250 4219 1831 4219 
Q 1534 4219 1204 4116 
Q 875 4013 500 3803 
L 500 4441 
Q 881 4594 1212 4672 
Q 1544 4750 1819 4750 
Q 2544 4750 2975 4387 
Q 3406 4025 3406 3419 
Q 3406 3131 3298 2873 
Q 3191 2616 2906 2266 
Q 2828 2175 2409 1742 
Q 1991 1309 1228 531 
z
" transform="scale(0.015625)"/>
       </defs>
       <use xlink:href="#DejaVuSans-30"/>
       <use xlink:href="#DejaVuSans-2e" transform="translate(63.623047 0)"/>
       <use xlink:href="#DejaVuSans-32" transform="translate(95.410156 0)"/>
      </g>
     </g>
    </g>
    <g id="xtick_3">
     <g id="line2d_5">
      <path d="M 358.82858 415.117656 
L 358.82858 32.597656 
" clip-path="url(#p91a0edb206)" style="fill: none; stroke-dasharray: 2.22,0.96; stroke-dashoffset: 0; stroke: #b0b0b0; stroke-opacity: 0.35; stroke-width: 0.6"/>
     </g>
     <g id="line2d_6">
      <g>
       <use xlink:href="#meb213d27b7" x="358.82858" y="415.117656" style="stroke: #000000; stroke-width: 0.8"/>
      </g>
     </g>
     <g id="text_3">
      <!-- 0.4 -->
      <g transform="translate(350.877018 429.716094) scale(0.1 -0.1)">
       <defs>
        <path id="DejaVuSans-34" d="M 2419 4116 
L 825 1625 
L 2419 1625 
L 2419 4116 
z
M 2253 4666 
L 3047 4666 
L 3047 1625 
L 3713 1625 
L 3713 1100 
L 3047 1100 
L 3047 0 
L 2419 0 
L 2419 1100 
L 313 1100 
L 313 1709 
L 2253 4666 
z
" transform="scale(0.015625)"/>
       </defs>
       <use xlink:href="#DejaVuSans-30"/>
       <use xlink:href="#DejaVuSans-2e" transform="translate(63.623047 0)"/>
       <use xlink:href="#DejaVuSans-34" transform="translate(95.410156 0)"/>
      </g>
     </g>
    </g>
    <g id="xtick_4">
     <g id="line2d_7">
      <path d="M 509.989745 415.117656 
L 509.989745 32.597656 
" clip-path="url(#p91a0edb206)" style="fill: none; stroke-dasharray: 2.22,0.96; stroke-dashoffset: 0; stroke: #b0b0b0; stroke-opacity: 0.35; stroke-width: 0.6"/>
     </g>
     <g id="line2d_8">
      <g>
       <use xlink:href="#meb213d27b7" x="509.989745" y="415.117656" style="stroke: #000000; stroke-width: 0.8"/>
      </g>
     </g>
     <g id="text_4">
      <!-- 0.6 -->
      <g transform="translate(502.038183 429.716094) scale(0.1 -0.1)">
       <defs>
        <path id="DejaVuSans-36" d="M 2113 2584 
Q 1688 2584 1439 2293 
Q 1191 2003 1191 1497 
Q 1191 994 1439 701 
Q 1688 409 2113 409 
Q 2538 409 2786 701 
Q 3034 994 3034 1497 
Q 3034 2003 2786 2293 
Q 2538 2584 2113 2584 
z
M 3366 4563 
L 3366 3988 
Q 3128 4100 2886 4159 
Q 2644 4219 2406 4219 
Q 1781 4219 1451 3797 
Q 1122 3375 1075 2522 
Q 1259 2794 1537 2939 
Q 1816 3084 2150 3084 
Q 2853 3084 3261 2657 
Q 3669 2231 3669 1497 
Q 3669 778 3244 343 
Q 2819 -91 2113 -91 
Q 1303 -91 875 529 
Q 447 1150 447 2328 
Q 447 3434 972 4092 
Q 1497 4750 2381 4750 
Q 2619 4750 2861 4703 
Q 3103 4656 3366 4563 
z
" transform="scale(0.015625)"/>
       </defs>
       <use xlink:href="#DejaVuSans-30"/>
       <use xlink:href="#DejaVuSans-2e" transform="translate(63.623047 0)"/>
       <use xlink:href="#DejaVuSans-36" transform="translate(95.410156 0)"/>
      </g>
     </g>
    </g>
    <g id="xtick_5">
     <g id="line2d_9">
      <path d="M 661.15091 415.117656 
L 661.15091 32.597656 
" clip-path="url(#p91a0edb206)" style="fill: none; stroke-dasharray: 2.22,0.96; stroke-dashoffset: 0; stroke: #b0b0b0; stroke-opacity: 0.35; stroke-width: 0.6"/>
     </g>
     <g id="line2d_10">
      <g>
       <use xlink:href="#meb213d27b7" x="661.15091" y="415.117656" style="stroke: #000000; stroke-width: 0.8"/>
      </g>
     </g>
     <g id="text_5">
      <!-- 0.8 -->
      <g transform="translate(653.199348 429.716094) scale(0.1 -0.1)">
       <defs>
        <path id="DejaVuSans-38" d="M 2034 2216 
Q 1584 2216 1326 1975 
Q 1069 1734 1069 1313 
Q 1069 891 1326 650 
Q 1584 409 2034 409 
Q 2484 409 2743 651 
Q 3003 894 3003 1313 
Q 3003 1734 2745 1975 
Q 2488 2216 2034 2216 
z
M 1403 2484 
Q 997 2584 770 2862 
Q 544 3141 544 3541 
Q 544 4100 942 4425 
Q 1341 4750 2034 4750 
Q 2731 4750 3128 4425 
Q 3525 4100 3525 3541 
Q 3525 3141 3298 2862 
Q 3072 2584 2669 2484 
Q 3125 2378 3379 2068 
Q 3634 1759 3634 1313 
Q 3634 634 3220 271 
Q 2806 -91 2034 -91 
Q 1263 -91 848 271 
Q 434 634 434 1313 
Q 434 1759 690 2068 
Q 947 2378 1403 2484 
z
M 1172 3481 
Q 1172 3119 1398 2916 
Q 1625 2713 2034 2713 
Q 2441 2713 2670 2916 
Q 2900 3119 2900 3481 
Q 2900 3844 2670 4047 
Q 2441 4250 2034 4250 
Q 1625 4250 1398 4047 
Q 1172 3844 1172 3481 
z
" transform="scale(0.015625)"/>
       </defs>
       <use xlink:href="#DejaVuSans-30"/>
       <use xlink:href="#DejaVuSans-2e" transform="translate(63.623047 0)"/>
       <use xlink:href="#DejaVuSans-38" transform="translate(95.410156 0)"/>
      </g>
     </g>
    </g>
    <g id="xtick_6">
     <g id="line2d_11">
      <path d="M 812.312075 415.117656 
L 812.312075 32.597656 
" clip-path="url(#p91a0edb206)" style="fill: none; stroke-dasharray: 2.22,0.96; stroke-dashoffset: 0; stroke: #b0b0b0; stroke-opacity: 0.35; stroke-width: 0.6"/>
     </g>
     <g id="line2d_12">
      <g>
       <use xlink:href="#meb213d27b7" x="812.312075" y="415.117656" style="stroke: #000000; stroke-width: 0.8"/>
      </g>
     </g>
     <g id="text_6">
      <!-- 1.0 -->
      <g transform="translate(804.360513 429.716094) scale(0.1 -0.1)">
       <defs>
        <path id="DejaVuSans-31" d="M 794 531 
L 1825 531 
L 1825 4091 
L 703 3866 
L 703 4441 
L 1819 4666 
L 2450 4666 
L 2450 531 
L 3481 531 
L 3481 0 
L 794 0 
L 794 531 
z
" transform="scale(0.015625)"/>
       </defs>
       <use xlink:href="#DejaVuSans-31"/>
       <use xlink:href="#DejaVuSans-2e" transform="translate(63.623047 0)"/>
       <use xlink:href="#DejaVuSans-30" transform="translate(95.410156 0)"/>
      </g>
     </g>
    </g>
    <g id="text_7">
     <!-- FD Density -->
     <g transform="translate(418.422813 443.394219) scale(0.1 -0.1)">
      <defs>
       <path id="DejaVuSans-46" d="M 628 4666 
L 3309 4666 
L 3309 4134 
L 1259 4134 
L 1259 2759 
L 3109 2759 
L 3109 2228 
L 1259 2228 
L 1259 0 
L 628 0 
L 628 4666 
z
" transform="scale(0.015625)"/>
       <path id="DejaVuSans-44" d="M 1259 4147 
L 1259 519 
L 2022 519 
Q 2988 519 3436 956 
Q 3884 1394 3884 2338 
Q 3884 3275 3436 3711 
Q 2988 4147 2022 4147 
L 1259 4147 
z
M 628 4666 
L 1925 4666 
Q 3281 4666 3915 4102 
Q 4550 3538 4550 2338 
Q 4550 1131 3912 565 
Q 3275 0 1925 0 
L 628 0 
L 628 4666 
z
" transform="scale(0.015625)"/>
       <path id="DejaVuSans-20" transform="scale(0.015625)"/>
       <path id="DejaVuSans-65" d="M 3597 1894 
L 3597 1613 
L 953 1613 
Q 991 1019 1311 708 
Q 1631 397 2203 397 
Q 2534 397 2845 478 
Q 3156 559 3463 722 
L 3463 178 
Q 3153 47 2828 -22 
Q 2503 -91 2169 -91 
Q 1331 -91 842 396 
Q 353 884 353 1716 
Q 353 2575 817 3079 
Q 1281 3584 2069 3584 
Q 2775 3584 3186 3129 
Q 3597 2675 3597 1894 
z
M 3022 2063 
Q 3016 2534 2758 2815 
Q 2500 3097 2075 3097 
Q 1594 3097 1305 2825 
Q 1016 2553 972 2059 
L 3022 2063 
z
" transform="scale(0.015625)"/>
       <path id="DejaVuSans-6e" d="M 3513 2113 
L 3513 0 
L 2938 0 
L 2938 2094 
Q 2938 2591 2744 2837 
Q 2550 3084 2163 3084 
Q 1697 3084 1428 2787 
Q 1159 2491 1159 1978 
L 1159 0 
L 581 0 
L 581 3500 
L 1159 3500 
L 1159 2956 
Q 1366 3272 1645 3428 
Q 1925 3584 2291 3584 
Q 2894 3584 3203 3211 
Q 3513 2838 3513 2113 
z
" transform="scale(0.015625)"/>
       <path id="DejaVuSans-73" d="M 2834 3397 
L 2834 2853 
Q 2591 2978 2328 3040 
Q 2066 3103 1784 3103 
Q 1356 3103 1142 2972 
Q 928 2841 928 2578 
Q 928 2378 1081 2264 
Q 1234 2150 1697 2047 
L 1894 2003 
Q 2506 1872 2764 1633 
Q 3022 1394 3022 966 
Q 3022 478 2636 193 
Q 2250 -91 1575 -91 
Q 1294 -91 989 -36 
Q 684 19 347 128 
L 347 722 
Q 666 556 975 473 
Q 1284 391 1588 391 
Q 1994 391 2212 530 
Q 2431 669 2431 922 
Q 2431 1156 2273 1281 
Q 2116 1406 1581 1522 
L 1381 1569 
Q 847 1681 609 1914 
Q 372 2147 372 2553 
Q 372 3047 722 3315 
Q 1072 3584 1716 3584 
Q 2034 3584 2315 3537 
Q 2597 3491 2834 3397 
z
" transform="scale(0.015625)"/>
       <path id="DejaVuSans-69" d="M 603 3500 
L 1178 3500 
L 1178 0 
L 603 0 
L 603 3500 
z
M 603 4863 
L 1178 4863 
L 1178 4134 
L 603 4134 
L 603 4863 
z
" transform="scale(0.015625)"/>
       <path id="DejaVuSans-74" d="M 1172 4494 
L 1172 3500 
L 2356 3500 
L 2356 3053 
L 1172 3053 
L 1172 1153 
Q 1172 725 1289 603 
Q 1406 481 1766 481 
L 2356 481 
L 2356 0 
L 1766 0 
Q 1100 0 847 248 
Q 594 497 594 1153 
L 594 3053 
L 172 3053 
L 172 3500 
L 594 3500 
L 594 4494 
L 1172 4494 
z
" transform="scale(0.015625)"/>
       <path id="DejaVuSans-79" d="M 2059 -325 
Q 1816 -950 1584 -1140 
Q 1353 -1331 966 -1331 
L 506 -1331 
L 506 -850 
L 844 -850 
Q 1081 -850 1212 -737 
Q 1344 -625 1503 -206 
L 1606 56 
L 191 3500 
L 800 3500 
L 1894 763 
L 2988 3500 
L 3597 3500 
L 2059 -325 
z
" transform="scale(0.015625)"/>
      </defs>
      <use xlink:href="#DejaVuSans-46"/>
      <use xlink:href="#DejaVuSans-44" transform="translate(57.519531 0)"/>
      <use xlink:href="#DejaVuSans-20" transform="translate(134.521484 0)"/>
      <use xlink:href="#DejaVuSans-44" transform="translate(166.308594 0)"/>
      <use xlink:href="#DejaVuSans-65" transform="translate(243.310547 0)"/>
      <use xlink:href="#DejaVuSans-6e" transform="translate(304.833984 0)"/>
      <use xlink:href="#DejaVuSans-73" transform="translate(368.212891 0)"/>
      <use xlink:href="#DejaVuSans-69" transform="translate(420.3125 0)"/>
      <use xlink:href="#DejaVuSans-74" transform="translate(448.095703 0)"/>
      <use xlink:href="#DejaVuSans-79" transform="translate(487.304688 0)"/>
     </g>
    </g>
   </g>
   <g id="matplotlib.axis_2">
    <g id="ytick_1">
     <g id="line2d_13">
      <path d="M 56.50625 399.621105 
L 834.98625 399.621105 
" clip-path="url(#p91a0edb206)" style="fill: none; stroke-dasharray: 2.22,0.96; stroke-dashoffset: 0; stroke: #b0b0b0; stroke-opacity: 0.35; stroke-width: 0.6"/>
     </g>
     <g id="line2d_14">
      <defs>
       <path id="me4c49565a8" d="M 0 0 
L -3.5 0 
" style="stroke: #000000; stroke-width: 0.8"/>
      </defs>
      <g>
       <use xlink:href="#me4c49565a8" x="56.50625" y="399.621105" style="stroke: #000000; stroke-width: 0.8"/>
      </g>
     </g>
     <g id="text_8">
      <!-- 0.000 -->
      <g transform="translate(20.878125 403.420324) scale(0.1 -0.1)">
       <use xlink:href="#DejaVuSans-30"/>
       <use xlink:href="#DejaVuSans-2e" transform="translate(63.623047 0)"/>
       <use xlink:href="#DejaVuSans-30" transform="translate(95.410156 0)"/>
       <use xlink:href="#DejaVuSans-30" transform="translate(159.033203 0)"/>
       <use xlink:href="#DejaVuSans-30" transform="translate(222.65625 0)"/>
      </g>
     </g>
    </g>
    <g id="ytick_2">
     <g id="line2d_15">
      <path d="M 56.50625 350.676612 
L 834.98625 350.676612 
" clip-path="url(#p91a0edb206)" style="fill: none; stroke-dasharray: 2.22,0.96; stroke-dashoffset: 0; stroke: #b0b0b0; stroke-opacity: 0.35; stroke-width: 0.6"/>
     </g>
     <g id="line2d_16">
      <g>
       <use xlink:href="#me4c49565a8" x="56.50625" y="350.676612" style="stroke: #000000; stroke-width: 0.8"/>
      </g>
     </g>
     <g id="text_9">
      <!-- 0.025 -->
      <g transform="translate(20.878125 354.475831) scale(0.1 -0.1)">
       <defs>
        <path id="DejaVuSans-35" d="M 691 4666 
L 3169 4666 
L 3169 4134 
L 1269 4134 
L 1269 2991 
Q 1406 3038 1543 3061 
Q 1681 3084 1819 3084 
Q 2600 3084 3056 2656 
Q 3513 2228 3513 1497 
Q 3513 744 3044 326 
Q 2575 -91 1722 -91 
Q 1428 -91 1123 -41 
Q 819 9 494 109 
L 494 744 
Q 775 591 1075 516 
Q 1375 441 1709 441 
Q 2250 441 2565 725 
Q 2881 1009 2881 1497 
Q 2881 1984 2565 2268 
Q 2250 2553 1709 2553 
Q 1456 2553 1204 2497 
Q 953 2441 691 2322 
L 691 4666 
z
" transform="scale(0.015625)"/>
       </defs>
       <use xlink:href="#DejaVuSans-30"/>
       <use xlink:href="#DejaVuSans-2e" transform="translate(63.623047 0)"/>
       <use xlink:href="#DejaVuSans-30" transform="translate(95.410156 0)"/>
       <use xlink:href="#DejaVuSans-32" transform="translate(159.033203 0)"/>
       <use xlink:href="#DejaVuSans-35" transform="translate(222.65625 0)"/>
      </g>
     </g>
    </g>
    <g id="ytick_3">
     <g id="line2d_17">
      <path d="M 56.50625 301.732119 
L 834.98625 301.732119 
" clip-path="url(#p91a0edb206)" style="fill: none; stroke-dasharray: 2.22,0.96; stroke-dashoffset: 0; stroke: #b0b0b0; stroke-opacity: 0.35; stroke-width: 0.6"/>
     </g>
     <g id="line2d_18">
      <g>
       <use xlink:href="#me4c49565a8" x="56.50625" y="301.732119" style="stroke: #000000; stroke-width: 0.8"/>
      </g>
     </g>
     <g id="text_10">
      <!-- 0.050 -->
      <g transform="translate(20.878125 305.531338) scale(0.1 -0.1)">
       <use xlink:href="#DejaVuSans-30"/>
       <use xlink:href="#DejaVuSans-2e" transform="translate(63.623047 0)"/>
       <use xlink:href="#DejaVuSans-30" transform="translate(95.410156 0)"/>
       <use xlink:href="#DejaVuSans-35" transform="translate(159.033203 0)"/>
       <use xlink:href="#DejaVuSans-30" transform="translate(222.65625 0)"/>
      </g>
     </g>
    </g>
    <g id="ytick_4">
     <g id="line2d_19">
      <path d="M 56.50625 252.787626 
L 834.98625 252.787626 
" clip-path="url(#p91a0edb206)" style="fill: none; stroke-dasharray: 2.22,0.96; stroke-dashoffset: 0; stroke: #b0b0b0; stroke-opacity: 0.35; stroke-width: 0.6"/>
     </g>
     <g id="line2d_20">
      <g>
       <use xlink:href="#me4c49565a8" x="56.50625" y="252.787626" style="stroke: #000000; stroke-width: 0.8"/>
      </g>
     </g>
     <g id="text_11">
      <!-- 0.075 -->
      <g transform="translate(20.878125 256.586844) scale(0.1 -0.1)">
       <defs>
        <path id="DejaVuSans-37" d="M 525 4666 
L 3525 4666 
L 3525 4397 
L 1831 0 
L 1172 0 
L 2766 4134 
L 525 4134 
L 525 4666 
z
" transform="scale(0.015625)"/>
       </defs>
       <use xlink:href="#DejaVuSans-30"/>
       <use xlink:href="#DejaVuSans-2e" transform="translate(63.623047 0)"/>
       <use xlink:href="#DejaVuSans-30" transform="translate(95.410156 0)"/>
       <use xlink:href="#DejaVuSans-37" transform="translate(159.033203 0)"/>
       <use xlink:href="#DejaVuSans-35" transform="translate(222.65625 0)"/>
      </g>
     </g>
    </g>
    <g id="ytick_5">
     <g id="line2d_21">
      <path d="M 56.50625 203.843132 
L 834.98625 203.843132 
" clip-path="url(#p91a0edb206)" style="fill: none; stroke-dasharray: 2.22,0.96; stroke-dashoffset: 0; stroke: #b0b0b0; stroke-opacity: 0.35; stroke-width: 0.6"/>
     </g>
     <g id="line2d_22">
      <g>
       <use xlink:href="#me4c49565a8" x="56.50625" y="203.843132" style="stroke: #000000; stroke-width: 0.8"/>
      </g>
     </g>
     <g id="text_12">
      <!-- 0.100 -->
      <g transform="translate(20.878125 207.642351) scale(0.1 -0.1)">
       <use xlink:href="#DejaVuSans-30"/>
       <use xlink:href="#DejaVuSans-2e" transform="translate(63.623047 0)"/>
       <use xlink:href="#DejaVuSans-31" transform="translate(95.410156 0)"/>
       <use xlink:href="#DejaVuSans-30" transform="translate(159.033203 0)"/>
       <use xlink:href="#DejaVuSans-30" transform="translate(222.65625 0)"/>
      </g>
     </g>
    </g>
    <g id="ytick_6">
     <g id="line2d_23">
      <path d="M 56.50625 154.898639 
L 834.98625 154.898639 
" clip-path="url(#p91a0edb206)" style="fill: none; stroke-dasharray: 2.22,0.96; stroke-dashoffset: 0; stroke: #b0b0b0; stroke-opacity: 0.35; stroke-width: 0.6"/>
     </g>
     <g id="line2d_24">
      <g>
       <use xlink:href="#me4c49565a8" x="56.50625" y="154.898639" style="stroke: #000000; stroke-width: 0.8"/>
      </g>
     </g>
     <g id="text_13">
      <!-- 0.125 -->
      <g transform="translate(20.878125 158.697858) scale(0.1 -0.1)">
       <use xlink:href="#DejaVuSans-30"/>
       <use xlink:href="#DejaVuSans-2e" transform="translate(63.623047 0)"/>
       <use xlink:href="#DejaVuSans-31" transform="translate(95.410156 0)"/>
       <use xlink:href="#DejaVuSans-32" transform="translate(159.033203 0)"/>
       <use xlink:href="#DejaVuSans-35" transform="translate(222.65625 0)"/>
      </g>
     </g>
    </g>
    <g id="ytick_7">
     <g id="line2d_25">
      <path d="M 56.50625 105.954146 
L 834.98625 105.954146 
" clip-path="url(#p91a0edb206)" style="fill: none; stroke-dasharray: 2.22,0.96; stroke-dashoffset: 0; stroke: #b0b0b0; stroke-opacity: 0.35; stroke-width: 0.6"/>
     </g>
     <g id="line2d_26">
      <g>
       <use xlink:href="#me4c49565a8" x="56.50625" y="105.954146" style="stroke: #000000; stroke-width: 0.8"/>
      </g>
     </g>
     <g id="text_14">
      <!-- 0.150 -->
      <g transform="translate(20.878125 109.753364) scale(0.1 -0.1)">
       <use xlink:href="#DejaVuSans-30"/>
       <use xlink:href="#DejaVuSans-2e" transform="translate(63.623047 0)"/>
       <use xlink:href="#DejaVuSans-31" transform="translate(95.410156 0)"/>
       <use xlink:href="#DejaVuSans-35" transform="translate(159.033203 0)"/>
       <use xlink:href="#DejaVuSans-30" transform="translate(222.65625 0)"/>
      </g>
     </g>
    </g>
    <g id="ytick_8">
     <g id="line2d_27">
      <path d="M 56.50625 57.009652 
L 834.98625 57.009652 
" clip-path="url(#p91a0edb206)" style="fill: none; stroke-dasharray: 2.22,0.96; stroke-dashoffset: 0; stroke: #b0b0b0; stroke-opacity: 0.35; stroke-width: 0.6"/>
     </g>
     <g id="line2d_28">
      <g>
       <use xlink:href="#me4c49565a8" x="56.50625" y="57.009652" style="stroke: #000000; stroke-width: 0.8"/>
      </g>
     </g>
     <g id="text_15">
      <!-- 0.175 -->
      <g transform="translate(20.878125 60.808871) scale(0.1 -0.1)">
       <use xlink:href="#DejaVuSans-30"/>
       <use xlink:href="#DejaVuSans-2e" transform="translate(63.623047 0)"/>
       <use xlink:href="#DejaVuSans-31" transform="translate(95.410156 0)"/>
       <use xlink:href="#DejaVuSans-37" transform="translate(159.033203 0)"/>
       <use xlink:href="#DejaVuSans-35" transform="translate(222.65625 0)"/>
      </g>
     </g>
    </g>
    <g id="text_16">
     <!-- Reduction Ratio -->
     <g transform="translate(14.798438 263.276406) rotate(-90) scale(0.1 -0.1)">
      <defs>
       <path id="DejaVuSans-52" d="M 2841 2188 
Q 3044 2119 3236 1894 
Q 3428 1669 3622 1275 
L 4263 0 
L 3584 0 
L 2988 1197 
Q 2756 1666 2539 1819 
Q 2322 1972 1947 1972 
L 1259 1972 
L 1259 0 
L 628 0 
L 628 4666 
L 2053 4666 
Q 2853 4666 3247 4331 
Q 3641 3997 3641 3322 
Q 3641 2881 3436 2590 
Q 3231 2300 2841 2188 
z
M 1259 4147 
L 1259 2491 
L 2053 2491 
Q 2509 2491 2742 2702 
Q 2975 2913 2975 3322 
Q 2975 3731 2742 3939 
Q 2509 4147 2053 4147 
L 1259 4147 
z
" transform="scale(0.015625)"/>
       <path id="DejaVuSans-64" d="M 2906 2969 
L 2906 4863 
L 3481 4863 
L 3481 0 
L 2906 0 
L 2906 525 
Q 2725 213 2448 61 
Q 2172 -91 1784 -91 
Q 1150 -91 751 415 
Q 353 922 353 1747 
Q 353 2572 751 3078 
Q 1150 3584 1784 3584 
Q 2172 3584 2448 3432 
Q 2725 3281 2906 2969 
z
M 947 1747 
Q 947 1113 1208 752 
Q 1469 391 1925 391 
Q 2381 391 2643 752 
Q 2906 1113 2906 1747 
Q 2906 2381 2643 2742 
Q 2381 3103 1925 3103 
Q 1469 3103 1208 2742 
Q 947 2381 947 1747 
z
" transform="scale(0.015625)"/>
       <path id="DejaVuSans-75" d="M 544 1381 
L 544 3500 
L 1119 3500 
L 1119 1403 
Q 1119 906 1312 657 
Q 1506 409 1894 409 
Q 2359 409 2629 706 
Q 2900 1003 2900 1516 
L 2900 3500 
L 3475 3500 
L 3475 0 
L 2900 0 
L 2900 538 
Q 2691 219 2414 64 
Q 2138 -91 1772 -91 
Q 1169 -91 856 284 
Q 544 659 544 1381 
z
M 1991 3584 
L 1991 3584 
z
" transform="scale(0.015625)"/>
       <path id="DejaVuSans-63" d="M 3122 3366 
L 3122 2828 
Q 2878 2963 2633 3030 
Q 2388 3097 2138 3097 
Q 1578 3097 1268 2742 
Q 959 2388 959 1747 
Q 959 1106 1268 751 
Q 1578 397 2138 397 
Q 2388 397 2633 464 
Q 2878 531 3122 666 
L 3122 134 
Q 2881 22 2623 -34 
Q 2366 -91 2075 -91 
Q 1284 -91 818 406 
Q 353 903 353 1747 
Q 353 2603 823 3093 
Q 1294 3584 2113 3584 
Q 2378 3584 2631 3529 
Q 2884 3475 3122 3366 
z
" transform="scale(0.015625)"/>
       <path id="DejaVuSans-6f" d="M 1959 3097 
Q 1497 3097 1228 2736 
Q 959 2375 959 1747 
Q 959 1119 1226 758 
Q 1494 397 1959 397 
Q 2419 397 2687 759 
Q 2956 1122 2956 1747 
Q 2956 2369 2687 2733 
Q 2419 3097 1959 3097 
z
M 1959 3584 
Q 2709 3584 3137 3096 
Q 3566 2609 3566 1747 
Q 3566 888 3137 398 
Q 2709 -91 1959 -91 
Q 1206 -91 779 398 
Q 353 888 353 1747 
Q 353 2609 779 3096 
Q 1206 3584 1959 3584 
z
" transform="scale(0.015625)"/>
       <path id="DejaVuSans-61" d="M 2194 1759 
Q 1497 1759 1228 1600 
Q 959 1441 959 1056 
Q 959 750 1161 570 
Q 1363 391 1709 391 
Q 2188 391 2477 730 
Q 2766 1069 2766 1631 
L 2766 1759 
L 2194 1759 
z
M 3341 1997 
L 3341 0 
L 2766 0 
L 2766 531 
Q 2569 213 2275 61 
Q 1981 -91 1556 -91 
Q 1019 -91 701 211 
Q 384 513 384 1019 
Q 384 1609 779 1909 
Q 1175 2209 1959 2209 
L 2766 2209 
L 2766 2266 
Q 2766 2663 2505 2880 
Q 2244 3097 1772 3097 
Q 1472 3097 1187 3025 
Q 903 2953 641 2809 
L 641 3341 
Q 956 3463 1253 3523 
Q 1550 3584 1831 3584 
Q 2591 3584 2966 3190 
Q 3341 2797 3341 1997 
z
" transform="scale(0.015625)"/>
      </defs>
      <use xlink:href="#DejaVuSans-52"/>
      <use xlink:href="#DejaVuSans-65" transform="translate(64.982422 0)"/>
      <use xlink:href="#DejaVuSans-64" transform="translate(126.505859 0)"/>
      <use xlink:href="#DejaVuSans-75" transform="translate(189.982422 0)"/>
      <use xlink:href="#DejaVuSans-63" transform="translate(253.361328 0)"/>
      <use xlink:href="#DejaVuSans-74" transform="translate(308.341797 0)"/>
      <use xlink:href="#DejaVuSans-69" transform="translate(347.550781 0)"/>
      <use xlink:href="#DejaVuSans-6f" transform="translate(375.333984 0)"/>
      <use xlink:href="#DejaVuSans-6e" transform="translate(436.515625 0)"/>
      <use xlink:href="#DejaVuSans-20" transform="translate(499.894531 0)"/>
      <use xlink:href="#DejaVuSans-52" transform="translate(531.681641 0)"/>
      <use xlink:href="#DejaVuSans-61" transform="translate(598.914062 0)"/>
      <use xlink:href="#DejaVuSans-74" transform="translate(660.193359 0)"/>
      <use xlink:href="#DejaVuSans-69" transform="translate(699.402344 0)"/>
      <use xlink:href="#DejaVuSans-6f" transform="translate(727.185547 0)"/>
     </g>
    </g>
   </g>
   <g id="line2d_29">
    <path d="M 83.499315 334.716023 
L 137.485446 233.116624 
L 164.478511 196.652976 
L 218.464641 145.687775 
L 245.457706 128.508258 
L 272.450771 115.500629 
L 326.436902 97.799084 
L 353.429967 91.48056 
L 407.416097 82.167122 
L 434.409163 79.050966 
L 461.402228 75.496687 
L 488.395293 71.261799 
L 515.388358 69.949667 
L 542.381423 67.25772 
L 596.367554 93.321782 
L 623.360619 59.449885 
L 650.353684 57.17047 
L 704.339814 51.22721 
L 731.33288 51.784268 
L 785.31901 49.984929 
L 812.312075 50.017582 
" clip-path="url(#p91a0edb206)" style="fill: none; stroke: #e41a1c; stroke-width: 2; stroke-linecap: square"/>
    <defs>
     <path id="mb3340880be" d="M 0 2 
C 0.530406 2 1.03916 1.789267 1.414214 1.414214 
C 1.789267 1.03916 2 0.530406 2 0 
C 2 -0.530406 1.789267 -1.03916 1.414214 -1.414214 
C 1.03916 -1.789267 0.530406 -2 0 -2 
C -0.530406 -2 -1.03916 -1.789267 -1.414214 -1.414214 
C -1.789267 -1.03916 -2 -0.530406 -2 0 
C -2 0.530406 -1.789267 1.03916 -1.414214 1.414214 
C -1.03916 1.789267 -0.530406 2 0 2 
z
" style="stroke: #e41a1c"/>
    </defs>
    <g clip-path="url(#p91a0edb206)">
     <use xlink:href="#mb3340880be" x="83.499315" y="334.716023" style="fill: #e41a1c; stroke: #e41a1c"/>
     <use xlink:href="#mb3340880be" x="137.485446" y="233.116624" style="fill: #e41a1c; stroke: #e41a1c"/>
     <use xlink:href="#mb3340880be" x="164.478511" y="196.652976" style="fill: #e41a1c; stroke: #e41a1c"/>
     <use xlink:href="#mb3340880be" x="218.464641" y="145.687775" style="fill: #e41a1c; stroke: #e41a1c"/>
     <use xlink:href="#mb3340880be" x="245.457706" y="128.508258" style="fill: #e41a1c; stroke: #e41a1c"/>
     <use xlink:href="#mb3340880be" x="272.450771" y="115.500629" style="fill: #e41a1c; stroke: #e41a1c"/>
     <use xlink:href="#mb3340880be" x="326.436902" y="97.799084" style="fill: #e41a1c; stroke: #e41a1c"/>
     <use xlink:href="#mb3340880be" x="353.429967" y="91.48056" style="fill: #e41a1c; stroke: #e41a1c"/>
     <use xlink:href="#mb3340880be" x="407.416097" y="82.167122" style="fill: #e41a1c; stroke: #e41a1c"/>
     <use xlink:href="#mb3340880be" x="434.409163" y="79.050966" style="fill: #e41a1c; stroke: #e41a1c"/>
     <use xlink:href="#mb3340880be" x="461.402228" y="75.496687" style="fill: #e41a1c; stroke: #e41a1c"/>
     <use xlink:href="#mb3340880be" x="488.395293" y="71.261799" style="fill: #e41a1c; stroke: #e41a1c"/>
     <use xlink:href="#mb3340880be" x="515.388358" y="69.949667" style="fill: #e41a1c; stroke: #e41a1c"/>
     <use xlink:href="#mb3340880be" x="542.381423" y="67.25772" style="fill: #e41a1c; stroke: #e41a1c"/>
     <use xlink:href="#mb3340880be" x="596.367554" y="93.321782" style="fill: #e41a1c; stroke: #e41a1c"/>
     <use xlink:href="#mb3340880be" x="623.360619" y="59.449885" style="fill: #e41a1c; stroke: #e41a1c"/>
     <use xlink:href="#mb3340880be" x="650.353684" y="57.17047" style="fill: #e41a1c; stroke: #e41a1c"/>
     <use xlink:href="#mb3340880be" x="704.339814" y="51.22721" style="fill: #e41a1c; stroke: #e41a1c"/>
     <use xlink:href="#mb3340880be" x="731.33288" y="51.784268" style="fill: #e41a1c; stroke: #e41a1c"/>
     <use xlink:href="#mb3340880be" x="785.31901" y="49.984929" style="fill: #e41a1c; stroke: #e41a1c"/>
     <use xlink:href="#mb3340880be" x="812.312075" y="50.017582" style="fill: #e41a1c; stroke: #e41a1c"/>
    </g>
   </g>
   <g id="line2d_30">
    <path d="M 66.583661 374.630256 
L 96.815894 316.149209 
L 137.125538 273.39652 
L 167.357771 258.798453 
L 207.667415 250.254702 
L 247.977059 248.483121 
L 258.05447 249.346293 
L 288.286703 247.929721 
L 318.518936 247.767878 
L 358.82858 243.047463 
L 399.138224 247.847938 
L 439.447868 248.197728 
L 469.680101 248.501393 
L 509.989745 248.985174 
L 550.299389 249.291475 
L 590.609033 249.162679 
L 620.841266 248.737188 
L 661.15091 250.694759 
L 701.460554 246.81162 
L 741.770198 245.405491 
L 772.002431 244.401359 
L 812.312075 242.998727 
" clip-path="url(#p91a0edb206)" style="fill: none; stroke: #4daf4a; stroke-width: 2; stroke-linecap: square"/>
    <defs>
     <path id="meac8690713" d="M 0 2 
C 0.530406 2 1.03916 1.789267 1.414214 1.414214 
C 1.789267 1.03916 2 0.530406 2 0 
C 2 -0.530406 1.789267 -1.03916 1.414214 -1.414214 
C 1.03916 -1.789267 0.530406 -2 0 -2 
C -0.530406 -2 -1.03916 -1.789267 -1.414214 -1.414214 
C -1.789267 -1.03916 -2 -0.530406 -2 0 
C -2 0.530406 -1.789267 1.03916 -1.414214 1.414214 
C -1.03916 1.789267 -0.530406 2 0 2 
z
" style="stroke: #4daf4a"/>
    </defs>
    <g clip-path="url(#p91a0edb206)">
     <use xlink:href="#meac8690713" x="66.583661" y="374.630256" style="fill: #4daf4a; stroke: #4daf4a"/>
     <use xlink:href="#meac8690713" x="96.815894" y="316.149209" style="fill: #4daf4a; stroke: #4daf4a"/>
     <use xlink:href="#meac8690713" x="137.125538" y="273.39652" style="fill: #4daf4a; stroke: #4daf4a"/>
     <use xlink:href="#meac8690713" x="167.357771" y="258.798453" style="fill: #4daf4a; stroke: #4daf4a"/>
     <use xlink:href="#meac8690713" x="207.667415" y="250.254702" style="fill: #4daf4a; stroke: #4daf4a"/>
     <use xlink:href="#meac8690713" x="247.977059" y="248.483121" style="fill: #4daf4a; stroke: #4daf4a"/>
     <use xlink:href="#meac8690713" x="258.05447" y="249.346293" style="fill: #4daf4a; stroke: #4daf4a"/>
     <use xlink:href="#meac8690713" x="288.286703" y="247.929721" style="fill: #4daf4a; stroke: #4daf4a"/>
     <use xlink:href="#meac8690713" x="318.518936" y="247.767878" style="fill: #4daf4a; stroke: #4daf4a"/>
     <use xlink:href="#meac8690713" x="358.82858" y="243.047463" style="fill: #4daf4a; stroke: #4daf4a"/>
     <use xlink:href="#meac8690713" x="399.138224" y="247.847938" style="fill: #4daf4a; stroke: #4daf4a"/>
     <use xlink:href="#meac8690713" x="439.447868" y="248.197728" style="fill: #4daf4a; stroke: #4daf4a"/>
     <use xlink:href="#meac8690713" x="469.680101" y="248.501393" style="fill: #4daf4a; stroke: #4daf4a"/>
     <use xlink:href="#meac8690713" x="509.989745" y="248.985174" style="fill: #4daf4a; stroke: #4daf4a"/>
     <use xlink:href="#meac8690713" x="550.299389" y="249.291475" style="fill: #4daf4a; stroke: #4daf4a"/>
     <use xlink:href="#meac8690713" x="590.609033" y="249.162679" style="fill: #4daf4a; stroke: #4daf4a"/>
     <use xlink:href="#meac8690713" x="620.841266" y="248.737188" style="fill: #4daf4a; stroke: #4daf4a"/>
     <use xlink:href="#meac8690713" x="661.15091" y="250.694759" style="fill: #4daf4a; stroke: #4daf4a"/>
     <use xlink:href="#meac8690713" x="701.460554" y="246.81162" style="fill: #4daf4a; stroke: #4daf4a"/>
     <use xlink:href="#meac8690713" x="741.770198" y="245.405491" style="fill: #4daf4a; stroke: #4daf4a"/>
     <use xlink:href="#meac8690713" x="772.002431" y="244.401359" style="fill: #4daf4a; stroke: #4daf4a"/>
     <use xlink:href="#meac8690713" x="812.312075" y="242.998727" style="fill: #4daf4a; stroke: #4daf4a"/>
    </g>
   </g>
   <g id="line2d_31">
    <path d="M 60.569722 389.500995 
L 93.0775 336.347275 
L 109.331388 325.926834 
L 113.394861 324.197115 
L 117.458333 322.883508 
L 121.521805 321.92988 
L 125.585277 321.077298 
L 129.648749 320.566455 
L 133.712221 320.174193 
L 137.775694 320.066126 
L 141.839166 319.756671 
L 145.902638 319.719483 
L 149.96611 319.679486 
L 154.029582 319.626857 
L 158.093054 319.807899 
L 162.156527 320.077357 
L 166.219999 320.213844 
L 170.283471 320.334363 
L 174.346943 320.501543 
L 178.410415 320.906077 
L 182.473888 321.242552 
L 186.53736 321.276939 
L 190.600832 321.653054 
L 194.664304 321.977245 
L 198.727776 322.219684 
L 202.791248 322.404241 
L 206.854721 322.324593 
L 210.918193 322.912633 
L 214.981665 323.129809 
L 219.045137 323.316114 
L 223.108609 323.475757 
L 227.172082 323.59434 
L 231.235554 323.824158 
L 235.299026 324.042387 
L 239.362498 324.250091 
L 243.42597 322.779482 
L 247.489442 324.488329 
L 251.552915 324.631826 
L 255.616387 324.660951 
L 259.679859 324.9062 
L 263.743331 324.906547 
L 267.806803 324.976017 
L 271.870275 325.158111 
L 275.933748 325.162669 
L 279.99722 325.228286 
L 284.060692 322.790534 
L 288.124164 325.299861 
L 292.187636 325.319502 
L 296.251109 325.225823 
L 300.314581 325.060012 
L 304.378053 325.28723 
L 308.441525 325.26021 
L 312.504997 325.234244 
L 316.568469 325.251443 
L 320.631942 322.357044 
L 324.695414 325.098462 
L 328.758886 325.068295 
L 332.822358 325.034255 
L 336.88583 325.060927 
L 340.949303 325.027245 
L 345.012775 324.878475 
L 349.076247 324.901989 
L 353.139719 324.952513 
L 357.203191 323.410382 
L 361.266663 324.939524 
L 365.330136 325.06759 
L 369.393608 325.065485 
L 373.45708 325.128292 
L 377.520552 325.202666 
L 381.584024 325.316344 
L 385.647496 325.40336 
L 389.710969 325.492123 
L 393.774441 325.550014 
L 397.837913 325.366973 
L 401.901385 325.718078 
L 405.964857 325.752466 
L 410.02833 325.766496 
L 414.091802 325.808947 
L 418.155274 325.851407 
L 422.218746 325.881932 
L 426.282218 325.931403 
L 430.34569 325.847197 
L 434.409163 324.763745 
L 438.472635 325.911404 
L 442.536107 325.794916 
L 446.599579 325.754571 
L 450.663051 325.795263 
L 454.726524 325.735972 
L 458.789996 325.613169 
L 462.853468 325.567908 
L 466.91694 325.431779 
L 470.980412 324.186589 
L 475.043884 325.171089 
L 479.107357 325.111093 
L 483.170829 324.916725 
L 487.234301 324.875675 
L 491.297773 324.665509 
L 495.361245 324.527969 
L 499.424717 324.552178 
L 503.48819 324.369736 
L 507.551662 324.326581 
L 511.615134 324.285383 
L 515.678606 324.131508 
L 519.742078 324.004147 
L 523.805551 323.991864 
L 527.869023 323.918184 
L 531.932495 323.828716 
L 535.995967 323.745215 
L 540.059439 323.691176 
L 544.122911 323.682756 
L 548.186384 324.265269 
L 584.757633 323.800822 
L 625.392355 323.03692 
L 661.963605 324.531832 
L 698.534854 321.473907 
L 735.106104 314.038554 
L 775.740826 321.620845 
L 812.312075 325.941223 
" clip-path="url(#p91a0edb206)" style="fill: none; stroke: #ff7f00; stroke-width: 2; stroke-linecap: square"/>
    <defs>
     <path id="mbf96450f17" d="M 0 2 
C 0.530406 2 1.03916 1.789267 1.414214 1.414214 
C 1.789267 1.03916 2 0.530406 2 0 
C 2 -0.530406 1.789267 -1.03916 1.414214 -1.414214 
C 1.03916 -1.789267 0.530406 -2 0 -2 
C -0.530406 -2 -1.03916 -1.789267 -1.414214 -1.414214 
C -1.789267 -1.03916 -2 -0.530406 -2 0 
C -2 0.530406 -1.789267 1.03916 -1.414214 1.414214 
C -1.03916 1.789267 -0.530406 2 0 2 
z
" style="stroke: #ff7f00"/>
    </defs>
    <g clip-path="url(#p91a0edb206)">
     <use xlink:href="#mbf96450f17" x="60.569722" y="389.500995" style="fill: #ff7f00; stroke: #ff7f00"/>
     <use xlink:href="#mbf96450f17" x="93.0775" y="336.347275" style="fill: #ff7f00; stroke: #ff7f00"/>
     <use xlink:href="#mbf96450f17" x="109.331388" y="325.926834" style="fill: #ff7f00; stroke: #ff7f00"/>
     <use xlink:href="#mbf96450f17" x="113.394861" y="324.197115" style="fill: #ff7f00; stroke: #ff7f00"/>
     <use xlink:href="#mbf96450f17" x="117.458333" y="322.883508" style="fill: #ff7f00; stroke: #ff7f00"/>
     <use xlink:href="#mbf96450f17" x="121.521805" y="321.92988" style="fill: #ff7f00; stroke: #ff7f00"/>
     <use xlink:href="#mbf96450f17" x="125.585277" y="321.077298" style="fill: #ff7f00; stroke: #ff7f00"/>
     <use xlink:href="#mbf96450f17" x="129.648749" y="320.566455" style="fill: #ff7f00; stroke: #ff7f00"/>
     <use xlink:href="#mbf96450f17" x="133.712221" y="320.174193" style="fill: #ff7f00; stroke: #ff7f00"/>
     <use xlink:href="#mbf96450f17" x="137.775694" y="320.066126" style="fill: #ff7f00; stroke: #ff7f00"/>
     <use xlink:href="#mbf96450f17" x="141.839166" y="319.756671" style="fill: #ff7f00; stroke: #ff7f00"/>
     <use xlink:href="#mbf96450f17" x="145.902638" y="319.719483" style="fill: #ff7f00; stroke: #ff7f00"/>
     <use xlink:href="#mbf96450f17" x="149.96611" y="319.679486" style="fill: #ff7f00; stroke: #ff7f00"/>
     <use xlink:href="#mbf96450f17" x="154.029582" y="319.626857" style="fill: #ff7f00; stroke: #ff7f00"/>
     <use xlink:href="#mbf96450f17" x="158.093054" y="319.807899" style="fill: #ff7f00; stroke: #ff7f00"/>
     <use xlink:href="#mbf96450f17" x="162.156527" y="320.077357" style="fill: #ff7f00; stroke: #ff7f00"/>
     <use xlink:href="#mbf96450f17" x="166.219999" y="320.213844" style="fill: #ff7f00; stroke: #ff7f00"/>
     <use xlink:href="#mbf96450f17" x="170.283471" y="320.334363" style="fill: #ff7f00; stroke: #ff7f00"/>
     <use xlink:href="#mbf96450f17" x="174.346943" y="320.501543" style="fill: #ff7f00; stroke: #ff7f00"/>
     <use xlink:href="#mbf96450f17" x="178.410415" y="320.906077" style="fill: #ff7f00; stroke: #ff7f00"/>
     <use xlink:href="#mbf96450f17" x="182.473888" y="321.242552" style="fill: #ff7f00; stroke: #ff7f00"/>
     <use xlink:href="#mbf96450f17" x="186.53736" y="321.276939" style="fill: #ff7f00; stroke: #ff7f00"/>
     <use xlink:href="#mbf96450f17" x="190.600832" y="321.653054" style="fill: #ff7f00; stroke: #ff7f00"/>
     <use xlink:href="#mbf96450f17" x="194.664304" y="321.977245" style="fill: #ff7f00; stroke: #ff7f00"/>
     <use xlink:href="#mbf96450f17" x="198.727776" y="322.219684" style="fill: #ff7f00; stroke: #ff7f00"/>
     <use xlink:href="#mbf96450f17" x="202.791248" y="322.404241" style="fill: #ff7f00; stroke: #ff7f00"/>
     <use xlink:href="#mbf96450f17" x="206.854721" y="322.324593" style="fill: #ff7f00; stroke: #ff7f00"/>
     <use xlink:href="#mbf96450f17" x="210.918193" y="322.912633" style="fill: #ff7f00; stroke: #ff7f00"/>
     <use xlink:href="#mbf96450f17" x="214.981665" y="323.129809" style="fill: #ff7f00; stroke: #ff7f00"/>
     <use xlink:href="#mbf96450f17" x="219.045137" y="323.316114" style="fill: #ff7f00; stroke: #ff7f00"/>
     <use xlink:href="#mbf96450f17" x="223.108609" y="323.475757" style="fill: #ff7f00; stroke: #ff7f00"/>
     <use xlink:href="#mbf96450f17" x="227.172082" y="323.59434" style="fill: #ff7f00; stroke: #ff7f00"/>
     <use xlink:href="#mbf96450f17" x="231.235554" y="323.824158" style="fill: #ff7f00; stroke: #ff7f00"/>
     <use xlink:href="#mbf96450f17" x="235.299026" y="324.042387" style="fill: #ff7f00; stroke: #ff7f00"/>
     <use xlink:href="#mbf96450f17" x="239.362498" y="324.250091" style="fill: #ff7f00; stroke: #ff7f00"/>
     <use xlink:href="#mbf96450f17" x="243.42597" y="322.779482" style="fill: #ff7f00; stroke: #ff7f00"/>
     <use xlink:href="#mbf96450f17" x="247.489442" y="324.488329" style="fill: #ff7f00; stroke: #ff7f00"/>
     <use xlink:href="#mbf96450f17" x="251.552915" y="324.631826" style="fill: #ff7f00; stroke: #ff7f00"/>
     <use xlink:href="#mbf96450f17" x="255.616387" y="324.660951" style="fill: #ff7f00; stroke: #ff7f00"/>
     <use xlink:href="#mbf96450f17" x="259.679859" y="324.9062" style="fill: #ff7f00; stroke: #ff7f00"/>
     <use xlink:href="#mbf96450f17" x="263.743331" y="324.906547" style="fill: #ff7f00; stroke: #ff7f00"/>
     <use xlink:href="#mbf96450f17" x="267.806803" y="324.976017" style="fill: #ff7f00; stroke: #ff7f00"/>
     <use xlink:href="#mbf96450f17" x="271.870275" y="325.158111" style="fill: #ff7f00; stroke: #ff7f00"/>
     <use xlink:href="#mbf96450f17" x="275.933748" y="325.162669" style="fill: #ff7f00; stroke: #ff7f00"/>
     <use xlink:href="#mbf96450f17" x="279.99722" y="325.228286" style="fill: #ff7f00; stroke: #ff7f00"/>
     <use xlink:href="#mbf96450f17" x="284.060692" y="322.790534" style="fill: #ff7f00; stroke: #ff7f00"/>
     <use xlink:href="#mbf96450f17" x="288.124164" y="325.299861" style="fill: #ff7f00; stroke: #ff7f00"/>
     <use xlink:href="#mbf96450f17" x="292.187636" y="325.319502" style="fill: #ff7f00; stroke: #ff7f00"/>
     <use xlink:href="#mbf96450f17" x="296.251109" y="325.225823" style="fill: #ff7f00; stroke: #ff7f00"/>
     <use xlink:href="#mbf96450f17" x="300.314581" y="325.060012" style="fill: #ff7f00; stroke: #ff7f00"/>
     <use xlink:href="#mbf96450f17" x="304.378053" y="325.28723" style="fill: #ff7f00; stroke: #ff7f00"/>
     <use xlink:href="#mbf96450f17" x="308.441525" y="325.26021" style="fill: #ff7f00; stroke: #ff7f00"/>
     <use xlink:href="#mbf96450f17" x="312.504997" y="325.234244" style="fill: #ff7f00; stroke: #ff7f00"/>
     <use xlink:href="#mbf96450f17" x="316.568469" y="325.251443" style="fill: #ff7f00; stroke: #ff7f00"/>
     <use xlink:href="#mbf96450f17" x="320.631942" y="322.357044" style="fill: #ff7f00; stroke: #ff7f00"/>
     <use xlink:href="#mbf96450f17" x="324.695414" y="325.098462" style="fill: #ff7f00; stroke: #ff7f00"/>
     <use xlink:href="#mbf96450f17" x="328.758886" y="325.068295" style="fill: #ff7f00; stroke: #ff7f00"/>
     <use xlink:href="#mbf96450f17" x="332.822358" y="325.034255" style="fill: #ff7f00; stroke: #ff7f00"/>
     <use xlink:href="#mbf96450f17" x="336.88583" y="325.060927" style="fill: #ff7f00; stroke: #ff7f00"/>
     <use xlink:href="#mbf96450f17" x="340.949303" y="325.027245" style="fill: #ff7f00; stroke: #ff7f00"/>
     <use xlink:href="#mbf96450f17" x="345.012775" y="324.878475" style="fill: #ff7f00; stroke: #ff7f00"/>
     <use xlink:href="#mbf96450f17" x="349.076247" y="324.901989" style="fill: #ff7f00; stroke: #ff7f00"/>
     <use xlink:href="#mbf96450f17" x="353.139719" y="324.952513" style="fill: #ff7f00; stroke: #ff7f00"/>
     <use xlink:href="#mbf96450f17" x="357.203191" y="323.410382" style="fill: #ff7f00; stroke: #ff7f00"/>
     <use xlink:href="#mbf96450f17" x="361.266663" y="324.939524" style="fill: #ff7f00; stroke: #ff7f00"/>
     <use xlink:href="#mbf96450f17" x="365.330136" y="325.06759" style="fill: #ff7f00; stroke: #ff7f00"/>
     <use xlink:href="#mbf96450f17" x="369.393608" y="325.065485" style="fill: #ff7f00; stroke: #ff7f00"/>
     <use xlink:href="#mbf96450f17" x="373.45708" y="325.128292" style="fill: #ff7f00; stroke: #ff7f00"/>
     <use xlink:href="#mbf96450f17" x="377.520552" y="325.202666" style="fill: #ff7f00; stroke: #ff7f00"/>
     <use xlink:href="#mbf96450f17" x="381.584024" y="325.316344" style="fill: #ff7f00; stroke: #ff7f00"/>
     <use xlink:href="#mbf96450f17" x="385.647496" y="325.40336" style="fill: #ff7f00; stroke: #ff7f00"/>
     <use xlink:href="#mbf96450f17" x="389.710969" y="325.492123" style="fill: #ff7f00; stroke: #ff7f00"/>
     <use xlink:href="#mbf96450f17" x="393.774441" y="325.550014" style="fill: #ff7f00; stroke: #ff7f00"/>
     <use xlink:href="#mbf96450f17" x="397.837913" y="325.366973" style="fill: #ff7f00; stroke: #ff7f00"/>
     <use xlink:href="#mbf96450f17" x="401.901385" y="325.718078" style="fill: #ff7f00; stroke: #ff7f00"/>
     <use xlink:href="#mbf96450f17" x="405.964857" y="325.752466" style="fill: #ff7f00; stroke: #ff7f00"/>
     <use xlink:href="#mbf96450f17" x="410.02833" y="325.766496" style="fill: #ff7f00; stroke: #ff7f00"/>
     <use xlink:href="#mbf96450f17" x="414.091802" y="325.808947" style="fill: #ff7f00; stroke: #ff7f00"/>
     <use xlink:href="#mbf96450f17" x="418.155274" y="325.851407" style="fill: #ff7f00; stroke: #ff7f00"/>
     <use xlink:href="#mbf96450f17" x="422.218746" y="325.881932" style="fill: #ff7f00; stroke: #ff7f00"/>
     <use xlink:href="#mbf96450f17" x="426.282218" y="325.931403" style="fill: #ff7f00; stroke: #ff7f00"/>
     <use xlink:href="#mbf96450f17" x="430.34569" y="325.847197" style="fill: #ff7f00; stroke: #ff7f00"/>
     <use xlink:href="#mbf96450f17" x="434.409163" y="324.763745" style="fill: #ff7f00; stroke: #ff7f00"/>
     <use xlink:href="#mbf96450f17" x="438.472635" y="325.911404" style="fill: #ff7f00; stroke: #ff7f00"/>
     <use xlink:href="#mbf96450f17" x="442.536107" y="325.794916" style="fill: #ff7f00; stroke: #ff7f00"/>
     <use xlink:href="#mbf96450f17" x="446.599579" y="325.754571" style="fill: #ff7f00; stroke: #ff7f00"/>
     <use xlink:href="#mbf96450f17" x="450.663051" y="325.795263" style="fill: #ff7f00; stroke: #ff7f00"/>
     <use xlink:href="#mbf96450f17" x="454.726524" y="325.735972" style="fill: #ff7f00; stroke: #ff7f00"/>
     <use xlink:href="#mbf96450f17" x="458.789996" y="325.613169" style="fill: #ff7f00; stroke: #ff7f00"/>
     <use xlink:href="#mbf96450f17" x="462.853468" y="325.567908" style="fill: #ff7f00; stroke: #ff7f00"/>
     <use xlink:href="#mbf96450f17" x="466.91694" y="325.431779" style="fill: #ff7f00; stroke: #ff7f00"/>
     <use xlink:href="#mbf96450f17" x="470.980412" y="324.186589" style="fill: #ff7f00; stroke: #ff7f00"/>
     <use xlink:href="#mbf96450f17" x="475.043884" y="325.171089" style="fill: #ff7f00; stroke: #ff7f00"/>
     <use xlink:href="#mbf96450f17" x="479.107357" y="325.111093" style="fill: #ff7f00; stroke: #ff7f00"/>
     <use xlink:href="#mbf96450f17" x="483.170829" y="324.916725" style="fill: #ff7f00; stroke: #ff7f00"/>
     <use xlink:href="#mbf96450f17" x="487.234301" y="324.875675" style="fill: #ff7f00; stroke: #ff7f00"/>
     <use xlink:href="#mbf96450f17" x="491.297773" y="324.665509" style="fill: #ff7f00; stroke: #ff7f00"/>
     <use xlink:href="#mbf96450f17" x="495.361245" y="324.527969" style="fill: #ff7f00; stroke: #ff7f00"/>
     <use xlink:href="#mbf96450f17" x="499.424717" y="324.552178" style="fill: #ff7f00; stroke: #ff7f00"/>
     <use xlink:href="#mbf96450f17" x="503.48819" y="324.369736" style="fill: #ff7f00; stroke: #ff7f00"/>
     <use xlink:href="#mbf96450f17" x="507.551662" y="324.326581" style="fill: #ff7f00; stroke: #ff7f00"/>
     <use xlink:href="#mbf96450f17" x="511.615134" y="324.285383" style="fill: #ff7f00; stroke: #ff7f00"/>
     <use xlink:href="#mbf96450f17" x="515.678606" y="324.131508" style="fill: #ff7f00; stroke: #ff7f00"/>
     <use xlink:href="#mbf96450f17" x="519.742078" y="324.004147" style="fill: #ff7f00; stroke: #ff7f00"/>
     <use xlink:href="#mbf96450f17" x="523.805551" y="323.991864" style="fill: #ff7f00; stroke: #ff7f00"/>
     <use xlink:href="#mbf96450f17" x="527.869023" y="323.918184" style="fill: #ff7f00; stroke: #ff7f00"/>
     <use xlink:href="#mbf96450f17" x="531.932495" y="323.828716" style="fill: #ff7f00; stroke: #ff7f00"/>
     <use xlink:href="#mbf96450f17" x="535.995967" y="323.745215" style="fill: #ff7f00; stroke: #ff7f00"/>
     <use xlink:href="#mbf96450f17" x="540.059439" y="323.691176" style="fill: #ff7f00; stroke: #ff7f00"/>
     <use xlink:href="#mbf96450f17" x="544.122911" y="323.682756" style="fill: #ff7f00; stroke: #ff7f00"/>
     <use xlink:href="#mbf96450f17" x="548.186384" y="324.265269" style="fill: #ff7f00; stroke: #ff7f00"/>
     <use xlink:href="#mbf96450f17" x="584.757633" y="323.800822" style="fill: #ff7f00; stroke: #ff7f00"/>
     <use xlink:href="#mbf96450f17" x="625.392355" y="323.03692" style="fill: #ff7f00; stroke: #ff7f00"/>
     <use xlink:href="#mbf96450f17" x="661.963605" y="324.531832" style="fill: #ff7f00; stroke: #ff7f00"/>
     <use xlink:href="#mbf96450f17" x="698.534854" y="321.473907" style="fill: #ff7f00; stroke: #ff7f00"/>
     <use xlink:href="#mbf96450f17" x="735.106104" y="314.038554" style="fill: #ff7f00; stroke: #ff7f00"/>
     <use xlink:href="#mbf96450f17" x="775.740826" y="321.620845" style="fill: #ff7f00; stroke: #ff7f00"/>
     <use xlink:href="#mbf96450f17" x="812.312075" y="325.941223" style="fill: #ff7f00; stroke: #ff7f00"/>
    </g>
   </g>
   <g id="line2d_32">
    <path d="M 58.220095 395.270337 
L 65.075477 380.27327 
L 73.644704 367.227766 
L 78.78624 362.147306 
L 80.500086 360.854994 
L 83.927777 358.790819 
L 85.641622 357.831755 
L 89.069313 356.584281 
L 92.497004 355.577423 
L 97.63854 354.662017 
L 99.352385 354.45233 
L 111.349303 354.357327 
L 114.776994 354.508857 
L 116.490839 354.745331 
L 118.204685 354.716475 
L 119.91853 354.892866 
L 123.346221 355.101816 
L 125.060066 355.391563 
L 126.773912 355.41376 
L 130.201603 355.682637 
L 131.915448 356.256653 
L 133.629293 356.055548 
L 142.19852 356.869886 
L 143.912366 356.888976 
L 149.053902 357.407348 
L 154.195438 357.826872 
L 155.909284 358.004156 
L 157.623129 357.997789 
L 159.336975 358.277179 
L 162.764665 358.448687 
L 167.906202 358.852673 
L 169.620047 358.820341 
L 173.047738 359.246005 
L 174.761583 359.276783 
L 178.189274 359.534713 
L 179.903119 359.569047 
L 183.33081 359.900818 
L 186.758501 360.013135 
L 191.900037 360.231256 
L 193.613883 361.279401 
L 195.327728 360.385011 
L 205.610801 360.858696 
L 207.324646 361.460826 
L 209.038491 360.949109 
L 214.180028 361.179221 
L 226.176945 361.5727 
L 227.890791 360.714859 
L 229.604636 361.65779 
L 231.318482 361.776912 
L 234.746173 361.731928 
L 243.3154 362.028774 
L 248.456936 362.092408 
L 253.598472 362.255183 
L 260.453854 362.370315 
L 262.167699 362.409972 
L 282.733844 362.172464 
L 313.583061 362.971704 
L 320.438443 362.029737 
L 358.143042 362.66091 
L 395.847641 362.833159 
L 399.275332 363.369626 
L 472.970684 362.232063 
L 548.379882 362.234061 
L 586.084481 361.883347 
L 623.78908 361.832849 
L 661.493679 362.521845 
L 699.198278 360.334846 
L 736.902877 366.083584 
L 774.607476 361.212517 
L 812.312075 361.146219 
L 812.312075 361.146219 
" clip-path="url(#p91a0edb206)" style="fill: none; stroke: #a65628; stroke-width: 2; stroke-linecap: square"/>
    <defs>
     <path id="m3794f99a54" d="M 0 2 
C 0.530406 2 1.03916 1.789267 1.414214 1.414214 
C 1.789267 1.03916 2 0.530406 2 0 
C 2 -0.530406 1.789267 -1.03916 1.414214 -1.414214 
C 1.03916 -1.789267 0.530406 -2 0 -2 
C -0.530406 -2 -1.03916 -1.789267 -1.414214 -1.414214 
C -1.789267 -1.03916 -2 -0.530406 -2 0 
C -2 0.530406 -1.789267 1.03916 -1.414214 1.414214 
C -1.03916 1.789267 -0.530406 2 0 2 
z
" style="stroke: #a65628"/>
    </defs>
    <g clip-path="url(#p91a0edb206)">
     <use xlink:href="#m3794f99a54" x="58.220095" y="395.270337" style="fill: #a65628; stroke: #a65628"/>
     <use xlink:href="#m3794f99a54" x="65.075477" y="380.27327" style="fill: #a65628; stroke: #a65628"/>
     <use xlink:href="#m3794f99a54" x="73.644704" y="367.227766" style="fill: #a65628; stroke: #a65628"/>
     <use xlink:href="#m3794f99a54" x="78.78624" y="362.147306" style="fill: #a65628; stroke: #a65628"/>
     <use xlink:href="#m3794f99a54" x="80.500086" y="360.854994" style="fill: #a65628; stroke: #a65628"/>
     <use xlink:href="#m3794f99a54" x="82.213931" y="359.762899" style="fill: #a65628; stroke: #a65628"/>
     <use xlink:href="#m3794f99a54" x="83.927777" y="358.790819" style="fill: #a65628; stroke: #a65628"/>
     <use xlink:href="#m3794f99a54" x="85.641622" y="357.831755" style="fill: #a65628; stroke: #a65628"/>
     <use xlink:href="#m3794f99a54" x="87.355467" y="357.183899" style="fill: #a65628; stroke: #a65628"/>
     <use xlink:href="#m3794f99a54" x="89.069313" y="356.584281" style="fill: #a65628; stroke: #a65628"/>
     <use xlink:href="#m3794f99a54" x="90.783158" y="356.065314" style="fill: #a65628; stroke: #a65628"/>
     <use xlink:href="#m3794f99a54" x="92.497004" y="355.577423" style="fill: #a65628; stroke: #a65628"/>
     <use xlink:href="#m3794f99a54" x="94.210849" y="355.25823" style="fill: #a65628; stroke: #a65628"/>
     <use xlink:href="#m3794f99a54" x="95.924694" y="354.986835" style="fill: #a65628; stroke: #a65628"/>
     <use xlink:href="#m3794f99a54" x="97.63854" y="354.662017" style="fill: #a65628; stroke: #a65628"/>
     <use xlink:href="#m3794f99a54" x="99.352385" y="354.45233" style="fill: #a65628; stroke: #a65628"/>
     <use xlink:href="#m3794f99a54" x="101.066231" y="354.433387" style="fill: #a65628; stroke: #a65628"/>
     <use xlink:href="#m3794f99a54" x="102.780076" y="354.371533" style="fill: #a65628; stroke: #a65628"/>
     <use xlink:href="#m3794f99a54" x="104.493921" y="354.313821" style="fill: #a65628; stroke: #a65628"/>
     <use xlink:href="#m3794f99a54" x="106.207767" y="354.26928" style="fill: #a65628; stroke: #a65628"/>
     <use xlink:href="#m3794f99a54" x="107.921612" y="354.295029" style="fill: #a65628; stroke: #a65628"/>
     <use xlink:href="#m3794f99a54" x="109.635458" y="354.354663" style="fill: #a65628; stroke: #a65628"/>
     <use xlink:href="#m3794f99a54" x="111.349303" y="354.357327" style="fill: #a65628; stroke: #a65628"/>
     <use xlink:href="#m3794f99a54" x="113.063148" y="354.436202" style="fill: #a65628; stroke: #a65628"/>
     <use xlink:href="#m3794f99a54" x="114.776994" y="354.508857" style="fill: #a65628; stroke: #a65628"/>
     <use xlink:href="#m3794f99a54" x="116.490839" y="354.745331" style="fill: #a65628; stroke: #a65628"/>
     <use xlink:href="#m3794f99a54" x="118.204685" y="354.716475" style="fill: #a65628; stroke: #a65628"/>
     <use xlink:href="#m3794f99a54" x="119.91853" y="354.892866" style="fill: #a65628; stroke: #a65628"/>
     <use xlink:href="#m3794f99a54" x="121.632376" y="354.942885" style="fill: #a65628; stroke: #a65628"/>
     <use xlink:href="#m3794f99a54" x="123.346221" y="355.101816" style="fill: #a65628; stroke: #a65628"/>
     <use xlink:href="#m3794f99a54" x="125.060066" y="355.391563" style="fill: #a65628; stroke: #a65628"/>
     <use xlink:href="#m3794f99a54" x="126.773912" y="355.41376" style="fill: #a65628; stroke: #a65628"/>
     <use xlink:href="#m3794f99a54" x="128.487757" y="355.570174" style="fill: #a65628; stroke: #a65628"/>
     <use xlink:href="#m3794f99a54" x="130.201603" y="355.682637" style="fill: #a65628; stroke: #a65628"/>
     <use xlink:href="#m3794f99a54" x="131.915448" y="356.256653" style="fill: #a65628; stroke: #a65628"/>
     <use xlink:href="#m3794f99a54" x="133.629293" y="356.055548" style="fill: #a65628; stroke: #a65628"/>
     <use xlink:href="#m3794f99a54" x="135.343139" y="356.219659" style="fill: #a65628; stroke: #a65628"/>
     <use xlink:href="#m3794f99a54" x="137.056984" y="356.298681" style="fill: #a65628; stroke: #a65628"/>
     <use xlink:href="#m3794f99a54" x="138.77083" y="356.456577" style="fill: #a65628; stroke: #a65628"/>
     <use xlink:href="#m3794f99a54" x="140.484675" y="356.618616" style="fill: #a65628; stroke: #a65628"/>
     <use xlink:href="#m3794f99a54" x="142.19852" y="356.869886" style="fill: #a65628; stroke: #a65628"/>
     <use xlink:href="#m3794f99a54" x="143.912366" y="356.888976" style="fill: #a65628; stroke: #a65628"/>
     <use xlink:href="#m3794f99a54" x="145.626211" y="357.091559" style="fill: #a65628; stroke: #a65628"/>
     <use xlink:href="#m3794f99a54" x="147.340057" y="357.276239" style="fill: #a65628; stroke: #a65628"/>
     <use xlink:href="#m3794f99a54" x="149.053902" y="357.407348" style="fill: #a65628; stroke: #a65628"/>
     <use xlink:href="#m3794f99a54" x="150.767747" y="357.513601" style="fill: #a65628; stroke: #a65628"/>
     <use xlink:href="#m3794f99a54" x="152.481593" y="357.646188" style="fill: #a65628; stroke: #a65628"/>
     <use xlink:href="#m3794f99a54" x="154.195438" y="357.826872" style="fill: #a65628; stroke: #a65628"/>
     <use xlink:href="#m3794f99a54" x="155.909284" y="358.004156" style="fill: #a65628; stroke: #a65628"/>
     <use xlink:href="#m3794f99a54" x="157.623129" y="357.997789" style="fill: #a65628; stroke: #a65628"/>
     <use xlink:href="#m3794f99a54" x="159.336975" y="358.277179" style="fill: #a65628; stroke: #a65628"/>
     <use xlink:href="#m3794f99a54" x="161.05082" y="358.320388" style="fill: #a65628; stroke: #a65628"/>
     <use xlink:href="#m3794f99a54" x="162.764665" y="358.448687" style="fill: #a65628; stroke: #a65628"/>
     <use xlink:href="#m3794f99a54" x="164.478511" y="358.605252" style="fill: #a65628; stroke: #a65628"/>
     <use xlink:href="#m3794f99a54" x="166.192356" y="358.722155" style="fill: #a65628; stroke: #a65628"/>
     <use xlink:href="#m3794f99a54" x="167.906202" y="358.852673" style="fill: #a65628; stroke: #a65628"/>
     <use xlink:href="#m3794f99a54" x="169.620047" y="358.820341" style="fill: #a65628; stroke: #a65628"/>
     <use xlink:href="#m3794f99a54" x="171.333892" y="359.082337" style="fill: #a65628; stroke: #a65628"/>
     <use xlink:href="#m3794f99a54" x="173.047738" y="359.246005" style="fill: #a65628; stroke: #a65628"/>
     <use xlink:href="#m3794f99a54" x="174.761583" y="359.276783" style="fill: #a65628; stroke: #a65628"/>
     <use xlink:href="#m3794f99a54" x="176.475429" y="359.424323" style="fill: #a65628; stroke: #a65628"/>
     <use xlink:href="#m3794f99a54" x="178.189274" y="359.534713" style="fill: #a65628; stroke: #a65628"/>
     <use xlink:href="#m3794f99a54" x="179.903119" y="359.569047" style="fill: #a65628; stroke: #a65628"/>
     <use xlink:href="#m3794f99a54" x="181.616965" y="359.735969" style="fill: #a65628; stroke: #a65628"/>
     <use xlink:href="#m3794f99a54" x="183.33081" y="359.900818" style="fill: #a65628; stroke: #a65628"/>
     <use xlink:href="#m3794f99a54" x="185.044656" y="359.915321" style="fill: #a65628; stroke: #a65628"/>
     <use xlink:href="#m3794f99a54" x="186.758501" y="360.013135" style="fill: #a65628; stroke: #a65628"/>
     <use xlink:href="#m3794f99a54" x="188.472346" y="360.113763" style="fill: #a65628; stroke: #a65628"/>
     <use xlink:href="#m3794f99a54" x="190.186192" y="360.163484" style="fill: #a65628; stroke: #a65628"/>
     <use xlink:href="#m3794f99a54" x="191.900037" y="360.231256" style="fill: #a65628; stroke: #a65628"/>
     <use xlink:href="#m3794f99a54" x="193.613883" y="361.279401" style="fill: #a65628; stroke: #a65628"/>
     <use xlink:href="#m3794f99a54" x="195.327728" y="360.385011" style="fill: #a65628; stroke: #a65628"/>
     <use xlink:href="#m3794f99a54" x="197.041574" y="360.471282" style="fill: #a65628; stroke: #a65628"/>
     <use xlink:href="#m3794f99a54" x="198.755419" y="360.546752" style="fill: #a65628; stroke: #a65628"/>
     <use xlink:href="#m3794f99a54" x="200.469264" y="360.643531" style="fill: #a65628; stroke: #a65628"/>
     <use xlink:href="#m3794f99a54" x="202.18311" y="360.692662" style="fill: #a65628; stroke: #a65628"/>
     <use xlink:href="#m3794f99a54" x="203.896955" y="360.830728" style="fill: #a65628; stroke: #a65628"/>
     <use xlink:href="#m3794f99a54" x="205.610801" y="360.858696" style="fill: #a65628; stroke: #a65628"/>
     <use xlink:href="#m3794f99a54" x="207.324646" y="361.460826" style="fill: #a65628; stroke: #a65628"/>
     <use xlink:href="#m3794f99a54" x="209.038491" y="360.949109" style="fill: #a65628; stroke: #a65628"/>
     <use xlink:href="#m3794f99a54" x="210.752337" y="361.060392" style="fill: #a65628; stroke: #a65628"/>
     <use xlink:href="#m3794f99a54" x="212.466182" y="361.086882" style="fill: #a65628; stroke: #a65628"/>
     <use xlink:href="#m3794f99a54" x="214.180028" y="361.179221" style="fill: #a65628; stroke: #a65628"/>
     <use xlink:href="#m3794f99a54" x="215.893873" y="361.244481" style="fill: #a65628; stroke: #a65628"/>
     <use xlink:href="#m3794f99a54" x="217.607718" y="361.268303" style="fill: #a65628; stroke: #a65628"/>
     <use xlink:href="#m3794f99a54" x="219.321564" y="361.371448" style="fill: #a65628; stroke: #a65628"/>
     <use xlink:href="#m3794f99a54" x="221.035409" y="361.398231" style="fill: #a65628; stroke: #a65628"/>
     <use xlink:href="#m3794f99a54" x="222.749255" y="361.456978" style="fill: #a65628; stroke: #a65628"/>
     <use xlink:href="#m3794f99a54" x="224.4631" y="361.575807" style="fill: #a65628; stroke: #a65628"/>
     <use xlink:href="#m3794f99a54" x="226.176945" y="361.5727" style="fill: #a65628; stroke: #a65628"/>
     <use xlink:href="#m3794f99a54" x="227.890791" y="360.714859" style="fill: #a65628; stroke: #a65628"/>
     <use xlink:href="#m3794f99a54" x="229.604636" y="361.65779" style="fill: #a65628; stroke: #a65628"/>
     <use xlink:href="#m3794f99a54" x="231.318482" y="361.776912" style="fill: #a65628; stroke: #a65628"/>
     <use xlink:href="#m3794f99a54" x="233.032327" y="361.73326" style="fill: #a65628; stroke: #a65628"/>
     <use xlink:href="#m3794f99a54" x="234.746173" y="361.731928" style="fill: #a65628; stroke: #a65628"/>
     <use xlink:href="#m3794f99a54" x="236.460018" y="361.812725" style="fill: #a65628; stroke: #a65628"/>
     <use xlink:href="#m3794f99a54" x="238.173863" y="361.857119" style="fill: #a65628; stroke: #a65628"/>
     <use xlink:href="#m3794f99a54" x="239.887709" y="361.94058" style="fill: #a65628; stroke: #a65628"/>
     <use xlink:href="#m3794f99a54" x="241.601554" y="361.975945" style="fill: #a65628; stroke: #a65628"/>
     <use xlink:href="#m3794f99a54" x="243.3154" y="362.028774" style="fill: #a65628; stroke: #a65628"/>
     <use xlink:href="#m3794f99a54" x="245.029245" y="362.015438" style="fill: #a65628; stroke: #a65628"/>
     <use xlink:href="#m3794f99a54" x="246.74309" y="362.098179" style="fill: #a65628; stroke: #a65628"/>
     <use xlink:href="#m3794f99a54" x="248.456936" y="362.092408" style="fill: #a65628; stroke: #a65628"/>
     <use xlink:href="#m3794f99a54" x="250.170781" y="362.168766" style="fill: #a65628; stroke: #a65628"/>
     <use xlink:href="#m3794f99a54" x="251.884627" y="362.199988" style="fill: #a65628; stroke: #a65628"/>
     <use xlink:href="#m3794f99a54" x="253.598472" y="362.255183" style="fill: #a65628; stroke: #a65628"/>
     <use xlink:href="#m3794f99a54" x="255.312317" y="362.263325" style="fill: #a65628; stroke: #a65628"/>
     <use xlink:href="#m3794f99a54" x="257.026163" y="362.338351" style="fill: #a65628; stroke: #a65628"/>
     <use xlink:href="#m3794f99a54" x="258.740008" y="362.371793" style="fill: #a65628; stroke: #a65628"/>
     <use xlink:href="#m3794f99a54" x="260.453854" y="362.370315" style="fill: #a65628; stroke: #a65628"/>
     <use xlink:href="#m3794f99a54" x="262.167699" y="362.409972" style="fill: #a65628; stroke: #a65628"/>
     <use xlink:href="#m3794f99a54" x="282.733844" y="362.172464" style="fill: #a65628; stroke: #a65628"/>
     <use xlink:href="#m3794f99a54" x="313.583061" y="362.971704" style="fill: #a65628; stroke: #a65628"/>
     <use xlink:href="#m3794f99a54" x="320.438443" y="362.029737" style="fill: #a65628; stroke: #a65628"/>
     <use xlink:href="#m3794f99a54" x="358.143042" y="362.66091" style="fill: #a65628; stroke: #a65628"/>
     <use xlink:href="#m3794f99a54" x="395.847641" y="362.833159" style="fill: #a65628; stroke: #a65628"/>
     <use xlink:href="#m3794f99a54" x="399.275332" y="363.369626" style="fill: #a65628; stroke: #a65628"/>
     <use xlink:href="#m3794f99a54" x="433.55224" y="362.821506" style="fill: #a65628; stroke: #a65628"/>
     <use xlink:href="#m3794f99a54" x="472.970684" y="362.232063" style="fill: #a65628; stroke: #a65628"/>
     <use xlink:href="#m3794f99a54" x="510.675283" y="362.23395" style="fill: #a65628; stroke: #a65628"/>
     <use xlink:href="#m3794f99a54" x="548.379882" y="362.234061" style="fill: #a65628; stroke: #a65628"/>
     <use xlink:href="#m3794f99a54" x="586.084481" y="361.883347" style="fill: #a65628; stroke: #a65628"/>
     <use xlink:href="#m3794f99a54" x="623.78908" y="361.832849" style="fill: #a65628; stroke: #a65628"/>
     <use xlink:href="#m3794f99a54" x="661.493679" y="362.521845" style="fill: #a65628; stroke: #a65628"/>
     <use xlink:href="#m3794f99a54" x="699.198278" y="360.334846" style="fill: #a65628; stroke: #a65628"/>
     <use xlink:href="#m3794f99a54" x="736.902877" y="366.083584" style="fill: #a65628; stroke: #a65628"/>
     <use xlink:href="#m3794f99a54" x="774.607476" y="361.212517" style="fill: #a65628; stroke: #a65628"/>
     <use xlink:href="#m3794f99a54" x="812.312075" y="361.146219" style="fill: #a65628; stroke: #a65628"/>
    </g>
   </g>
   <g id="line2d_33">
    <path d="M 57.250153 397.730384 
L 71.384317 376.209837 
L 86.262385 372.817669 
L 94.445322 373.335537 
L 101.140452 373.947888 
L 130.896587 377.049408 
L 132.384394 376.894611 
L 169.579562 379.314873 
L 207.518634 380.920006 
L 245.457706 381.421591 
L 283.396778 381.538572 
L 321.33585 381.780356 
L 358.531019 380.149739 
L 396.470091 379.956725 
L 434.409163 381.168453 
L 472.348235 380.918206 
L 510.287306 381.104157 
L 547.482475 383.233308 
L 585.421547 381.417415 
L 623.360619 380.432552 
L 661.299691 382.131093 
L 699.238763 381.925422 
L 736.433931 380.561079 
L 774.373003 380.35162 
L 812.312075 380.35162 
" clip-path="url(#p91a0edb206)" style="fill: none; stroke: #999999; stroke-width: 2; stroke-linecap: square"/>
    <defs>
     <path id="m253264dd0f" d="M 0 2 
C 0.530406 2 1.03916 1.789267 1.414214 1.414214 
C 1.789267 1.03916 2 0.530406 2 0 
C 2 -0.530406 1.789267 -1.03916 1.414214 -1.414214 
C 1.03916 -1.789267 0.530406 -2 0 -2 
C -0.530406 -2 -1.03916 -1.789267 -1.414214 -1.414214 
C -1.789267 -1.03916 -2 -0.530406 -2 0 
C -2 0.530406 -1.789267 1.03916 -1.414214 1.414214 
C -1.03916 1.789267 -0.530406 2 0 2 
z
" style="stroke: #999999"/>
    </defs>
    <g clip-path="url(#p91a0edb206)">
     <use xlink:href="#m253264dd0f" x="57.250153" y="397.730384" style="fill: #999999; stroke: #999999"/>
     <use xlink:href="#m253264dd0f" x="71.384317" y="376.209837" style="fill: #999999; stroke: #999999"/>
     <use xlink:href="#m253264dd0f" x="86.262385" y="372.817669" style="fill: #999999; stroke: #999999"/>
     <use xlink:href="#m253264dd0f" x="94.445322" y="373.335537" style="fill: #999999; stroke: #999999"/>
     <use xlink:href="#m253264dd0f" x="101.140452" y="373.947888" style="fill: #999999; stroke: #999999"/>
     <use xlink:href="#m253264dd0f" x="130.896587" y="377.049408" style="fill: #999999; stroke: #999999"/>
     <use xlink:href="#m253264dd0f" x="132.384394" y="376.894611" style="fill: #999999; stroke: #999999"/>
     <use xlink:href="#m253264dd0f" x="169.579562" y="379.314873" style="fill: #999999; stroke: #999999"/>
     <use xlink:href="#m253264dd0f" x="207.518634" y="380.920006" style="fill: #999999; stroke: #999999"/>
     <use xlink:href="#m253264dd0f" x="245.457706" y="381.421591" style="fill: #999999; stroke: #999999"/>
     <use xlink:href="#m253264dd0f" x="283.396778" y="381.538572" style="fill: #999999; stroke: #999999"/>
     <use xlink:href="#m253264dd0f" x="321.33585" y="381.780356" style="fill: #999999; stroke: #999999"/>
     <use xlink:href="#m253264dd0f" x="358.531019" y="380.149739" style="fill: #999999; stroke: #999999"/>
     <use xlink:href="#m253264dd0f" x="396.470091" y="379.956725" style="fill: #999999; stroke: #999999"/>
     <use xlink:href="#m253264dd0f" x="434.409163" y="381.168453" style="fill: #999999; stroke: #999999"/>
     <use xlink:href="#m253264dd0f" x="472.348235" y="380.918206" style="fill: #999999; stroke: #999999"/>
     <use xlink:href="#m253264dd0f" x="510.287306" y="381.104157" style="fill: #999999; stroke: #999999"/>
     <use xlink:href="#m253264dd0f" x="547.482475" y="383.233308" style="fill: #999999; stroke: #999999"/>
     <use xlink:href="#m253264dd0f" x="585.421547" y="381.417415" style="fill: #999999; stroke: #999999"/>
     <use xlink:href="#m253264dd0f" x="623.360619" y="380.432552" style="fill: #999999; stroke: #999999"/>
     <use xlink:href="#m253264dd0f" x="661.299691" y="382.131093" style="fill: #999999; stroke: #999999"/>
     <use xlink:href="#m253264dd0f" x="699.238763" y="381.925422" style="fill: #999999; stroke: #999999"/>
     <use xlink:href="#m253264dd0f" x="736.433931" y="380.561079" style="fill: #999999; stroke: #999999"/>
     <use xlink:href="#m253264dd0f" x="774.373003" y="380.35162" style="fill: #999999; stroke: #999999"/>
     <use xlink:href="#m253264dd0f" x="812.312075" y="380.35162" style="fill: #999999; stroke: #999999"/>
    </g>
   </g>
   <g id="patch_3">
    <path d="M 56.50625 415.117656 
L 56.50625 32.597656 
" style="fill: none; stroke: #000000; stroke-width: 0.8; stroke-linejoin: miter; stroke-linecap: square"/>
   </g>
   <g id="patch_4">
    <path d="M 56.50625 415.117656 
L 834.98625 415.117656 
" style="fill: none; stroke: #000000; stroke-width: 0.8; stroke-linejoin: miter; stroke-linecap: square"/>
   </g>
   <g id="text_17">
    <!-- Reduction Ratio vs FD Density -->
    <g transform="translate(317.631016 18.597656) scale(0.15 -0.15)">
     <defs>
      <path id="DejaVuSans-Bold-52" d="M 2297 2597 
Q 2675 2597 2839 2737 
Q 3003 2878 3003 3200 
Q 3003 3519 2839 3656 
Q 2675 3794 2297 3794 
L 1791 3794 
L 1791 2597 
L 2297 2597 
z
M 1791 1766 
L 1791 0 
L 588 0 
L 588 4666 
L 2425 4666 
Q 3347 4666 3776 4356 
Q 4206 4047 4206 3378 
Q 4206 2916 3982 2619 
Q 3759 2322 3309 2181 
Q 3556 2125 3751 1926 
Q 3947 1728 4147 1325 
L 4800 0 
L 3519 0 
L 2950 1159 
Q 2778 1509 2601 1637 
Q 2425 1766 2131 1766 
L 1791 1766 
z
" transform="scale(0.015625)"/>
      <path id="DejaVuSans-Bold-65" d="M 4031 1759 
L 4031 1441 
L 1416 1441 
Q 1456 1047 1700 850 
Q 1944 653 2381 653 
Q 2734 653 3104 758 
Q 3475 863 3866 1075 
L 3866 213 
Q 3469 63 3072 -14 
Q 2675 -91 2278 -91 
Q 1328 -91 801 392 
Q 275 875 275 1747 
Q 275 2603 792 3093 
Q 1309 3584 2216 3584 
Q 3041 3584 3536 3087 
Q 4031 2591 4031 1759 
z
M 2881 2131 
Q 2881 2450 2695 2645 
Q 2509 2841 2209 2841 
Q 1884 2841 1681 2658 
Q 1478 2475 1428 2131 
L 2881 2131 
z
" transform="scale(0.015625)"/>
      <path id="DejaVuSans-Bold-64" d="M 2919 2988 
L 2919 4863 
L 4044 4863 
L 4044 0 
L 2919 0 
L 2919 506 
Q 2688 197 2409 53 
Q 2131 -91 1766 -91 
Q 1119 -91 703 423 
Q 288 938 288 1747 
Q 288 2556 703 3070 
Q 1119 3584 1766 3584 
Q 2128 3584 2408 3439 
Q 2688 3294 2919 2988 
z
M 2181 722 
Q 2541 722 2730 984 
Q 2919 1247 2919 1747 
Q 2919 2247 2730 2509 
Q 2541 2772 2181 2772 
Q 1825 2772 1636 2509 
Q 1447 2247 1447 1747 
Q 1447 1247 1636 984 
Q 1825 722 2181 722 
z
" transform="scale(0.015625)"/>
      <path id="DejaVuSans-Bold-75" d="M 500 1363 
L 500 3500 
L 1625 3500 
L 1625 3150 
Q 1625 2866 1622 2436 
Q 1619 2006 1619 1863 
Q 1619 1441 1641 1255 
Q 1663 1069 1716 984 
Q 1784 875 1895 815 
Q 2006 756 2150 756 
Q 2500 756 2700 1025 
Q 2900 1294 2900 1772 
L 2900 3500 
L 4019 3500 
L 4019 0 
L 2900 0 
L 2900 506 
Q 2647 200 2364 54 
Q 2081 -91 1741 -91 
Q 1134 -91 817 281 
Q 500 653 500 1363 
z
" transform="scale(0.015625)"/>
      <path id="DejaVuSans-Bold-63" d="M 3366 3391 
L 3366 2478 
Q 3138 2634 2908 2709 
Q 2678 2784 2431 2784 
Q 1963 2784 1702 2511 
Q 1441 2238 1441 1747 
Q 1441 1256 1702 982 
Q 1963 709 2431 709 
Q 2694 709 2930 787 
Q 3166 866 3366 1019 
L 3366 103 
Q 3103 6 2833 -42 
Q 2563 -91 2291 -91 
Q 1344 -91 809 395 
Q 275 881 275 1747 
Q 275 2613 809 3098 
Q 1344 3584 2291 3584 
Q 2566 3584 2833 3536 
Q 3100 3488 3366 3391 
z
" transform="scale(0.015625)"/>
      <path id="DejaVuSans-Bold-74" d="M 1759 4494 
L 1759 3500 
L 2913 3500 
L 2913 2700 
L 1759 2700 
L 1759 1216 
Q 1759 972 1856 886 
Q 1953 800 2241 800 
L 2816 800 
L 2816 0 
L 1856 0 
Q 1194 0 917 276 
Q 641 553 641 1216 
L 641 2700 
L 84 2700 
L 84 3500 
L 641 3500 
L 641 4494 
L 1759 4494 
z
" transform="scale(0.015625)"/>
      <path id="DejaVuSans-Bold-69" d="M 538 3500 
L 1656 3500 
L 1656 0 
L 538 0 
L 538 3500 
z
M 538 4863 
L 1656 4863 
L 1656 3950 
L 538 3950 
L 538 4863 
z
" transform="scale(0.015625)"/>
      <path id="DejaVuSans-Bold-6f" d="M 2203 2784 
Q 1831 2784 1636 2517 
Q 1441 2250 1441 1747 
Q 1441 1244 1636 976 
Q 1831 709 2203 709 
Q 2569 709 2762 976 
Q 2956 1244 2956 1747 
Q 2956 2250 2762 2517 
Q 2569 2784 2203 2784 
z
M 2203 3584 
Q 3106 3584 3614 3096 
Q 4122 2609 4122 1747 
Q 4122 884 3614 396 
Q 3106 -91 2203 -91 
Q 1297 -91 786 396 
Q 275 884 275 1747 
Q 275 2609 786 3096 
Q 1297 3584 2203 3584 
z
" transform="scale(0.015625)"/>
      <path id="DejaVuSans-Bold-6e" d="M 4056 2131 
L 4056 0 
L 2931 0 
L 2931 347 
L 2931 1631 
Q 2931 2084 2911 2256 
Q 2891 2428 2841 2509 
Q 2775 2619 2662 2680 
Q 2550 2741 2406 2741 
Q 2056 2741 1856 2470 
Q 1656 2200 1656 1722 
L 1656 0 
L 538 0 
L 538 3500 
L 1656 3500 
L 1656 2988 
Q 1909 3294 2193 3439 
Q 2478 3584 2822 3584 
Q 3428 3584 3742 3212 
Q 4056 2841 4056 2131 
z
" transform="scale(0.015625)"/>
      <path id="DejaVuSans-Bold-20" transform="scale(0.015625)"/>
      <path id="DejaVuSans-Bold-61" d="M 2106 1575 
Q 1756 1575 1579 1456 
Q 1403 1338 1403 1106 
Q 1403 894 1545 773 
Q 1688 653 1941 653 
Q 2256 653 2472 879 
Q 2688 1106 2688 1447 
L 2688 1575 
L 2106 1575 
z
M 3816 1997 
L 3816 0 
L 2688 0 
L 2688 519 
Q 2463 200 2181 54 
Q 1900 -91 1497 -91 
Q 953 -91 614 226 
Q 275 544 275 1050 
Q 275 1666 698 1953 
Q 1122 2241 2028 2241 
L 2688 2241 
L 2688 2328 
Q 2688 2594 2478 2717 
Q 2269 2841 1825 2841 
Q 1466 2841 1156 2769 
Q 847 2697 581 2553 
L 581 3406 
Q 941 3494 1303 3539 
Q 1666 3584 2028 3584 
Q 2975 3584 3395 3211 
Q 3816 2838 3816 1997 
z
" transform="scale(0.015625)"/>
      <path id="DejaVuSans-Bold-76" d="M 97 3500 
L 1216 3500 
L 2088 1081 
L 2956 3500 
L 4078 3500 
L 2700 0 
L 1472 0 
L 97 3500 
z
" transform="scale(0.015625)"/>
      <path id="DejaVuSans-Bold-73" d="M 3272 3391 
L 3272 2541 
Q 2913 2691 2578 2766 
Q 2244 2841 1947 2841 
Q 1628 2841 1473 2761 
Q 1319 2681 1319 2516 
Q 1319 2381 1436 2309 
Q 1553 2238 1856 2203 
L 2053 2175 
Q 2913 2066 3209 1816 
Q 3506 1566 3506 1031 
Q 3506 472 3093 190 
Q 2681 -91 1863 -91 
Q 1516 -91 1145 -36 
Q 775 19 384 128 
L 384 978 
Q 719 816 1070 734 
Q 1422 653 1784 653 
Q 2113 653 2278 743 
Q 2444 834 2444 1013 
Q 2444 1163 2330 1236 
Q 2216 1309 1875 1350 
L 1678 1375 
Q 931 1469 631 1722 
Q 331 1975 331 2491 
Q 331 3047 712 3315 
Q 1094 3584 1881 3584 
Q 2191 3584 2531 3537 
Q 2872 3491 3272 3391 
z
" transform="scale(0.015625)"/>
      <path id="DejaVuSans-Bold-46" d="M 588 4666 
L 3834 4666 
L 3834 3756 
L 1791 3756 
L 1791 2888 
L 3713 2888 
L 3713 1978 
L 1791 1978 
L 1791 0 
L 588 0 
L 588 4666 
z
" transform="scale(0.015625)"/>
      <path id="DejaVuSans-Bold-44" d="M 1791 3756 
L 1791 909 
L 2222 909 
Q 2959 909 3348 1275 
Q 3738 1641 3738 2338 
Q 3738 3031 3350 3393 
Q 2963 3756 2222 3756 
L 1791 3756 
z
M 588 4666 
L 1856 4666 
Q 2919 4666 3439 4514 
Q 3959 4363 4331 4000 
Q 4659 3684 4818 3271 
Q 4978 2859 4978 2338 
Q 4978 1809 4818 1395 
Q 4659 981 4331 666 
Q 3956 303 3431 151 
Q 2906 0 1856 0 
L 588 0 
L 588 4666 
z
" transform="scale(0.015625)"/>
      <path id="DejaVuSans-Bold-79" d="M 78 3500 
L 1197 3500 
L 2138 1125 
L 2938 3500 
L 4056 3500 
L 2584 -331 
Q 2363 -916 2067 -1148 
Q 1772 -1381 1288 -1381 
L 641 -1381 
L 641 -647 
L 991 -647 
Q 1275 -647 1404 -556 
Q 1534 -466 1606 -231 
L 1638 -134 
L 78 3500 
z
" transform="scale(0.015625)"/>
     </defs>
     <use xlink:href="#DejaVuSans-Bold-52"/>
     <use xlink:href="#DejaVuSans-Bold-65" transform="translate(77.001953 0)"/>
     <use xlink:href="#DejaVuSans-Bold-64" transform="translate(144.824219 0)"/>
     <use xlink:href="#DejaVuSans-Bold-75" transform="translate(216.40625 0)"/>
     <use xlink:href="#DejaVuSans-Bold-63" transform="translate(287.597656 0)"/>
     <use xlink:href="#DejaVuSans-Bold-74" transform="translate(346.875 0)"/>
     <use xlink:href="#DejaVuSans-Bold-69" transform="translate(394.677734 0)"/>
     <use xlink:href="#DejaVuSans-Bold-6f" transform="translate(428.955078 0)"/>
     <use xlink:href="#DejaVuSans-Bold-6e" transform="translate(497.65625 0)"/>
     <use xlink:href="#DejaVuSans-Bold-20" transform="translate(568.847656 0)"/>
     <use xlink:href="#DejaVuSans-Bold-52" transform="translate(603.662109 0)"/>
     <use xlink:href="#DejaVuSans-Bold-61" transform="translate(680.664062 0)"/>
     <use xlink:href="#DejaVuSans-Bold-74" transform="translate(748.144531 0)"/>
     <use xlink:href="#DejaVuSans-Bold-69" transform="translate(795.947266 0)"/>
     <use xlink:href="#DejaVuSans-Bold-6f" transform="translate(830.224609 0)"/>
     <use xlink:href="#DejaVuSans-Bold-20" transform="translate(898.925781 0)"/>
     <use xlink:href="#DejaVuSans-Bold-76" transform="translate(933.740234 0)"/>
     <use xlink:href="#DejaVuSans-Bold-73" transform="translate(998.925781 0)"/>
     <use xlink:href="#DejaVuSans-Bold-20" transform="translate(1058.447266 0)"/>
     <use xlink:href="#DejaVuSans-Bold-46" transform="translate(1093.261719 0)"/>
     <use xlink:href="#DejaVuSans-Bold-44" transform="translate(1161.572266 0)"/>
     <use xlink:href="#DejaVuSans-Bold-20" transform="translate(1244.580078 0)"/>
     <use xlink:href="#DejaVuSans-Bold-44" transform="translate(1279.394531 0)"/>
     <use xlink:href="#DejaVuSans-Bold-65" transform="translate(1362.402344 0)"/>
     <use xlink:href="#DejaVuSans-Bold-6e" transform="translate(1430.224609 0)"/>
     <use xlink:href="#DejaVuSans-Bold-73" transform="translate(1501.416016 0)"/>
     <use xlink:href="#DejaVuSans-Bold-69" transform="translate(1560.9375 0)"/>
     <use xlink:href="#DejaVuSans-Bold-74" transform="translate(1595.214844 0)"/>
     <use xlink:href="#DejaVuSans-Bold-79" transform="translate(1643.017578 0)"/>
    </g>
   </g>
   <g id="legend_1">
    <g id="text_18">
     <!-- Attributes -->
     <g transform="translate(99.903906 49.196094) scale(0.1 -0.1)">
      <defs>
       <path id="DejaVuSans-41" d="M 2188 4044 
L 1331 1722 
L 3047 1722 
L 2188 4044 
z
M 1831 4666 
L 2547 4666 
L 4325 0 
L 3669 0 
L 3244 1197 
L 1141 1197 
L 716 0 
L 50 0 
L 1831 4666 
z
" transform="scale(0.015625)"/>
       <path id="DejaVuSans-72" d="M 2631 2963 
Q 2534 3019 2420 3045 
Q 2306 3072 2169 3072 
Q 1681 3072 1420 2755 
Q 1159 2438 1159 1844 
L 1159 0 
L 581 0 
L 581 3500 
L 1159 3500 
L 1159 2956 
Q 1341 3275 1631 3429 
Q 1922 3584 2338 3584 
Q 2397 3584 2469 3576 
Q 2541 3569 2628 3553 
L 2631 2963 
z
" transform="scale(0.015625)"/>
       <path id="DejaVuSans-62" d="M 3116 1747 
Q 3116 2381 2855 2742 
Q 2594 3103 2138 3103 
Q 1681 3103 1420 2742 
Q 1159 2381 1159 1747 
Q 1159 1113 1420 752 
Q 1681 391 2138 391 
Q 2594 391 2855 752 
Q 3116 1113 3116 1747 
z
M 1159 2969 
Q 1341 3281 1617 3432 
Q 1894 3584 2278 3584 
Q 2916 3584 3314 3078 
Q 3713 2572 3713 1747 
Q 3713 922 3314 415 
Q 2916 -91 2278 -91 
Q 1894 -91 1617 61 
Q 1341 213 1159 525 
L 1159 0 
L 581 0 
L 581 4863 
L 1159 4863 
L 1159 2969 
z
" transform="scale(0.015625)"/>
      </defs>
      <use xlink:href="#DejaVuSans-41"/>
      <use xlink:href="#DejaVuSans-74" transform="translate(66.658203 0)"/>
      <use xlink:href="#DejaVuSans-74" transform="translate(105.867188 0)"/>
      <use xlink:href="#DejaVuSans-72" transform="translate(145.076172 0)"/>
      <use xlink:href="#DejaVuSans-69" transform="translate(186.189453 0)"/>
      <use xlink:href="#DejaVuSans-62" transform="translate(213.972656 0)"/>
      <use xlink:href="#DejaVuSans-75" transform="translate(277.449219 0)"/>
      <use xlink:href="#DejaVuSans-74" transform="translate(340.828125 0)"/>
      <use xlink:href="#DejaVuSans-65" transform="translate(380.037109 0)"/>
      <use xlink:href="#DejaVuSans-73" transform="translate(441.560547 0)"/>
     </g>
    </g>
    <g id="line2d_34">
     <path d="M 65.50625 60.374219 
L 75.50625 60.374219 
L 85.50625 60.374219 
" style="fill: none; stroke: #e41a1c; stroke-width: 2; stroke-linecap: square"/>
     <g>
      <use xlink:href="#mb3340880be" x="75.50625" y="60.374219" style="fill: #e41a1c; stroke: #e41a1c"/>
     </g>
    </g>
    <g id="text_19">
     <!-- n=4 -->
     <g transform="translate(93.50625 63.874219) scale(0.1 -0.1)">
      <defs>
       <path id="DejaVuSans-3d" d="M 678 2906 
L 4684 2906 
L 4684 2381 
L 678 2381 
L 678 2906 
z
M 678 1631 
L 4684 1631 
L 4684 1100 
L 678 1100 
L 678 1631 
z
" transform="scale(0.015625)"/>
      </defs>
      <use xlink:href="#DejaVuSans-6e"/>
      <use xlink:href="#DejaVuSans-3d" transform="translate(63.378906 0)"/>
      <use xlink:href="#DejaVuSans-34" transform="translate(147.167969 0)"/>
     </g>
    </g>
    <g id="line2d_35">
     <path d="M 65.50625 75.052344 
L 75.50625 75.052344 
L 85.50625 75.052344 
" style="fill: none; stroke: #4daf4a; stroke-width: 2; stroke-linecap: square"/>
     <g>
      <use xlink:href="#meac8690713" x="75.50625" y="75.052344" style="fill: #4daf4a; stroke: #4daf4a"/>
     </g>
    </g>
    <g id="text_20">
     <!-- n=5 -->
     <g transform="translate(93.50625 78.552344) scale(0.1 -0.1)">
      <use xlink:href="#DejaVuSans-6e"/>
      <use xlink:href="#DejaVuSans-3d" transform="translate(63.378906 0)"/>
      <use xlink:href="#DejaVuSans-35" transform="translate(147.167969 0)"/>
     </g>
    </g>
    <g id="line2d_36">
     <path d="M 65.50625 89.730469 
L 75.50625 89.730469 
L 85.50625 89.730469 
" style="fill: none; stroke: #ff7f00; stroke-width: 2; stroke-linecap: square"/>
     <g>
      <use xlink:href="#mbf96450f17" x="75.50625" y="89.730469" style="fill: #ff7f00; stroke: #ff7f00"/>
     </g>
    </g>
    <g id="text_21">
     <!-- n=6 -->
     <g transform="translate(93.50625 93.230469) scale(0.1 -0.1)">
      <use xlink:href="#DejaVuSans-6e"/>
      <use xlink:href="#DejaVuSans-3d" transform="translate(63.378906 0)"/>
      <use xlink:href="#DejaVuSans-36" transform="translate(147.167969 0)"/>
     </g>
    </g>
    <g id="line2d_37">
     <path d="M 134.585938 60.374219 
L 144.585938 60.374219 
L 154.585938 60.374219 
" style="fill: none; stroke: #a65628; stroke-width: 2; stroke-linecap: square"/>
     <g>
      <use xlink:href="#m3794f99a54" x="144.585938" y="60.374219" style="fill: #a65628; stroke: #a65628"/>
     </g>
    </g>
    <g id="text_22">
     <!-- n=7 -->
     <g transform="translate(162.585938 63.874219) scale(0.1 -0.1)">
      <use xlink:href="#DejaVuSans-6e"/>
      <use xlink:href="#DejaVuSans-3d" transform="translate(63.378906 0)"/>
      <use xlink:href="#DejaVuSans-37" transform="translate(147.167969 0)"/>
     </g>
    </g>
    <g id="line2d_38">
     <path d="M 134.585938 75.052344 
L 144.585938 75.052344 
L 154.585938 75.052344 
" style="fill: none; stroke: #999999; stroke-width: 2; stroke-linecap: square"/>
     <g>
      <use xlink:href="#m253264dd0f" x="144.585938" y="75.052344" style="fill: #999999; stroke: #999999"/>
     </g>
    </g>
    <g id="text_23">
     <!-- n=8 -->
     <g transform="translate(162.585938 78.552344) scale(0.1 -0.1)">
      <use xlink:href="#DejaVuSans-6e"/>
      <use xlink:href="#DejaVuSans-3d" transform="translate(63.378906 0)"/>
      <use xlink:href="#DejaVuSans-38" transform="translate(147.167969 0)"/>
     </g>
    </g>
   </g>
  </g>
 </g>
 <defs>
  <clipPath id="p91a0edb206">
   <rect x="56.50625" y="32.597656" width="778.48" height="382.52"/>
  </clipPath>
 </defs>
</svg>
