<svg xmlns="http://www.w3.org/2000/svg" width="960" height="540" viewBox="0 0 960 540">
<rect width="100%" height="100%" fill="#f7f3e8"/>
<text x="480.0" y="28" text-anchor="middle" font-family="Helvetica, Arial, sans-serif" font-size="22" fill="#1f2933">Reduction Ratio vs FD Density</text>
<line x1="80" y1="470" x2="920" y2="470" stroke="#334e68" stroke-width="2"/>
<line x1="80" y1="50" x2="80" y2="470" stroke="#334e68" stroke-width="2"/>
<text x="480.0" y="520" text-anchor="middle" font-family="Helvetica, Arial, sans-serif" font-size="16" fill="#1f2933">FD Density</text>
<text x="24" y="270.0" text-anchor="middle" transform="rotate(-90 24 270.0)" font-family="Helvetica, Arial, sans-serif" font-size="16" fill="#1f2933">Reduction Ratio</text>
<line x1="80" y1="470.00" x2="920" y2="470.00" stroke="#d9e2ec" stroke-width="1"/>
<text x="70" y="475.00" text-anchor="end" font-family="Helvetica, Arial, sans-serif" font-size="12" fill="#486581">0.000</text>
<line x1="80" y1="386.00" x2="920" y2="386.00" stroke="#d9e2ec" stroke-width="1"/>
<text x="70" y="391.00" text-anchor="end" font-family="Helvetica, Arial, sans-serif" font-size="12" fill="#486581">0.017</text>
<line x1="80" y1="302.00" x2="920" y2="302.00" stroke="#d9e2ec" stroke-width="1"/>
<text x="70" y="307.00" text-anchor="end" font-family="Helvetica, Arial, sans-serif" font-size="12" fill="#486581">0.034</text>
<line x1="80" y1="218.00" x2="920" y2="218.00" stroke="#d9e2ec" stroke-width="1"/>
<text x="70" y="223.00" text-anchor="end" font-family="Helvetica, Arial, sans-serif" font-size="12" fill="#486581">0.051</text>
<line x1="80" y1="134.00" x2="920" y2="134.00" stroke="#d9e2ec" stroke-width="1"/>
<text x="70" y="139.00" text-anchor="end" font-family="Helvetica, Arial, sans-serif" font-size="12" fill="#486581">0.068</text>
<line x1="80" y1="50.00" x2="920" y2="50.00" stroke="#d9e2ec" stroke-width="1"/>
<text x="70" y="55.00" text-anchor="end" font-family="Helvetica, Arial, sans-serif" font-size="12" fill="#486581">0.085</text>
<line x1="80.00" y1="50" x2="80.00" y2="470" stroke="#eef2f6" stroke-width="1"/>
<text x="80.00" y="492" text-anchor="middle" font-family="Helvetica, Arial, sans-serif" font-size="12" fill="#486581">0.00</text>
<line x1="232.73" y1="50" x2="232.73" y2="470" stroke="#eef2f6" stroke-width="1"/>
<text x="232.73" y="492" text-anchor="middle" font-family="Helvetica, Arial, sans-serif" font-size="12" fill="#486581">0.02</text>
<line x1="385.45" y1="50" x2="385.45" y2="470" stroke="#eef2f6" stroke-width="1"/>
<text x="385.45" y="492" text-anchor="middle" font-family="Helvetica, Arial, sans-serif" font-size="12" fill="#486581">0.04</text>
<line x1="538.18" y1="50" x2="538.18" y2="470" stroke="#eef2f6" stroke-width="1"/>
<text x="538.18" y="492" text-anchor="middle" font-family="Helvetica, Arial, sans-serif" font-size="12" fill="#486581">0.06</text>
<line x1="690.91" y1="50" x2="690.91" y2="470" stroke="#eef2f6" stroke-width="1"/>
<text x="690.91" y="492" text-anchor="middle" font-family="Helvetica, Arial, sans-serif" font-size="12" fill="#486581">0.08</text>
<line x1="843.64" y1="50" x2="843.64" y2="470" stroke="#eef2f6" stroke-width="1"/>
<text x="843.64" y="492" text-anchor="middle" font-family="Helvetica, Arial, sans-serif" font-size="12" fill="#486581">0.10</text>
<polyline fill="none" stroke="#00798c" stroke-width="3" points="352.73,305.51 625.45,162.77 898.18,50.00"/>
<circle cx="352.73" cy="305.51" r="4" fill="#00798c"/>
<circle cx="625.45" cy="162.77" r="4" fill="#00798c"/>
<circle cx="898.18" cy="50.00" r="4" fill="#00798c"/>
<rect x="90" y="58" width="14" height="14" fill="#00798c"/>
<text x="112" y="70" font-family="Helvetica, Arial, sans-serif" font-size="13" fill="#1f2933">n=4</text>
<polyline fill="none" stroke="#d1495b" stroke-width="3" points="487.27,258.45 894.55,150.10"/>
<circle cx="487.27" cy="258.45" r="4" fill="#d1495b"/>
<circle cx="894.55" cy="150.10" r="4" fill="#d1495b"/>
<rect x="90" y="78" width="14" height="14" fill="#d1495b"/>
<text x="112" y="90" font-family="Helvetica, Arial, sans-serif" font-size="13" fill="#1f2933">n=5</text>
<polyline fill="none" stroke="#edae49" stroke-width="3" points="449.50,309.64 860.06,268.65"/>
<circle cx="449.50" cy="309.64" r="4" fill="#edae49"/>
<circle cx="860.06" cy="268.65" r="4" fill="#edae49"/>
<rect x="90" y="98" width="14" height="14" fill="#edae49"/>
<text x="112" y="110" font-family="Helvetica, Arial, sans-serif" font-size="13" fill="#1f2933">n=6</text>
<polyline fill="none" stroke="#30638e" stroke-width="3" points="166.58,420.97 253.16,387.90 426.32,359.61 460.95,357.57 772.64,357.91 841.90,360.10"/>
<circle cx="166.58" cy="420.97" r="4" fill="#30638e"/>
<circle cx="253.16" cy="387.90" r="4" fill="#30638e"/>
<circle cx="426.32" cy="359.61" r="4" fill="#30638e"/>
<circle cx="460.95" cy="357.57" r="4" fill="#30638e"/>
<circle cx="772.64" cy="357.91" r="4" fill="#30638e"/>
<circle cx="841.90" cy="360.10" r="4" fill="#30638e"/>
<rect x="90" y="118" width="14" height="14" fill="#30638e"/>
<text x="112" y="130" font-family="Helvetica, Arial, sans-serif" font-size="13" fill="#1f2933">n=7</text>
<polyline fill="none" stroke="#66a182" stroke-width="3" points="230.32,410.67 380.64,402.10 530.97,405.02 831.61,412.65 846.64,412.40"/>
<circle cx="230.32" cy="410.67" r="4" fill="#66a182"/>
<circle cx="380.64" cy="402.10" r="4" fill="#66a182"/>
<circle cx="530.97" cy="405.02" r="4" fill="#66a182"/>
<circle cx="831.61" cy="412.65" r="4" fill="#66a182"/>
<circle cx="846.64" cy="412.40" r="4" fill="#66a182"/>
<rect x="90" y="138" width="14" height="14" fill="#66a182"/>
<text x="112" y="150" font-family="Helvetica, Arial, sans-serif" font-size="13" fill="#1f2933">n=8</text>
<polyline fill="none" stroke="#6b4e71" stroke-width="3" points="146.55,439.25 213.10,429.86 386.12,430.93 539.18,435.29 845.30,441.37"/>
<circle cx="146.55" cy="439.25" r="4" fill="#6b4e71"/>
<circle cx="213.10" cy="429.86" r="4" fill="#6b4e71"/>
<circle cx="386.12" cy="430.93" r="4" fill="#6b4e71"/>
<circle cx="539.18" cy="435.29" r="4" fill="#6b4e71"/>
<circle cx="845.30" cy="441.37" r="4" fill="#6b4e71"/>
<rect x="90" y="158" width="14" height="14" fill="#6b4e71"/>
<text x="112" y="170" font-family="Helvetica, Arial, sans-serif" font-size="13" fill="#1f2933">n=9</text>
<polyline fill="none" stroke="#00798c" stroke-width="3" points="169.66,444.77 232.43,444.33 843.64,456.06"/>
<circle cx="169.66" cy="444.77" r="4" fill="#00798c"/>
<circle cx="232.43" cy="444.33" r="4" fill="#00798c"/>
<circle cx="843.64" cy="456.06" r="4" fill="#00798c"/>
<rect x="90" y="178" width="14" height="14" fill="#00798c"/>
<text x="112" y="190" font-family="Helvetica, Arial, sans-serif" font-size="13" fill="#1f2933">n=10</text>
<polyline fill="none" stroke="#d1495b" stroke-width="3" points="93.57,462.44 843.43,462.78"/>
<circle cx="93.57" cy="462.44" r="4" fill="#d1495b"/>
<circle cx="843.43" cy="462.78" r="4" fill="#d1495b"/>
<rect x="90" y="198" width="14" height="14" fill="#d1495b"/>
<text x="112" y="210" font-family="Helvetica, Arial, sans-serif" font-size="13" fill="#1f2933">n=11</text>
<polyline fill="none" stroke="#edae49" stroke-width="3" points="86.22,466.35 843.51,466.57"/>
<circle cx="86.22" cy="466.35" r="4" fill="#edae49"/>
<circle cx="843.51" cy="466.57" r="4" fill="#edae49"/>
<rect x="90" y="218" width="14" height="14" fill="#edae49"/>
<text x="112" y="230" font-family="Helvetica, Arial, sans-serif" font-size="13" fill="#1f2933">n=12</text>
<polyline fill="none" stroke="#30638e" stroke-width="3" points="82.87,468.26 843.71,468.21"/>
<circle cx="82.87" cy="468.26" r="4" fill="#30638e"/>
<circle cx="843.71" cy="468.21" r="4" fill="#30638e"/>
<rect x="90" y="238" width="14" height="14" fill="#30638e"/>
<text x="112" y="250" font-family="Helvetica, Arial, sans-serif" font-size="13" fill="#1f2933">n=13</text>
</svg>
