<?xml version="1.0" encoding="utf-8" standalone="no"?>
<!DOCTYPE svg PUBLIC "-//W3C//DTD SVG 1.1//EN"
  "http://www.w3.org/Graphics/SVG/1.1/DTD/svg11.dtd">
<svg xmlns:xlink="http://www.w3.org/1999/xlink" width="842.06125pt" height="452.673906pt" viewBox="0 0 842.06125 452.673906" xmlns="http://www.w3.org/2000/svg" version="1.1">
 <metadata>
  <rdf:RDF xmlns:dc="http://purl.org/dc/elements/1.1/" xmlns:cc="http://creativecommons.org/ns#" xmlns:rdf="http://www.w3.org/1999/02/22-rdf-syntax-ns#">
   <cc:Work>
    <dc:type rdf:resource="http://purl.org/dc/dcmitype/StillImage"/>
    <dc:date>2026-04-11T00:09:11.532513</dc:date>
    <dc:format>image/svg+xml</dc:format>
    <dc:creator>
     <cc:Agent>
      <dc:title>Matplotlib v3.10.1, https://matplotlib.org/</dc:title>
     </cc:Agent>
    </dc:creator>
   </cc:Work>
  </rdf:RDF>
 </metadata>
 <defs>
  <style type="text/css">*{stroke-linejoin: round; stroke-linecap: butt}</style>
 </defs>
 <g id="figure_1">
  <g id="patch_1">
   <path d="M 0 452.673906 
L 842.06125 452.673906 
L 842.06125 0 
L 0 0 
z
" style="fill: #ffffff"/>
  </g>
  <g id="axes_1">
   <g id="patch_2">
    <path d="M 43.78125 415.117656 
L 834.86125 415.117656 
L 834.86125 32.597656 
L 43.78125 32.597656 
z
" style="fill: #ffffff"/>
   </g>
   <g id="matplotlib.axis_1">
    <g id="xtick_1">
     <g id="line2d_1">
      <path d="M 43.78125 415.117656 
L 43.78125 32.597656 
" clip-path="url(#p8dc24814db)" style="fill: none; stroke-dasharray: 2.22,0.96; stroke-dashoffset: 0; stroke: #b0b0b0; stroke-opacity: 0.35; stroke-width: 0.6"/>
     </g>
     <g id="line2d_2">
      <defs>
       <path id="maeab4ba56d" d="M 0 0 
L 0 3.5 
" style="stroke: #000000; stroke-width: 0.8"/>
      </defs>
      <g>
       <use xlink:href="#maeab4ba56d" x="43.78125" y="415.117656" style="stroke: #000000; stroke-width: 0.8"/>
      </g>
     </g>
     <g id="text_1">
      <!-- 0.0 -->
      <g transform="translate(35.829688 429.716094) scale(0.1 -0.1)">
       <defs>
        <path id="DejaVuSans-30" d="M 2034 4250 
Q 1547 4250 1301 3770 
Q 1056 3291 1056 2328 
Q 1056 1369 1301 889 
Q 1547 409 2034 409 
Q 2525 409 2770 889 
Q 3016 1369 3016 2328 
Q 3016 3291 2770 3770 
Q 2525 4250 2034 4250 
z
M 2034 4750 
Q 2819 4750 3233 4129 
Q 3647 3509 3647 2328 
Q 3647 1150 3233 529 
Q 2819 -91 2034 -91 
Q 1250 -91 836 529 
Q 422 1150 422 2328 
Q 422 3509 836 4129 
Q 1250 4750 2034 4750 
z
" transform="scale(0.015625)"/>
        <path id="DejaVuSans-2e" d="M 684 794 
L 1344 794 
L 1344 0 
L 684 0 
L 684 794 
z
" transform="scale(0.015625)"/>
       </defs>
       <use xlink:href="#DejaVuSans-30"/>
       <use xlink:href="#DejaVuSans-2e" transform="translate(63.623047 0)"/>
       <use xlink:href="#DejaVuSans-30" transform="translate(95.410156 0)"/>
      </g>
     </g>
    </g>
    <g id="xtick_2">
     <g id="line2d_3">
      <path d="M 197.389017 415.117656 
L 197.389017 32.597656 
" clip-path="url(#p8dc24814db)" style="fill: none; stroke-dasharray: 2.22,0.96; stroke-dashoffset: 0; stroke: #b0b0b0; stroke-opacity: 0.35; stroke-width: 0.6"/>
     </g>
     <g id="line2d_4">
      <g>
       <use xlink:href="#maeab4ba56d" x="197.389017" y="415.117656" style="stroke: #000000; stroke-width: 0.8"/>
      </g>
     </g>
     <g id="text_2">
      <!-- 0.2 -->
      <g transform="translate(189.437454 429.716094) scale(0.1 -0.1)">
       <defs>
        <path id="DejaVuSans-32" d="M 1228 531 
L 3431 531 
L 3431 0 
L 469 0 
L 469 531 
Q 828 903 1448 1529 
Q 2069 2156 2228 2338 
Q 2531 2678 2651 2914 
Q 2772 3150 2772 3378 
Q 2772 3750 2511 3984 
Q 2250 4219 1831 4219 
Q 1534 4219 1204 4116 
Q 875 4013 500 3803 
L 500 4441 
Q 881 4594 1212 4672 
Q 1544 4750 1819 4750 
Q 2544 4750 2975 4387 
Q 3406 4025 3406 3419 
Q 3406 3131 3298 2873 
Q 3191 2616 2906 2266 
Q 2828 2175 2409 1742 
Q 1991 1309 1228 531 
z
" transform="scale(0.015625)"/>
       </defs>
       <use xlink:href="#DejaVuSans-30"/>
       <use xlink:href="#DejaVuSans-2e" transform="translate(63.623047 0)"/>
       <use xlink:href="#DejaVuSans-32" transform="translate(95.410156 0)"/>
      </g>
     </g>
    </g>
    <g id="xtick_3">
     <g id="line2d_5">
      <path d="M 350.996784 415.117656 
L 350.996784 32.597656 
" clip-path="url(#p8dc24814db)" style="fill: none; stroke-dasharray: 2.22,0.96; stroke-dashoffset: 0; stroke: #b0b0b0; stroke-opacity: 0.35; stroke-width: 0.6"/>
     </g>
     <g id="line2d_6">
      <g>
       <use xlink:href="#maeab4ba56d" x="350.996784" y="415.117656" style="stroke: #000000; stroke-width: 0.8"/>
      </g>
     </g>
     <g id="text_3">
      <!-- 0.4 -->
      <g transform="translate(343.045221 429.716094) scale(0.1 -0.1)">
       <defs>
        <path id="DejaVuSans-34" d="M 2419 4116 
L 825 1625 
L 2419 1625 
L 2419 4116 
z
M 2253 4666 
L 3047 4666 
L 3047 1625 
L 3713 1625 
L 3713 1100 
L 3047 1100 
L 3047 0 
L 2419 0 
L 2419 1100 
L 313 1100 
L 313 1709 
L 2253 4666 
z
" transform="scale(0.015625)"/>
       </defs>
       <use xlink:href="#DejaVuSans-30"/>
       <use xlink:href="#DejaVuSans-2e" transform="translate(63.623047 0)"/>
       <use xlink:href="#DejaVuSans-34" transform="translate(95.410156 0)"/>
      </g>
     </g>
    </g>
    <g id="xtick_4">
     <g id="line2d_7">
      <path d="M 504.604551 415.117656 
L 504.604551 32.597656 
" clip-path="url(#p8dc24814db)" style="fill: none; stroke-dasharray: 2.22,0.96; stroke-dashoffset: 0; stroke: #b0b0b0; stroke-opacity: 0.35; stroke-width: 0.6"/>
     </g>
     <g id="line2d_8">
      <g>
       <use xlink:href="#maeab4ba56d" x="504.604551" y="415.117656" style="stroke: #000000; stroke-width: 0.8"/>
      </g>
     </g>
     <g id="text_4">
      <!-- 0.6 -->
      <g transform="translate(496.652988 429.716094) scale(0.1 -0.1)">
       <defs>
        <path id="DejaVuSans-36" d="M 2113 2584 
Q 1688 2584 1439 2293 
Q 1191 2003 1191 1497 
Q 1191 994 1439 701 
Q 1688 409 2113 409 
Q 2538 409 2786 701 
Q 3034 994 3034 1497 
Q 3034 2003 2786 2293 
Q 2538 2584 2113 2584 
z
M 3366 4563 
L 3366 3988 
Q 3128 4100 2886 4159 
Q 2644 4219 2406 4219 
Q 1781 4219 1451 3797 
Q 1122 3375 1075 2522 
Q 1259 2794 1537 2939 
Q 1816 3084 2150 3084 
Q 2853 3084 3261 2657 
Q 3669 2231 3669 1497 
Q 3669 778 3244 343 
Q 2819 -91 2113 -91 
Q 1303 -91 875 529 
Q 447 1150 447 2328 
Q 447 3434 972 4092 
Q 1497 4750 2381 4750 
Q 2619 4750 2861 4703 
Q 3103 4656 3366 4563 
z
" transform="scale(0.015625)"/>
       </defs>
       <use xlink:href="#DejaVuSans-30"/>
       <use xlink:href="#DejaVuSans-2e" transform="translate(63.623047 0)"/>
       <use xlink:href="#DejaVuSans-36" transform="translate(95.410156 0)"/>
      </g>
     </g>
    </g>
    <g id="xtick_5">
     <g id="line2d_9">
      <path d="M 658.212318 415.117656 
L 658.212318 32.597656 
" clip-path="url(#p8dc24814db)" style="fill: none; stroke-dasharray: 2.22,0.96; stroke-dashoffset: 0; stroke: #b0b0b0; stroke-opacity: 0.35; stroke-width: 0.6"/>
     </g>
     <g id="line2d_10">
      <g>
       <use xlink:href="#maeab4ba56d" x="658.212318" y="415.117656" style="stroke: #000000; stroke-width: 0.8"/>
      </g>
     </g>
     <g id="text_5">
      <!-- 0.8 -->
      <g transform="translate(650.260755 429.716094) scale(0.1 -0.1)">
       <defs>
        <path id="DejaVuSans-38" d="M 2034 2216 
Q 1584 2216 1326 1975 
Q 1069 1734 1069 1313 
Q 1069 891 1326 650 
Q 1584 409 2034 409 
Q 2484 409 2743 651 
Q 3003 894 3003 1313 
Q 3003 1734 2745 1975 
Q 2488 2216 2034 2216 
z
M 1403 2484 
Q 997 2584 770 2862 
Q 544 3141 544 3541 
Q 544 4100 942 4425 
Q 1341 4750 2034 4750 
Q 2731 4750 3128 4425 
Q 3525 4100 3525 3541 
Q 3525 3141 3298 2862 
Q 3072 2584 2669 2484 
Q 3125 2378 3379 2068 
Q 3634 1759 3634 1313 
Q 3634 634 3220 271 
Q 2806 -91 2034 -91 
Q 1263 -91 848 271 
Q 434 634 434 1313 
Q 434 1759 690 2068 
Q 947 2378 1403 2484 
z
M 1172 3481 
Q 1172 3119 1398 2916 
Q 1625 2713 2034 2713 
Q 2441 2713 2670 2916 
Q 2900 3119 2900 3481 
Q 2900 3844 2670 4047 
Q 2441 4250 2034 4250 
Q 1625 4250 1398 4047 
Q 1172 3844 1172 3481 
z
" transform="scale(0.015625)"/>
       </defs>
       <use xlink:href="#DejaVuSans-30"/>
       <use xlink:href="#DejaVuSans-2e" transform="translate(63.623047 0)"/>
       <use xlink:href="#DejaVuSans-38" transform="translate(95.410156 0)"/>
      </g>
     </g>
    </g>
    <g id="xtick_6">
     <g id="line2d_11">
      <path d="M 811.820085 415.117656 
L 811.820085 32.597656 
" clip-path="url(#p8dc24814db)" style="fill: none; stroke-dasharray: 2.22,0.96; stroke-dashoffset: 0; stroke: #b0b0b0; stroke-opacity: 0.35; stroke-width: 0.6"/>
     </g>
     <g id="line2d_12">
      <g>
       <use xlink:href="#maeab4ba56d" x="811.820085" y="415.117656" style="stroke: #000000; stroke-width: 0.8"/>
      </g>
     </g>
     <g id="text_6">
      <!-- 1.0 -->
      <g transform="translate(803.868522 429.716094) scale(0.1 -0.1)">
       <defs>
        <path id="DejaVuSans-31" d="M 794 531 
L 1825 531 
L 1825 4091 
L 703 3866 
L 703 4441 
L 1819 4666 
L 2450 4666 
L 2450 531 
L 3481 531 
L 3481 0 
L 794 0 
L 794 531 
z
" transform="scale(0.015625)"/>
       </defs>
       <use xlink:href="#DejaVuSans-31"/>
       <use xlink:href="#DejaVuSans-2e" transform="translate(63.623047 0)"/>
       <use xlink:href="#DejaVuSans-30" transform="translate(95.410156 0)"/>
      </g>
     </g>
    </g>
    <g id="text_7">
     <!-- FD Density -->
     <g transform="translate(411.997813 443.394219) scale(0.1 -0.1)">
      <defs>
       <path id="DejaVuSans-46" d="M 628 4666 
L 3309 4666 
L 3309 4134 
L 1259 4134 
L 1259 2759 
L 3109 2759 
L 3109 2228 
L 1259 2228 
L 1259 0 
L 628 0 
L 628 4666 
z
" transform="scale(0.015625)"/>
       <path id="DejaVuSans-44" d="M 1259 4147 
L 1259 519 
L 2022 519 
Q 2988 519 3436 956 
Q 3884 1394 3884 2338 
Q 3884 3275 3436 3711 
Q 2988 4147 2022 4147 
L 1259 4147 
z
M 628 4666 
L 1925 4666 
Q 3281 4666 3915 4102 
Q 4550 3538 4550 2338 
Q 4550 1131 3912 565 
Q 3275 0 1925 0 
L 628 0 
L 628 4666 
z
" transform="scale(0.015625)"/>
       <path id="DejaVuSans-20" transform="scale(0.015625)"/>
       <path id="DejaVuSans-65" d="M 3597 1894 
L 3597 1613 
L 953 1613 
Q 991 1019 1311 708 
Q 1631 397 2203 397 
Q 2534 397 2845 478 
Q 3156 559 3463 722 
L 3463 178 
Q 3153 47 2828 -22 
Q 2503 -91 2169 -91 
Q 1331 -91 842 396 
Q 353 884 353 1716 
Q 353 2575 817 3079 
Q 1281 3584 2069 3584 
Q 2775 3584 3186 3129 
Q 3597 2675 3597 1894 
z
M 3022 2063 
Q 3016 2534 2758 2815 
Q 2500 3097 2075 3097 
Q 1594 3097 1305 2825 
Q 1016 2553 972 2059 
L 3022 2063 
z
" transform="scale(0.015625)"/>
       <path id="DejaVuSans-6e" d="M 3513 2113 
L 3513 0 
L 2938 0 
L 2938 2094 
Q 2938 2591 2744 2837 
Q 2550 3084 2163 3084 
Q 1697 3084 1428 2787 
Q 1159 2491 1159 1978 
L 1159 0 
L 581 0 
L 581 3500 
L 1159 3500 
L 1159 2956 
Q 1366 3272 1645 3428 
Q 1925 3584 2291 3584 
Q 2894 3584 3203 3211 
Q 3513 2838 3513 2113 
z
" transform="scale(0.015625)"/>
       <path id="DejaVuSans-73" d="M 2834 3397 
L 2834 2853 
Q 2591 2978 2328 3040 
Q 2066 3103 1784 3103 
Q 1356 3103 1142 2972 
Q 928 2841 928 2578 
Q 928 2378 1081 2264 
Q 1234 2150 1697 2047 
L 1894 2003 
Q 2506 1872 2764 1633 
Q 3022 1394 3022 966 
Q 3022 478 2636 193 
Q 2250 -91 1575 -91 
Q 1294 -91 989 -36 
Q 684 19 347 128 
L 347 722 
Q 666 556 975 473 
Q 1284 391 1588 391 
Q 1994 391 2212 530 
Q 2431 669 2431 922 
Q 2431 1156 2273 1281 
Q 2116 1406 1581 1522 
L 1381 1569 
Q 847 1681 609 1914 
Q 372 2147 372 2553 
Q 372 3047 722 3315 
Q 1072 3584 1716 3584 
Q 2034 3584 2315 3537 
Q 2597 3491 2834 3397 
z
" transform="scale(0.015625)"/>
       <path id="DejaVuSans-69" d="M 603 3500 
L 1178 3500 
L 1178 0 
L 603 0 
L 603 3500 
z
M 603 4863 
L 1178 4863 
L 1178 4134 
L 603 4134 
L 603 4863 
z
" transform="scale(0.015625)"/>
       <path id="DejaVuSans-74" d="M 1172 4494 
L 1172 3500 
L 2356 3500 
L 2356 3053 
L 1172 3053 
L 1172 1153 
Q 1172 725 1289 603 
Q 1406 481 1766 481 
L 2356 481 
L 2356 0 
L 1766 0 
Q 1100 0 847 248 
Q 594 497 594 1153 
L 594 3053 
L 172 3053 
L 172 3500 
L 594 3500 
L 594 4494 
L 1172 4494 
z
" transform="scale(0.015625)"/>
       <path id="DejaVuSans-79" d="M 2059 -325 
Q 1816 -950 1584 -1140 
Q 1353 -1331 966 -1331 
L 506 -1331 
L 506 -850 
L 844 -850 
Q 1081 -850 1212 -737 
Q 1344 -625 1503 -206 
L 1606 56 
L 191 3500 
L 800 3500 
L 1894 763 
L 2988 3500 
L 3597 3500 
L 2059 -325 
z
" transform="scale(0.015625)"/>
      </defs>
      <use xlink:href="#DejaVuSans-46"/>
      <use xlink:href="#DejaVuSans-44" transform="translate(57.519531 0)"/>
      <use xlink:href="#DejaVuSans-20" transform="translate(134.521484 0)"/>
      <use xlink:href="#DejaVuSans-44" transform="translate(166.308594 0)"/>
      <use xlink:href="#DejaVuSans-65" transform="translate(243.310547 0)"/>
      <use xlink:href="#DejaVuSans-6e" transform="translate(304.833984 0)"/>
      <use xlink:href="#DejaVuSans-73" transform="translate(368.212891 0)"/>
      <use xlink:href="#DejaVuSans-69" transform="translate(420.3125 0)"/>
      <use xlink:href="#DejaVuSans-74" transform="translate(448.095703 0)"/>
      <use xlink:href="#DejaVuSans-79" transform="translate(487.304688 0)"/>
     </g>
    </g>
   </g>
   <g id="matplotlib.axis_2">
    <g id="ytick_1">
     <g id="line2d_13">
      <path d="M 43.78125 397.939156 
L 834.86125 397.939156 
" clip-path="url(#p8dc24814db)" style="fill: none; stroke-dasharray: 2.22,0.96; stroke-dashoffset: 0; stroke: #b0b0b0; stroke-opacity: 0.35; stroke-width: 0.6"/>
     </g>
     <g id="line2d_14">
      <defs>
       <path id="m49b594bbfc" d="M 0 0 
L -3.5 0 
" style="stroke: #000000; stroke-width: 0.8"/>
      </defs>
      <g>
       <use xlink:href="#m49b594bbfc" x="43.78125" y="397.939156" style="stroke: #000000; stroke-width: 0.8"/>
      </g>
     </g>
     <g id="text_8">
      <!-- 0.0 -->
      <g transform="translate(20.878125 401.738375) scale(0.1 -0.1)">
       <use xlink:href="#DejaVuSans-30"/>
       <use xlink:href="#DejaVuSans-2e" transform="translate(63.623047 0)"/>
       <use xlink:href="#DejaVuSans-30" transform="translate(95.410156 0)"/>
      </g>
     </g>
    </g>
    <g id="ytick_2">
     <g id="line2d_15">
      <path d="M 43.78125 328.348311 
L 834.86125 328.348311 
" clip-path="url(#p8dc24814db)" style="fill: none; stroke-dasharray: 2.22,0.96; stroke-dashoffset: 0; stroke: #b0b0b0; stroke-opacity: 0.35; stroke-width: 0.6"/>
     </g>
     <g id="line2d_16">
      <g>
       <use xlink:href="#m49b594bbfc" x="43.78125" y="328.348311" style="stroke: #000000; stroke-width: 0.8"/>
      </g>
     </g>
     <g id="text_9">
      <!-- 0.2 -->
      <g transform="translate(20.878125 332.147529) scale(0.1 -0.1)">
       <use xlink:href="#DejaVuSans-30"/>
       <use xlink:href="#DejaVuSans-2e" transform="translate(63.623047 0)"/>
       <use xlink:href="#DejaVuSans-32" transform="translate(95.410156 0)"/>
      </g>
     </g>
    </g>
    <g id="ytick_3">
     <g id="line2d_17">
      <path d="M 43.78125 258.757465 
L 834.86125 258.757465 
" clip-path="url(#p8dc24814db)" style="fill: none; stroke-dasharray: 2.22,0.96; stroke-dashoffset: 0; stroke: #b0b0b0; stroke-opacity: 0.35; stroke-width: 0.6"/>
     </g>
     <g id="line2d_18">
      <g>
       <use xlink:href="#m49b594bbfc" x="43.78125" y="258.757465" style="stroke: #000000; stroke-width: 0.8"/>
      </g>
     </g>
     <g id="text_10">
      <!-- 0.4 -->
      <g transform="translate(20.878125 262.556684) scale(0.1 -0.1)">
       <use xlink:href="#DejaVuSans-30"/>
       <use xlink:href="#DejaVuSans-2e" transform="translate(63.623047 0)"/>
       <use xlink:href="#DejaVuSans-34" transform="translate(95.410156 0)"/>
      </g>
     </g>
    </g>
    <g id="ytick_4">
     <g id="line2d_19">
      <path d="M 43.78125 189.16662 
L 834.86125 189.16662 
" clip-path="url(#p8dc24814db)" style="fill: none; stroke-dasharray: 2.22,0.96; stroke-dashoffset: 0; stroke: #b0b0b0; stroke-opacity: 0.35; stroke-width: 0.6"/>
     </g>
     <g id="line2d_20">
      <g>
       <use xlink:href="#m49b594bbfc" x="43.78125" y="189.16662" style="stroke: #000000; stroke-width: 0.8"/>
      </g>
     </g>
     <g id="text_11">
      <!-- 0.6 -->
      <g transform="translate(20.878125 192.965839) scale(0.1 -0.1)">
       <use xlink:href="#DejaVuSans-30"/>
       <use xlink:href="#DejaVuSans-2e" transform="translate(63.623047 0)"/>
       <use xlink:href="#DejaVuSans-36" transform="translate(95.410156 0)"/>
      </g>
     </g>
    </g>
    <g id="ytick_5">
     <g id="line2d_21">
      <path d="M 43.78125 119.575774 
L 834.86125 119.575774 
" clip-path="url(#p8dc24814db)" style="fill: none; stroke-dasharray: 2.22,0.96; stroke-dashoffset: 0; stroke: #b0b0b0; stroke-opacity: 0.35; stroke-width: 0.6"/>
     </g>
     <g id="line2d_22">
      <g>
       <use xlink:href="#m49b594bbfc" x="43.78125" y="119.575774" style="stroke: #000000; stroke-width: 0.8"/>
      </g>
     </g>
     <g id="text_12">
      <!-- 0.8 -->
      <g transform="translate(20.878125 123.374993) scale(0.1 -0.1)">
       <use xlink:href="#DejaVuSans-30"/>
       <use xlink:href="#DejaVuSans-2e" transform="translate(63.623047 0)"/>
       <use xlink:href="#DejaVuSans-38" transform="translate(95.410156 0)"/>
      </g>
     </g>
    </g>
    <g id="ytick_6">
     <g id="line2d_23">
      <path d="M 43.78125 49.984929 
L 834.86125 49.984929 
" clip-path="url(#p8dc24814db)" style="fill: none; stroke-dasharray: 2.22,0.96; stroke-dashoffset: 0; stroke: #b0b0b0; stroke-opacity: 0.35; stroke-width: 0.6"/>
     </g>
     <g id="line2d_24">
      <g>
       <use xlink:href="#m49b594bbfc" x="43.78125" y="49.984929" style="stroke: #000000; stroke-width: 0.8"/>
      </g>
     </g>
     <g id="text_13">
      <!-- 1.0 -->
      <g transform="translate(20.878125 53.784148) scale(0.1 -0.1)">
       <use xlink:href="#DejaVuSans-31"/>
       <use xlink:href="#DejaVuSans-2e" transform="translate(63.623047 0)"/>
       <use xlink:href="#DejaVuSans-30" transform="translate(95.410156 0)"/>
      </g>
     </g>
    </g>
    <g id="text_14">
     <!-- BCNF Rate -->
     <g transform="translate(14.798438 250.36) rotate(-90) scale(0.1 -0.1)">
      <defs>
       <path id="DejaVuSans-42" d="M 1259 2228 
L 1259 519 
L 2272 519 
Q 2781 519 3026 730 
Q 3272 941 3272 1375 
Q 3272 1813 3026 2020 
Q 2781 2228 2272 2228 
L 1259 2228 
z
M 1259 4147 
L 1259 2741 
L 2194 2741 
Q 2656 2741 2882 2914 
Q 3109 3088 3109 3444 
Q 3109 3797 2882 3972 
Q 2656 4147 2194 4147 
L 1259 4147 
z
M 628 4666 
L 2241 4666 
Q 2963 4666 3353 4366 
Q 3744 4066 3744 3513 
Q 3744 3084 3544 2831 
Q 3344 2578 2956 2516 
Q 3422 2416 3680 2098 
Q 3938 1781 3938 1306 
Q 3938 681 3513 340 
Q 3088 0 2303 0 
L 628 0 
L 628 4666 
z
" transform="scale(0.015625)"/>
       <path id="DejaVuSans-43" d="M 4122 4306 
L 4122 3641 
Q 3803 3938 3442 4084 
Q 3081 4231 2675 4231 
Q 1875 4231 1450 3742 
Q 1025 3253 1025 2328 
Q 1025 1406 1450 917 
Q 1875 428 2675 428 
Q 3081 428 3442 575 
Q 3803 722 4122 1019 
L 4122 359 
Q 3791 134 3420 21 
Q 3050 -91 2638 -91 
Q 1578 -91 968 557 
Q 359 1206 359 2328 
Q 359 3453 968 4101 
Q 1578 4750 2638 4750 
Q 3056 4750 3426 4639 
Q 3797 4528 4122 4306 
z
" transform="scale(0.015625)"/>
       <path id="DejaVuSans-4e" d="M 628 4666 
L 1478 4666 
L 3547 763 
L 3547 4666 
L 4159 4666 
L 4159 0 
L 3309 0 
L 1241 3903 
L 1241 0 
L 628 0 
L 628 4666 
z
" transform="scale(0.015625)"/>
       <path id="DejaVuSans-52" d="M 2841 2188 
Q 3044 2119 3236 1894 
Q 3428 1669 3622 1275 
L 4263 0 
L 3584 0 
L 2988 1197 
Q 2756 1666 2539 1819 
Q 2322 1972 1947 1972 
L 1259 1972 
L 1259 0 
L 628 0 
L 628 4666 
L 2053 4666 
Q 2853 4666 3247 4331 
Q 3641 3997 3641 3322 
Q 3641 2881 3436 2590 
Q 3231 2300 2841 2188 
z
M 1259 4147 
L 1259 2491 
L 2053 2491 
Q 2509 2491 2742 2702 
Q 2975 2913 2975 3322 
Q 2975 3731 2742 3939 
Q 2509 4147 2053 4147 
L 1259 4147 
z
" transform="scale(0.015625)"/>
       <path id="DejaVuSans-61" d="M 2194 1759 
Q 1497 1759 1228 1600 
Q 959 1441 959 1056 
Q 959 750 1161 570 
Q 1363 391 1709 391 
Q 2188 391 2477 730 
Q 2766 1069 2766 1631 
L 2766 1759 
L 2194 1759 
z
M 3341 1997 
L 3341 0 
L 2766 0 
L 2766 531 
Q 2569 213 2275 61 
Q 1981 -91 1556 -91 
Q 1019 -91 701 211 
Q 384 513 384 1019 
Q 384 1609 779 1909 
Q 1175 2209 1959 2209 
L 2766 2209 
L 2766 2266 
Q 2766 2663 2505 2880 
Q 2244 3097 1772 3097 
Q 1472 3097 1187 3025 
Q 903 2953 641 2809 
L 641 3341 
Q 956 3463 1253 3523 
Q 1550 3584 1831 3584 
Q 2591 3584 2966 3190 
Q 3341 2797 3341 1997 
z
" transform="scale(0.015625)"/>
      </defs>
      <use xlink:href="#DejaVuSans-42"/>
      <use xlink:href="#DejaVuSans-43" transform="translate(66.853516 0)"/>
      <use xlink:href="#DejaVuSans-4e" transform="translate(136.677734 0)"/>
      <use xlink:href="#DejaVuSans-46" transform="translate(211.482422 0)"/>
      <use xlink:href="#DejaVuSans-20" transform="translate(269.001953 0)"/>
      <use xlink:href="#DejaVuSans-52" transform="translate(300.789062 0)"/>
      <use xlink:href="#DejaVuSans-61" transform="translate(368.021484 0)"/>
      <use xlink:href="#DejaVuSans-74" transform="translate(429.300781 0)"/>
      <use xlink:href="#DejaVuSans-65" transform="translate(468.509766 0)"/>
     </g>
    </g>
   </g>
   <g id="line2d_25">
    <path d="M 71.211208 246.126727 
L 126.071125 345.490856 
L 153.501084 336.652818 
L 208.361 289.806581 
L 235.790959 256.217399 
L 263.220917 223.474907 
L 318.080834 160.634373 
L 345.510792 135.106131 
L 400.370709 94.743441 
L 427.800667 81.161628 
L 455.230626 70.433039 
L 482.660584 63.497151 
L 510.090543 57.721111 
L 537.520501 54.554728 
L 592.380418 50.901208 
L 619.810376 50.530057 
L 647.240335 50.2053 
L 702.100251 50.008126 
L 729.53021 49.984929 
L 784.390127 49.984929 
L 811.820085 49.984929 
" clip-path="url(#p8dc24814db)" style="fill: none; stroke: #e41a1c; stroke-width: 2; stroke-linecap: square"/>
    <defs>
     <path id="m5e633b50f6" d="M 0 2 
C 0.530406 2 1.03916 1.789267 1.414214 1.414214 
C 1.789267 1.03916 2 0.530406 2 0 
C 2 -0.530406 1.789267 -1.03916 1.414214 -1.414214 
C 1.03916 -1.789267 0.530406 -2 0 -2 
C -0.530406 -2 -1.03916 -1.789267 -1.414214 -1.414214 
C -1.789267 -1.03916 -2 -0.530406 -2 0 
C -2 0.530406 -1.789267 1.03916 -1.414214 1.414214 
C -1.03916 1.789267 -0.530406 2 0 2 
z
" style="stroke: #e41a1c"/>
    </defs>
    <g clip-path="url(#p8dc24814db)">
     <use xlink:href="#m5e633b50f6" x="71.211208" y="246.126727" style="fill: #e41a1c; stroke: #e41a1c"/>
     <use xlink:href="#m5e633b50f6" x="126.071125" y="345.490856" style="fill: #e41a1c; stroke: #e41a1c"/>
     <use xlink:href="#m5e633b50f6" x="153.501084" y="336.652818" style="fill: #e41a1c; stroke: #e41a1c"/>
     <use xlink:href="#m5e633b50f6" x="208.361" y="289.806581" style="fill: #e41a1c; stroke: #e41a1c"/>
     <use xlink:href="#m5e633b50f6" x="235.790959" y="256.217399" style="fill: #e41a1c; stroke: #e41a1c"/>
     <use xlink:href="#m5e633b50f6" x="263.220917" y="223.474907" style="fill: #e41a1c; stroke: #e41a1c"/>
     <use xlink:href="#m5e633b50f6" x="318.080834" y="160.634373" style="fill: #e41a1c; stroke: #e41a1c"/>
     <use xlink:href="#m5e633b50f6" x="345.510792" y="135.106131" style="fill: #e41a1c; stroke: #e41a1c"/>
     <use xlink:href="#m5e633b50f6" x="400.370709" y="94.743441" style="fill: #e41a1c; stroke: #e41a1c"/>
     <use xlink:href="#m5e633b50f6" x="427.800667" y="81.161628" style="fill: #e41a1c; stroke: #e41a1c"/>
     <use xlink:href="#m5e633b50f6" x="455.230626" y="70.433039" style="fill: #e41a1c; stroke: #e41a1c"/>
     <use xlink:href="#m5e633b50f6" x="482.660584" y="63.497151" style="fill: #e41a1c; stroke: #e41a1c"/>
     <use xlink:href="#m5e633b50f6" x="510.090543" y="57.721111" style="fill: #e41a1c; stroke: #e41a1c"/>
     <use xlink:href="#m5e633b50f6" x="537.520501" y="54.554728" style="fill: #e41a1c; stroke: #e41a1c"/>
     <use xlink:href="#m5e633b50f6" x="592.380418" y="50.901208" style="fill: #e41a1c; stroke: #e41a1c"/>
     <use xlink:href="#m5e633b50f6" x="619.810376" y="50.530057" style="fill: #e41a1c; stroke: #e41a1c"/>
     <use xlink:href="#m5e633b50f6" x="647.240335" y="50.2053" style="fill: #e41a1c; stroke: #e41a1c"/>
     <use xlink:href="#m5e633b50f6" x="702.100251" y="50.008126" style="fill: #e41a1c; stroke: #e41a1c"/>
     <use xlink:href="#m5e633b50f6" x="729.53021" y="49.984929" style="fill: #e41a1c; stroke: #e41a1c"/>
     <use xlink:href="#m5e633b50f6" x="784.390127" y="49.984929" style="fill: #e41a1c; stroke: #e41a1c"/>
     <use xlink:href="#m5e633b50f6" x="811.820085" y="49.984929" style="fill: #e41a1c; stroke: #e41a1c"/>
    </g>
   </g>
   <g id="line2d_26">
    <path d="M 54.021768 261.807864 
L 84.743321 384.658903 
L 125.705392 361.682326 
L 156.426946 318.188047 
L 197.389017 247.530142 
L 238.351088 177.962494 
L 248.591606 162.142175 
L 279.313159 124.528323 
L 310.034713 96.715182 
L 350.996784 73.877786 
L 391.958855 61.281843 
L 432.920926 54.809894 
L 463.64248 52.130647 
L 504.604551 50.773625 
L 545.566622 50.274891 
L 586.528693 50.019724 
L 617.250247 49.996527 
L 658.212318 49.984929 
L 699.174389 49.984929 
L 740.13646 49.984929 
L 770.858014 49.984929 
L 811.820085 49.984929 
" clip-path="url(#p8dc24814db)" style="fill: none; stroke: #4daf4a; stroke-width: 2; stroke-linecap: square"/>
    <defs>
     <path id="mec896c1647" d="M 0 2 
C 0.530406 2 1.03916 1.789267 1.414214 1.414214 
C 1.789267 1.03916 2 0.530406 2 0 
C 2 -0.530406 1.789267 -1.03916 1.414214 -1.414214 
C 1.03916 -1.789267 0.530406 -2 0 -2 
C -0.530406 -2 -1.03916 -1.789267 -1.414214 -1.414214 
C -1.789267 -1.03916 -2 -0.530406 -2 0 
C -2 0.530406 -1.789267 1.03916 -1.414214 1.414214 
C -1.03916 1.789267 -0.530406 2 0 2 
z
" style="stroke: #4daf4a"/>
    </defs>
    <g clip-path="url(#p8dc24814db)">
     <use xlink:href="#mec896c1647" x="54.021768" y="261.807864" style="fill: #4daf4a; stroke: #4daf4a"/>
     <use xlink:href="#mec896c1647" x="84.743321" y="384.658903" style="fill: #4daf4a; stroke: #4daf4a"/>
     <use xlink:href="#mec896c1647" x="125.705392" y="361.682326" style="fill: #4daf4a; stroke: #4daf4a"/>
     <use xlink:href="#mec896c1647" x="156.426946" y="318.188047" style="fill: #4daf4a; stroke: #4daf4a"/>
     <use xlink:href="#mec896c1647" x="197.389017" y="247.530142" style="fill: #4daf4a; stroke: #4daf4a"/>
     <use xlink:href="#mec896c1647" x="238.351088" y="177.962494" style="fill: #4daf4a; stroke: #4daf4a"/>
     <use xlink:href="#mec896c1647" x="248.591606" y="162.142175" style="fill: #4daf4a; stroke: #4daf4a"/>
     <use xlink:href="#mec896c1647" x="279.313159" y="124.528323" style="fill: #4daf4a; stroke: #4daf4a"/>
     <use xlink:href="#mec896c1647" x="310.034713" y="96.715182" style="fill: #4daf4a; stroke: #4daf4a"/>
     <use xlink:href="#mec896c1647" x="350.996784" y="73.877786" style="fill: #4daf4a; stroke: #4daf4a"/>
     <use xlink:href="#mec896c1647" x="391.958855" y="61.281843" style="fill: #4daf4a; stroke: #4daf4a"/>
     <use xlink:href="#mec896c1647" x="432.920926" y="54.809894" style="fill: #4daf4a; stroke: #4daf4a"/>
     <use xlink:href="#mec896c1647" x="463.64248" y="52.130647" style="fill: #4daf4a; stroke: #4daf4a"/>
     <use xlink:href="#mec896c1647" x="504.604551" y="50.773625" style="fill: #4daf4a; stroke: #4daf4a"/>
     <use xlink:href="#mec896c1647" x="545.566622" y="50.274891" style="fill: #4daf4a; stroke: #4daf4a"/>
     <use xlink:href="#mec896c1647" x="586.528693" y="50.019724" style="fill: #4daf4a; stroke: #4daf4a"/>
     <use xlink:href="#mec896c1647" x="617.250247" y="49.996527" style="fill: #4daf4a; stroke: #4daf4a"/>
     <use xlink:href="#mec896c1647" x="658.212318" y="49.984929" style="fill: #4daf4a; stroke: #4daf4a"/>
     <use xlink:href="#mec896c1647" x="699.174389" y="49.984929" style="fill: #4daf4a; stroke: #4daf4a"/>
     <use xlink:href="#mec896c1647" x="740.13646" y="49.984929" style="fill: #4daf4a; stroke: #4daf4a"/>
     <use xlink:href="#mec896c1647" x="770.858014" y="49.984929" style="fill: #4daf4a; stroke: #4daf4a"/>
     <use xlink:href="#mec896c1647" x="811.820085" y="49.984929" style="fill: #4daf4a; stroke: #4daf4a"/>
    </g>
   </g>
   <g id="line2d_27">
    <path d="M 47.910491 264.896924 
L 80.944419 393.311365 
L 97.461384 380.889399 
L 101.590625 376.528373 
L 105.719866 371.459839 
L 109.849107 365.463428 
L 113.978348 358.399957 
L 118.107589 350.802957 
L 122.23683 343.93666 
L 126.366071 334.240336 
L 130.495312 326.596941 
L 134.624553 316.390284 
L 138.753794 307.610239 
L 142.883035 300.372791 
L 147.012276 289.412233 
L 151.141517 279.147583 
L 155.270758 269.509251 
L 159.399999 261.918049 
L 163.52924 251.693994 
L 167.658481 240.617452 
L 171.787722 232.138967 
L 175.916964 225.620624 
L 180.046205 215.553149 
L 184.175446 205.65965 
L 188.304687 196.241689 
L 192.433928 190.859997 
L 196.563169 181.349248 
L 200.69241 172.372029 
L 204.821651 168.115389 
L 208.950892 159.428132 
L 213.080133 153.89566 
L 217.209374 148.745937 
L 221.338615 142.865511 
L 225.467856 134.514609 
L 229.597097 130.32756 
L 233.726338 125.073451 
L 237.855579 119.656964 
L 241.98482 116.478982 
L 246.114061 110.888517 
L 250.243302 107.026225 
L 254.372543 102.931964 
L 258.501785 99.359634 
L 262.631026 94.662252 
L 266.760267 92.064194 
L 270.889508 89.002196 
L 275.018749 85.656036 
L 279.14799 83.434929 
L 283.277231 80.488916 
L 287.406472 78.343198 
L 291.535713 75.698746 
L 295.664954 74.318528 
L 299.794195 71.906045 
L 303.923436 71.001364 
L 308.052677 68.113344 
L 312.181918 67.545019 
L 316.311159 65.805248 
L 320.4404 64.274249 
L 324.569641 63.35797 
L 328.698882 62.244516 
L 332.828123 60.725116 
L 336.957364 59.913223 
L 341.086605 58.880959 
L 345.215847 58.359027 
L 349.345088 57.605127 
L 353.474329 57.083195 
L 357.60357 56.004537 
L 361.732811 55.737772 
L 365.862052 55.331826 
L 369.991293 54.659114 
L 374.120534 54.403948 
L 378.249775 53.580456 
L 382.379016 52.988934 
L 386.508257 53.070123 
L 390.637498 52.664177 
L 394.766739 52.374215 
L 398.89598 51.933473 
L 403.025221 51.991465 
L 407.154462 51.898677 
L 411.283703 51.817488 
L 415.412944 51.515928 
L 419.542185 51.167973 
L 423.671426 51.156375 
L 427.800667 50.970799 
L 431.929909 50.820019 
L 436.05915 50.808421 
L 440.188391 50.634444 
L 444.317632 50.530057 
L 448.446873 50.495262 
L 452.576114 50.321285 
L 456.705355 50.518459 
L 460.834596 50.379277 
L 464.963837 50.271991 
L 469.093078 50.170505 
L 473.222319 50.193702 
L 477.35156 50.251694 
L 481.480801 50.193702 
L 485.610042 50.112512 
L 489.739283 50.182103 
L 493.868524 50.066118 
L 497.997765 50.042921 
L 502.127006 50.124111 
L 506.256247 50.019724 
L 510.385488 50.05452 
L 514.514729 50.042921 
L 518.643971 50.05452 
L 522.773212 49.996527 
L 526.902453 50.031323 
L 531.031694 50.008126 
L 535.160935 49.996527 
L 539.290176 50.008126 
L 543.419417 49.993628 
L 580.582586 49.984929 
L 621.874997 49.993628 
L 659.038166 49.984929 
L 696.201336 49.984929 
L 733.364505 49.984929 
L 774.656916 49.984929 
L 811.820085 49.984929 
" clip-path="url(#p8dc24814db)" style="fill: none; stroke: #ff7f00; stroke-width: 2; stroke-linecap: square"/>
    <defs>
     <path id="ma35aea4b06" d="M 0 2 
C 0.530406 2 1.03916 1.789267 1.414214 1.414214 
C 1.789267 1.03916 2 0.530406 2 0 
C 2 -0.530406 1.789267 -1.03916 1.414214 -1.414214 
C 1.03916 -1.789267 0.530406 -2 0 -2 
C -0.530406 -2 -1.03916 -1.789267 -1.414214 -1.414214 
C -1.789267 -1.03916 -2 -0.530406 -2 0 
C -2 0.530406 -1.789267 1.03916 -1.414214 1.414214 
C -1.03916 1.789267 -0.530406 2 0 2 
z
" style="stroke: #ff7f00"/>
    </defs>
    <g clip-path="url(#p8dc24814db)">
     <use xlink:href="#ma35aea4b06" x="47.910491" y="264.896924" style="fill: #ff7f00; stroke: #ff7f00"/>
     <use xlink:href="#ma35aea4b06" x="80.944419" y="393.311365" style="fill: #ff7f00; stroke: #ff7f00"/>
     <use xlink:href="#ma35aea4b06" x="97.461384" y="380.889399" style="fill: #ff7f00; stroke: #ff7f00"/>
     <use xlink:href="#ma35aea4b06" x="101.590625" y="376.528373" style="fill: #ff7f00; stroke: #ff7f00"/>
     <use xlink:href="#ma35aea4b06" x="105.719866" y="371.459839" style="fill: #ff7f00; stroke: #ff7f00"/>
     <use xlink:href="#ma35aea4b06" x="109.849107" y="365.463428" style="fill: #ff7f00; stroke: #ff7f00"/>
     <use xlink:href="#ma35aea4b06" x="113.978348" y="358.399957" style="fill: #ff7f00; stroke: #ff7f00"/>
     <use xlink:href="#ma35aea4b06" x="118.107589" y="350.802957" style="fill: #ff7f00; stroke: #ff7f00"/>
     <use xlink:href="#ma35aea4b06" x="122.23683" y="343.93666" style="fill: #ff7f00; stroke: #ff7f00"/>
     <use xlink:href="#ma35aea4b06" x="126.366071" y="334.240336" style="fill: #ff7f00; stroke: #ff7f00"/>
     <use xlink:href="#ma35aea4b06" x="130.495312" y="326.596941" style="fill: #ff7f00; stroke: #ff7f00"/>
     <use xlink:href="#ma35aea4b06" x="134.624553" y="316.390284" style="fill: #ff7f00; stroke: #ff7f00"/>
     <use xlink:href="#ma35aea4b06" x="138.753794" y="307.610239" style="fill: #ff7f00; stroke: #ff7f00"/>
     <use xlink:href="#ma35aea4b06" x="142.883035" y="300.372791" style="fill: #ff7f00; stroke: #ff7f00"/>
     <use xlink:href="#ma35aea4b06" x="147.012276" y="289.412233" style="fill: #ff7f00; stroke: #ff7f00"/>
     <use xlink:href="#ma35aea4b06" x="151.141517" y="279.147583" style="fill: #ff7f00; stroke: #ff7f00"/>
     <use xlink:href="#ma35aea4b06" x="155.270758" y="269.509251" style="fill: #ff7f00; stroke: #ff7f00"/>
     <use xlink:href="#ma35aea4b06" x="159.399999" y="261.918049" style="fill: #ff7f00; stroke: #ff7f00"/>
     <use xlink:href="#ma35aea4b06" x="163.52924" y="251.693994" style="fill: #ff7f00; stroke: #ff7f00"/>
     <use xlink:href="#ma35aea4b06" x="167.658481" y="240.617452" style="fill: #ff7f00; stroke: #ff7f00"/>
     <use xlink:href="#ma35aea4b06" x="171.787722" y="232.138967" style="fill: #ff7f00; stroke: #ff7f00"/>
     <use xlink:href="#ma35aea4b06" x="175.916964" y="225.620624" style="fill: #ff7f00; stroke: #ff7f00"/>
     <use xlink:href="#ma35aea4b06" x="180.046205" y="215.553149" style="fill: #ff7f00; stroke: #ff7f00"/>
     <use xlink:href="#ma35aea4b06" x="184.175446" y="205.65965" style="fill: #ff7f00; stroke: #ff7f00"/>
     <use xlink:href="#ma35aea4b06" x="188.304687" y="196.241689" style="fill: #ff7f00; stroke: #ff7f00"/>
     <use xlink:href="#ma35aea4b06" x="192.433928" y="190.859997" style="fill: #ff7f00; stroke: #ff7f00"/>
     <use xlink:href="#ma35aea4b06" x="196.563169" y="181.349248" style="fill: #ff7f00; stroke: #ff7f00"/>
     <use xlink:href="#ma35aea4b06" x="200.69241" y="172.372029" style="fill: #ff7f00; stroke: #ff7f00"/>
     <use xlink:href="#ma35aea4b06" x="204.821651" y="168.115389" style="fill: #ff7f00; stroke: #ff7f00"/>
     <use xlink:href="#ma35aea4b06" x="208.950892" y="159.428132" style="fill: #ff7f00; stroke: #ff7f00"/>
     <use xlink:href="#ma35aea4b06" x="213.080133" y="153.89566" style="fill: #ff7f00; stroke: #ff7f00"/>
     <use xlink:href="#ma35aea4b06" x="217.209374" y="148.745937" style="fill: #ff7f00; stroke: #ff7f00"/>
     <use xlink:href="#ma35aea4b06" x="221.338615" y="142.865511" style="fill: #ff7f00; stroke: #ff7f00"/>
     <use xlink:href="#ma35aea4b06" x="225.467856" y="134.514609" style="fill: #ff7f00; stroke: #ff7f00"/>
     <use xlink:href="#ma35aea4b06" x="229.597097" y="130.32756" style="fill: #ff7f00; stroke: #ff7f00"/>
     <use xlink:href="#ma35aea4b06" x="233.726338" y="125.073451" style="fill: #ff7f00; stroke: #ff7f00"/>
     <use xlink:href="#ma35aea4b06" x="237.855579" y="119.656964" style="fill: #ff7f00; stroke: #ff7f00"/>
     <use xlink:href="#ma35aea4b06" x="241.98482" y="116.478982" style="fill: #ff7f00; stroke: #ff7f00"/>
     <use xlink:href="#ma35aea4b06" x="246.114061" y="110.888517" style="fill: #ff7f00; stroke: #ff7f00"/>
     <use xlink:href="#ma35aea4b06" x="250.243302" y="107.026225" style="fill: #ff7f00; stroke: #ff7f00"/>
     <use xlink:href="#ma35aea4b06" x="254.372543" y="102.931964" style="fill: #ff7f00; stroke: #ff7f00"/>
     <use xlink:href="#ma35aea4b06" x="258.501785" y="99.359634" style="fill: #ff7f00; stroke: #ff7f00"/>
     <use xlink:href="#ma35aea4b06" x="262.631026" y="94.662252" style="fill: #ff7f00; stroke: #ff7f00"/>
     <use xlink:href="#ma35aea4b06" x="266.760267" y="92.064194" style="fill: #ff7f00; stroke: #ff7f00"/>
     <use xlink:href="#ma35aea4b06" x="270.889508" y="89.002196" style="fill: #ff7f00; stroke: #ff7f00"/>
     <use xlink:href="#ma35aea4b06" x="275.018749" y="85.656036" style="fill: #ff7f00; stroke: #ff7f00"/>
     <use xlink:href="#ma35aea4b06" x="279.14799" y="83.434929" style="fill: #ff7f00; stroke: #ff7f00"/>
     <use xlink:href="#ma35aea4b06" x="283.277231" y="80.488916" style="fill: #ff7f00; stroke: #ff7f00"/>
     <use xlink:href="#ma35aea4b06" x="287.406472" y="78.343198" style="fill: #ff7f00; stroke: #ff7f00"/>
     <use xlink:href="#ma35aea4b06" x="291.535713" y="75.698746" style="fill: #ff7f00; stroke: #ff7f00"/>
     <use xlink:href="#ma35aea4b06" x="295.664954" y="74.318528" style="fill: #ff7f00; stroke: #ff7f00"/>
     <use xlink:href="#ma35aea4b06" x="299.794195" y="71.906045" style="fill: #ff7f00; stroke: #ff7f00"/>
     <use xlink:href="#ma35aea4b06" x="303.923436" y="71.001364" style="fill: #ff7f00; stroke: #ff7f00"/>
     <use xlink:href="#ma35aea4b06" x="308.052677" y="68.113344" style="fill: #ff7f00; stroke: #ff7f00"/>
     <use xlink:href="#ma35aea4b06" x="312.181918" y="67.545019" style="fill: #ff7f00; stroke: #ff7f00"/>
     <use xlink:href="#ma35aea4b06" x="316.311159" y="65.805248" style="fill: #ff7f00; stroke: #ff7f00"/>
     <use xlink:href="#ma35aea4b06" x="320.4404" y="64.274249" style="fill: #ff7f00; stroke: #ff7f00"/>
     <use xlink:href="#ma35aea4b06" x="324.569641" y="63.35797" style="fill: #ff7f00; stroke: #ff7f00"/>
     <use xlink:href="#ma35aea4b06" x="328.698882" y="62.244516" style="fill: #ff7f00; stroke: #ff7f00"/>
     <use xlink:href="#ma35aea4b06" x="332.828123" y="60.725116" style="fill: #ff7f00; stroke: #ff7f00"/>
     <use xlink:href="#ma35aea4b06" x="336.957364" y="59.913223" style="fill: #ff7f00; stroke: #ff7f00"/>
     <use xlink:href="#ma35aea4b06" x="341.086605" y="58.880959" style="fill: #ff7f00; stroke: #ff7f00"/>
     <use xlink:href="#ma35aea4b06" x="345.215847" y="58.359027" style="fill: #ff7f00; stroke: #ff7f00"/>
     <use xlink:href="#ma35aea4b06" x="349.345088" y="57.605127" style="fill: #ff7f00; stroke: #ff7f00"/>
     <use xlink:href="#ma35aea4b06" x="353.474329" y="57.083195" style="fill: #ff7f00; stroke: #ff7f00"/>
     <use xlink:href="#ma35aea4b06" x="357.60357" y="56.004537" style="fill: #ff7f00; stroke: #ff7f00"/>
     <use xlink:href="#ma35aea4b06" x="361.732811" y="55.737772" style="fill: #ff7f00; stroke: #ff7f00"/>
     <use xlink:href="#ma35aea4b06" x="365.862052" y="55.331826" style="fill: #ff7f00; stroke: #ff7f00"/>
     <use xlink:href="#ma35aea4b06" x="369.991293" y="54.659114" style="fill: #ff7f00; stroke: #ff7f00"/>
     <use xlink:href="#ma35aea4b06" x="374.120534" y="54.403948" style="fill: #ff7f00; stroke: #ff7f00"/>
     <use xlink:href="#ma35aea4b06" x="378.249775" y="53.580456" style="fill: #ff7f00; stroke: #ff7f00"/>
     <use xlink:href="#ma35aea4b06" x="382.379016" y="52.988934" style="fill: #ff7f00; stroke: #ff7f00"/>
     <use xlink:href="#ma35aea4b06" x="386.508257" y="53.070123" style="fill: #ff7f00; stroke: #ff7f00"/>
     <use xlink:href="#ma35aea4b06" x="390.637498" y="52.664177" style="fill: #ff7f00; stroke: #ff7f00"/>
     <use xlink:href="#ma35aea4b06" x="394.766739" y="52.374215" style="fill: #ff7f00; stroke: #ff7f00"/>
     <use xlink:href="#ma35aea4b06" x="398.89598" y="51.933473" style="fill: #ff7f00; stroke: #ff7f00"/>
     <use xlink:href="#ma35aea4b06" x="403.025221" y="51.991465" style="fill: #ff7f00; stroke: #ff7f00"/>
     <use xlink:href="#ma35aea4b06" x="407.154462" y="51.898677" style="fill: #ff7f00; stroke: #ff7f00"/>
     <use xlink:href="#ma35aea4b06" x="411.283703" y="51.817488" style="fill: #ff7f00; stroke: #ff7f00"/>
     <use xlink:href="#ma35aea4b06" x="415.412944" y="51.515928" style="fill: #ff7f00; stroke: #ff7f00"/>
     <use xlink:href="#ma35aea4b06" x="419.542185" y="51.167973" style="fill: #ff7f00; stroke: #ff7f00"/>
     <use xlink:href="#ma35aea4b06" x="423.671426" y="51.156375" style="fill: #ff7f00; stroke: #ff7f00"/>
     <use xlink:href="#ma35aea4b06" x="427.800667" y="50.970799" style="fill: #ff7f00; stroke: #ff7f00"/>
     <use xlink:href="#ma35aea4b06" x="431.929909" y="50.820019" style="fill: #ff7f00; stroke: #ff7f00"/>
     <use xlink:href="#ma35aea4b06" x="436.05915" y="50.808421" style="fill: #ff7f00; stroke: #ff7f00"/>
     <use xlink:href="#ma35aea4b06" x="440.188391" y="50.634444" style="fill: #ff7f00; stroke: #ff7f00"/>
     <use xlink:href="#ma35aea4b06" x="444.317632" y="50.530057" style="fill: #ff7f00; stroke: #ff7f00"/>
     <use xlink:href="#ma35aea4b06" x="448.446873" y="50.495262" style="fill: #ff7f00; stroke: #ff7f00"/>
     <use xlink:href="#ma35aea4b06" x="452.576114" y="50.321285" style="fill: #ff7f00; stroke: #ff7f00"/>
     <use xlink:href="#ma35aea4b06" x="456.705355" y="50.518459" style="fill: #ff7f00; stroke: #ff7f00"/>
     <use xlink:href="#ma35aea4b06" x="460.834596" y="50.379277" style="fill: #ff7f00; stroke: #ff7f00"/>
     <use xlink:href="#ma35aea4b06" x="464.963837" y="50.271991" style="fill: #ff7f00; stroke: #ff7f00"/>
     <use xlink:href="#ma35aea4b06" x="469.093078" y="50.170505" style="fill: #ff7f00; stroke: #ff7f00"/>
     <use xlink:href="#ma35aea4b06" x="473.222319" y="50.193702" style="fill: #ff7f00; stroke: #ff7f00"/>
     <use xlink:href="#ma35aea4b06" x="477.35156" y="50.251694" style="fill: #ff7f00; stroke: #ff7f00"/>
     <use xlink:href="#ma35aea4b06" x="481.480801" y="50.193702" style="fill: #ff7f00; stroke: #ff7f00"/>
     <use xlink:href="#ma35aea4b06" x="485.610042" y="50.112512" style="fill: #ff7f00; stroke: #ff7f00"/>
     <use xlink:href="#ma35aea4b06" x="489.739283" y="50.182103" style="fill: #ff7f00; stroke: #ff7f00"/>
     <use xlink:href="#ma35aea4b06" x="493.868524" y="50.066118" style="fill: #ff7f00; stroke: #ff7f00"/>
     <use xlink:href="#ma35aea4b06" x="497.997765" y="50.042921" style="fill: #ff7f00; stroke: #ff7f00"/>
     <use xlink:href="#ma35aea4b06" x="502.127006" y="50.124111" style="fill: #ff7f00; stroke: #ff7f00"/>
     <use xlink:href="#ma35aea4b06" x="506.256247" y="50.019724" style="fill: #ff7f00; stroke: #ff7f00"/>
     <use xlink:href="#ma35aea4b06" x="510.385488" y="50.05452" style="fill: #ff7f00; stroke: #ff7f00"/>
     <use xlink:href="#ma35aea4b06" x="514.514729" y="50.042921" style="fill: #ff7f00; stroke: #ff7f00"/>
     <use xlink:href="#ma35aea4b06" x="518.643971" y="50.05452" style="fill: #ff7f00; stroke: #ff7f00"/>
     <use xlink:href="#ma35aea4b06" x="522.773212" y="49.996527" style="fill: #ff7f00; stroke: #ff7f00"/>
     <use xlink:href="#ma35aea4b06" x="526.902453" y="50.031323" style="fill: #ff7f00; stroke: #ff7f00"/>
     <use xlink:href="#ma35aea4b06" x="531.031694" y="50.008126" style="fill: #ff7f00; stroke: #ff7f00"/>
     <use xlink:href="#ma35aea4b06" x="535.160935" y="49.996527" style="fill: #ff7f00; stroke: #ff7f00"/>
     <use xlink:href="#ma35aea4b06" x="539.290176" y="50.008126" style="fill: #ff7f00; stroke: #ff7f00"/>
     <use xlink:href="#ma35aea4b06" x="543.419417" y="49.993628" style="fill: #ff7f00; stroke: #ff7f00"/>
     <use xlink:href="#ma35aea4b06" x="580.582586" y="49.984929" style="fill: #ff7f00; stroke: #ff7f00"/>
     <use xlink:href="#ma35aea4b06" x="621.874997" y="49.993628" style="fill: #ff7f00; stroke: #ff7f00"/>
     <use xlink:href="#ma35aea4b06" x="659.038166" y="49.984929" style="fill: #ff7f00; stroke: #ff7f00"/>
     <use xlink:href="#ma35aea4b06" x="696.201336" y="49.984929" style="fill: #ff7f00; stroke: #ff7f00"/>
     <use xlink:href="#ma35aea4b06" x="733.364505" y="49.984929" style="fill: #ff7f00; stroke: #ff7f00"/>
     <use xlink:href="#ma35aea4b06" x="774.656916" y="49.984929" style="fill: #ff7f00; stroke: #ff7f00"/>
     <use xlink:href="#ma35aea4b06" x="811.820085" y="49.984929" style="fill: #ff7f00; stroke: #ff7f00"/>
    </g>
   </g>
   <g id="line2d_28">
    <path d="M 45.522835 268.75535 
L 52.489173 395.410689 
L 61.197097 397.6028 
L 66.421851 397.15046 
L 68.163435 396.860498 
L 69.90502 396.419756 
L 71.646605 395.561469 
L 73.388189 395.109128 
L 75.129774 394.053667 
L 76.871359 393.369357 
L 78.612943 392.441479 
L 80.354528 391.328026 
L 82.096113 389.681042 
L 83.837697 389.066323 
L 85.579282 385.934735 
L 87.320866 385.006857 
L 89.062451 383.232291 
L 90.804036 380.019513 
L 92.54562 378.569704 
L 94.287205 375.159753 
L 96.02879 372.874853 
L 97.770374 369.383712 
L 99.511959 366.704465 
L 101.253544 363.607672 
L 104.736713 356.103459 
L 106.478298 353.064659 
L 109.961467 345.711227 
L 113.444636 337.209545 
L 115.186221 334.692676 
L 116.927806 329.600946 
L 118.66939 324.938359 
L 120.410975 320.936886 
L 123.894144 312.064053 
L 125.635729 306.137232 
L 130.860483 292.068283 
L 132.602068 287.98562 
L 134.343652 282.221179 
L 136.085237 278.115319 
L 137.826822 271.040249 
L 139.568406 268.569774 
L 141.309991 264.208748 
L 143.051576 260.682812 
L 144.79316 255.939036 
L 146.534745 250.394965 
L 148.27633 247.611331 
L 151.759499 234.31948 
L 153.501084 231.303877 
L 155.242668 227.777941 
L 156.984253 223.21974 
L 158.725838 218.151207 
L 160.467422 214.602074 
L 162.209007 209.243579 
L 163.950592 204.720174 
L 165.692176 202.110517 
L 167.433761 197.204362 
L 169.175346 193.782813 
L 170.91693 191.567504 
L 172.658515 185.36232 
L 174.400099 180.42137 
L 177.883269 176.24592 
L 179.624853 172.116863 
L 181.366438 169.263638 
L 183.108023 164.751832 
L 184.849607 160.727161 
L 186.591192 158.511852 
L 188.332777 154.127629 
L 190.074361 151.564366 
L 191.815946 148.687945 
L 193.557531 145.579554 
L 195.299115 142.958298 
L 197.0407 139.409165 
L 198.782285 138.133333 
L 200.523869 132.658853 
L 202.265454 130.895885 
L 204.007039 128.135448 
L 205.748623 126.047723 
L 207.490208 124.655906 
L 209.231793 121.060379 
L 210.973377 117.882397 
L 214.456547 113.301 
L 216.198131 111.433645 
L 217.939716 109.960639 
L 221.422885 105.425636 
L 223.16447 104.532553 
L 224.906055 103.163933 
L 228.389224 98.222983 
L 230.130809 97.851832 
L 233.613978 92.910882 
L 235.355563 90.56799 
L 237.097147 91.287096 
L 238.838732 90.370816 
L 240.580317 86.624509 
L 242.321901 85.940199 
L 244.063486 85.661836 
L 245.805071 83.202959 
L 247.546655 83.179762 
L 249.28824 79.908993 
L 251.029825 80.024977 
L 252.771409 78.992713 
L 273.670425 68.588882 
L 305.018949 58.33583 
L 311.985288 56.874423 
L 350.30015 52.188639 
L 392.098182 50.669239 
L 426.929875 50.2053 
L 466.986322 50.031323 
L 581.93091 49.984929 
L 811.820085 49.984929 
L 811.820085 49.984929 
" clip-path="url(#p8dc24814db)" style="fill: none; stroke: #a65628; stroke-width: 2; stroke-linecap: square"/>
    <defs>
     <path id="me5366311b4" d="M 0 2 
C 0.530406 2 1.03916 1.789267 1.414214 1.414214 
C 1.789267 1.03916 2 0.530406 2 0 
C 2 -0.530406 1.789267 -1.03916 1.414214 -1.414214 
C 1.03916 -1.789267 0.530406 -2 0 -2 
C -0.530406 -2 -1.03916 -1.789267 -1.414214 -1.414214 
C -1.789267 -1.03916 -2 -0.530406 -2 0 
C -2 0.530406 -1.789267 1.03916 -1.414214 1.414214 
C -1.03916 1.789267 -0.530406 2 0 2 
z
" style="stroke: #a65628"/>
    </defs>
    <g clip-path="url(#p8dc24814db)">
     <use xlink:href="#me5366311b4" x="45.522835" y="268.75535" style="fill: #a65628; stroke: #a65628"/>
     <use xlink:href="#me5366311b4" x="52.489173" y="395.410689" style="fill: #a65628; stroke: #a65628"/>
     <use xlink:href="#me5366311b4" x="61.197097" y="397.6028" style="fill: #a65628; stroke: #a65628"/>
     <use xlink:href="#me5366311b4" x="66.421851" y="397.15046" style="fill: #a65628; stroke: #a65628"/>
     <use xlink:href="#me5366311b4" x="68.163435" y="396.860498" style="fill: #a65628; stroke: #a65628"/>
     <use xlink:href="#me5366311b4" x="69.90502" y="396.419756" style="fill: #a65628; stroke: #a65628"/>
     <use xlink:href="#me5366311b4" x="71.646605" y="395.561469" style="fill: #a65628; stroke: #a65628"/>
     <use xlink:href="#me5366311b4" x="73.388189" y="395.109128" style="fill: #a65628; stroke: #a65628"/>
     <use xlink:href="#me5366311b4" x="75.129774" y="394.053667" style="fill: #a65628; stroke: #a65628"/>
     <use xlink:href="#me5366311b4" x="76.871359" y="393.369357" style="fill: #a65628; stroke: #a65628"/>
     <use xlink:href="#me5366311b4" x="78.612943" y="392.441479" style="fill: #a65628; stroke: #a65628"/>
     <use xlink:href="#me5366311b4" x="80.354528" y="391.328026" style="fill: #a65628; stroke: #a65628"/>
     <use xlink:href="#me5366311b4" x="82.096113" y="389.681042" style="fill: #a65628; stroke: #a65628"/>
     <use xlink:href="#me5366311b4" x="83.837697" y="389.066323" style="fill: #a65628; stroke: #a65628"/>
     <use xlink:href="#me5366311b4" x="85.579282" y="385.934735" style="fill: #a65628; stroke: #a65628"/>
     <use xlink:href="#me5366311b4" x="87.320866" y="385.006857" style="fill: #a65628; stroke: #a65628"/>
     <use xlink:href="#me5366311b4" x="89.062451" y="383.232291" style="fill: #a65628; stroke: #a65628"/>
     <use xlink:href="#me5366311b4" x="90.804036" y="380.019513" style="fill: #a65628; stroke: #a65628"/>
     <use xlink:href="#me5366311b4" x="92.54562" y="378.569704" style="fill: #a65628; stroke: #a65628"/>
     <use xlink:href="#me5366311b4" x="94.287205" y="375.159753" style="fill: #a65628; stroke: #a65628"/>
     <use xlink:href="#me5366311b4" x="96.02879" y="372.874853" style="fill: #a65628; stroke: #a65628"/>
     <use xlink:href="#me5366311b4" x="97.770374" y="369.383712" style="fill: #a65628; stroke: #a65628"/>
     <use xlink:href="#me5366311b4" x="99.511959" y="366.704465" style="fill: #a65628; stroke: #a65628"/>
     <use xlink:href="#me5366311b4" x="101.253544" y="363.607672" style="fill: #a65628; stroke: #a65628"/>
     <use xlink:href="#me5366311b4" x="102.995128" y="359.82657" style="fill: #a65628; stroke: #a65628"/>
     <use xlink:href="#me5366311b4" x="104.736713" y="356.103459" style="fill: #a65628; stroke: #a65628"/>
     <use xlink:href="#me5366311b4" x="106.478298" y="353.064659" style="fill: #a65628; stroke: #a65628"/>
     <use xlink:href="#me5366311b4" x="108.219882" y="349.492329" style="fill: #a65628; stroke: #a65628"/>
     <use xlink:href="#me5366311b4" x="109.961467" y="345.711227" style="fill: #a65628; stroke: #a65628"/>
     <use xlink:href="#me5366311b4" x="111.703052" y="341.419791" style="fill: #a65628; stroke: #a65628"/>
     <use xlink:href="#me5366311b4" x="113.444636" y="337.209545" style="fill: #a65628; stroke: #a65628"/>
     <use xlink:href="#me5366311b4" x="115.186221" y="334.692676" style="fill: #a65628; stroke: #a65628"/>
     <use xlink:href="#me5366311b4" x="116.927806" y="329.600946" style="fill: #a65628; stroke: #a65628"/>
     <use xlink:href="#me5366311b4" x="118.66939" y="324.938359" style="fill: #a65628; stroke: #a65628"/>
     <use xlink:href="#me5366311b4" x="120.410975" y="320.936886" style="fill: #a65628; stroke: #a65628"/>
     <use xlink:href="#me5366311b4" x="122.15256" y="316.517867" style="fill: #a65628; stroke: #a65628"/>
     <use xlink:href="#me5366311b4" x="123.894144" y="312.064053" style="fill: #a65628; stroke: #a65628"/>
     <use xlink:href="#me5366311b4" x="125.635729" y="306.137232" style="fill: #a65628; stroke: #a65628"/>
     <use xlink:href="#me5366311b4" x="127.377314" y="301.509441" style="fill: #a65628; stroke: #a65628"/>
     <use xlink:href="#me5366311b4" x="129.118898" y="297.090423" style="fill: #a65628; stroke: #a65628"/>
     <use xlink:href="#me5366311b4" x="130.860483" y="292.068283" style="fill: #a65628; stroke: #a65628"/>
     <use xlink:href="#me5366311b4" x="132.602068" y="287.98562" style="fill: #a65628; stroke: #a65628"/>
     <use xlink:href="#me5366311b4" x="134.343652" y="282.221179" style="fill: #a65628; stroke: #a65628"/>
     <use xlink:href="#me5366311b4" x="136.085237" y="278.115319" style="fill: #a65628; stroke: #a65628"/>
     <use xlink:href="#me5366311b4" x="137.826822" y="271.040249" style="fill: #a65628; stroke: #a65628"/>
     <use xlink:href="#me5366311b4" x="139.568406" y="268.569774" style="fill: #a65628; stroke: #a65628"/>
     <use xlink:href="#me5366311b4" x="141.309991" y="264.208748" style="fill: #a65628; stroke: #a65628"/>
     <use xlink:href="#me5366311b4" x="143.051576" y="260.682812" style="fill: #a65628; stroke: #a65628"/>
     <use xlink:href="#me5366311b4" x="144.79316" y="255.939036" style="fill: #a65628; stroke: #a65628"/>
     <use xlink:href="#me5366311b4" x="146.534745" y="250.394965" style="fill: #a65628; stroke: #a65628"/>
     <use xlink:href="#me5366311b4" x="148.27633" y="247.611331" style="fill: #a65628; stroke: #a65628"/>
     <use xlink:href="#me5366311b4" x="150.017914" y="241.139383" style="fill: #a65628; stroke: #a65628"/>
     <use xlink:href="#me5366311b4" x="151.759499" y="234.31948" style="fill: #a65628; stroke: #a65628"/>
     <use xlink:href="#me5366311b4" x="153.501084" y="231.303877" style="fill: #a65628; stroke: #a65628"/>
     <use xlink:href="#me5366311b4" x="155.242668" y="227.777941" style="fill: #a65628; stroke: #a65628"/>
     <use xlink:href="#me5366311b4" x="156.984253" y="223.21974" style="fill: #a65628; stroke: #a65628"/>
     <use xlink:href="#me5366311b4" x="158.725838" y="218.151207" style="fill: #a65628; stroke: #a65628"/>
     <use xlink:href="#me5366311b4" x="160.467422" y="214.602074" style="fill: #a65628; stroke: #a65628"/>
     <use xlink:href="#me5366311b4" x="162.209007" y="209.243579" style="fill: #a65628; stroke: #a65628"/>
     <use xlink:href="#me5366311b4" x="163.950592" y="204.720174" style="fill: #a65628; stroke: #a65628"/>
     <use xlink:href="#me5366311b4" x="165.692176" y="202.110517" style="fill: #a65628; stroke: #a65628"/>
     <use xlink:href="#me5366311b4" x="167.433761" y="197.204362" style="fill: #a65628; stroke: #a65628"/>
     <use xlink:href="#me5366311b4" x="169.175346" y="193.782813" style="fill: #a65628; stroke: #a65628"/>
     <use xlink:href="#me5366311b4" x="170.91693" y="191.567504" style="fill: #a65628; stroke: #a65628"/>
     <use xlink:href="#me5366311b4" x="172.658515" y="185.36232" style="fill: #a65628; stroke: #a65628"/>
     <use xlink:href="#me5366311b4" x="174.400099" y="180.42137" style="fill: #a65628; stroke: #a65628"/>
     <use xlink:href="#me5366311b4" x="176.141684" y="178.275653" style="fill: #a65628; stroke: #a65628"/>
     <use xlink:href="#me5366311b4" x="177.883269" y="176.24592" style="fill: #a65628; stroke: #a65628"/>
     <use xlink:href="#me5366311b4" x="179.624853" y="172.116863" style="fill: #a65628; stroke: #a65628"/>
     <use xlink:href="#me5366311b4" x="181.366438" y="169.263638" style="fill: #a65628; stroke: #a65628"/>
     <use xlink:href="#me5366311b4" x="183.108023" y="164.751832" style="fill: #a65628; stroke: #a65628"/>
     <use xlink:href="#me5366311b4" x="184.849607" y="160.727161" style="fill: #a65628; stroke: #a65628"/>
     <use xlink:href="#me5366311b4" x="186.591192" y="158.511852" style="fill: #a65628; stroke: #a65628"/>
     <use xlink:href="#me5366311b4" x="188.332777" y="154.127629" style="fill: #a65628; stroke: #a65628"/>
     <use xlink:href="#me5366311b4" x="190.074361" y="151.564366" style="fill: #a65628; stroke: #a65628"/>
     <use xlink:href="#me5366311b4" x="191.815946" y="148.687945" style="fill: #a65628; stroke: #a65628"/>
     <use xlink:href="#me5366311b4" x="193.557531" y="145.579554" style="fill: #a65628; stroke: #a65628"/>
     <use xlink:href="#me5366311b4" x="195.299115" y="142.958298" style="fill: #a65628; stroke: #a65628"/>
     <use xlink:href="#me5366311b4" x="197.0407" y="139.409165" style="fill: #a65628; stroke: #a65628"/>
     <use xlink:href="#me5366311b4" x="198.782285" y="138.133333" style="fill: #a65628; stroke: #a65628"/>
     <use xlink:href="#me5366311b4" x="200.523869" y="132.658853" style="fill: #a65628; stroke: #a65628"/>
     <use xlink:href="#me5366311b4" x="202.265454" y="130.895885" style="fill: #a65628; stroke: #a65628"/>
     <use xlink:href="#me5366311b4" x="204.007039" y="128.135448" style="fill: #a65628; stroke: #a65628"/>
     <use xlink:href="#me5366311b4" x="205.748623" y="126.047723" style="fill: #a65628; stroke: #a65628"/>
     <use xlink:href="#me5366311b4" x="207.490208" y="124.655906" style="fill: #a65628; stroke: #a65628"/>
     <use xlink:href="#me5366311b4" x="209.231793" y="121.060379" style="fill: #a65628; stroke: #a65628"/>
     <use xlink:href="#me5366311b4" x="210.973377" y="117.882397" style="fill: #a65628; stroke: #a65628"/>
     <use xlink:href="#me5366311b4" x="212.714962" y="115.562702" style="fill: #a65628; stroke: #a65628"/>
     <use xlink:href="#me5366311b4" x="214.456547" y="113.301" style="fill: #a65628; stroke: #a65628"/>
     <use xlink:href="#me5366311b4" x="216.198131" y="111.433645" style="fill: #a65628; stroke: #a65628"/>
     <use xlink:href="#me5366311b4" x="217.939716" y="109.960639" style="fill: #a65628; stroke: #a65628"/>
     <use xlink:href="#me5366311b4" x="219.681301" y="107.617747" style="fill: #a65628; stroke: #a65628"/>
     <use xlink:href="#me5366311b4" x="221.422885" y="105.425636" style="fill: #a65628; stroke: #a65628"/>
     <use xlink:href="#me5366311b4" x="223.16447" y="104.532553" style="fill: #a65628; stroke: #a65628"/>
     <use xlink:href="#me5366311b4" x="224.906055" y="103.163933" style="fill: #a65628; stroke: #a65628"/>
     <use xlink:href="#me5366311b4" x="226.647639" y="100.612269" style="fill: #a65628; stroke: #a65628"/>
     <use xlink:href="#me5366311b4" x="228.389224" y="98.222983" style="fill: #a65628; stroke: #a65628"/>
     <use xlink:href="#me5366311b4" x="230.130809" y="97.851832" style="fill: #a65628; stroke: #a65628"/>
     <use xlink:href="#me5366311b4" x="231.872393" y="95.35816" style="fill: #a65628; stroke: #a65628"/>
     <use xlink:href="#me5366311b4" x="233.613978" y="92.910882" style="fill: #a65628; stroke: #a65628"/>
     <use xlink:href="#me5366311b4" x="235.355563" y="90.56799" style="fill: #a65628; stroke: #a65628"/>
     <use xlink:href="#me5366311b4" x="237.097147" y="91.287096" style="fill: #a65628; stroke: #a65628"/>
     <use xlink:href="#me5366311b4" x="238.838732" y="90.370816" style="fill: #a65628; stroke: #a65628"/>
     <use xlink:href="#me5366311b4" x="240.580317" y="86.624509" style="fill: #a65628; stroke: #a65628"/>
     <use xlink:href="#me5366311b4" x="242.321901" y="85.940199" style="fill: #a65628; stroke: #a65628"/>
     <use xlink:href="#me5366311b4" x="244.063486" y="85.661836" style="fill: #a65628; stroke: #a65628"/>
     <use xlink:href="#me5366311b4" x="245.805071" y="83.202959" style="fill: #a65628; stroke: #a65628"/>
     <use xlink:href="#me5366311b4" x="247.546655" y="83.179762" style="fill: #a65628; stroke: #a65628"/>
     <use xlink:href="#me5366311b4" x="249.28824" y="79.908993" style="fill: #a65628; stroke: #a65628"/>
     <use xlink:href="#me5366311b4" x="251.029825" y="80.024977" style="fill: #a65628; stroke: #a65628"/>
     <use xlink:href="#me5366311b4" x="252.771409" y="78.992713" style="fill: #a65628; stroke: #a65628"/>
     <use xlink:href="#me5366311b4" x="273.670425" y="68.588882" style="fill: #a65628; stroke: #a65628"/>
     <use xlink:href="#me5366311b4" x="305.018949" y="58.33583" style="fill: #a65628; stroke: #a65628"/>
     <use xlink:href="#me5366311b4" x="311.985288" y="56.874423" style="fill: #a65628; stroke: #a65628"/>
     <use xlink:href="#me5366311b4" x="350.30015" y="52.188639" style="fill: #a65628; stroke: #a65628"/>
     <use xlink:href="#me5366311b4" x="388.615013" y="50.715633" style="fill: #a65628; stroke: #a65628"/>
     <use xlink:href="#me5366311b4" x="392.098182" y="50.669239" style="fill: #a65628; stroke: #a65628"/>
     <use xlink:href="#me5366311b4" x="426.929875" y="50.2053" style="fill: #a65628; stroke: #a65628"/>
     <use xlink:href="#me5366311b4" x="466.986322" y="50.031323" style="fill: #a65628; stroke: #a65628"/>
     <use xlink:href="#me5366311b4" x="505.301185" y="49.984929" style="fill: #a65628; stroke: #a65628"/>
     <use xlink:href="#me5366311b4" x="543.616047" y="49.984929" style="fill: #a65628; stroke: #a65628"/>
     <use xlink:href="#me5366311b4" x="581.93091" y="49.984929" style="fill: #a65628; stroke: #a65628"/>
     <use xlink:href="#me5366311b4" x="620.245772" y="49.984929" style="fill: #a65628; stroke: #a65628"/>
     <use xlink:href="#me5366311b4" x="658.560635" y="49.984929" style="fill: #a65628; stroke: #a65628"/>
     <use xlink:href="#me5366311b4" x="696.875497" y="49.984929" style="fill: #a65628; stroke: #a65628"/>
     <use xlink:href="#me5366311b4" x="735.19036" y="49.984929" style="fill: #a65628; stroke: #a65628"/>
     <use xlink:href="#me5366311b4" x="773.505222" y="49.984929" style="fill: #a65628; stroke: #a65628"/>
     <use xlink:href="#me5366311b4" x="811.820085" y="49.984929" style="fill: #a65628; stroke: #a65628"/>
    </g>
   </g>
   <g id="line2d_29">
    <path d="M 44.537194 268.442191 
L 58.900125 397.730384 
L 74.018999 393.438948 
L 82.33438 385.424402 
L 89.137874 375.902055 
L 119.375624 299.955246 
L 120.887511 295.431841 
L 158.684698 186.093024 
L 197.237828 109.995435 
L 235.790959 73.321059 
L 274.344089 57.431149 
L 312.89722 52.269828 
L 350.694406 50.680837 
L 389.247537 50.158906 
L 427.800667 49.996527 
L 466.353798 49.984929 
L 504.906928 49.984929 
L 542.704115 49.984929 
L 581.257246 49.984929 
L 619.810376 49.984929 
L 658.363507 49.984929 
L 696.916637 49.984929 
L 734.713824 49.984929 
L 773.266954 49.984929 
L 811.820085 49.984929 
" clip-path="url(#p8dc24814db)" style="fill: none; stroke: #999999; stroke-width: 2; stroke-linecap: square"/>
    <defs>
     <path id="m4c5f8b0fb5" d="M 0 2 
C 0.530406 2 1.03916 1.789267 1.414214 1.414214 
C 1.789267 1.03916 2 0.530406 2 0 
C 2 -0.530406 1.789267 -1.03916 1.414214 -1.414214 
C 1.03916 -1.789267 0.530406 -2 0 -2 
C -0.530406 -2 -1.03916 -1.789267 -1.414214 -1.414214 
C -1.789267 -1.03916 -2 -0.530406 -2 0 
C -2 0.530406 -1.789267 1.03916 -1.414214 1.414214 
C -1.03916 1.789267 -0.530406 2 0 2 
z
" style="stroke: #999999"/>
    </defs>
    <g clip-path="url(#p8dc24814db)">
     <use xlink:href="#m4c5f8b0fb5" x="44.537194" y="268.442191" style="fill: #999999; stroke: #999999"/>
     <use xlink:href="#m4c5f8b0fb5" x="58.900125" y="397.730384" style="fill: #999999; stroke: #999999"/>
     <use xlink:href="#m4c5f8b0fb5" x="74.018999" y="393.438948" style="fill: #999999; stroke: #999999"/>
     <use xlink:href="#m4c5f8b0fb5" x="82.33438" y="385.424402" style="fill: #999999; stroke: #999999"/>
     <use xlink:href="#m4c5f8b0fb5" x="89.137874" y="375.902055" style="fill: #999999; stroke: #999999"/>
     <use xlink:href="#m4c5f8b0fb5" x="119.375624" y="299.955246" style="fill: #999999; stroke: #999999"/>
     <use xlink:href="#m4c5f8b0fb5" x="120.887511" y="295.431841" style="fill: #999999; stroke: #999999"/>
     <use xlink:href="#m4c5f8b0fb5" x="158.684698" y="186.093024" style="fill: #999999; stroke: #999999"/>
     <use xlink:href="#m4c5f8b0fb5" x="197.237828" y="109.995435" style="fill: #999999; stroke: #999999"/>
     <use xlink:href="#m4c5f8b0fb5" x="235.790959" y="73.321059" style="fill: #999999; stroke: #999999"/>
     <use xlink:href="#m4c5f8b0fb5" x="274.344089" y="57.431149" style="fill: #999999; stroke: #999999"/>
     <use xlink:href="#m4c5f8b0fb5" x="312.89722" y="52.269828" style="fill: #999999; stroke: #999999"/>
     <use xlink:href="#m4c5f8b0fb5" x="350.694406" y="50.680837" style="fill: #999999; stroke: #999999"/>
     <use xlink:href="#m4c5f8b0fb5" x="389.247537" y="50.158906" style="fill: #999999; stroke: #999999"/>
     <use xlink:href="#m4c5f8b0fb5" x="427.800667" y="49.996527" style="fill: #999999; stroke: #999999"/>
     <use xlink:href="#m4c5f8b0fb5" x="466.353798" y="49.984929" style="fill: #999999; stroke: #999999"/>
     <use xlink:href="#m4c5f8b0fb5" x="504.906928" y="49.984929" style="fill: #999999; stroke: #999999"/>
     <use xlink:href="#m4c5f8b0fb5" x="542.704115" y="49.984929" style="fill: #999999; stroke: #999999"/>
     <use xlink:href="#m4c5f8b0fb5" x="581.257246" y="49.984929" style="fill: #999999; stroke: #999999"/>
     <use xlink:href="#m4c5f8b0fb5" x="619.810376" y="49.984929" style="fill: #999999; stroke: #999999"/>
     <use xlink:href="#m4c5f8b0fb5" x="658.363507" y="49.984929" style="fill: #999999; stroke: #999999"/>
     <use xlink:href="#m4c5f8b0fb5" x="696.916637" y="49.984929" style="fill: #999999; stroke: #999999"/>
     <use xlink:href="#m4c5f8b0fb5" x="734.713824" y="49.984929" style="fill: #999999; stroke: #999999"/>
     <use xlink:href="#m4c5f8b0fb5" x="773.266954" y="49.984929" style="fill: #999999; stroke: #999999"/>
     <use xlink:href="#m4c5f8b0fb5" x="811.820085" y="49.984929" style="fill: #999999; stroke: #999999"/>
    </g>
   </g>
   <g id="patch_3">
    <path d="M 43.78125 415.117656 
L 43.78125 32.597656 
" style="fill: none; stroke: #000000; stroke-width: 0.8; stroke-linejoin: miter; stroke-linecap: square"/>
   </g>
   <g id="patch_4">
    <path d="M 43.78125 415.117656 
L 834.86125 415.117656 
" style="fill: none; stroke: #000000; stroke-width: 0.8; stroke-linejoin: miter; stroke-linecap: square"/>
   </g>
   <g id="text_15">
    <!-- BCNF Rate vs FD Density -->
    <g transform="translate(333.885313 18.597656) scale(0.15 -0.15)">
     <defs>
      <path id="DejaVuSans-Bold-42" d="M 2456 2859 
Q 2741 2859 2887 2984 
Q 3034 3109 3034 3353 
Q 3034 3594 2887 3720 
Q 2741 3847 2456 3847 
L 1791 3847 
L 1791 2859 
L 2456 2859 
z
M 2497 819 
Q 2859 819 3042 972 
Q 3225 1125 3225 1434 
Q 3225 1738 3044 1889 
Q 2863 2041 2497 2041 
L 1791 2041 
L 1791 819 
L 2497 819 
z
M 3616 2497 
Q 4003 2384 4215 2081 
Q 4428 1778 4428 1338 
Q 4428 663 3972 331 
Q 3516 0 2584 0 
L 588 0 
L 588 4666 
L 2394 4666 
Q 3366 4666 3802 4372 
Q 4238 4078 4238 3431 
Q 4238 3091 4078 2852 
Q 3919 2613 3616 2497 
z
" transform="scale(0.015625)"/>
      <path id="DejaVuSans-Bold-43" d="M 4288 256 
Q 3956 84 3597 -3 
Q 3238 -91 2847 -91 
Q 1681 -91 1000 561 
Q 319 1213 319 2328 
Q 319 3447 1000 4098 
Q 1681 4750 2847 4750 
Q 3238 4750 3597 4662 
Q 3956 4575 4288 4403 
L 4288 3438 
Q 3953 3666 3628 3772 
Q 3303 3878 2944 3878 
Q 2300 3878 1931 3465 
Q 1563 3053 1563 2328 
Q 1563 1606 1931 1193 
Q 2300 781 2944 781 
Q 3303 781 3628 887 
Q 3953 994 4288 1222 
L 4288 256 
z
" transform="scale(0.015625)"/>
      <path id="DejaVuSans-Bold-4e" d="M 588 4666 
L 1931 4666 
L 3628 1466 
L 3628 4666 
L 4769 4666 
L 4769 0 
L 3425 0 
L 1728 3200 
L 1728 0 
L 588 0 
L 588 4666 
z
" transform="scale(0.015625)"/>
      <path id="DejaVuSans-Bold-46" d="M 588 4666 
L 3834 4666 
L 3834 3756 
L 1791 3756 
L 1791 2888 
L 3713 2888 
L 3713 1978 
L 1791 1978 
L 1791 0 
L 588 0 
L 588 4666 
z
" transform="scale(0.015625)"/>
      <path id="DejaVuSans-Bold-20" transform="scale(0.015625)"/>
      <path id="DejaVuSans-Bold-52" d="M 2297 2597 
Q 2675 2597 2839 2737 
Q 3003 2878 3003 3200 
Q 3003 3519 2839 3656 
Q 2675 3794 2297 3794 
L 1791 3794 
L 1791 2597 
L 2297 2597 
z
M 1791 1766 
L 1791 0 
L 588 0 
L 588 4666 
L 2425 4666 
Q 3347 4666 3776 4356 
Q 4206 4047 4206 3378 
Q 4206 2916 3982 2619 
Q 3759 2322 3309 2181 
Q 3556 2125 3751 1926 
Q 3947 1728 4147 1325 
L 4800 0 
L 3519 0 
L 2950 1159 
Q 2778 1509 2601 1637 
Q 2425 1766 2131 1766 
L 1791 1766 
z
" transform="scale(0.015625)"/>
      <path id="DejaVuSans-Bold-61" d="M 2106 1575 
Q 1756 1575 1579 1456 
Q 1403 1338 1403 1106 
Q 1403 894 1545 773 
Q 1688 653 1941 653 
Q 2256 653 2472 879 
Q 2688 1106 2688 1447 
L 2688 1575 
L 2106 1575 
z
M 3816 1997 
L 3816 0 
L 2688 0 
L 2688 519 
Q 2463 200 2181 54 
Q 1900 -91 1497 -91 
Q 953 -91 614 226 
Q 275 544 275 1050 
Q 275 1666 698 1953 
Q 1122 2241 2028 2241 
L 2688 2241 
L 2688 2328 
Q 2688 2594 2478 2717 
Q 2269 2841 1825 2841 
Q 1466 2841 1156 2769 
Q 847 2697 581 2553 
L 581 3406 
Q 941 3494 1303 3539 
Q 1666 3584 2028 3584 
Q 2975 3584 3395 3211 
Q 3816 2838 3816 1997 
z
" transform="scale(0.015625)"/>
      <path id="DejaVuSans-Bold-74" d="M 1759 4494 
L 1759 3500 
L 2913 3500 
L 2913 2700 
L 1759 2700 
L 1759 1216 
Q 1759 972 1856 886 
Q 1953 800 2241 800 
L 2816 800 
L 2816 0 
L 1856 0 
Q 1194 0 917 276 
Q 641 553 641 1216 
L 641 2700 
L 84 2700 
L 84 3500 
L 641 3500 
L 641 4494 
L 1759 4494 
z
" transform="scale(0.015625)"/>
      <path id="DejaVuSans-Bold-65" d="M 4031 1759 
L 4031 1441 
L 1416 1441 
Q 1456 1047 1700 850 
Q 1944 653 2381 653 
Q 2734 653 3104 758 
Q 3475 863 3866 1075 
L 3866 213 
Q 3469 63 3072 -14 
Q 2675 -91 2278 -91 
Q 1328 -91 801 392 
Q 275 875 275 1747 
Q 275 2603 792 3093 
Q 1309 3584 2216 3584 
Q 3041 3584 3536 3087 
Q 4031 2591 4031 1759 
z
M 2881 2131 
Q 2881 2450 2695 2645 
Q 2509 2841 2209 2841 
Q 1884 2841 1681 2658 
Q 1478 2475 1428 2131 
L 2881 2131 
z
" transform="scale(0.015625)"/>
      <path id="DejaVuSans-Bold-76" d="M 97 3500 
L 1216 3500 
L 2088 1081 
L 2956 3500 
L 4078 3500 
L 2700 0 
L 1472 0 
L 97 3500 
z
" transform="scale(0.015625)"/>
      <path id="DejaVuSans-Bold-73" d="M 3272 3391 
L 3272 2541 
Q 2913 2691 2578 2766 
Q 2244 2841 1947 2841 
Q 1628 2841 1473 2761 
Q 1319 2681 1319 2516 
Q 1319 2381 1436 2309 
Q 1553 2238 1856 2203 
L 2053 2175 
Q 2913 2066 3209 1816 
Q 3506 1566 3506 1031 
Q 3506 472 3093 190 
Q 2681 -91 1863 -91 
Q 1516 -91 1145 -36 
Q 775 19 384 128 
L 384 978 
Q 719 816 1070 734 
Q 1422 653 1784 653 
Q 2113 653 2278 743 
Q 2444 834 2444 1013 
Q 2444 1163 2330 1236 
Q 2216 1309 1875 1350 
L 1678 1375 
Q 931 1469 631 1722 
Q 331 1975 331 2491 
Q 331 3047 712 3315 
Q 1094 3584 1881 3584 
Q 2191 3584 2531 3537 
Q 2872 3491 3272 3391 
z
" transform="scale(0.015625)"/>
      <path id="DejaVuSans-Bold-44" d="M 1791 3756 
L 1791 909 
L 2222 909 
Q 2959 909 3348 1275 
Q 3738 1641 3738 2338 
Q 3738 3031 3350 3393 
Q 2963 3756 2222 3756 
L 1791 3756 
z
M 588 4666 
L 1856 4666 
Q 2919 4666 3439 4514 
Q 3959 4363 4331 4000 
Q 4659 3684 4818 3271 
Q 4978 2859 4978 2338 
Q 4978 1809 4818 1395 
Q 4659 981 4331 666 
Q 3956 303 3431 151 
Q 2906 0 1856 0 
L 588 0 
L 588 4666 
z
" transform="scale(0.015625)"/>
      <path id="DejaVuSans-Bold-6e" d="M 4056 2131 
L 4056 0 
L 2931 0 
L 2931 347 
L 2931 1631 
Q 2931 2084 2911 2256 
Q 2891 2428 2841 2509 
Q 2775 2619 2662 2680 
Q 2550 2741 2406 2741 
Q 2056 2741 1856 2470 
Q 1656 2200 1656 1722 
L 1656 0 
L 538 0 
L 538 3500 
L 1656 3500 
L 1656 2988 
Q 1909 3294 2193 3439 
Q 2478 3584 2822 3584 
Q 3428 3584 3742 3212 
Q 4056 2841 4056 2131 
z
" transform="scale(0.015625)"/>
      <path id="DejaVuSans-Bold-69" d="M 538 3500 
L 1656 3500 
L 1656 0 
L 538 0 
L 538 3500 
z
M 538 4863 
L 1656 4863 
L 1656 3950 
L 538 3950 
L 538 4863 
z
" transform="scale(0.015625)"/>
      <path id="DejaVuSans-Bold-79" d="M 78 3500 
L 1197 3500 
L 2138 1125 
L 2938 3500 
L 4056 3500 
L 2584 -331 
Q 2363 -916 2067 -1148 
Q 1772 -1381 1288 -1381 
L 641 -1381 
L 641 -647 
L 991 -647 
Q 1275 -647 1404 -556 
Q 1534 -466 1606 -231 
L 1638 -134 
L 78 3500 
z
" transform="scale(0.015625)"/>
     </defs>
     <use xlink:href="#DejaVuSans-Bold-42"/>
     <use xlink:href="#DejaVuSans-Bold-43" transform="translate(76.220703 0)"/>
     <use xlink:href="#DejaVuSans-Bold-4e" transform="translate(149.609375 0)"/>
     <use xlink:href="#DejaVuSans-Bold-46" transform="translate(233.300781 0)"/>
     <use xlink:href="#DejaVuSans-Bold-20" transform="translate(301.611328 0)"/>
     <use xlink:href="#DejaVuSans-Bold-52" transform="translate(336.425781 0)"/>
     <use xlink:href="#DejaVuSans-Bold-61" transform="translate(413.427734 0)"/>
     <use xlink:href="#DejaVuSans-Bold-74" transform="translate(480.908203 0)"/>
     <use xlink:href="#DejaVuSans-Bold-65" transform="translate(528.710938 0)"/>
     <use xlink:href="#DejaVuSans-Bold-20" transform="translate(596.533203 0)"/>
     <use xlink:href="#DejaVuSans-Bold-76" transform="translate(631.347656 0)"/>
     <use xlink:href="#DejaVuSans-Bold-73" transform="translate(696.533203 0)"/>
     <use xlink:href="#DejaVuSans-Bold-20" transform="translate(756.054688 0)"/>
     <use xlink:href="#DejaVuSans-Bold-46" transform="translate(790.869141 0)"/>
     <use xlink:href="#DejaVuSans-Bold-44" transform="translate(859.179688 0)"/>
     <use xlink:href="#DejaVuSans-Bold-20" transform="translate(942.1875 0)"/>
     <use xlink:href="#DejaVuSans-Bold-44" transform="translate(977.001953 0)"/>
     <use xlink:href="#DejaVuSans-Bold-65" transform="translate(1060.009766 0)"/>
     <use xlink:href="#DejaVuSans-Bold-6e" transform="translate(1127.832031 0)"/>
     <use xlink:href="#DejaVuSans-Bold-73" transform="translate(1199.023438 0)"/>
     <use xlink:href="#DejaVuSans-Bold-69" transform="translate(1258.544922 0)"/>
     <use xlink:href="#DejaVuSans-Bold-74" transform="translate(1292.822266 0)"/>
     <use xlink:href="#DejaVuSans-Bold-79" transform="translate(1340.625 0)"/>
    </g>
   </g>
   <g id="legend_1">
    <g id="text_16">
     <!-- Attributes -->
     <g transform="translate(87.178906 49.196094) scale(0.1 -0.1)">
      <defs>
       <path id="DejaVuSans-41" d="M 2188 4044 
L 1331 1722 
L 3047 1722 
L 2188 4044 
z
M 1831 4666 
L 2547 4666 
L 4325 0 
L 3669 0 
L 3244 1197 
L 1141 1197 
L 716 0 
L 50 0 
L 1831 4666 
z
" transform="scale(0.015625)"/>
       <path id="DejaVuSans-72" d="M 2631 2963 
Q 2534 3019 2420 3045 
Q 2306 3072 2169 3072 
Q 1681 3072 1420 2755 
Q 1159 2438 1159 1844 
L 1159 0 
L 581 0 
L 581 3500 
L 1159 3500 
L 1159 2956 
Q 1341 3275 1631 3429 
Q 1922 3584 2338 3584 
Q 2397 3584 2469 3576 
Q 2541 3569 2628 3553 
L 2631 2963 
z
" transform="scale(0.015625)"/>
       <path id="DejaVuSans-62" d="M 3116 1747 
Q 3116 2381 2855 2742 
Q 2594 3103 2138 3103 
Q 1681 3103 1420 2742 
Q 1159 2381 1159 1747 
Q 1159 1113 1420 752 
Q 1681 391 2138 391 
Q 2594 391 2855 752 
Q 3116 1113 3116 1747 
z
M 1159 2969 
Q 1341 3281 1617 3432 
Q 1894 3584 2278 3584 
Q 2916 3584 3314 3078 
Q 3713 2572 3713 1747 
Q 3713 922 3314 415 
Q 2916 -91 2278 -91 
Q 1894 -91 1617 61 
Q 1341 213 1159 525 
L 1159 0 
L 581 0 
L 581 4863 
L 1159 4863 
L 1159 2969 
z
" transform="scale(0.015625)"/>
       <path id="DejaVuSans-75" d="M 544 1381 
L 544 3500 
L 1119 3500 
L 1119 1403 
Q 1119 906 1312 657 
Q 1506 409 1894 409 
Q 2359 409 2629 706 
Q 2900 1003 2900 1516 
L 2900 3500 
L 3475 3500 
L 3475 0 
L 2900 0 
L 2900 538 
Q 2691 219 2414 64 
Q 2138 -91 1772 -91 
Q 1169 -91 856 284 
Q 544 659 544 1381 
z
M 1991 3584 
L 1991 3584 
z
" transform="scale(0.015625)"/>
      </defs>
      <use xlink:href="#DejaVuSans-41"/>
      <use xlink:href="#DejaVuSans-74" transform="translate(66.658203 0)"/>
      <use xlink:href="#DejaVuSans-74" transform="translate(105.867188 0)"/>
      <use xlink:href="#DejaVuSans-72" transform="translate(145.076172 0)"/>
      <use xlink:href="#DejaVuSans-69" transform="translate(186.189453 0)"/>
      <use xlink:href="#DejaVuSans-62" transform="translate(213.972656 0)"/>
      <use xlink:href="#DejaVuSans-75" transform="translate(277.449219 0)"/>
      <use xlink:href="#DejaVuSans-74" transform="translate(340.828125 0)"/>
      <use xlink:href="#DejaVuSans-65" transform="translate(380.037109 0)"/>
      <use xlink:href="#DejaVuSans-73" transform="translate(441.560547 0)"/>
     </g>
    </g>
    <g id="line2d_30">
     <path d="M 52.78125 60.374219 
L 62.78125 60.374219 
L 72.78125 60.374219 
" style="fill: none; stroke: #e41a1c; stroke-width: 2; stroke-linecap: square"/>
     <g>
      <use xlink:href="#m5e633b50f6" x="62.78125" y="60.374219" style="fill: #e41a1c; stroke: #e41a1c"/>
     </g>
    </g>
    <g id="text_17">
     <!-- n=4 -->
     <g transform="translate(80.78125 63.874219) scale(0.1 -0.1)">
      <defs>
       <path id="DejaVuSans-3d" d="M 678 2906 
L 4684 2906 
L 4684 2381 
L 678 2381 
L 678 2906 
z
M 678 1631 
L 4684 1631 
L 4684 1100 
L 678 1100 
L 678 1631 
z
" transform="scale(0.015625)"/>
      </defs>
      <use xlink:href="#DejaVuSans-6e"/>
      <use xlink:href="#DejaVuSans-3d" transform="translate(63.378906 0)"/>
      <use xlink:href="#DejaVuSans-34" transform="translate(147.167969 0)"/>
     </g>
    </g>
    <g id="line2d_31">
     <path d="M 52.78125 75.052344 
L 62.78125 75.052344 
L 72.78125 75.052344 
" style="fill: none; stroke: #4daf4a; stroke-width: 2; stroke-linecap: square"/>
     <g>
      <use xlink:href="#mec896c1647" x="62.78125" y="75.052344" style="fill: #4daf4a; stroke: #4daf4a"/>
     </g>
    </g>
    <g id="text_18">
     <!-- n=5 -->
     <g transform="translate(80.78125 78.552344) scale(0.1 -0.1)">
      <defs>
       <path id="DejaVuSans-35" d="M 691 4666 
L 3169 4666 
L 3169 4134 
L 1269 4134 
L 1269 2991 
Q 1406 3038 1543 3061 
Q 1681 3084 1819 3084 
Q 2600 3084 3056 2656 
Q 3513 2228 3513 1497 
Q 3513 744 3044 326 
Q 2575 -91 1722 -91 
Q 1428 -91 1123 -41 
Q 819 9 494 109 
L 494 744 
Q 775 591 1075 516 
Q 1375 441 1709 441 
Q 2250 441 2565 725 
Q 2881 1009 2881 1497 
Q 2881 1984 2565 2268 
Q 2250 2553 1709 2553 
Q 1456 2553 1204 2497 
Q 953 2441 691 2322 
L 691 4666 
z
" transform="scale(0.015625)"/>
      </defs>
      <use xlink:href="#DejaVuSans-6e"/>
      <use xlink:href="#DejaVuSans-3d" transform="translate(63.378906 0)"/>
      <use xlink:href="#DejaVuSans-35" transform="translate(147.167969 0)"/>
     </g>
    </g>
    <g id="line2d_32">
     <path d="M 52.78125 89.730469 
L 62.78125 89.730469 
L 72.78125 89.730469 
" style="fill: none; stroke: #ff7f00; stroke-width: 2; stroke-linecap: square"/>
     <g>
      <use xlink:href="#ma35aea4b06" x="62.78125" y="89.730469" style="fill: #ff7f00; stroke: #ff7f00"/>
     </g>
    </g>
    <g id="text_19">
     <!-- n=6 -->
     <g transform="translate(80.78125 93.230469) scale(0.1 -0.1)">
      <use xlink:href="#DejaVuSans-6e"/>
      <use xlink:href="#DejaVuSans-3d" transform="translate(63.378906 0)"/>
      <use xlink:href="#DejaVuSans-36" transform="translate(147.167969 0)"/>
     </g>
    </g>
    <g id="line2d_33">
     <path d="M 121.860938 60.374219 
L 131.860938 60.374219 
L 141.860938 60.374219 
" style="fill: none; stroke: #a65628; stroke-width: 2; stroke-linecap: square"/>
     <g>
      <use xlink:href="#me5366311b4" x="131.860938" y="60.374219" style="fill: #a65628; stroke: #a65628"/>
     </g>
    </g>
    <g id="text_20">
     <!-- n=7 -->
     <g transform="translate(149.860938 63.874219) scale(0.1 -0.1)">
      <defs>
       <path id="DejaVuSans-37" d="M 525 4666 
L 3525 4666 
L 3525 4397 
L 1831 0 
L 1172 0 
L 2766 4134 
L 525 4134 
L 525 4666 
z
" transform="scale(0.015625)"/>
      </defs>
      <use xlink:href="#DejaVuSans-6e"/>
      <use xlink:href="#DejaVuSans-3d" transform="translate(63.378906 0)"/>
      <use xlink:href="#DejaVuSans-37" transform="translate(147.167969 0)"/>
     </g>
    </g>
    <g id="line2d_34">
     <path d="M 121.860938 75.052344 
L 131.860938 75.052344 
L 141.860938 75.052344 
" style="fill: none; stroke: #999999; stroke-width: 2; stroke-linecap: square"/>
     <g>
      <use xlink:href="#m4c5f8b0fb5" x="131.860938" y="75.052344" style="fill: #999999; stroke: #999999"/>
     </g>
    </g>
    <g id="text_21">
     <!-- n=8 -->
     <g transform="translate(149.860938 78.552344) scale(0.1 -0.1)">
      <use xlink:href="#DejaVuSans-6e"/>
      <use xlink:href="#DejaVuSans-3d" transform="translate(63.378906 0)"/>
      <use xlink:href="#DejaVuSans-38" transform="translate(147.167969 0)"/>
     </g>
    </g>
   </g>
  </g>
 </g>
 <defs>
  <clipPath id="p8dc24814db">
   <rect x="43.78125" y="32.597656" width="791.08" height="382.52"/>
  </clipPath>
 </defs>
</svg>
